<?xml version="1.0" standalone="no"?>
<!DOCTYPE svg PUBLIC "-//W3C//DTD SVG 20010904//EN"
 "http://www.w3.org/TR/2001/REC-SVG-20010904/DTD/svg10.dtd">
<svg version="1.0" xmlns="http://www.w3.org/2000/svg"
 width="700.000000pt" height="700.000000pt" viewBox="0 0 700.000000 700.000000"
 preserveAspectRatio="xMidYMid meet">
<metadata>
Created by potrace 1.11, written by Peter Selinger 2001-2013
</metadata>
<g transform="translate(0.000000,700.000000) scale(0.100000,-0.100000)"
fill="#000000" stroke="none">
<path d="M4375 6045 c-222 -153 -476 -376 -590 -520 -21 -27 -44 -54 -50 -60
-53 -46 -295 -457 -295 -501 0 -10 -43 -24 -74 -24 -9 0 -8 23 5 88 10 48 25
139 34 202 9 63 18 129 21 145 11 62 13 383 2 445 -11 73 -44 143 -81 178 -31
30 -93 51 -127 45 -14 -3 -29 -6 -35 -7 -28 -5 -86 -34 -140 -69 -64 -43 -264
-238 -335 -328 -83 -105 -123 -227 -85 -259 27 -23 90 -5 159 44 137 98 240
263 216 346 -7 24 -4 32 23 57 57 51 154 110 191 117 68 13 105 -38 123 -169
9 -65 9 -246 -1 -326 -3 -27 -9 -73 -12 -101 -3 -29 -15 -109 -26 -177 -37
-233 -44 -259 -71 -267 -144 -42 -361 -135 -481 -206 l-60 -35 -49 82 c-110
186 -291 398 -422 497 -133 100 -220 133 -356 133 -90 0 -99 -2 -174 -39 -124
-61 -233 -183 -363 -403 -68 -115 -95 -258 -56 -297 50 -50 179 81 234 236 22
64 32 146 19 169 -7 13 6 33 56 87 153 165 297 197 479 105 151 -77 355 -297
503 -542 l51 -85 -37 -24 c-20 -13 -65 -50 -100 -81 -231 -201 -385 -419 -492
-691 l-37 -95 -71 -1 c-107 -2 -154 -19 -215 -78 -73 -70 -97 -136 -99 -271
-2 -130 7 -189 43 -297 73 -219 201 -393 343 -468 26 -14 38 -32 62 -96 117
-304 290 -553 515 -738 221 -183 582 -357 855 -412 142 -28 207 -37 365 -48
186 -14 262 -30 388 -82 90 -37 260 -124 331 -168 22 -15 42 -26 45 -26 2 0
34 -18 71 -41 99 -60 95 -63 68 53 -17 72 -25 135 -26 208 -2 99 0 109 30 170
73 150 159 262 382 495 166 174 272 340 391 610 39 89 93 310 108 440 15 136
6 367 -18 496 -6 30 -13 68 -16 84 -30 174 -147 441 -271 624 -35 51 -63 94
-61 96 2 1 28 15 58 30 123 62 246 151 338 245 95 97 136 161 213 335 40 92
56 349 27 445 l-14 45 -114 -1 c-116 -2 -275 -11 -340 -20 -221 -31 -409 -72
-536 -118 -39 -14 -74 -26 -77 -26 -3 0 -1 15 3 33 27 100 38 281 21 369 -26
138 -82 277 -149 368 -42 56 -114 130 -126 130 -6 -1 -47 -25 -91 -55z"/>
</g>
</svg>
