<?xml version="1.0" encoding="utf-8"?>
<!-- Generator: Adobe Illustrator 22.0.1, SVG Export Plug-In . SVG Version: 6.00 Build 0)  -->
<svg version="1.1" id="Layer_1" xmlns="http://www.w3.org/2000/svg" xmlns:xlink="http://www.w3.org/1999/xlink" x="0px" y="0px"
	 viewBox="0 0 378.4 395.8" style="enable-background:new 0 0 378.4 395.8;" xml:space="preserve">
<style type="text/css">
	.st0{fill:#FFFFFF;}
	.st1{fill:#4AB6A7;}
	.st2{fill:#E95070;}
	.st3{fill:#7AB84C;}
	.st4{fill:#C15997;}
	.st5{clip-path:url(#SVGID_2_);}
	.st6{fill:#62AEE1;}
	.st7{clip-path:url(#SVGID_4_);}
	.st8{fill:#F8C600;}
</style>
<g>
	<g>
		<path class="st0" d="M217.7,117.1l-0.2-0.5H217c-6.1-0.1-11,0.9-15.1,2.5c0.3-1.1,0.5-2.3,0.5-3.3c0.3-6.1-3.5-9.4-3.7-9.5
			l-0.5-0.4l-0.5,0.3c-8.3,5.3-12.5,11.3-14.6,16.5c-0.4,0.1-0.8,0.2-1.1,0.2c1.1-5.6,2.4-14.3-0.7-15.9c-1.8-0.9-4.4,0.7-8.2,5
			c-0.2,0.2-0.2,0.2-0.4,0.4c-1.5,1.7-2.2,3.5-1.5,4.1c0.7,0.6,2.4-0.3,3.8-2c1.5-1.7,2.2-3.5,1.5-4.1c0,0,0,0-0.1,0
			c2.6-2.4,3.7-2.3,4.1-2.1c1.9,1,1.1,8.6-0.2,15c-0.7,0.2-1.4,0.4-2,0.6c-2.3,0.8-4.4,1.8-6.2,3c-2-3.5-6.7-10.4-11.9-10.4h-0.1
			c-2.8,0.1-5.2,2-7.3,5.7c-0.3,0.4-0.6,0.9-0.9,1.4c-0.9,1.8-1.1,3.5-0.4,3.9c0.7,0.4,2-0.8,2.9-2.6c0.8-1.5,1-3,0.6-3.7
			c1.6-2.2,3.2-3.3,5-3.4h0.1c4.6,0,8.9,6.7,10.8,9.8c-3.1,2.2-5.6,5-7.5,8.2c-0.9,1.6-1.7,3.2-2.2,4.9c-0.4,0-0.8-0.1-1.2-0.1
			c-1,0-1.7,0.2-2.3,0.5c-2.3,1.4-2.3,3.5-2.3,5.8c0.2,3.1,2,6.4,2.9,7.7c0.8,1,1.9,2,3.2,2.6c0.1,0.2,0.1,0.2,0.2,0.4
			c2,5.9,5.6,10.5,10.3,13.4c7,4.3,11.8,4.7,15.3,4.9c1.1,0.1,2,0.2,2.8,0.3c2.5,0.5,5.3,1.9,9.1,4.2l1.6,1l-0.5-1.8
			c-0.4-1.7-0.8-3.3-0.2-4.7c1.4-3.2,4-5.9,5.7-7.7c5.6-5.6,10-15.6,6.1-27c-0.9-2.6-2.3-5.1-4.1-7.4c3.1-1.4,5.5-3.3,7.1-5.5
			C219.1,122.2,217.7,117.3,217.7,117.1z M198.1,107.8c0.9,1,2.9,3.7,2.8,7.9c-0.1,1.4-0.4,2.9-0.9,4.2c-2.2,1-4.1,2.2-5.6,3.4
			c-2.3-0.6-4.6-1-6.9-1c-0.8,0-1.6,0-2.4,0.1C187.2,117.6,191.1,112.4,198.1,107.8z M163.8,157.4L163.8,157.4
			c0,0.1,0.1,0.2,0.1,0.2C163.9,157.5,163.8,157.5,163.8,157.4z M170.4,167.3c0.5,0.4,0.9,0.8,1.4,1.1
			C171.3,168.1,170.8,167.8,170.4,167.3z M174.3,170.1c0.3,0.2,0.6,0.4,0.9,0.5C174.9,170.5,174.6,170.2,174.3,170.1z M180.5,172.9
			c0.8,0.2,1.6,0.5,2.3,0.6C182,173.3,181.3,173.2,180.5,172.9z M205.2,165.9c-1.3,1.3-3,3-4.4,5.2l0,0c-1.1,0.1-2.3,0.2-3.5,0.7
			c-2,0.7-3.6,1.8-4.8,3.2c-0.6-0.2-1.1-0.3-1.7-0.5c-0.9-0.2-2-0.2-3-0.3c-0.5,0-1.1-0.1-1.7-0.2c1.8-3.5,5-6.5,9.2-8
			c3.4-1.2,6.8-1.2,9.9-0.3C205.3,165.8,205.2,165.9,205.2,165.9z M209,160.9c-4.7-2-10.2-2.3-15.5-0.5c-6.2,2.2-10.8,6.8-13,12.4
			c-1.6-0.5-3.3-1.2-5.3-2.3c2.7-7.1,8.5-13.1,16.3-15.8c6.8-2.3,13.7-1.9,19.7,0.8C210.7,157.5,209.9,159.3,209,160.9z
			 M212.3,149.8c-7-2.9-15-3.3-22.8-0.6c-9.1,3.2-15.8,9.9-19.2,18.2c-1.8-1.7-3.4-3.6-4.7-5.9c4.5-8.3,12.1-15,21.8-18.4
			c8.1-2.8,16.4-2.9,24.1-0.6C212.1,145,212.4,147.5,212.3,149.8z M187.1,140.4c-5.3,4.1-13.1,1.5-15.8,3.6
			c-2.3,1.8-3.3,9.5-5.4,11.2c-2.1,1.6-4.4,0.1-5.6-1.3l0,0c-0.1-0.1-0.2-0.2-0.2-0.3c-1.1-1.4-2.6-4.4-2.6-6.8
			c-0.1-2.4,0.2-3.5,1.5-4.4c0.1-0.1,0.2-0.1,0.2-0.2h0.1c0.1,0,0.2-0.1,0.2-0.1c0,0,0,0,0.1,0c0.1,0,0.2,0,0.4-0.1h0.1
			c0.1,0,0.2,0,0.3,0c0,0,0,0,0.1,0l0,0c0.1,0,0.2,0,0.3,0l0,0c2.9,0.2,7.6,1.5,9.3,0.3c2.7-1.9,4.3-11.9,8.8-15.3
			c0.4-0.3,0.7-0.5,1.1-0.8l0,0c0.7-0.5,1.2-0.8,1.7-1l0,0c0.3-0.2,0.5-0.2,0.8-0.3l0,0c0.5-0.2,1.1-0.2,1.5-0.3l0,0
			c0.1,0,0.2,0,0.2,0l0,0l0,0c2.1-0.1,3.8,0.9,5.3,2.9c0.1,0.1,0.1,0.1,0.2,0.2l0,0c0.3,0.5,0.6,1,0.8,1.5l0,0
			c0.7,1.7,0.8,3.5,0.3,5.4l0,0c-0.2,0.5-0.3,1.1-0.5,1.6l0,0C189.5,137.9,188.5,139.3,187.1,140.4z M214.2,126.2
			c-1.7,2.3-4.1,3.9-6.9,5.2c-2-2.3-4.4-4.2-7-5.7c-1.4-0.8-2.7-1.4-4.1-1.9c4.3-3,10.7-5.6,19.9-5.6c0.1,0,0.1,0,0.2,0
			C216.5,119.5,216.7,122.8,214.2,126.2z"/>
		<g>
			<path class="st0" d="M95.8,249.3c-4.9-0.1-8.9-3.2-8.9-9.4v-12.2c0-0.5,0.2-0.7,0.7-0.7h2.4c0.5,0,0.7,0.2,0.7,0.7v12.1
				c0,4.4,2.1,6.2,5.1,6.2L95.8,249.3L95.8,249.3z"/>
			<path class="st0" d="M96.3,246c3.1-0.1,5.1-2,5.1-6.2v-12.1c0-0.5,0.2-0.7,0.7-0.7h2.4c0.5,0,0.7,0.2,0.7,0.7v12.2
				c0,6.2-4.1,9.3-8.9,9.4L96.3,246L96.3,246z"/>
			<path class="st0" d="M112.4,248.2c0,0.5-0.2,0.7-0.7,0.7h-2.3c-0.5,0-0.7-0.2-0.7-0.7v-14.6c0-0.5,0.2-0.7,0.7-0.7h1.1
				c0.6,0,1,0.1,1.2,0.4l0.6,0.9L112.4,248.2L112.4,248.2z"/>
			<path class="st0" d="M112.9,234.3c1.1-1.1,2.4-1.7,3.8-1.7c3.5,0,6.1,1.9,6.1,7.2v8.4c0,0.5-0.2,0.7-0.7,0.7h-2.3
				c-0.5,0-0.7-0.2-0.7-0.7v-7.6c0-3.3-1.2-4.8-3.4-4.8c-1.1,0-2.3,0.6-2.9,1.9L112.9,234.3L112.9,234.3z"/>
			<path class="st0" d="M133,235.9c-2.6,0.2-4.5,2.4-4.5,5.1c0,2.8,2,5,4.5,5.1v3.2c-4.7-0.2-8-3.9-8-8.3c0-4.4,3.5-8.2,8-8.3V235.9
				z"/>
			<path class="st0" d="M133.5,232.6c2.1,0.1,4.1,0.9,5.5,2.3c0.3,0.3,0.2,0.5-0.1,0.8l-1.1,1.3c-0.4,0.4-0.5,0.5-1,0.2
				c-1-0.9-2.3-1.4-3.3-1.4V232.6z"/>
			<path class="st0" d="M133.5,246.1c1.3-0.1,2.5-0.5,3.3-1.4c0.4-0.4,0.6-0.2,1,0.2l1.1,1.3c0.3,0.4,0.4,0.5,0.1,0.8
				c-1.5,1.4-3.4,2.3-5.5,2.3V246.1z"/>
			<path class="st0" d="M148.4,249.3c-4.4-0.2-8-3.8-8-8.3c0-4.5,3.6-8.2,8-8.3v3.2c-2.4,0.2-4.5,2.3-4.5,5.1c0,2.8,2,5,4.5,5.2
				V249.3z"/>
			<path class="st0" d="M148.9,246.1c2.5-0.2,4.5-2.4,4.5-5.2c0-2.8-2-5-4.5-5.1v-3.2c4.5,0.2,8,3.9,8,8.3c0,4.4-3.5,8.1-8,8.3
				V246.1z"/>
			<path class="st0" d="M163.3,248.2c0,0.5-0.2,0.7-0.7,0.7h-2.3c-0.5,0-0.7-0.2-0.7-0.7v-14.6c0-0.5,0.2-0.7,0.7-0.7h1.1
				c0.6,0,1,0.1,1.2,0.4l0.6,0.9V248.2L163.3,248.2z"/>
			<path class="st0" d="M163.9,234.3c1.1-1.1,2.4-1.7,3.8-1.7c3.5,0,6.1,1.9,6.1,7.2v8.4c0,0.5-0.2,0.7-0.7,0.7h-2.3
				c-0.5,0-0.7-0.2-0.7-0.7v-7.6c0-3.3-1.2-4.8-3.4-4.8c-1.1,0-2.3,0.6-2.9,1.9L163.9,234.3L163.9,234.3z"/>
			<path class="st0" d="M176,235.9c-0.5,0-0.7-0.2-0.7-0.7v-1.5c0-0.5,0.2-0.7,0.7-0.7h1.9v-1c0-4.4,2-7,6.1-7c0.4,0,1.7,0,2.9,0.8
				c0.4,0.2,0.5,0.4,0.4,0.8l-0.3,1.6c-0.2,0.7-0.2,0.7-0.8,0.4c-0.6-0.2-1.1-0.3-1.7-0.3c-1.9,0-2.9,1.1-2.9,4v0.8h4.8
				c0.5,0,0.7,0.2,0.7,0.7v1.5c0,0.5-0.2,0.7-0.7,0.7L176,235.9L176,235.9z"/>
			<path class="st0" d="M181.5,236.5v11.9c0,0.5-0.2,0.7-0.7,0.7h-2.2c-0.5,0-0.7-0.2-0.7-0.7v-11.9H181.5z"/>
			<path class="st0" d="M191,241.1c0,2.9,2.1,5.1,4.8,5.1c1.1,0,2.6-0.2,4.3-1.2c0.5-0.2,0.6-0.4,1,0.1l0.9,1.1
				c0.3,0.4,0.4,0.6,0.1,0.9c-1.5,1.4-4.1,2.2-6.4,2.2c-4.7,0-8.4-3.8-8.4-8.3c0-4.4,3.5-8.2,7.9-8.3v2.9c-2.5,0.2-4.2,2.3-4.2,5.3
				L191,241.1L191,241.1z"/>
			<path class="st0" d="M191.7,239.8h8.1c-0.2-1.9-1.4-4.1-4-4.2v-2.9c5,0.2,7.6,4.2,7.6,8.8c0,0.5-0.1,0.7-0.6,0.7h-11.1
				C191.5,241.4,191.5,240.5,191.7,239.8z"/>
			<path class="st0" d="M209.6,248.2c0,0.5-0.2,0.7-0.7,0.7h-2.3c-0.5,0-0.7-0.2-0.7-0.7v-14.6c0-0.5,0.2-0.7,0.7-0.7h1.1
				c1,0,1.1,0.2,1.8,1V248.2z"/>
			<path class="st0" d="M210.1,234.7c1.1-1.4,2.9-2.1,5.1-2.1c0.6,0,0.7,0.2,0.6,0.6l-0.4,2.3c-0.1,0.5-0.2,0.6-0.8,0.6
				c-2,0-3.7,0.7-4.7,2.5L210.1,234.7L210.1,234.7z"/>
			<path class="st0" d="M219.9,241.1c0,2.9,2.1,5.1,4.8,5.1c1.1,0,2.6-0.2,4.3-1.2c0.5-0.2,0.6-0.4,1,0.1l0.9,1.1
				c0.3,0.4,0.4,0.6,0.1,0.9c-1.5,1.4-4.1,2.2-6.4,2.2c-4.7,0-8.4-3.8-8.4-8.3c0-4.4,3.5-8.2,7.9-8.3v2.9c-2.5,0.2-4.2,2.3-4.2,5.3
				L219.9,241.1L219.9,241.1z"/>
			<path class="st0" d="M220.5,239.8h8.1c-0.2-1.9-1.4-4.1-4-4.2v-2.9c5,0.2,7.6,4.2,7.6,8.8c0,0.5-0.1,0.7-0.6,0.7h-11.1
				C220.3,241.4,220.3,240.5,220.5,239.8z"/>
			<path class="st0" d="M238.4,248.2c0,0.5-0.2,0.7-0.7,0.7h-2.3c-0.5,0-0.7-0.2-0.7-0.7v-14.6c0-0.5,0.2-0.7,0.7-0.7h1.1
				c0.6,0,1,0.1,1.2,0.4l0.6,0.9V248.2z"/>
			<path class="st0" d="M239,234.3c1.1-1.1,2.4-1.7,3.8-1.7c3.5,0,6.1,1.9,6.1,7.2v8.4c0,0.5-0.2,0.7-0.7,0.7h-2.3
				c-0.5,0-0.7-0.2-0.7-0.7v-7.6c0-3.3-1.2-4.8-3.4-4.8c-1.1,0-2.3,0.6-2.9,1.9L239,234.3L239,234.3z"/>
			<path class="st0" d="M259.1,235.9c-2.6,0.2-4.5,2.4-4.5,5.1c0,2.8,2,5,4.5,5.1v3.2c-4.7-0.2-8-3.9-8-8.3c0-4.4,3.5-8.2,8-8.3
				V235.9z"/>
			<path class="st0" d="M259.6,232.6c2.1,0.1,4.1,0.9,5.5,2.3c0.3,0.3,0.2,0.5-0.1,0.8l-1.1,1.3c-0.4,0.4-0.5,0.5-1,0.2
				c-1-0.9-2.3-1.4-3.3-1.4V232.6z"/>
			<path class="st0" d="M259.6,246.1c1.3-0.1,2.5-0.5,3.3-1.4c0.4-0.4,0.6-0.2,1,0.2l1.1,1.3c0.3,0.4,0.4,0.5,0.1,0.8
				c-1.5,1.4-3.4,2.3-5.5,2.3V246.1z"/>
			<path class="st0" d="M270.1,241.1c0,2.9,2.1,5.1,4.8,5.1c1.1,0,2.6-0.2,4.3-1.2c0.5-0.2,0.6-0.4,1,0.1l0.9,1.1
				c0.3,0.4,0.4,0.6,0.1,0.9c-1.5,1.4-4.1,2.2-6.4,2.2c-4.7,0-8.4-3.8-8.4-8.3c0-4.4,3.5-8.2,7.9-8.3v2.9c-2.5,0.2-4.2,2.3-4.2,5.3
				L270.1,241.1L270.1,241.1z"/>
			<path class="st0" d="M270.8,239.8h8.1c-0.2-1.9-1.4-4.1-4-4.2v-2.9c5,0.2,7.6,4.2,7.6,8.8c0,0.5-0.1,0.7-0.6,0.7h-11.1
				C270.6,241.4,270.6,240.5,270.8,239.8z"/>
			<path class="st0" d="M169.3,262.5c-1.4,0.1-2.6,0.6-3.6,1.7c-0.2,0.2-0.3,0.2-0.4,0l-0.5-0.5c-0.2-0.2-0.2-0.2,0-0.4
				c1.2-1.2,2.6-2,4.4-2V262.5z"/>
			<path class="st0" d="M169.7,261.3c4.1,0.1,5.5,3.5,3.2,6.1l-6.9,8h-1c-0.2,0-0.2-0.1-0.2-0.2v-0.2c0-0.2,0.1-0.2,0.2-0.4l7-8
				c1.4-1.7,0.8-4.1-2.3-4.3V261.3z"/>
			<path class="st0" d="M167.5,274.3h6.4c0.2,0,0.3,0.1,0.3,0.2v0.6c0,0.2-0.1,0.3-0.3,0.3h-7.4L167.5,274.3z"/>
			<path class="st0" d="M180.4,275.7c-3.6-0.1-5.3-3.4-5.3-7.1c0-3.8,1.6-7.1,5.3-7.1v1.1c-2.9,0.1-4,3.2-4,6s1,5.9,4,6V275.7z"/>
			<path class="st0" d="M180.8,274.5c2.9-0.2,3.9-3.2,3.9-6s-1-5.9-3.9-6v-1.1c3.6,0.2,5.3,3.4,5.3,7.1c0,3.8-1.6,7.1-5.3,7.1V274.5
				z"/>
			<path class="st0" d="M189.8,261.8c0.2-0.2,0.4-0.2,0.5-0.2h0.5c0.2,0,0.3,0.1,0.3,0.3v13.3c0,0.2-0.1,0.3-0.3,0.3h-0.8
				c-0.2,0-0.3-0.1-0.3-0.3v-11.9l-2.8,1.3c-0.2,0.1-0.2,0-0.2-0.2v-0.6c0-0.2,0-0.2,0.2-0.3L189.8,261.8z"/>
			<path class="st0" d="M198.8,261.3c2.8,0.1,4.4,1.7,4.4,3.8c0,2.3-2.1,3-2.6,3.2v0.1c0.5,0.2,2.9,1.1,2.9,3.4
				c0,2.1-1.4,3.8-4.7,3.9v-1.1c2.6-0.1,3.5-1.4,3.5-2.9c0-1.8-1.9-2.8-3.7-2.9c-1.8,0.2-3.7,1.1-3.7,2.9c0,1.4,1.1,2.8,3.5,2.9v1.1
				c-3.3-0.1-4.7-1.8-4.7-3.9c0-2.4,2.4-3.3,2.9-3.5v-0.1c-0.5-0.2-2.6-1-2.6-3.2c0-2,1.7-3.7,4.4-3.8v1.1c-1.9,0.1-3.2,1.3-3.2,2.7
				c0,1.7,1.6,2.6,3.4,2.6c1.7-0.1,3.3-1.1,3.3-2.6c0-1.5-1.3-2.6-3.2-2.7L198.8,261.3L198.8,261.3z"/>
			<path class="st0" d="M112.6,216.7c0,0.2-0.1,0.2-0.2,0.2h-0.1c-0.1,0-0.2-0.1-0.3-0.2l-10.8-13.1v-1.1c0-0.2,0.1-0.2,0.2-0.2h0.1
				c0.1,0,0.2,0.1,0.2,0.2l10.8,13.1L112.6,216.7L112.6,216.7z"/>
			<path class="st0" d="M102.5,205.7v10.6c0,0.2-0.1,0.3-0.2,0.3h-0.8c-0.2,0-0.3-0.1-0.3-0.3v-12.2L102.5,205.7z"/>
			<path class="st0" d="M111.2,213.3v-10.5c0-0.2,0.1-0.3,0.3-0.3h0.8c0.2,0,0.3,0.1,0.3,0.3v12.1L111.2,213.3z"/>
			<path class="st0" d="M119.9,216.9c-2.9-0.1-5-2.5-5-5.3c0-2.9,2.3-5.3,5-5.3v1.1c-2.1,0.1-3.8,1.9-3.8,4.2c0,2.3,1.7,4.1,3.8,4.2
				V216.9z"/>
			<path class="st0" d="M120.4,215.7c2.2-0.2,3.8-2,3.8-4.2c0-2.3-1.7-4.1-3.8-4.2v-1.1c2.9,0.1,5.1,2.5,5.1,5.3
				c0,2.8-2.2,5.2-5.1,5.3V215.7z"/>
			<path class="st0" d="M128.9,216.3c0,0.2-0.1,0.3-0.2,0.3H128c-0.2,0-0.2-0.1-0.2-0.3v-9.7c0-0.2,0.1-0.3,0.2-0.3h0.5
				c0.3,0,0.4,0.1,0.5,0.4V216.3z"/>
			<path class="st0" d="M129.3,208c0.7-1.1,2-1.8,3.8-1.8c0.2,0,0.3,0.1,0.2,0.2l-0.1,0.8c-0.1,0.2-0.1,0.2-0.3,0.2
				c-1.5,0-2.9,0.7-3.6,2.1L129.3,208L129.3,208z"/>
			<path class="st0" d="M135.6,207.4c-0.2,0-0.3-0.1-0.3-0.3v-0.5c0-0.2,0.1-0.3,0.3-0.3h1.1v-2.1c0-0.2,0.1-0.3,0.3-0.3h0.7
				c0.2,0,0.3,0.1,0.3,0.3v2.1h3.8c0.2,0,0.3,0.1,0.3,0.3v0.5c0,0.2-0.1,0.3-0.3,0.3H135.6z"/>
			<path class="st0" d="M137.9,207.8v4.4c0,2.6,0.8,3.5,2.5,3.5c0.6,0,0.9-0.1,1.4-0.3c0.2-0.2,0.3-0.1,0.4,0.2l0.2,0.5
				c0.1,0.2,0,0.2-0.2,0.4c-0.8,0.5-1.7,0.5-1.9,0.5c-2.6,0-3.6-1.7-3.6-4.5v-4.5L137.9,207.8L137.9,207.8z"/>
			<path class="st0" d="M145.9,216.3c0,0.2-0.1,0.3-0.2,0.3h-0.8c-0.2,0-0.2-0.1-0.2-0.3v-14.3c0-0.2,0.1-0.3,0.2-0.3h0.8
				c0.2,0,0.2,0.1,0.2,0.3V216.3z"/>
			<path class="st0" d="M146.4,207.8c0.6-0.9,1.7-1.6,3-1.6c2.1,0,4,1.4,4,4.5v5.7c0,0.2-0.1,0.3-0.2,0.3h-0.8
				c-0.2,0-0.2-0.1-0.2-0.3v-5.3c0-2.5-1.4-3.8-3-3.8c-1.3,0-2.3,1-2.7,1.9L146.4,207.8L146.4,207.8z"/>
			<path class="st0" d="M158.5,216.6c-0.1,0.2-0.2,0.2-0.3,0.2H158c-0.1,0-0.2-0.1-0.2-0.2l-3.1-9.9c-0.1-0.2-0.1-0.3,0.2-0.3h0.9
				c0.2,0,0.3,0.1,0.4,0.2l2.8,9.2L158.5,216.6z"/>
			<path class="st0" d="M165.7,216.6c-0.1,0.2-0.2,0.2-0.2,0.2h-0.2c-0.2,0-0.2-0.1-0.3-0.2l-3.3-8.4l-2.6,7.1l-0.5-1.6l2.8-7.3
				c0.1-0.2,0.2-0.2,0.2-0.2h0.2c0.2,0,0.2,0.2,0.2,0.2l3.8,9.5L165.7,216.6z"/>
			<path class="st0" d="M165.4,213.4l2-6.8c0.1-0.2,0.2-0.3,0.4-0.3h0.9c0.2,0,0.2,0.1,0.2,0.3l-2.7,8.6L165.4,213.4z"/>
			<path class="st0" d="M170.9,211.7c0,2.2,1.9,4.1,4.1,4.1c1.1,0,2.3-0.4,3.3-1.1c0.2-0.2,0.2-0.2,0.4,0l0.3,0.4
				c0.2,0.2,0.2,0.3,0,0.4c-0.9,0.9-2.6,1.4-4.1,1.4c-3,0-5.3-2.4-5.3-5.3c0-2.8,2.2-5.3,5-5.3v1.1c-2.1,0.2-3.8,2-3.8,4.1V211.7z"
				/>
			<path class="st0" d="M171.4,211.1h7.2c-0.1-1.8-1.4-3.8-3.5-3.8v-1.1c3,0.1,4.8,2.6,4.8,5.6c0,0.2-0.1,0.3-0.2,0.3h-8.3
				C171.3,211.8,171.3,211.3,171.4,211.1z"/>
			<path class="st0" d="M185.3,216.9c-1.1-0.1-2.5-0.5-3.8-1.3c-0.2-0.1-0.2-0.2-0.1-0.4l0.2-0.5c0.1-0.2,0.2-0.2,0.4-0.1
				c0.8,0.6,2,1.1,3.2,1.2L185.3,216.9L185.3,216.9z"/>
			<path class="st0" d="M185.6,215.8c2,0,2.8-1,2.8-2c0-1-1.1-1.5-3-1.7c-2-0.2-3.9-0.7-3.9-2.8c0-1.9,1.4-3.2,3.9-3.1v1.1
				c-1.8,0-2.7,0.8-2.7,2c0,1.2,1.1,1.4,3,1.7c2,0.3,3.9,0.9,3.9,2.8c0,1.8-1.4,3.1-4,3.2L185.6,215.8L185.6,215.8z"/>
			<path class="st0" d="M185.9,206.2c1,0.1,2.2,0.4,3.3,1.1c0.2,0.2,0.2,0.2,0.1,0.4l-0.2,0.4c-0.1,0.2-0.2,0.2-0.4,0.2
				c-1-0.6-2-1-2.9-1L185.9,206.2L185.9,206.2z"/>
			<path class="st0" d="M191.4,207.4c-0.2,0-0.3-0.1-0.3-0.3v-0.5c0-0.2,0.1-0.3,0.3-0.3h1.1v-2.1c0-0.2,0.1-0.3,0.3-0.3h0.7
				c0.2,0,0.3,0.1,0.3,0.3v2.1h3.8c0.2,0,0.3,0.1,0.3,0.3v0.5c0,0.2-0.1,0.3-0.3,0.3H191.4z"/>
			<path class="st0" d="M193.7,207.8v4.4c0,2.6,0.8,3.5,2.5,3.5c0.6,0,0.9-0.1,1.4-0.3c0.2-0.2,0.3-0.1,0.4,0.2l0.2,0.5
				c0.1,0.2,0,0.2-0.2,0.4c-0.8,0.5-1.7,0.5-1.9,0.5c-2.6,0-3.6-1.7-3.6-4.5v-4.5L193.7,207.8L193.7,207.8z"/>
			<path class="st0" d="M205.8,216.6h-1.1c-0.2,0-0.3-0.1-0.3-0.3v-13.5c0-0.2,0.1-0.3,0.3-0.3h1.1V216.6z"/>
			<path class="st0" d="M206.2,215.4h3.5c3.4,0,5.6-2.7,5.6-5.9c0-3.2-2.3-5.9-5.6-5.9h-3.5v-1.1h3.5c4,0,6.9,3,6.9,7.1
				c0,4-3,7.1-6.9,7.1h-3.5V215.4z"/>
			<path class="st0" d="M220.2,216.3c0,0.2-0.1,0.3-0.2,0.3h-0.8c-0.2,0-0.2-0.1-0.2-0.3v-9.7c0-0.2,0.1-0.3,0.2-0.3h0.5
				c0.3,0,0.4,0.1,0.5,0.4L220.2,216.3L220.2,216.3z"/>
			<path class="st0" d="M220.6,208c0.7-1.1,2-1.8,3.8-1.8c0.2,0,0.3,0.1,0.2,0.2l-0.1,0.8c-0.1,0.2-0.1,0.2-0.3,0.2
				c-1.5,0-2.9,0.7-3.6,2.1L220.6,208L220.6,208z"/>
			<path class="st0" d="M233.2,215.3c-0.8,1.1-1.9,1.6-3,1.6c-2.1,0-4-1.4-4-4.5v-5.7c0-0.2,0.1-0.3,0.2-0.3h0.8
				c0.2,0,0.2,0.1,0.2,0.3v5.3c0,2.5,1.4,3.7,3.1,3.7c1.1,0,2.1-0.7,2.7-1.9V215.3z"/>
			<path class="st0" d="M233.6,206.6c0-0.2,0.1-0.3,0.2-0.3h0.8c0.2,0,0.2,0.1,0.2,0.3v9.7c0,0.2-0.1,0.3-0.2,0.3h-0.5
				c-0.2,0-0.4-0.1-0.4-0.2l-0.2-0.6L233.6,206.6L233.6,206.6z"/>
			<path class="st0" d="M239.3,220.5c0,0.2-0.1,0.3-0.2,0.3h-0.8c-0.2,0-0.2-0.1-0.2-0.3v-13.8c0-0.2,0.1-0.3,0.2-0.3h0.4
				c0.2,0,0.3,0.1,0.5,0.2l0.2,0.7L239.3,220.5L239.3,220.5z"/>
			<path class="st0" d="M239.7,207.8c0.7-1,1.9-1.7,3.5-1.7c2.9,0,4.7,2.4,4.7,5.3c0,2.9-1.8,5.3-4.7,5.3c-1.6,0-2.8-0.8-3.5-1.8
				v-1.6c0.7,1.5,1.9,2.3,3.2,2.3c2.3,0,3.6-2,3.6-4.2c0-2.3-1.4-4.2-3.6-4.2c-1.1,0-2.5,0.6-3.2,2.3V207.8z"/>
			<path class="st0" d="M256.7,215.4c-1,1-2.4,1.4-3.5,1.4c-2,0-3.6-1.2-3.6-3.3c0-2.2,1.7-3.3,4.2-3.3c1,0,2.1,0.2,3,0.6v1
				c-0.9-0.4-1.7-0.6-2.7-0.6c-2,0-3.2,0.8-3.2,2.3c0,1.4,1,2.3,2.7,2.3c1.2,0,2.5-0.7,3.2-1.5v1.1H256.7z"/>
			<path class="st0" d="M257.1,211c0-2.7-0.8-3.8-3-3.8c-1.4,0-2.4,0.2-3.2,0.4c-0.2,0.1-0.3,0-0.4-0.2l-0.2-0.5
				c-0.1-0.2,0-0.3,0.2-0.4c0.2-0.1,1.9-0.4,3.5-0.4c3.2,0,4.2,1.4,4.2,4.8v5.3c0,0.2-0.1,0.3-0.2,0.3h-0.7c-0.2,0-0.2-0.1-0.4-0.2
				L257.1,211L257.1,211z"/>
			<path class="st0" d="M261.2,202.1c0-0.2,0.1-0.3,0.3-0.3h0.7c0.2,0,0.3,0.1,0.3,0.3v14.3c0,0.2-0.1,0.3-0.3,0.3h-0.7
				c-0.2,0-0.3-0.1-0.3-0.3V202.1z"/>
		</g>
	</g>
	<polygon class="st1" points="281.3,298.9 186.7,352.8 92.1,298.9 59.7,317.8 186.7,390 313.7,317.8 	"/>
	<polygon class="st2" points="12.3,92 12.3,236.9 44.7,218.1 44.7,110.8 139.3,57 139.3,19.7 	"/>
	<polygon class="st3" points="318.3,101.1 318.3,208.3 350.7,227.1 350.7,82.2 	"/>
	<polygon class="st4" points="318.3,100.8 350.7,82 223.7,9.8 223.7,47 	"/>
	<g>
		<g>
			<defs>
				<polygon id="SVGID_1_" points="31.6,103 31.6,247.9 63.9,229.1 63.9,121.9 158.5,68 158.5,30.8 				"/>
			</defs>
			<clipPath id="SVGID_2_">
				<use xlink:href="#SVGID_1_"  style="overflow:visible;"/>
			</clipPath>
			<g class="st5">
				
					<rect x="211.2" y="-96.8" transform="matrix(0.4946 -0.8691 0.8691 0.4946 53.9049 215.1451)" class="st6" width="1.5" height="316.1"/>
				
					<rect x="208.8" y="-93.1" transform="matrix(0.4946 -0.8691 0.8691 0.4946 49.8047 214.7801)" class="st6" width="1.5" height="315.4"/>
				
					<rect x="206.5" y="-89.3" transform="matrix(0.4946 -0.8691 0.8691 0.4946 45.6294 214.4533)" class="st6" width="1.5" height="314.5"/>
				
					<rect x="204.1" y="-85.5" transform="matrix(0.4946 -0.8691 0.8691 0.4946 41.5289 214.0507)" class="st6" width="1.5" height="313.7"/>
				
					<rect x="201.7" y="-81.7" transform="matrix(0.4946 -0.8691 0.8691 0.4946 37.3536 213.724)" class="st6" width="1.5" height="312.9"/>
				
					<rect x="199.3" y="-77.9" transform="matrix(0.4946 -0.8691 0.8691 0.4946 33.1782 213.3974)" class="st6" width="1.5" height="312.1"/>
				
					<rect x="196.9" y="-74.1" transform="matrix(0.4946 -0.8691 0.8691 0.4946 29.078 212.9946)" class="st6" width="1.5" height="311.2"/>
				
					<rect x="194.6" y="-70.3" transform="matrix(0.4946 -0.8691 0.8691 0.4946 24.9026 212.6679)" class="st6" width="1.5" height="310.4"/>
				
					<rect x="192.2" y="-66.5" transform="matrix(0.4946 -0.8691 0.8691 0.4946 20.727 212.3035)" class="st6" width="1.5" height="309.7"/>
				
					<rect x="189.8" y="-62.7" transform="matrix(0.4946 -0.8691 0.8691 0.4946 16.6272 211.9763)" class="st6" width="1.5" height="308.8"/>
				
					<rect x="187.5" y="-58.9" transform="matrix(0.4946 -0.8691 0.8691 0.4946 12.4518 211.6498)" class="st6" width="1.5" height="308"/>
				
					<rect x="185" y="-55.1" transform="matrix(0.4946 -0.8691 0.8691 0.4946 8.2761 211.2474)" class="st6" width="1.5" height="307.2"/>
				
					<rect x="182.7" y="-51.3" transform="matrix(0.4946 -0.8691 0.8691 0.4946 4.1763 210.9203)" class="st6" width="1.5" height="306.4"/>
				
					<rect x="180.3" y="-47.5" transform="matrix(0.4946 -0.8691 0.8691 0.4946 2.665654e-04 210.5181)" class="st6" width="1.5" height="305.5"/>
				
					<rect x="177.9" y="-43.7" transform="matrix(0.4946 -0.8691 0.8691 0.4946 -4.175 210.1917)" class="st6" width="1.5" height="304.7"/>
				
					<rect x="175.6" y="-39.9" transform="matrix(0.4946 -0.8691 0.8691 0.4946 -8.2745 209.9021)" class="st6" width="1.5" height="304"/>
				
					<rect x="173.2" y="-36.1" transform="matrix(0.4946 -0.8691 0.8691 0.4946 -12.4506 209.4999)" class="st6" width="1.5" height="303.1"/>
				
					<rect x="170.8" y="-32.3" transform="matrix(0.4946 -0.8691 0.8691 0.4946 -16.6256 209.1733)" class="st6" width="1.5" height="302.3"/>
				
					<rect x="168.4" y="-28.5" transform="matrix(0.4946 -0.8691 0.8691 0.4946 -20.7261 208.7704)" class="st6" width="1.5" height="301.5"/>
				
					<rect x="166" y="-24.7" transform="matrix(0.4946 -0.8691 0.8691 0.4946 -24.9013 208.4437)" class="st6" width="1.5" height="300.7"/>
				
					<rect x="163.7" y="-20.9" transform="matrix(0.4946 -0.8691 0.8691 0.4946 -29.0768 208.1174)" class="st6" width="1.5" height="299.8"/>
				
					<rect x="161.3" y="-17.1" transform="matrix(0.4946 -0.8691 0.8691 0.4946 -33.1769 207.7522)" class="st6" width="1.5" height="299.1"/>
				
					<rect x="158.9" y="-13.3" transform="matrix(0.4946 -0.8691 0.8691 0.4946 -37.3519 207.4254)" class="st6" width="1.5" height="298.3"/>
				
					<rect x="156.5" y="-9.5" transform="matrix(0.4946 -0.8691 0.8691 0.4946 -41.5279 207.0235)" class="st6" width="1.5" height="297.4"/>
				
					<rect x="154.2" y="-5.7" transform="matrix(0.4946 -0.8691 0.8691 0.4946 -45.6277 206.6961)" class="st6" width="1.5" height="296.6"/>
				
					<rect x="151.8" y="-1.9" transform="matrix(0.4946 -0.8691 0.8691 0.4946 -49.8031 206.3697)" class="st6" width="1.5" height="295.8"/>
				
					<rect x="149.4" y="1.9" transform="matrix(0.4946 -0.8691 0.8691 0.4946 -53.9791 205.9675)" class="st6" width="1.5" height="295"/>
				
					<rect x="147" y="5.7" transform="matrix(0.4946 -0.8691 0.8691 0.4946 -58.0789 205.6401)" class="st6" width="1.5" height="294.1"/>
				
					<rect x="144.6" y="9.5" transform="matrix(0.4946 -0.8691 0.8691 0.4946 -62.2542 205.2758)" class="st6" width="1.5" height="293.4"/>
				
					<rect x="142.3" y="13.3" transform="matrix(0.4946 -0.8691 0.8691 0.4946 -66.3541 204.9484)" class="st6" width="1.5" height="292.5"/>
				
					<rect x="139.9" y="17.1" transform="matrix(0.4946 -0.8691 0.8691 0.4946 -70.5295 204.6218)" class="st6" width="1.5" height="291.7"/>
				
					<rect x="137.5" y="20.9" transform="matrix(0.4946 -0.8691 0.8691 0.4946 -74.7055 204.2199)" class="st6" width="1.5" height="290.9"/>
				
					<rect x="135.2" y="24.7" transform="matrix(0.4946 -0.8691 0.8691 0.4946 -78.8053 203.8924)" class="st6" width="1.5" height="290.1"/>
				
					<rect x="132.7" y="28.5" transform="matrix(0.4946 -0.8691 0.8691 0.4946 -82.981 203.4902)" class="st6" width="1.5" height="289.2"/>
				
					<rect x="130.4" y="32.3" transform="matrix(0.4946 -0.8691 0.8691 0.4946 -87.156 203.2016)" class="st6" width="1.5" height="288.5"/>
				
					<rect x="128.1" y="36.1" transform="matrix(0.4946 -0.8691 0.8691 0.4946 -91.2558 202.8742)" class="st6" width="1.5" height="287.7"/>
				
					<rect x="125.6" y="39.9" transform="matrix(0.4946 -0.8691 0.8691 0.4946 -95.4318 202.472)" class="st6" width="1.5" height="286.8"/>
				
					<rect x="123.3" y="43.7" transform="matrix(0.4946 -0.8691 0.8691 0.4946 -99.6072 202.1455)" class="st6" width="1.5" height="286"/>
				
					<rect x="120.9" y="47.4" transform="matrix(0.4946 -0.8691 0.8691 0.4946 -103.7076 201.7426)" class="st6" width="1.5" height="285.2"/>
				
					<rect x="118.5" y="51.3" transform="matrix(0.4946 -0.8691 0.8691 0.4946 -107.8827 201.4162)" class="st6" width="1.5" height="284.4"/>
				
					<rect x="116.1" y="55.1" transform="matrix(0.4946 -0.8691 0.8691 0.4946 -112.058 201.0895)" class="st6" width="1.5" height="283.5"/>
				
					<rect x="113.8" y="58.8" transform="matrix(0.4946 -0.8691 0.8691 0.4946 -116.1581 200.7243)" class="st6" width="1.5" height="282.8"/>
				
					<rect x="111.4" y="62.7" transform="matrix(0.4946 -0.8691 0.8691 0.4946 -120.3335 200.3978)" class="st6" width="1.5" height="282"/>
				
					<rect x="109" y="66.5" transform="matrix(0.4946 -0.8691 0.8691 0.4946 -124.5094 199.9957)" class="st6" width="1.5" height="281.1"/>
				
					<rect x="106.6" y="70.3" transform="matrix(0.4946 -0.8691 0.8691 0.4946 -128.609 199.6683)" class="st6" width="1.5" height="280.3"/>
				
					<rect x="104.3" y="74.1" transform="matrix(0.4946 -0.8691 0.8691 0.4946 -132.7844 199.3418)" class="st6" width="1.5" height="279.5"/>
				
					<rect x="101.8" y="77.9" transform="matrix(0.4946 -0.8691 0.8691 0.4946 -136.9603 198.9397)" class="st6" width="1.5" height="278.7"/>
				
					<rect x="99.5" y="81.7" transform="matrix(0.4946 -0.8691 0.8691 0.4946 -141.0601 198.6122)" class="st6" width="1.5" height="277.8"/>
				
					<rect x="97.1" y="85.5" transform="matrix(0.4946 -0.8691 0.8691 0.4946 -145.2358 198.248)" class="st6" width="1.5" height="277.1"/>
				
					<rect x="94.7" y="89.3" transform="matrix(0.4946 -0.8691 0.8691 0.4946 -149.4113 197.9214)" class="st6" width="1.5" height="276.3"/>
				
					<rect x="92.4" y="93.1" transform="matrix(0.4946 -0.8691 0.8691 0.4946 -153.5107 197.5941)" class="st6" width="1.5" height="275.4"/>
				
					<rect x="90" y="96.9" transform="matrix(0.4946 -0.8691 0.8691 0.4946 -157.6867 197.192)" class="st6" width="1.5" height="274.6"/>
				
					<rect x="87.6" y="100.7" transform="matrix(0.4946 -0.8691 0.8691 0.4946 -161.862 196.8653)" class="st6" width="1.5" height="273.8"/>
				
					<rect x="85.2" y="104.5" transform="matrix(0.4946 -0.8691 0.8691 0.4946 -165.9626 196.4626)" class="st6" width="1.5" height="272.9"/>
				
					<rect x="82.9" y="108.3" transform="matrix(0.4946 -0.8691 0.8691 0.4946 -170.1376 196.1737)" class="st6" width="1.5" height="272.2"/>
				
					<rect x="80.5" y="112.1" transform="matrix(0.4946 -0.8691 0.8691 0.4946 -174.2369 195.8463)" class="st6" width="1.5" height="271.4"/>
				
					<rect x="78.1" y="115.9" transform="matrix(0.4946 -0.8691 0.8691 0.4946 -178.413 195.4444)" class="st6" width="1.5" height="270.5"/>
				
					<rect x="75.7" y="119.7" transform="matrix(0.4946 -0.8691 0.8691 0.4946 -182.5883 195.1176)" class="st6" width="1.5" height="269.7"/>
				
					<rect x="73.3" y="123.4" transform="matrix(0.4946 -0.8691 0.8691 0.4946 -186.6889 194.7148)" class="st6" width="1.5" height="268.9"/>
				
					<rect x="71" y="127.3" transform="matrix(0.4946 -0.8691 0.8691 0.4946 -190.8643 194.3883)" class="st6" width="1.5" height="268.1"/>
				
					<rect x="68.5" y="131.1" transform="matrix(0.4946 -0.8691 0.8691 0.4946 -195.0403 193.9862)" class="st6" width="1.5" height="267.2"/>
				
					<rect x="66.2" y="134.8" transform="matrix(0.4946 -0.8691 0.8691 0.4946 -199.1394 193.6967)" class="st6" width="1.5" height="266.5"/>
			</g>
		</g>
	</g>
	<g>
		<g>
			<defs>
				<polygon id="SVGID_3_" points="329.1,286.8 329.1,141.8 296.7,160.7 296.7,267.9 202.1,321.8 202.1,359 				"/>
			</defs>
			<clipPath id="SVGID_4_">
				<use xlink:href="#SVGID_3_"  style="overflow:visible;"/>
			</clipPath>
			<g class="st7">
				
					<rect x="147.9" y="170.5" transform="matrix(0.4946 -0.8691 0.8691 0.4946 -210.4684 295.2816)" class="st8" width="1.5" height="316.1"/>
				
					<rect x="150.3" y="167.5" transform="matrix(0.4946 -0.8691 0.8691 0.4946 -206.2927 295.6459)" class="st8" width="1.5" height="315.4"/>
				
					<rect x="152.7" y="164.6" transform="matrix(0.4946 -0.8691 0.8691 0.4946 -202.1921 296.0488)" class="st8" width="1.5" height="314.5"/>
				
					<rect x="155.1" y="161.6" transform="matrix(0.4946 -0.8691 0.8691 0.4946 -198.0172 296.3755)" class="st8" width="1.5" height="313.7"/>
				
					<rect x="157.4" y="158.6" transform="matrix(0.4946 -0.8691 0.8691 0.4946 -193.8417 296.7021)" class="st8" width="1.5" height="312.9"/>
				
					<rect x="159.8" y="155.6" transform="matrix(0.4946 -0.8691 0.8691 0.4946 -189.7419 297.0294)" class="st8" width="1.5" height="312.1"/>
				
					<rect x="162.2" y="152.7" transform="matrix(0.4946 -0.8691 0.8691 0.4946 -185.5661 297.4313)" class="st8" width="1.5" height="311.2"/>
				
					<rect x="164.6" y="149.6" transform="matrix(0.4946 -0.8691 0.8691 0.4946 -181.3907 297.7579)" class="st8" width="1.5" height="310.4"/>
				
					<rect x="166.9" y="146.7" transform="matrix(0.4946 -0.8691 0.8691 0.4946 -177.2904 298.123)" class="st8" width="1.5" height="309.7"/>
				
					<rect x="169.3" y="143.7" transform="matrix(0.4946 -0.8691 0.8691 0.4946 -173.1154 298.4498)" class="st8" width="1.5" height="308.8"/>
				
					<rect x="171.7" y="140.7" transform="matrix(0.4946 -0.8691 0.8691 0.4946 -168.9393 298.8519)" class="st8" width="1.5" height="308"/>
				
					<rect x="174.1" y="137.7" transform="matrix(0.4946 -0.8691 0.8691 0.4946 -164.8393 299.1789)" class="st8" width="1.5" height="307.2"/>
				
					<rect x="176.4" y="134.7" transform="matrix(0.4946 -0.8691 0.8691 0.4946 -160.6643 299.5057)" class="st8" width="1.5" height="306.4"/>
				
					<rect x="178.8" y="131.7" transform="matrix(0.4946 -0.8691 0.8691 0.4946 -156.4889 299.8322)" class="st8" width="1.5" height="305.5"/>
				
					<rect x="181.2" y="128.8" transform="matrix(0.4946 -0.8691 0.8691 0.4946 -152.3887 300.2352)" class="st8" width="1.5" height="304.7"/>
				
					<rect x="183.6" y="125.8" transform="matrix(0.4946 -0.8691 0.8691 0.4946 -148.213 300.5995)" class="st8" width="1.5" height="304"/>
				
					<rect x="185.9" y="122.8" transform="matrix(0.4946 -0.8691 0.8691 0.4946 -144.1131 300.9269)" class="st8" width="1.5" height="303.1"/>
				
					<rect x="188.3" y="119.8" transform="matrix(0.4946 -0.8691 0.8691 0.4946 -139.938 301.2534)" class="st8" width="1.5" height="302.3"/>
				
					<rect x="190.7" y="116.8" transform="matrix(0.4946 -0.8691 0.8691 0.4946 -135.7619 301.6555)" class="st8" width="1.5" height="301.5"/>
				
					<rect x="193.1" y="113.9" transform="matrix(0.4946 -0.8691 0.8691 0.4946 -131.662 301.9827)" class="st8" width="1.5" height="300.7"/>
				
					<rect x="195.4" y="110.9" transform="matrix(0.4946 -0.8691 0.8691 0.4946 -127.4871 302.3095)" class="st8" width="1.5" height="299.8"/>
				
					<rect x="197.8" y="107.8" transform="matrix(0.4946 -0.8691 0.8691 0.4946 -123.3113 302.6739)" class="st8" width="1.5" height="299.1"/>
				
					<rect x="200.2" y="104.9" transform="matrix(0.4946 -0.8691 0.8691 0.4946 -119.2105 303.0764)" class="st8" width="1.5" height="298.3"/>
				
					<rect x="202.6" y="101.9" transform="matrix(0.4946 -0.8691 0.8691 0.4946 -115.0356 303.4031)" class="st8" width="1.5" height="297.4"/>
				
					<rect x="205" y="98.9" transform="matrix(0.4946 -0.8691 0.8691 0.4946 -110.8602 303.7297)" class="st8" width="1.5" height="296.6"/>
				
					<rect x="207.3" y="95.9" transform="matrix(0.4946 -0.8691 0.8691 0.4946 -106.7607 304.0572)" class="st8" width="1.5" height="295.8"/>
				
					<rect x="209.7" y="93" transform="matrix(0.4946 -0.8691 0.8691 0.4946 -102.5846 304.4593)" class="st8" width="1.5" height="295"/>
				
					<rect x="212.1" y="89.9" transform="matrix(0.4946 -0.8691 0.8691 0.4946 -98.4092 304.7859)" class="st8" width="1.5" height="294.1"/>
				
					<rect x="214.5" y="87" transform="matrix(0.4946 -0.8691 0.8691 0.4946 -94.3093 305.1508)" class="st8" width="1.5" height="293.4"/>
				
					<rect x="216.8" y="84" transform="matrix(0.4946 -0.8691 0.8691 0.4946 -90.1339 305.4774)" class="st8" width="1.5" height="292.5"/>
				
					<rect x="219.3" y="81" transform="matrix(0.4946 -0.8691 0.8691 0.4946 -85.9578 305.8795)" class="st8" width="1.5" height="291.7"/>
				
					<rect x="221.6" y="78" transform="matrix(0.4946 -0.8691 0.8691 0.4946 -81.8583 306.207)" class="st8" width="1.5" height="290.9"/>
				
					<rect x="224" y="75" transform="matrix(0.4946 -0.8691 0.8691 0.4946 -77.6829 306.5336)" class="st8" width="1.5" height="290.1"/>
				
					<rect x="226.3" y="72" transform="matrix(0.4946 -0.8691 0.8691 0.4946 -73.5074 306.8599)" class="st8" width="1.5" height="289.2"/>
				
					<rect x="228.8" y="69.1" transform="matrix(0.4946 -0.8691 0.8691 0.4946 -69.4069 307.3006)" class="st8" width="1.5" height="288.5"/>
				
					<rect x="231.1" y="66.1" transform="matrix(0.4946 -0.8691 0.8691 0.4946 -65.2315 307.6271)" class="st8" width="1.5" height="287.7"/>
				
					<rect x="233.5" y="63.1" transform="matrix(0.4946 -0.8691 0.8691 0.4946 -61.0561 307.9538)" class="st8" width="1.5" height="286.8"/>
				
					<rect x="235.9" y="60.1" transform="matrix(0.4946 -0.8691 0.8691 0.4946 -56.9559 308.3568)" class="st8" width="1.5" height="286"/>
				
					<rect x="238.3" y="57.1" transform="matrix(0.4946 -0.8691 0.8691 0.4946 -52.7804 308.6834)" class="st8" width="1.5" height="285.2"/>
				
					<rect x="240.6" y="54.1" transform="matrix(0.4946 -0.8691 0.8691 0.4946 -48.6054 309.0098)" class="st8" width="1.5" height="284.4"/>
				
					<rect x="243" y="51.2" transform="matrix(0.4946 -0.8691 0.8691 0.4946 -44.5055 309.3372)" class="st8" width="1.5" height="283.5"/>
				
					<rect x="245.4" y="48.2" transform="matrix(0.4946 -0.8691 0.8691 0.4946 -40.329 309.777)" class="st8" width="1.5" height="282.8"/>
				
					<rect x="247.8" y="45.2" transform="matrix(0.4946 -0.8691 0.8691 0.4946 -36.2295 310.1045)" class="st8" width="1.5" height="282"/>
				
					<rect x="250.1" y="42.2" transform="matrix(0.4946 -0.8691 0.8691 0.4946 -32.0542 310.4311)" class="st8" width="1.5" height="281.1"/>
				
					<rect x="252.5" y="39.2" transform="matrix(0.4946 -0.8691 0.8691 0.4946 -27.8787 310.7573)" class="st8" width="1.5" height="280.3"/>
				
					<rect x="254.9" y="36.3" transform="matrix(0.4946 -0.8691 0.8691 0.4946 -23.7785 311.1603)" class="st8" width="1.5" height="279.5"/>
				
					<rect x="257.3" y="33.3" transform="matrix(0.4946 -0.8691 0.8691 0.4946 -19.6031 311.4869)" class="st8" width="1.5" height="278.7"/>
				
					<rect x="259.6" y="30.3" transform="matrix(0.4946 -0.8691 0.8691 0.4946 -15.4277 311.8135)" class="st8" width="1.5" height="277.8"/>
				
					<rect x="262" y="27.3" transform="matrix(0.4946 -0.8691 0.8691 0.4946 -11.3279 312.1788)" class="st8" width="1.5" height="277.1"/>
				
					<rect x="264.4" y="24.3" transform="matrix(0.4946 -0.8691 0.8691 0.4946 -7.1518 312.5809)" class="st8" width="1.5" height="276.3"/>
				
					<rect x="266.8" y="21.3" transform="matrix(0.4946 -0.8691 0.8691 0.4946 -2.9767 312.9073)" class="st8" width="1.5" height="275.4"/>
				
					<rect x="269.1" y="18.4" transform="matrix(0.4946 -0.8691 0.8691 0.4946 1.1232 313.2346)" class="st8" width="1.5" height="274.6"/>
				
					<rect x="271.5" y="15.3" transform="matrix(0.4946 -0.8691 0.8691 0.4946 5.2986 313.5612)" class="st8" width="1.5" height="273.8"/>
				
					<rect x="273.9" y="12.4" transform="matrix(0.4946 -0.8691 0.8691 0.4946 9.4744 313.9635)" class="st8" width="1.5" height="272.9"/>
				
					<rect x="276.3" y="9.4" transform="matrix(0.4946 -0.8691 0.8691 0.4946 13.5746 314.3285)" class="st8" width="1.5" height="272.2"/>
				
					<rect x="278.7" y="6.4" transform="matrix(0.4946 -0.8691 0.8691 0.4946 17.75 314.6547)" class="st8" width="1.5" height="271.4"/>
				
					<rect x="281" y="3.4" transform="matrix(0.4946 -0.8691 0.8691 0.4946 21.9251 314.9815)" class="st8" width="1.5" height="270.5"/>
				
					<rect x="283.4" y="0.5" transform="matrix(0.4946 -0.8691 0.8691 0.4946 26.0256 315.3844)" class="st8" width="1.5" height="269.7"/>
				
					<rect x="285.8" y="-2.6" transform="matrix(0.4946 -0.8691 0.8691 0.4946 30.201 315.711)" class="st8" width="1.5" height="268.9"/>
				
					<rect x="288.2" y="-5.6" transform="matrix(0.4946 -0.8691 0.8691 0.4946 34.376 316.0379)" class="st8" width="1.5" height="268.1"/>
				
					<rect x="290.5" y="-8.5" transform="matrix(0.4946 -0.8691 0.8691 0.4946 38.476 316.3651)" class="st8" width="1.5" height="267.2"/>
				
					<rect x="293" y="-11.5" transform="matrix(0.4946 -0.8691 0.8691 0.4946 42.6521 316.8047)" class="st8" width="1.5" height="266.5"/>
			</g>
		</g>
	</g>
</g>
</svg>
