<?xml version="1.0" encoding="utf-8"?>
<!-- Generator: Adobe Illustrator 23.0.3, SVG Export Plug-In . SVG Version: 6.00 Build 0)  -->
<svg version="1.1" id="Layer_1" xmlns="http://www.w3.org/2000/svg" xmlns:xlink="http://www.w3.org/1999/xlink" x="0px" y="0px"
	 viewBox="0 0 991.1 155" style="enable-background:new 0 0 991.1 155;" xml:space="preserve">
<style type="text/css">
	.st0{fill:#FFFFFF;}
</style>
<g>
	<path class="st0" d="M946.9,144h14.5c9.9,0,16.5-6.6,16.5-16.5v-27.3c0-10.2,3.3-13.2,13.2-13.2V69.2c-9.9,0-13.2-2.9-13.2-13.2
		V28.7c0-9.9-6.6-16.5-16.5-16.5h-14.5v17.9h4.4c5.2,0,6.8,1.8,6.8,7.4v24.6c0,13,5.6,15.1,12.2,16.1c-6.6,1-12.2,3.1-12.2,16.1
		v24.6c0,5.6-1.5,7.4-6.8,7.4h-4.4V144z M893.4,69.1c1.5-7.9,7.6-15.8,18-15.8c10.9,0,16,7.6,17.8,15.8H893.4z M911.4,121.4
		c20.1,0,31.3-9.5,37.7-24.2l-16.5-6.1c-5,8.5-10.7,12.8-20.1,12.8c-12.7,0-19.1-9.5-19.6-18.8H950v-8.4c0-18.2-11-41-38.7-41
		c-28.5,0-39.9,23.2-39.9,42.8C871.5,98.2,882.9,121.4,911.4,121.4 M829.9,120.2h18.4l28.2-83h-20.6L839.1,95l-16.7-57.9h-20.6
		L829.9,120.2z M779,120.2h20.5v-83H779V120.2z M789.2,26.4c7.6,0,13.2-5.8,13.2-13.2S796.8,0,789.2,0C781.6,0,776,5.8,776,13.2
		S781.6,26.4,789.2,26.4 M762.8,121.4c4.4,0,8.9-0.8,13.5-2.9l-4.8-16.5c-2.8,1.5-5.1,2-7.9,2c-6.9,0-10.9-3.3-10.9-13.5V54.6h21.9
		V37.1h-21.8V3.5l-20.5,12.8v20.8h-12.8v17.4h12.8v36.3C732.3,111.4,744.1,121.4,762.8,121.4 M682.8,121.4
		c18.4,0,31.5-8.1,37.7-23.8l-18.2-7.4c-4.3,8.7-10.2,13.7-19.4,13.7c-12.8,0-19.1-10.7-19.1-25.4c0-14.7,6.2-25.4,19.1-25.4
		c9.3,0,15.1,5,19.4,13.7l18.2-7.4c-6.2-15.7-19.3-23.8-37.7-23.8c-27,0-40.5,19.4-40.5,42.8C642.3,102,655.7,121.4,682.8,121.4
		 M582.6,69.1c1.5-7.9,7.6-15.8,18-15.8c10.9,0,16,7.6,17.8,15.8H582.6z M600.6,121.4c20.1,0,31.3-9.5,37.7-24.2l-16.5-6.1
		c-5,8.5-10.7,12.8-20.1,12.8c-12.7,0-19.1-9.5-19.6-18.8h57.1v-8.4c0-18.2-11-41-38.7-41c-28.5,0-39.9,23.2-39.9,42.8
		C560.7,98.2,572,121.4,600.6,121.4 M535,120.2h20.5V3.5H535V120.2z M503.2,120.2h20.5V3.5h-20.5V120.2z M455.8,104
		c-13.2,0-20.7-11.7-20.7-25.4c0-13.7,7.6-25.4,20.7-25.4s20.7,11.7,20.7,25.4C476.5,92.3,469,104,455.8,104 M455.8,121.4
		c26.7,0,42.2-18.8,42.2-42.8s-15.5-42.8-42.2-42.8s-42.2,18.8-42.2,42.8S429.1,121.4,455.8,121.4 M376.2,121.4
		c18.4,0,31.5-8.1,37.7-23.8l-18.2-7.4c-4.3,8.7-10.2,13.7-19.4,13.7c-12.8,0-19.1-10.7-19.1-25.4c0-14.7,6.2-25.4,19.1-25.4
		c9.3,0,15.1,5,19.4,13.7l18.2-7.4c-6.2-15.7-19.3-23.8-37.7-23.8c-27,0-40.5,19.4-40.5,42.8C335.7,102,349.2,121.4,376.2,121.4
		 M326,144h14.5v-17.8h-4.4c-5.2,0-6.8-1.8-6.8-7.4V94.2c0-13-5.6-15.1-12.2-16.1c6.6-1,12.2-3.1,12.2-16.1V37.4
		c0-5.6,1.5-7.4,6.8-7.4h4.4V12.2H326c-9.9,0-16.5,6.6-16.5,16.5v27.4c0,10.2-3.3,13.2-13.2,13.2v17.8c9.9,0,13.2,2.9,13.2,13.2
		v27.3C309.5,137.4,316.1,144,326,144 M232.9,69.1c1.5-7.9,7.6-15.8,18-15.8c10.9,0,16,7.6,17.8,15.8H232.9z M250.9,121.4
		c20.1,0,31.3-9.5,37.7-24.2l-16.5-6.1c-5,8.5-10.7,12.8-20.1,12.8c-12.7,0-19.1-9.5-19.6-18.8h57.1v-8.4c0-18.2-11-41-38.7-41
		c-28.5,0-39.9,23.2-39.9,42.8C211,98.2,222.4,121.4,250.9,121.4 M183.4,120.2h20.5V3.5h-20.5V120.2z M152.6,120.2h20.5v-83h-20.5
		L152.6,120.2L152.6,120.2z M162.8,26.4c7.6,0,13.2-5.8,13.2-13.2S170.4,0,162.8,0s-13.2,5.8-13.2,13.2S155.2,26.4,162.8,26.4
		 M111.1,138c-10.7,0-18.6-3.9-18.6-11.8c0-3.1,0.5-5.6,1.8-7.6c2.9,0.5,6.1,0.6,9.5,0.6H115c7.7,0,13.3,1.7,13.3,8.5
		C128.5,135.1,120.8,138,111.1,138 M110.9,75c-6.6,0-11.4-4.4-11.4-11.2c0-6.9,4.8-11.6,11.4-11.6s11.4,4.6,11.4,11.6
		C122.3,70.5,117.5,75,110.9,75 M111.1,155c18.4,0,37.7-8.3,37.7-28.7c0-16-11.7-24.4-29.2-24.4h-17c-5,0-7.7-2.1-7.7-6.1
		c0-2.7,1.5-4.8,3.9-6.2c3.6,1.2,7.7,1.8,12,1.8c16.8,0,30.4-10.2,30.4-27.7c0-5-1.2-9.4-3.3-13.2l11.8-6l-7.9-13.4l-15.6,8.2
		c-4.6-2.3-9.7-3.6-15.3-3.6c-16.8,0-30.4,10.7-30.4,28c0,6.9,2.1,12.7,5.8,17.2c-6.1,3.6-10.2,9.5-10.2,17.4
		c0,5.2,1.7,9.7,4.3,12.8c-4.3,3.9-6.8,9.7-6.8,16.5C73.6,145.8,89.8,155,111.1,155 M30.6,104c-5.4,0-9.3-3.3-9.3-8.1
		c0-7.4,5.4-10.7,14.1-10.7h13.7v1.7C49.3,97.6,39.8,104,30.6,104 M25.1,121.4c11.8,0,19.8-4.8,25.5-11.8l2.2,10.5h16.8V70.5
		c0-23.2-13-34.8-34.9-34.8c-16.6,0-29,9.4-31.6,23l17.3,4c2.7-6.9,7.7-9.5,14.3-9.5c7.6,0,14.5,3.5,14.5,12.2V69H34.8
		C13.5,69,0,79.7,0,96.1S11,121.4,25.1,121.4"/>
</g>
</svg>
