<svg xmlns="http://www.w3.org/2000/svg" width="182" height="43" xmlns:xlink="http://www.w3.org/1999/xlink"><defs><path id="a" d="M.37 38.487h23.955V.287H.37z"/></defs><g fill="none" fill-rule="evenodd"><path fill="#FFF" d="M15.813 23.086L12.92 25.11c-3.634 2.558-4.307 3.84-4.307 6.94 0 2.76 1.143 4.312 2.892 4.312 2.693 0 4.308-2.964 4.308-6.808v-6.468zm8.21 11.052c0 2.36.47 4.31.47 5.46 0 2.152-1.48 3.23-4.104 3.23-2.22 0-4.308-1.078-4.308-4.648l-.133.068c-1.482 3.3-4.512 4.58-7.47 4.58C3.632 42.83 0 39.932 0 33.06c0-5.524 1.546-8.694 5.853-10.983l7.334-3.84c1.818-.945 2.626-2.293 2.626-3.842 0-1.95-1.076-3.637-3.163-3.637-2.825 0-3.7 1.414-4.037 4.313-.202 1.614-1.75 2.627-3.903 2.627-1.818 0-4.307-.875-4.307-3.368 0-6.333 5.114-9.7 11.44-9.7 10.97 0 12.18 4.847 12.18 10.778v18.73zM28.544 20.394c0-8.76 1.076-15.765 12.046-15.765 9.42 0 11.37 6.67 11.37 9.968 0 3.235-1.748 4.648-4.036 4.648-2.758 0-4.17-1.28-4.17-4.648 0-2.292-1.348-3.5-3.097-3.5-3.297 0-3.5 3.7-3.5 8.554v8.085c0 6.064.876 8.625 3.5 8.625 1.546 0 3.028-.81 3.096-3.706.2-4.65 1.547-5.93 4.17-5.93 2.425 0 4.038 1.752 4.038 4.785 0 3.638-1.68 11.32-11.37 11.32-10.97 0-12.046-7.01-12.046-15.77v-6.666zM56.24 20.394c0-8.76 1.075-15.765 12.042-15.765 9.424 0 11.372 6.67 11.372 9.968 0 3.235-1.75 4.648-4.035 4.648-2.76 0-4.174-1.28-4.174-4.648 0-2.292-1.346-3.5-3.096-3.5-3.298 0-3.498 3.7-3.498 8.554v8.085c0 6.064.875 8.625 3.498 8.625 1.55 0 3.03-.81 3.096-3.706.203-4.65 1.55-5.93 4.173-5.93 2.422 0 4.034 1.752 4.034 4.785 0 3.638-1.68 11.32-11.372 11.32-10.967 0-12.04-7.01-12.04-15.77v-6.666z"/><g transform="translate(83.547 4.342)"><mask id="b" fill="#fff"><use xlink:href="#a"/></mask><path fill="#FEFEFE" d="M16.113 14.704V11.67c0-2.762-.874-4.915-3.567-4.915-2.69 0-3.564 2.153-3.564 4.915v3.034h7.13zM.37 15.58C.37 6.28 1.713.286 12.883.286c8.546 0 11.442 4.782 11.442 14.352 0 3.298-.406 5.86-4.576 5.86H8.98v3.705c0 4.378.338 7.815 3.698 7.815 1.753 0 3.1-1.82 3.164-3.774.138-3.572 1.75-4.382 4.04-4.382 2.42 0 4.17.81 4.17 4.044 0 6.605-4.508 10.58-11.17 10.58C1.713 38.487.37 32.49.37 23.193V15.58z" mask="url(#b)"/></g><path fill="#FFF" d="M117.62 24.1c-4.708-3.506-5.517-5.796-5.517-9.636 0-6.602 4.645-9.835 11.24-9.835 8.748 0 11.034 5.994 11.034 8.96 0 2.422-1.012 4.043-4.307 4.043-2.22 0-3.23-1.145-3.365-3.17-.134-2.494-1.48-3.705-3.567-3.705-1.683 0-2.826 1.08-2.826 2.83 0 1.21.47 2.493 1.818 3.503l5.047 3.842c5.113 3.84 7.806 6.267 7.806 11.183 0 7.143-5.182 10.714-11.913 10.714-8.812 0-11.304-5.795-11.304-10.042 0-3.097 1.952-4.107 3.904-4.107 3.027 0 4.036 1.616 4.307 5.054.134 1.55 1.01 2.963 3.565 2.963 2.155 0 3.232-1.214 3.232-3.368 0-1.82-.605-2.832-2.895-4.583l-6.26-4.647zM144.87 24.1c-4.71-3.506-5.516-5.796-5.516-9.636 0-6.602 4.642-9.835 11.24-9.835 8.745 0 11.034 5.994 11.034 8.96 0 2.422-1.01 4.043-4.307 4.043-2.22 0-3.23-1.145-3.363-3.17-.135-2.494-1.48-3.705-3.567-3.705-1.684 0-2.827 1.08-2.827 2.83 0 1.21.47 2.493 1.815 3.503l5.05 3.842c5.114 3.84 7.806 6.267 7.806 11.183 0 7.143-5.182 10.714-11.913 10.714-8.814 0-11.303-5.795-11.303-10.042 0-3.097 1.953-4.107 3.9-4.107 3.03 0 4.04 1.616 4.308 5.054.138 1.55 1.012 2.963 3.568 2.963 2.155 0 3.23-1.214 3.23-3.368 0-1.82-.607-2.832-2.893-4.583l-6.26-4.647z"/><path fill="#FF2167" d="M178.656 5.507c1.656-.59 2.66 0 3.017 1.186.413 1.185-.06 2.195-1.774 2.783l-4.024 1.305 2.483 3.437c1.064 1.423.827 2.548-.18 3.258-1.004.77-2.13.595-3.19-.827l-2.487-3.438-2.487 3.438c-1.065 1.422-2.19 1.597-3.195.827-1.004-.71-1.24-1.835-.174-3.258l2.483-3.436-4.024-1.36c-1.718-.532-2.19-1.542-1.774-2.727.356-1.186 1.362-1.777 3.074-1.186l4.026 1.304V2.547c0-1.776.827-2.546 2.07-2.546 1.244 0 2.072.77 2.072 2.546V6.81h.06l4.022-1.303z"/></g></svg>