<?xml version="1.0" encoding="UTF-8"?>
<!-- Generator: Adobe Illustrator 21.1.0, SVG Export Plug-In . SVG Version: 6.00 Build 0)  -->
<svg version="1.1" id="Layer_1" xmlns="http://www.w3.org/2000/svg" xmlns:xlink="http://www.w3.org/1999/xlink" x="0px" y="0px" viewBox="0 0 367.4 68.9" style="enable-background:new 0 0 367.4 68.9;" xml:space="preserve">
<style type="text/css">
	.st0{fill:#FEC800;}
	.st1{fill:#FFFFFF;}
</style>
<g>
	<circle class="st0" cx="359.1" cy="60.6" r="8.3"/>
	<path class="st1" d="M55.9,24.3c0-15-11.4-24.1-25.9-24.1c-13,0-22.5,5.4-28.6,16l10.2,5.6c3.9-6.8,9.4-9.5,16.9-9.5   c7.6,0,13.3,2.8,13.9,9.7c0.3,2.8-1.2,4.3-4.3,4.3H27.1c-8.4,0-13.8,1.1-18,3.8c-6,3.9-9.5,10.6-9.1,17.7c0.1,6.2,2.4,11.1,7,15   c4.6,3.8,10.5,5.6,17.6,5.6c7.1,0,15.3-3,19.7-7.8c0.8,3.5,1.4,4.9,2.2,6.6h14.2C55.4,58.3,56.2,40.7,55.9,24.3z M42.7,40.2   C42,51,35.3,56.7,25,56.7c-7.4,0-12.6-3.2-12.6-9.8c0-6.3,5.6-10.2,14.9-10.2c7.2,0,12.3-0.1,15.4-0.3V40.2z"/>
	<path class="st1" d="M279.6,19.4c-1.2-4.8-6-7.8-12.1-7.8c-6.4,0-10.7,3.1-10.7,8.3c0,3.2,2.1,5.8,6.3,6.7c5.4,1.3,9.7,2.3,12.7,3   c10.5,2.5,15.7,8.8,15.7,18.9c0,5.8-2.3,10.6-6.7,14.2c-4.4,3.6-10.1,5.5-16.9,5.5c-13.5,0-24-6.8-26.1-17.6l12.7-2.1   c0.9,4.8,6,8,13.4,8c6.8,0,10.7-2.8,10.7-7.8c0-3.6-2.1-5.8-7.5-7c-3.6-0.7-7.6-1.7-12.2-3c-9.3-2.3-14.9-9.4-14.9-18.4   C244.1,9.3,254.1,0,267,0c12.7,0,22.5,6.6,25.1,16.6L279.6,19.4z"/>
	<path class="st1" d="M333.6,19.4c-1.2-4.8-6-7.8-12.1-7.8c-6.4,0-10.7,3.1-10.7,8.3c0,3.2,2.1,5.8,6.3,6.7c5.4,1.3,9.7,2.3,12.7,3   c10.5,2.5,15.7,8.8,15.7,18.9c0,5.8-2.3,10.6-6.7,14.2c-4.4,3.6-10.1,5.5-16.9,5.5c-13.5,0-24-6.8-26.1-17.6l12.7-2.1   c0.9,4.8,6,8,13.4,8c6.8,0,10.7-2.8,10.7-7.8c0-3.6-2.1-5.8-7.5-7c-3.6-0.7-7.6-1.7-12.2-3c-9.3-2.3-14.9-9.4-14.9-18.4   C298.1,9.3,308.2,0,321,0c12.7,0,22.5,6.6,25.1,16.6L333.6,19.4z"/>
	<path class="st1" d="M222,48.4c-3.2,4.3-8.7,7-15.4,7c-9,0-16.6-6.6-18.9-15.7h50.9l0.1-5.2c0-2.8-0.4-9.4-2.7-14.9   C231.5,7.6,220.1,0,206.7,0c-17.3-0.4-32.7,15.7-32.3,34.1c-0.4,18.4,15,34.6,32.3,34.2c13,0,24-6.8,28.6-17.6L222,48.4z    M206.7,12.6c6.4,0,12.1,3,15.2,7.8c2,2.3,3.6,6.3,4,9h-38.3C189.5,19.7,197.5,12.6,206.7,12.6z"/>
	<path class="st1" d="M94.6,56.3c-5.9,0-10.7-2-14.3-6.2c-3.6-4.2-5.4-9.4-5.4-15.6c0-6.3,1.7-11.5,5.4-15.7   c3.6-4.2,8.4-6.3,14.3-6.3c5.7,0,10,1.8,13.1,4.8l7.5-9.9c-5.5-4.5-12.7-7.1-20.6-7.1C77.1,0,61.1,16.2,61.5,34.6   C61.3,53,76.8,68.7,94.6,68.3c10.4,0,19.4-4.2,24.9-11.3c-2.9-3.5-5.1-7.5-6.7-12C110.6,50.6,103.2,56.3,94.6,56.3z"/>
	<path class="st1" d="M151.1,56.3c-5.9,0-10.7-2-14.3-6.2c-3.6-4.2-5.4-9.4-5.4-15.6c0-6.3,1.7-11.5,5.4-15.7   c3.6-4.2,8.4-6.3,14.3-6.3c5.7,0,10,1.8,13.2,4.9l7.5-10c-5.5-4.5-12.7-7.1-20.6-7.1C133.6,0,117.6,16.2,118,34.6   c-0.3,18.4,15.3,34.1,33.1,33.7c10.4,0,19.4-4.2,24.9-11.3c-2.9-3.5-5.1-7.5-6.7-12C167.1,50.6,159.7,56.3,151.1,56.3z"/>
</g>
</svg>