<?xml version="1.0" encoding="UTF-8" standalone="no"?>
<!-- Page 1 -->

<svg
   xmlns:dc="http://purl.org/dc/elements/1.1/"
   xmlns:cc="http://creativecommons.org/ns#"
   xmlns:rdf="http://www.w3.org/1999/02/22-rdf-syntax-ns#"
   xmlns:svg="http://www.w3.org/2000/svg"
   xmlns="http://www.w3.org/2000/svg"
   xmlns:sodipodi="http://sodipodi.sourceforge.net/DTD/sodipodi-0.dtd"
   xmlns:inkscape="http://www.inkscape.org/namespaces/inkscape"
   x="0"
   y="0"
   width="916"
   height="408"
   viewBox="0 0 916 408"
   version="1.1"
   style="display:block"
   id="svg3468"
   inkscape:version="0.91 r13725"
   sodipodi:docname="agile_drop.svg">
  <metadata
     id="metadata3544">
    <rdf:RDF>
      <cc:Work
         rdf:about="">
        <dc:format>image/svg+xml</dc:format>
        <dc:type
           rdf:resource="http://purl.org/dc/dcmitype/StillImage" />
        <dc:title></dc:title>
      </cc:Work>
    </rdf:RDF>
  </metadata>
  <sodipodi:namedview
     pagecolor="#ffffff"
     bordercolor="#666666"
     borderopacity="1"
     objecttolerance="10"
     gridtolerance="10"
     guidetolerance="10"
     inkscape:pageopacity="0"
     inkscape:pageshadow="2"
     inkscape:window-width="1262"
     inkscape:window-height="714"
     id="namedview3542"
     showgrid="false"
     inkscape:zoom="0.60371179"
     inkscape:cx="594.32054"
     inkscape:cy="155.27646"
     inkscape:window-x="0"
     inkscape:window-y="0"
     inkscape:window-maximized="0"
     inkscape:current-layer="layer1" />
  <defs
     id="defs3470">
    <style
       type="text/css"
       id="style3472"><![CDATA[

.g0_1{
fill: #323332;
}
.g1_1{
fill: #F04722;
}
.g2_1{
fill: #8A8A8A;
}


]]></style>
  </defs>
  <g
     inkscape:groupmode="layer"
     id="layer1"
     inkscape:label="Background">
    <rect
       style="fill:#ffffff"
       id="rect3559"
       width="929.25134"
       height="422.38699"
       x="-4.9692588"
       y="-6.1048822" />
  </g>
  <path
     d="m 299.0517,163.86238 c -2.6,0 -5.2,0.5 -7.5,1.5 -2.3,1 -4.4,2.4 -6.1,4.1 -1.7,1.8 -3.1,3.9 -4.1,6.2 -1.1,2.4 -1.6,4.9 -1.6,7.6 0,2.6 0.5,5.1 1.6,7.5 1,2.3 2.4,4.4 4.1,6.1 1.7,1.7 3.8,3.1 6.1,4.1 2.3,1 4.9,1.5 7.5,1.5 2.7,0 5.2,-0.5 7.5,-1.5 2.3,-1 4.4,-2.4 6.1,-4.1 1.8,-1.7 3.1,-3.8 4.2,-6.1 1,-2.4 1.5,-4.9 1.5,-7.5 0,-2.7 -0.5,-5.2 -1.5,-7.6 -1.1,-2.3 -2.4,-4.4 -4.2,-6.2 -1.7,-1.7 -3.8,-3.1 -6.1,-4.1 -2.3,-1 -4.9,-1.5 -7.5,-1.5 m 0,46.2 c -3.6,0 -7.1,-0.7 -10.3,-2.1 -3.3,-1.4 -6.2,-3.3 -8.7,-5.8 -2.5,-2.5 -4.5,-5.5 -5.8,-8.7 -1.3,-3.3 -2,-6.7 -2,-10.2 0,-3.6 0.7,-7.1 2,-10.3 1.3,-3.3 3.3,-6.2 5.8,-8.8 2.5,-2.5 5.4,-4.4 8.7,-5.8 3.3,-1.3 6.7,-2 10.3,-2 3.6,0 7.1,0.7 10.3,2 3.3,1.4 6.2,3.3 8.7,5.8 2.5,2.6 4.5,5.5 5.8,8.8 1.3,3.2 2,6.7 2,10.3 l 0,26.2 c 0,0.3 -0.2,0.6 -0.5,0.6 l -6.6,0 c -0.3,0 -0.5,-0.3 -0.5,-0.6 l 0,-6.6 c 0,-0.5 -0.7,-0.7 -1,-0.4 -0.9,1 -1.7,1.8 -2.6,2.5 -1.6,1.2 -3.2,2.2 -5,3 -1.7,0.7 -3.5,1.3 -5.3,1.6 -1.8,0.3 -3.6,0.5 -5.3,0.5 z"
     class="g0_1"
     id="path3476"
     inkscape:connector-curvature="0"
     style="fill:#323332" />
  <path
     d="m 361.3517,163.86238 c -2.6,0 -5.1,0.5 -7.4,1.5 -2.4,1 -4.4,2.4 -6.2,4.1 -1.7,1.8 -3.1,3.9 -4.1,6.2 -1,2.4 -1.5,4.9 -1.5,7.6 0,2.6 0.5,5.1 1.5,7.5 1,2.3 2.4,4.4 4.1,6.1 1.8,1.7 3.8,3.1 6.2,4.1 2.3,1 4.8,1.5 7.4,1.5 2.7,0 5.2,-0.5 7.5,-1.5 2.4,-1 4.4,-2.4 6.2,-4.1 1.7,-1.7 3.1,-3.8 4.1,-6.1 1,-2.4 1.5,-4.9 1.5,-7.5 0,-2.7 -0.5,-5.2 -1.5,-7.6 -1,-2.3 -2.4,-4.4 -4.1,-6.2 -1.8,-1.7 -3.8,-3.1 -6.2,-4.1 -2.3,-1 -4.8,-1.5 -7.5,-1.5 m 0,66.6 c -3.5,0 -7,-0.7 -10.2,-2 -6.6,-3.1 -10.7,-8.1 -11.9,-9.7 -0.2,-0.3 -0.2,-0.6 0.1,-0.8 l 5.2,-3.7 c 0.3,-0.2 0.6,-0.1 0.8,0.2 0.8,1.1 3.2,4 6.7,6.1 2.8,1.6 5.9,2.4 9.3,2.4 2.7,0 5.2,-0.5 7.5,-1.6 2.4,-1 4.4,-2.4 6.2,-4.1 1.7,-1.7 3.1,-3.8 4.1,-6.1 1,-2.3 1.5,-4.9 1.5,-7.5 l 0,-0.5 c 0,-0.5 -0.6,-0.8 -1,-0.4 -2.4,2.2 -5.1,3.9 -7.9,5.1 -3.3,1.5 -6.8,2.2 -10.4,2.2 -3.5,0 -7,-0.7 -10.3,-2.1 -3.2,-1.4 -6.1,-3.3 -8.6,-5.8 -2.6,-2.5 -4.5,-5.5 -5.9,-8.7 -1.3,-3.3 -2,-6.7 -2,-10.2 0,-3.6 0.7,-7.1 2,-10.3 1.4,-3.3 3.3,-6.2 5.9,-8.8 2.5,-2.5 5.4,-4.4 8.6,-5.8 3.3,-1.3 6.8,-2 10.3,-2 1.8,0 3.7,0.2 5.5,0.5 1.9,0.4 3.8,1 5.5,1.7 1.8,0.7 3.5,1.7 5,2.8 1,0.7 1.9,1.5 2.7,2.4 0.3,0.3 0.9,0.1 1,-0.3 l 0.8,-6.5 c 0,-0.3 0.2,-0.5 0.5,-0.5 l 5.4,0 c 0.3,0 0.5,0.3 0.5,0.6 l 0,46.6 c 0,3.6 -0.7,7 -2,10.3 -1.4,3.3 -3.3,6.2 -5.9,8.7 -2.5,2.5 -5.4,4.5 -8.6,5.8 -3.3,1.3 -6.8,2 -10.4,2 z"
     class="g0_1"
     id="path3478"
     inkscape:connector-curvature="0"
     style="fill:#323332" />
  <path
     d="m 408.4517,148.36238 c -1.3,0 -2.3,-0.4 -3.2,-1.2 -0.8,-0.9 -1.3,-2 -1.3,-3.2 0,-1.3 0.5,-2.4 1.3,-3.2 0.9,-0.9 1.9,-1.4 3.2,-1.4 1.3,0 2.3,0.5 3.2,1.4 0.9,0.8 1.3,1.9 1.3,3.2 0,1.2 -0.4,2.3 -1.3,3.2 -0.9,0.8 -1.9,1.2 -3.2,1.2 m -3.7,61.1 0,-52.4 c 0,-0.3 0.3,-0.6 0.6,-0.6 l 6.5,0 c 0.3,0 0.6,0.3 0.6,0.6 l 0,52.4 c 0,0.3 -0.3,0.6 -0.6,0.6 l -6.5,0 c -0.3,0 -0.6,-0.3 -0.6,-0.6 z"
     class="g0_1"
     id="path3480"
     inkscape:connector-curvature="0"
     style="fill:#323332" />
  <path
     d="m 430.7517,209.46238 0,-69.5 c 0,-0.3 0.3,-0.5 0.6,-0.5 l 6.5,0 c 0.3,0 0.6,0.2 0.6,0.5 l 0,69.5 c 0,0.3 -0.3,0.6 -0.6,0.6 l -6.5,0 c -0.3,0 -0.6,-0.3 -0.6,-0.6 z"
     class="g0_1"
     id="path3482"
     inkscape:connector-curvature="0"
     style="fill:#323332" />
  <path
     d="m 495.0517,176.16238 c 0.4,0 0.6,-0.4 0.5,-0.8 -1.4,-3.1 -3.6,-5.8 -6.5,-7.9 -3.2,-2.4 -7,-3.6 -11.1,-3.6 -2.1,0 -4.1,0.3 -6,0.9 -1.9,0.7 -3.6,1.6 -5.2,2.7 -1.6,1.1 -3,2.5 -4.2,4 -0.9,1.2 -1.6,2.6 -2.3,3.9 -0.1,0.4 0.1,0.8 0.6,0.8 z m -17.1,33.9 c -3.6,0 -7.1,-0.7 -10.3,-2.1 -3.3,-1.4 -6.2,-3.3 -8.7,-5.8 -2.5,-2.5 -4.5,-5.4 -5.8,-8.7 -1.3,-3.2 -2,-6.6 -2,-10.2 0,-3.6 0.7,-7.1 2,-10.3 1.3,-3.3 3.3,-6.2 5.8,-8.7 2.5,-2.5 5.4,-4.5 8.7,-5.9 3.2,-1.3 6.7,-2 10.3,-2 3.6,0 7,0.7 10.3,2 3.2,1.4 6.1,3.4 8.7,5.9 2.5,2.5 4.4,5.4 5.8,8.8 1.3,3.3 1.9,6.8 1.9,10.4 l 0,0.4 -45.4,0 c -0.3,0 -0.6,0.3 -0.5,0.6 0.1,2.1 0.6,4.4 1.5,6.4 1,2.3 2.4,4.3 4.2,6 1.7,1.7 3.7,3.1 6.1,4.1 2.2,1 4.7,1.5 7.4,1.5 3.6,0 6.9,-0.9 9.9,-2.7 2.9,-1.8 5.3,-4.3 6.9,-7.2 l 0.1,-0.3 8.3,0 -0.2,0.6 c -1.3,3.5 -3.4,6.6 -6,9.3 -2.6,2.5 -5.5,4.4 -8.7,5.8 -3.3,1.4 -6.7,2.1 -10.3,2.1 z"
     class="g0_1"
     id="path3484"
     inkscape:connector-curvature="0"
     style="fill:#323332" />
  <path
     d="m 538.5517,163.86238 c -2.6,0 -5.2,0.5 -7.5,1.5 -2.3,1 -4.4,2.4 -6.1,4.1 -1.8,1.8 -3.1,3.8 -4.2,6.2 -1,2.3 -1.5,4.8 -1.5,7.5 0,2.6 0.5,5.2 1.5,7.5 1.1,2.4 2.4,4.5 4.2,6.2 1.7,1.7 3.8,3.1 6.1,4.1 2.3,1 4.8,1.5 7.5,1.5 2.6,0 5.2,-0.5 7.5,-1.5 2.3,-1 4.4,-2.4 6.1,-4.1 1.7,-1.7 3.1,-3.8 4.1,-6.2 1.1,-2.3 1.6,-4.9 1.6,-7.5 0,-2.7 -0.5,-5.2 -1.6,-7.5 -1,-2.4 -2.4,-4.4 -4.1,-6.2 -1.7,-1.7 -3.8,-3.1 -6.1,-4.1 -2.3,-1 -4.9,-1.5 -7.5,-1.5 m 0,46.2 c -3.6,0 -7.1,-0.7 -10.3,-2.1 -3.3,-1.4 -6.2,-3.3 -8.7,-5.8 -2.5,-2.5 -4.5,-5.5 -5.8,-8.7 -1.3,-3.3 -2,-6.7 -2,-10.3 0,-3.5 0.7,-7 2,-10.2 1.3,-3.3 3.3,-6.2 5.8,-8.8 2.5,-2.5 5.4,-4.4 8.7,-5.8 3.2,-1.3 6.7,-2 10.3,-2 3.6,0 7,0.7 10.3,2 2.5,1.1 6.3,3.9 8.1,5.3 0.4,0.3 0.9,0.1 0.9,-0.4 l 0,-23.3 c 0,-0.3 0.3,-0.5 0.6,-0.5 l 6.1,0 c 0.4,0 0.6,0.2 0.6,0.5 l 0,43.2 c 0,3.6 -0.6,7 -1.9,10.3 -1.3,3.2 -3.3,6.2 -5.8,8.7 -2.5,2.5 -5.4,4.4 -8.6,5.8 -3.3,1.4 -6.7,2.1 -10.3,2.1 z"
     class="g0_1"
     id="path3486"
     inkscape:connector-curvature="0"
     style="fill:#323332" />
  <path
     d="m 576.2517,209.46238 0,-52.4 c 0,-0.3 0.3,-0.6 0.6,-0.6 l 5.2,0 c 0.3,0 0.5,0.2 0.6,0.4 l 1.1,3.6 c 0.2,0.4 0.6,0.5 0.9,0.3 1.8,-1.4 3.7,-2.4 5.7,-3.2 2.5,-1 5.2,-1.4 7.9,-1.4 0.9,0 1.8,0 2.6,0.1 0.8,0.1 1.7,0.2 2.6,0.4 l 0.4,0 0,7.9 -0.6,-0.1 c -1.6,-0.5 -3.3,-0.8 -4.9,-0.8 -2,0 -4,0.4 -5.7,1.2 -1.8,0.7 -3.3,1.8 -4.6,3.1 -1.4,1.3 -2.3,2.8 -3.1,4.6 -0.7,1.7 -1,3.7 -1,5.7 l 0,31.2 c 0,0.3 -0.3,0.6 -0.6,0.6 l -6.5,0 c -0.3,0 -0.6,-0.3 -0.6,-0.6 z"
     class="g0_1"
     id="path3488"
     inkscape:connector-curvature="0"
     style="fill:#323332" />
  <path
     d="m 635.7517,163.86238 c -2.7,0 -5.2,0.5 -7.5,1.5 -2.3,1 -4.4,2.4 -6.1,4.1 -1.8,1.8 -3.2,3.9 -4.2,6.2 -1,2.4 -1.5,4.9 -1.5,7.6 0,2.6 0.5,5.1 1.5,7.5 1,2.3 2.4,4.4 4.2,6.1 1.7,1.7 3.8,3.1 6.1,4.1 2.3,1 4.8,1.5 7.5,1.5 2.6,0 5.2,-0.5 7.5,-1.5 2.3,-1 4.4,-2.4 6.2,-4.1 1.7,-1.7 3.1,-3.8 4.1,-6.1 1,-2.4 1.6,-4.9 1.6,-7.5 0,-2.7 -0.6,-5.2 -1.6,-7.6 -1,-2.3 -2.4,-4.4 -4.1,-6.1 -1.8,-1.8 -3.9,-3.2 -6.2,-4.2 -2.3,-1 -4.9,-1.5 -7.5,-1.5 m 0,46.2 c -3.6,0 -7.1,-0.7 -10.3,-2.1 -3.2,-1.4 -6.1,-3.3 -8.7,-5.8 -2.4,-2.5 -4.4,-5.5 -5.8,-8.7 -1.3,-3.3 -2,-6.7 -2,-10.2 0,-3.6 0.7,-7.1 2,-10.3 1.4,-3.3 3.4,-6.2 5.8,-8.8 2.6,-2.5 5.5,-4.4 8.7,-5.8 3.2,-1.3 6.7,-2 10.3,-2 3.6,0 7,0.7 10.3,2 3.3,1.4 6.2,3.3 8.7,5.8 2.5,2.6 4.5,5.5 5.8,8.8 1.4,3.2 2.1,6.7 2.1,10.3 0,3.5 -0.7,6.9 -2.1,10.2 -1.3,3.2 -3.3,6.2 -5.8,8.7 -2.5,2.5 -5.4,4.4 -8.7,5.8 -3.3,1.4 -6.7,2.1 -10.3,2.1 z"
     class="g0_1"
     id="path3490"
     inkscape:connector-curvature="0"
     style="fill:#323332" />
  <path
     d="m 700.3517,163.86238 c -2.7,0 -5.2,0.5 -7.5,1.5 -2.4,1 -4.4,2.4 -6.2,4.1 -1.7,1.8 -3.1,3.9 -4.1,6.2 -1,2.4 -1.5,4.9 -1.5,7.6 0,2.6 0.5,5.1 1.5,7.5 1,2.3 2.4,4.4 4.1,6.1 1.8,1.7 3.8,3.1 6.2,4.1 2.3,1 4.8,1.5 7.5,1.5 2.6,0 5.1,-0.5 7.5,-1.5 2.3,-1 4.3,-2.4 6.1,-4.1 1.7,-1.7 3.1,-3.8 4.1,-6.1 1,-2.4 1.5,-4.9 1.5,-7.5 0,-2.7 -0.5,-5.2 -1.5,-7.6 -1,-2.3 -2.4,-4.4 -4.1,-6.2 -1.8,-1.7 -3.8,-3.1 -6.1,-4.1 -2.4,-1 -4.9,-1.5 -7.5,-1.5 m -26.3,64.8 c -0.3,0 -0.5,-0.3 -0.5,-0.6 l 0,-44.8 c 0,-3.6 0.6,-7.1 2,-10.3 1.3,-3.3 3.3,-6.2 5.8,-8.8 2.5,-2.5 5.4,-4.4 8.6,-5.8 3.3,-1.3 6.8,-2 10.4,-2 3.5,0 7,0.7 10.3,2 3.2,1.4 6.1,3.3 8.6,5.8 2.5,2.6 4.5,5.5 5.9,8.8 1.3,3.2 2,6.7 2,10.3 0,3.5 -0.7,6.9 -2,10.2 -1.4,3.2 -3.4,6.2 -5.9,8.7 -2.5,2.5 -5.4,4.4 -8.6,5.8 -3.3,1.4 -6.8,2.1 -10.3,2.1 -3.6,0 -7.1,-0.7 -10.4,-2.1 -3.7,-1.7 -6.5,-3.9 -7.8,-5.1 -0.4,-0.4 -1,-0.1 -1,0.4 l 0,24.8 c 0,0.3 -0.2,0.6 -0.5,0.6 z"
     class="g0_1"
     id="path3492"
     inkscape:connector-curvature="0"
     style="fill:#323332" />
  <path
     d="m 236.8517,210.46238 c -0.2,0 -0.5,0.2 -0.6,0.4 -1.7,2.3 -3.6,4.7 -5.7,6.8 -3,2.9 -6.4,5.5 -10,7.6 -0.6,0.4 -0.3,1.4 0.4,1.4 l 25.3,0 c 0.4,0 0.7,-0.4 0.7,-0.8 l 0,-14.6 c 0,-0.4 -0.3,-0.8 -0.7,-0.8 z"
     class="g1_1"
     id="path3494"
     inkscape:connector-curvature="0"
     style="fill:#f04722" />
  <path
     d="m 239.8517,182.86238 c 0,-10.2 -5.7,-23 -19,-39.2 -9.1,-11.2 -18.1,-19.8 -18.5,-20.1 l -5,-4.8 c -0.3,-0.3 -0.7,-0.3 -1,0 l -5.1,4.8 c -0.3,0.3 -9.4,8.9 -18.5,20.1 -13.2,16.2 -19.6,30.4 -19.6,40.6 0,6.9 1.6,14.4 4.5,20.5 0.1,0.2 0.4,0.4 0.6,0.4 l 17.5,0 c 0.6,0 1,-0.7 0.6,-1.2 -4.4,-5.1 -7.1,-12.6 -7.1,-19.7 0,-2.8 1.6,-12 15.9,-29.6 4,-4.9 8,-9.6 11.2,-13 0.2,-0.3 0.7,-0.3 1,0 3.2,3.3 7.2,7.6 11.2,12.5 14.3,17.6 15.9,26 15.9,28.8 0,15.2 -13.8,27.5 -28.7,27.6 -0.1,0 -47.6,-0.1 -47.6,-0.1 -0.4,0 -0.7,0.4 -0.7,0.8 l 0,14.6 c 0,0.4 0.3,0.8 0.7,0.8 12.2,0 47.5,0 47.6,0 23.8,-0.2 44.1,-19.7 44.1,-43.8 z"
     class="g1_1"
     id="path3496"
     inkscape:connector-curvature="0"
     style="fill:#f04722" />
  <path
     d="m 284.7517,251.76238 -9.1,0 0.5,-2.4 20.9,0 -0.5,2.4 -9.1,0 -5.3,25.2 -2.6,0 z"
     class="g2_1"
     id="path3498"
     inkscape:connector-curvature="0"
     style="fill:#8a8a8a" />
  <path
     d="m 295.6517,256.76238 2.4,0 -1,4.8 c 1,-1.4 2.1,-2.6 3.3,-3.5 1.3,-0.8 2.6,-1.3 3.9,-1.4 0.2,0 0.3,0 0.5,0.1 0.1,0 0.3,0 0.4,0 l -0.5,2.3 c -1.7,0.1 -3.2,0.6 -4.6,1.5 -1.4,0.9 -2.6,2.2 -3.5,3.8 l -2.5,12.6 -2.6,0 z"
     class="g2_1"
     id="path3500"
     inkscape:connector-curvature="0"
     style="fill:#8a8a8a" />
  <path
     d="m 310.2517,277.36238 c -3.1,0 -4.7,-1.7 -4.7,-5.2 0,-0.5 0,-1.1 0.1,-1.6 0.1,-0.6 0.2,-1.2 0.3,-1.9 l 2.5,-11.9 2.6,0 -2.4,11.4 c -0.2,1.2 -0.3,2.2 -0.3,3 0,2.6 1,3.9 3.2,3.9 0.7,0 1.5,-0.1 2.2,-0.4 0.7,-0.3 1.5,-0.6 2.1,-1.1 0.7,-0.5 1.4,-1.1 2,-1.8 0.6,-0.6 1.1,-1.4 1.6,-2.3 l 2.6,-12.7 2.6,0 -3.4,16.5 c -0.1,0.3 -0.1,0.6 -0.1,0.7 0,0.5 0.2,0.7 0.7,0.7 l -0.5,2.3 c -0.2,0.1 -0.4,0.1 -0.5,0.1 -0.2,0 -0.3,0 -0.4,0 -0.6,0 -1.1,-0.1 -1.4,-0.4 -0.3,-0.3 -0.4,-0.6 -0.4,-1.1 0,-0.1 0,-0.2 0,-0.3 0,-0.1 0,-0.3 0.1,-0.6 0,-0.2 0.1,-0.5 0.1,-0.8 0.1,-0.4 0.2,-0.9 0.3,-1.4 -1.2,1.5 -2.5,2.8 -4.1,3.6 -1.6,0.9 -3.2,1.3 -4.8,1.3 z"
     class="g2_1"
     id="path3502"
     inkscape:connector-curvature="0"
     style="fill:#8a8a8a" />
  <path
     d="m 332.3517,277.36238 c -1.4,0 -2.8,-0.2 -4.1,-0.7 -1.3,-0.6 -2.4,-1.3 -3.2,-2.3 l 1.5,-1.8 c 1.7,1.9 3.8,2.8 6.2,2.8 1.7,0 3.1,-0.4 4.2,-1.2 1,-0.8 1.6,-1.8 1.6,-3.1 0,-0.5 -0.1,-0.9 -0.3,-1.2 -0.2,-0.3 -0.5,-0.6 -0.9,-0.8 -0.4,-0.3 -1,-0.5 -1.6,-0.7 -0.6,-0.2 -1.3,-0.4 -2.1,-0.7 -0.9,-0.2 -1.7,-0.5 -2.3,-0.7 -0.7,-0.3 -1.3,-0.5 -1.7,-0.8 -0.5,-0.4 -0.8,-0.7 -1,-1.2 -0.3,-0.4 -0.4,-0.9 -0.4,-1.5 0,-1.1 0.3,-2.1 0.7,-3 0.5,-0.9 1.1,-1.6 1.9,-2.2 0.8,-0.6 1.7,-1.1 2.7,-1.4 1,-0.3 2.1,-0.5 3.2,-0.5 1.5,0 2.7,0.3 3.8,0.8 1.1,0.5 1.9,1.2 2.5,2 l -1.6,1.5 c -0.6,-0.7 -1.3,-1.3 -2.2,-1.7 -0.9,-0.4 -1.9,-0.6 -3,-0.6 -0.7,0 -1.4,0.1 -2.1,0.3 -0.6,0.2 -1.2,0.4 -1.7,0.8 -0.5,0.4 -0.9,0.8 -1.2,1.4 -0.3,0.5 -0.4,1.2 -0.4,1.9 0,0.8 0.3,1.4 0.9,1.8 0.7,0.3 1.7,0.7 3.1,1 2,0.6 3.6,1.2 4.7,1.8 1.1,0.7 1.6,1.7 1.6,3 0,1 -0.2,2 -0.6,2.8 -0.5,0.9 -1.1,1.6 -1.9,2.2 -0.7,0.7 -1.7,1.2 -2.7,1.5 -1.1,0.4 -2.3,0.5 -3.6,0.5 z"
     class="g2_1"
     id="path3504"
     inkscape:connector-curvature="0"
     style="fill:#8a8a8a" />
  <path
     d="m 348.8517,277.26238 c -1,0 -1.8,-0.3 -2.4,-0.7 -0.6,-0.5 -0.9,-1.3 -0.9,-2.2 0,-0.3 0,-0.7 0.1,-1 l 3,-14.5 -2.7,0 0.5,-2.1 2.6,0 1.4,-6.9 2.6,0 -1.4,6.9 4.3,0 -0.4,2.1 -4.3,0 -2.8,13.2 c 0,0.2 -0.1,0.5 -0.1,0.6 0,0.2 -0.1,0.3 -0.1,0.5 0,0.5 0.2,1 0.6,1.2 0.3,0.3 0.8,0.4 1.3,0.4 0.7,0 1.3,-0.1 1.9,-0.3 0.6,-0.3 0.9,-0.5 1.1,-0.6 l 0.2,2.2 c -0.3,0.2 -0.9,0.5 -1.7,0.7 -0.9,0.3 -1.8,0.5 -2.8,0.5 z"
     class="g2_1"
     id="path3506"
     inkscape:connector-curvature="0"
     style="fill:#8a8a8a" />
  <path
     d="m 364.0517,277.36238 c -1.2,0 -2.3,-0.2 -3.3,-0.6 -0.9,-0.5 -1.7,-1.1 -2.4,-1.9 -0.6,-0.7 -1.1,-1.6 -1.5,-2.7 -0.3,-1 -0.5,-2.1 -0.5,-3.3 0,-1.6 0.3,-3.2 0.9,-4.7 0.6,-1.5 1.5,-2.8 2.5,-3.9 1.1,-1.2 2.4,-2.1 3.8,-2.8 1.5,-0.7 3.1,-1.1 4.8,-1.1 0.8,0 1.7,0.1 2.4,0.4 0.8,0.2 1.5,0.6 2.1,1 0.5,0.5 1,1 1.3,1.7 0.3,0.7 0.5,1.5 0.5,2.4 0,2 -0.9,3.5 -2.6,4.5 -1.7,1 -4.4,1.5 -8,1.5 -0.7,0 -1.5,0 -2.3,0 -0.8,-0.1 -1.7,-0.1 -2.7,-0.2 0,0.2 0,0.4 0,0.6 0,0.2 -0.1,0.4 -0.1,0.5 0,0.9 0.2,1.8 0.4,2.5 0.2,0.8 0.6,1.5 1,2.1 0.5,0.7 1,1.1 1.7,1.5 0.7,0.3 1.5,0.5 2.4,0.5 0.6,0 1.3,-0.1 1.9,-0.3 0.6,-0.1 1.2,-0.4 1.8,-0.7 0.6,-0.3 1.1,-0.7 1.6,-1.2 0.5,-0.5 0.9,-1 1.2,-1.6 l 2.1,0.7 c -0.4,0.7 -1,1.4 -1.6,2.1 -0.7,0.6 -1.4,1.2 -2.2,1.6 -0.8,0.5 -1.7,0.8 -2.5,1.1 -0.9,0.2 -1.8,0.3 -2.7,0.3 m 4,-18.9 c -1.1,0 -2.2,0.2 -3.1,0.6 -0.9,0.4 -1.8,1 -2.5,1.6 -0.8,0.7 -1.4,1.5 -1.9,2.4 -0.5,0.9 -0.9,1.8 -1.1,2.7 0.9,0.1 1.7,0.1 2.5,0.1 0.8,0.1 1.5,0.1 2.2,0.1 1.5,0 2.8,-0.1 3.8,-0.3 1.1,-0.2 1.9,-0.5 2.6,-0.9 0.6,-0.3 1,-0.8 1.3,-1.3 0.3,-0.5 0.4,-1.1 0.4,-1.7 0,-1.1 -0.4,-2 -1.2,-2.5 -0.8,-0.5 -1.8,-0.8 -3,-0.8 z"
     class="g2_1"
     id="path3508"
     inkscape:connector-curvature="0"
     style="fill:#8a8a8a" />
  <path
     d="m 383.8517,277.36238 c -1.2,0 -2.2,-0.2 -3,-0.6 -0.9,-0.5 -1.7,-1.1 -2.3,-1.9 -0.6,-0.8 -1,-1.7 -1.4,-2.7 -0.3,-1 -0.4,-2.1 -0.4,-3.2 0,-1.7 0.3,-3.2 0.9,-4.7 0.6,-1.5 1.4,-2.9 2.4,-4 1,-1.2 2.2,-2.1 3.5,-2.8 1.4,-0.7 2.8,-1.1 4.2,-1.1 1.6,0 2.9,0.5 3.9,1.4 1.1,0.9 1.8,1.9 2.3,3.2 l 2.6,-12.3 2.5,0 -5.1,24.9 c -0.1,0.2 -0.1,0.4 -0.1,0.4 0,0.5 0.2,0.7 0.7,0.7 l -0.5,2.3 c -0.2,0.1 -0.4,0.1 -0.5,0.1 -0.1,0 -0.3,0 -0.4,0 -0.6,0 -1.1,-0.1 -1.4,-0.4 -0.3,-0.3 -0.5,-0.7 -0.5,-1.1 0,-0.2 0.1,-0.5 0.1,-0.8 0.1,-0.3 0.2,-0.9 0.3,-1.7 -1,1.3 -2.2,2.4 -3.6,3.2 -1.5,0.7 -2.9,1.1 -4.2,1.1 m 1,-2.3 c 0.6,0 1.3,-0.1 2,-0.4 0.7,-0.3 1.5,-0.6 2.1,-1.1 0.7,-0.4 1.3,-0.9 1.9,-1.6 0.5,-0.6 0.9,-1.2 1.2,-1.9 l 1.2,-6.3 c 0,-0.7 -0.2,-1.3 -0.6,-1.9 -0.3,-0.7 -0.7,-1.2 -1.2,-1.7 -0.5,-0.4 -1,-0.8 -1.6,-1 -0.6,-0.3 -1.3,-0.4 -1.9,-0.4 -1.1,0 -2.2,0.3 -3.3,0.8 -1,0.6 -1.9,1.4 -2.7,2.3 -0.8,0.9 -1.4,2 -1.8,3.1 -0.5,1.2 -0.7,2.4 -0.7,3.5 0,0.9 0.1,1.8 0.4,2.6 0.2,0.8 0.6,1.5 1.1,2.1 0.4,0.5 1,1 1.7,1.4 0.6,0.3 1.4,0.5 2.2,0.5 z"
     class="g2_1"
     id="path3510"
     inkscape:connector-curvature="0"
     style="fill:#8a8a8a" />
  <path
     d="m 414.7517,249.36238 8.7,0 c 1.7,0 3.2,0.3 4.4,0.8 1.3,0.6 2.3,1.3 3.1,2.3 0.8,1 1.4,2.1 1.8,3.4 0.4,1.2 0.6,2.6 0.6,4.1 0,2.4 -0.4,4.7 -1.2,6.8 -0.8,2.1 -1.9,3.9 -3.3,5.4 -1.3,1.5 -3,2.7 -4.9,3.6 -1.9,0.8 -4,1.2 -6.2,1.2 l -8.8,0 z m 3.5,25.2 c 1.9,0 3.6,-0.4 5.1,-1.1 1.6,-0.8 2.9,-1.9 3.9,-3.2 1.1,-1.3 1.9,-2.8 2.5,-4.5 0.6,-1.7 0.9,-3.5 0.9,-5.4 0,-1.2 -0.2,-2.4 -0.5,-3.4 -0.3,-1.1 -0.8,-2 -1.5,-2.7 -0.6,-0.8 -1.4,-1.4 -2.4,-1.8 -0.9,-0.4 -2,-0.7 -3.3,-0.7 l -6.1,0 -4.8,22.8 z"
     class="g2_1"
     id="path3512"
     inkscape:connector-curvature="0"
     style="fill:#8a8a8a" />
  <path
     d="m 438.8517,256.76238 2.5,0 -1.1,4.8 c 1,-1.4 2.2,-2.6 3.4,-3.5 1.3,-0.8 2.6,-1.3 3.8,-1.4 0.3,0 0.4,0 0.6,0.1 0.1,0 0.2,0 0.4,0 l -0.5,2.3 c -1.7,0.1 -3.2,0.6 -4.6,1.5 -1.5,0.9 -2.6,2.2 -3.5,3.8 l -2.6,12.6 -2.6,0 z"
     class="g2_1"
     id="path3514"
     inkscape:connector-curvature="0"
     style="fill:#8a8a8a" />
  <path
     d="m 453.4517,277.36238 c -3.1,0 -4.6,-1.7 -4.6,-5.2 0,-0.5 0,-1.1 0.1,-1.6 0,-0.6 0.1,-1.2 0.3,-1.9 l 2.5,-11.9 2.6,0 -2.4,11.4 c -0.2,1.2 -0.4,2.2 -0.4,3 0,2.6 1.1,3.9 3.3,3.9 0.7,0 1.4,-0.1 2.2,-0.4 0.7,-0.3 1.4,-0.6 2.1,-1.1 0.7,-0.5 1.3,-1.1 2,-1.8 0.6,-0.6 1.1,-1.4 1.6,-2.3 l 2.6,-12.7 2.6,0 -3.5,16.5 c 0,0.3 -0.1,0.6 -0.1,0.7 0,0.5 0.3,0.7 0.8,0.7 l -0.5,2.3 c -0.2,0.1 -0.4,0.1 -0.6,0.1 -0.1,0 -0.2,0 -0.4,0 -0.5,0 -1,-0.1 -1.3,-0.4 -0.3,-0.3 -0.4,-0.6 -0.4,-1.1 0,-0.1 0,-0.2 0,-0.3 0,-0.1 0,-0.3 0.1,-0.6 0,-0.2 0,-0.5 0.1,-0.8 0.1,-0.4 0.2,-0.9 0.3,-1.4 -1.2,1.5 -2.6,2.8 -4.1,3.6 -1.6,0.9 -3.2,1.3 -4.9,1.3 z"
     class="g2_1"
     id="path3516"
     inkscape:connector-curvature="0"
     style="fill:#8a8a8a" />
  <path
     d="m 473.6517,256.76238 2.3,0 -0.8,3.9 c 1,-1.3 2.2,-2.3 3.6,-3.1 1.4,-0.8 2.9,-1.2 4.3,-1.2 1.1,0 2.1,0.3 3,0.7 0.8,0.5 1.6,1.1 2.2,1.9 0.6,0.8 1.1,1.7 1.4,2.7 0.3,1.1 0.5,2.1 0.5,3.2 0,1.6 -0.3,3.2 -0.9,4.7 -0.6,1.5 -1.4,2.8 -2.4,4 -1,1.1 -2.2,2.1 -3.5,2.8 -1.4,0.7 -2.8,1 -4.3,1 -1.6,0 -2.9,-0.4 -3.9,-1.3 -1,-0.8 -1.8,-1.9 -2.2,-3.3 l -2.6,12.5 -2.6,0 z m 5.2,18.3 c 1.2,0 2.3,-0.3 3.3,-0.9 1,-0.6 1.9,-1.3 2.7,-2.2 0.8,-1 1.4,-2 1.9,-3.1 0.4,-1.2 0.7,-2.4 0.7,-3.5 0,-0.9 -0.2,-1.8 -0.4,-2.6 -0.3,-0.8 -0.6,-1.5 -1.1,-2.1 -0.5,-0.6 -1.1,-1.1 -1.7,-1.4 -0.7,-0.4 -1.5,-0.5 -2.3,-0.5 -0.6,0 -1.3,0.1 -2,0.4 -0.7,0.2 -1.4,0.6 -2.1,1.1 -0.7,0.4 -1.3,0.9 -1.9,1.6 -0.5,0.6 -0.9,1.2 -1.2,1.9 l -1.3,6.2 c 0.2,0.7 0.4,1.4 0.7,2 0.3,0.6 0.7,1.2 1.2,1.6 0.5,0.5 1,0.8 1.6,1.1 0.6,0.3 1.2,0.4 1.9,0.4 z"
     class="g2_1"
     id="path3518"
     inkscape:connector-curvature="0"
     style="fill:#8a8a8a" />
  <path
     d="m 499.7517,277.36238 c -1.2,0 -2.1,-0.2 -3,-0.6 -0.9,-0.5 -1.6,-1.1 -2.2,-1.9 -0.6,-0.8 -1.1,-1.7 -1.4,-2.7 -0.3,-1 -0.5,-2.1 -0.5,-3.2 0,-1.7 0.3,-3.2 0.9,-4.7 0.6,-1.5 1.5,-2.9 2.5,-4 1,-1.2 2.2,-2.1 3.5,-2.8 1.3,-0.7 2.7,-1.1 4.1,-1.1 1.6,0 3,0.5 4,1.4 1,0.9 1.8,1.9 2.2,3.2 l 0.9,-4.2 2.6,0 -3.5,16.8 c 0,0.2 -0.1,0.4 -0.1,0.5 0,0.4 0.3,0.6 0.8,0.6 l -0.5,2.3 c -0.2,0.1 -0.4,0.1 -0.6,0.1 -0.2,0 -0.3,0.1 -0.5,0.1 -0.6,-0.1 -1,-0.3 -1.3,-0.5 -0.3,-0.3 -0.4,-0.7 -0.4,-1.1 0,-0.2 0,-0.5 0.1,-0.8 0,-0.4 0.1,-0.9 0.3,-1.7 -1,1.3 -2.2,2.4 -3.7,3.2 -1.4,0.7 -2.8,1.1 -4.2,1.1 m 1,-2.3 c 0.7,0 1.4,-0.1 2.1,-0.4 0.7,-0.3 1.4,-0.6 2.1,-1.1 0.7,-0.4 1.3,-0.9 1.8,-1.6 0.6,-0.6 1,-1.2 1.2,-1.9 l 1.3,-6.3 c -0.1,-0.7 -0.3,-1.3 -0.6,-1.9 -0.3,-0.7 -0.8,-1.2 -1.2,-1.6 -0.5,-0.5 -1.1,-0.9 -1.7,-1.1 -0.6,-0.3 -1.2,-0.4 -1.9,-0.4 -1.1,0 -2.2,0.3 -3.2,0.8 -1.1,0.6 -2,1.4 -2.7,2.3 -0.8,0.9 -1.4,2 -1.9,3.2 -0.4,1.1 -0.7,2.3 -0.7,3.5 0,0.9 0.1,1.7 0.4,2.5 0.3,0.8 0.6,1.5 1.1,2.1 0.5,0.6 1.1,1 1.7,1.4 0.7,0.3 1.4,0.5 2.2,0.5 z"
     class="g2_1"
     id="path3520"
     inkscape:connector-curvature="0"
     style="fill:#8a8a8a" />
  <path
     d="m 518.5517,277.26238 c -0.9,0 -1.6,-0.3 -2.2,-0.8 -0.5,-0.5 -0.8,-1.2 -0.8,-2.1 0,-0.1 0,-0.3 0.1,-0.5 0,-0.2 0,-0.3 0.1,-0.6 l 5.1,-24.6 2.6,0 -5,23.8 c 0,0.1 0,0.2 0,0.3 -0.1,0.1 -0.1,0.2 -0.1,0.4 0,1.1 0.6,1.7 1.8,1.7 0.3,0 0.6,-0.1 1,-0.2 0.4,0 0.8,-0.1 1.1,-0.3 l 0,2.2 c -0.6,0.2 -1.2,0.4 -1.9,0.5 -0.7,0.1 -1.3,0.2 -1.8,0.2 z"
     class="g2_1"
     id="path3522"
     inkscape:connector-curvature="0"
     style="fill:#8a8a8a" />
  <path
     d="m 538.2517,277.26238 c -1,0 -1.8,-0.3 -2.4,-0.7 -0.6,-0.5 -1,-1.3 -1,-2.2 0,-0.3 0.1,-0.7 0.2,-1 l 3,-14.5 -2.7,0 0.5,-2.1 2.6,0 1.4,-6.9 2.6,0 -1.4,6.9 4.3,0 -0.4,2.1 -4.3,0 -2.8,13.2 c 0,0.2 -0.1,0.5 -0.1,0.6 -0.1,0.2 -0.1,0.3 -0.1,0.5 0,0.5 0.2,1 0.6,1.2 0.3,0.3 0.8,0.4 1.3,0.4 0.6,0 1.3,-0.1 1.9,-0.3 0.6,-0.3 0.9,-0.5 1.1,-0.6 l 0.2,2.2 c -0.3,0.2 -0.9,0.5 -1.7,0.7 -0.9,0.3 -1.8,0.5 -2.8,0.5 z"
     class="g2_1"
     id="path3524"
     inkscape:connector-curvature="0"
     style="fill:#8a8a8a" />
  <path
     d="m 553.4517,277.36238 c -1.2,0 -2.3,-0.2 -3.3,-0.6 -0.9,-0.5 -1.7,-1.1 -2.4,-1.9 -0.6,-0.7 -1.1,-1.6 -1.5,-2.7 -0.3,-1 -0.5,-2.1 -0.5,-3.3 0,-1.6 0.3,-3.2 0.9,-4.7 0.6,-1.5 1.5,-2.8 2.5,-3.9 1.1,-1.2 2.4,-2.1 3.8,-2.8 1.5,-0.7 3.1,-1.1 4.8,-1.1 0.8,0 1.7,0.1 2.4,0.4 0.8,0.2 1.5,0.6 2.1,1 0.5,0.5 1,1 1.3,1.7 0.3,0.7 0.5,1.5 0.5,2.4 0,2 -0.9,3.5 -2.6,4.5 -1.7,1 -4.4,1.5 -8,1.5 -0.7,0 -1.5,0 -2.3,0 -0.8,-0.1 -1.7,-0.1 -2.7,-0.2 0,0.2 0,0.4 0,0.6 -0.1,0.2 -0.1,0.4 -0.1,0.5 0,0.9 0.2,1.8 0.4,2.5 0.2,0.8 0.6,1.5 1,2.1 0.5,0.7 1,1.1 1.7,1.5 0.7,0.3 1.5,0.5 2.4,0.5 0.6,0 1.3,-0.1 1.9,-0.3 0.6,-0.1 1.2,-0.4 1.8,-0.7 0.6,-0.3 1.1,-0.7 1.6,-1.2 0.5,-0.5 0.9,-1 1.2,-1.6 l 2.1,0.7 c -0.4,0.7 -1,1.4 -1.6,2.1 -0.7,0.6 -1.4,1.2 -2.2,1.6 -0.8,0.5 -1.7,0.8 -2.5,1.1 -0.9,0.2 -1.8,0.3 -2.7,0.3 m 4,-18.9 c -1.1,0 -2.2,0.2 -3.1,0.6 -1,0.4 -1.8,1 -2.5,1.6 -0.8,0.7 -1.4,1.5 -1.9,2.4 -0.5,0.9 -0.9,1.8 -1.1,2.7 0.9,0.1 1.7,0.1 2.5,0.1 0.8,0.1 1.5,0.1 2.2,0.1 1.5,0 2.8,-0.1 3.8,-0.3 1.1,-0.2 1.9,-0.5 2.6,-0.9 0.6,-0.3 1,-0.8 1.3,-1.3 0.3,-0.5 0.4,-1.1 0.4,-1.7 0,-1.1 -0.4,-2 -1.2,-2.5 -0.9,-0.5 -1.8,-0.8 -3,-0.8 z"
     class="g2_1"
     id="path3526"
     inkscape:connector-curvature="0"
     style="fill:#8a8a8a" />
  <path
     d="m 573.1517,277.36238 c -1.1,0 -2.1,-0.2 -3,-0.6 -0.8,-0.5 -1.6,-1.1 -2.2,-1.9 -0.6,-0.8 -1,-1.7 -1.4,-2.7 -0.3,-1 -0.4,-2.1 -0.4,-3.2 0,-1.7 0.3,-3.2 0.9,-4.7 0.6,-1.5 1.4,-2.9 2.4,-4 1,-1.2 2.2,-2.1 3.5,-2.8 1.3,-0.7 2.7,-1.1 4.2,-1.1 1.6,0 2.9,0.5 3.9,1.4 1.1,0.9 1.8,1.9 2.3,3.2 l 0.9,-4.2 2.6,0 -3.5,16.8 c -0.1,0.2 -0.1,0.4 -0.1,0.5 0,0.4 0.2,0.6 0.7,0.6 l -0.5,2.3 c -0.2,0.1 -0.4,0.1 -0.6,0.1 -0.1,0 -0.3,0.1 -0.4,0.1 -0.6,-0.1 -1,-0.3 -1.3,-0.5 -0.3,-0.3 -0.5,-0.7 -0.5,-1.1 0,-0.2 0.1,-0.5 0.1,-0.8 0.1,-0.4 0.2,-0.9 0.3,-1.7 -1,1.3 -2.2,2.4 -3.6,3.2 -1.5,0.7 -2.9,1.1 -4.3,1.1 m 1.1,-2.3 c 0.6,0 1.3,-0.1 2,-0.4 0.8,-0.3 1.5,-0.6 2.2,-1.1 0.6,-0.4 1.2,-0.9 1.8,-1.6 0.5,-0.6 0.9,-1.2 1.2,-1.9 l 1.2,-6.3 c 0,-0.7 -0.2,-1.3 -0.6,-1.9 -0.3,-0.7 -0.7,-1.2 -1.2,-1.6 -0.5,-0.5 -1,-0.9 -1.6,-1.1 -0.6,-0.3 -1.3,-0.4 -1.9,-0.4 -1.2,0 -2.3,0.3 -3.3,0.8 -1,0.6 -1.9,1.4 -2.7,2.3 -0.8,0.9 -1.4,2 -1.8,3.2 -0.5,1.1 -0.7,2.3 -0.7,3.5 0,0.9 0.1,1.7 0.4,2.5 0.2,0.8 0.6,1.5 1.1,2.1 0.4,0.6 1,1 1.7,1.4 0.6,0.3 1.4,0.5 2.2,0.5 z"
     class="g2_1"
     id="path3528"
     inkscape:connector-curvature="0"
     style="fill:#8a8a8a" />
  <path
     d="m 592.4517,256.76238 2.4,0 -0.9,4.6 c 1,-1.6 2.3,-2.8 3.7,-3.6 1.4,-0.9 2.9,-1.4 4.4,-1.4 1.5,0 2.7,0.5 3.4,1.4 0.8,0.9 1.1,2.2 1.1,3.9 1.2,-1.7 2.5,-3 3.9,-3.9 1.5,-0.9 3,-1.4 4.5,-1.4 1.6,0 2.7,0.5 3.4,1.4 0.7,0.8 1,2.1 1,3.6 0,1.1 -0.1,2.4 -0.4,3.8 l -2.5,11.8 -2.6,0 2.3,-11.3 c 0.1,-0.6 0.2,-1.1 0.3,-1.7 0.1,-0.5 0.1,-1 0.1,-1.4 0,-2.5 -1,-3.8 -3,-3.8 -0.7,0 -1.4,0.2 -2.1,0.5 -0.7,0.3 -1.4,0.7 -2,1.2 -0.7,0.5 -1.3,1.1 -1.8,1.8 -0.6,0.7 -1,1.5 -1.4,2.4 l -2.6,12.3 -2.6,0 2.3,-11.3 c 0.2,-0.6 0.3,-1.2 0.3,-1.7 0.1,-0.6 0.2,-1.1 0.2,-1.5 0,-2.4 -1,-3.7 -3.1,-3.7 -1.4,0 -2.7,0.6 -4.1,1.6 -1.3,1.1 -2.4,2.5 -3.2,4.2 l -2.6,12.4 -2.6,0 z"
     class="g2_1"
     id="path3530"
     inkscape:connector-curvature="0"
     style="fill:#8a8a8a" />
  <path
     d="m 625.9517,256.76238 2.4,0 -1,4.6 c 1.1,-1.6 2.3,-2.8 3.8,-3.6 1.4,-0.9 2.9,-1.4 4.4,-1.4 1.5,0 2.6,0.5 3.4,1.4 0.7,0.9 1.1,2.2 1.1,3.9 1.1,-1.7 2.4,-3 3.9,-3.9 1.4,-0.9 2.9,-1.4 4.5,-1.4 1.6,0 2.7,0.5 3.4,1.4 0.6,0.8 1,2.1 1,3.6 0,1.1 -0.2,2.4 -0.5,3.8 l -2.5,11.8 -2.6,0 2.4,-11.3 c 0.1,-0.6 0.2,-1.1 0.3,-1.7 0,-0.5 0.1,-1 0.1,-1.4 0,-2.5 -1,-3.8 -3.1,-3.8 -0.7,0 -1.4,0.2 -2.1,0.5 -0.7,0.3 -1.3,0.7 -2,1.2 -0.6,0.5 -1.2,1.1 -1.7,1.8 -0.6,0.7 -1.1,1.5 -1.5,2.4 l -2.5,12.3 -2.6,0 2.3,-11.3 c 0.1,-0.6 0.2,-1.2 0.3,-1.7 0.1,-0.6 0.1,-1.1 0.1,-1.5 0,-2.4 -1,-3.7 -3,-3.7 -1.4,0 -2.8,0.6 -4.1,1.6 -1.3,1.1 -2.4,2.5 -3.2,4.2 l -2.6,12.4 -2.6,0 z"
     class="g2_1"
     id="path3532"
     inkscape:connector-curvature="0"
     style="fill:#8a8a8a" />
  <path
     d="m 662.8517,277.36238 c -1.1,0 -2.1,-0.2 -2.9,-0.6 -0.9,-0.5 -1.6,-1.1 -2.2,-1.9 -0.7,-0.8 -1.1,-1.7 -1.4,-2.7 -0.4,-1 -0.5,-2.1 -0.5,-3.2 0,-1.7 0.3,-3.2 0.9,-4.7 0.6,-1.5 1.4,-2.9 2.4,-4 1.1,-1.2 2.2,-2.1 3.5,-2.8 1.4,-0.7 2.8,-1.1 4.2,-1.1 1.6,0 2.9,0.5 4,1.4 1,0.9 1.7,1.9 2.2,3.2 l 0.9,-4.2 2.6,0 -3.5,16.8 c -0.1,0.2 -0.1,0.4 -0.1,0.5 0,0.4 0.2,0.6 0.7,0.6 l -0.5,2.3 c -0.2,0.1 -0.4,0.1 -0.5,0.1 -0.2,0 -0.4,0.1 -0.5,0.1 -0.6,-0.1 -1,-0.3 -1.3,-0.5 -0.3,-0.3 -0.5,-0.7 -0.5,-1.1 0,-0.2 0.1,-0.5 0.1,-0.8 0.1,-0.4 0.2,-0.9 0.4,-1.7 -1,1.3 -2.3,2.4 -3.7,3.2 -1.4,0.7 -2.9,1.1 -4.3,1.1 m 1.1,-2.3 c 0.6,0 1.3,-0.1 2.1,-0.4 0.7,-0.3 1.4,-0.6 2.1,-1.1 0.7,-0.4 1.3,-0.9 1.8,-1.6 0.6,-0.6 1,-1.2 1.2,-1.9 l 1.3,-6.3 c -0.1,-0.7 -0.3,-1.3 -0.6,-1.9 -0.4,-0.7 -0.8,-1.2 -1.3,-1.6 -0.4,-0.5 -1,-0.9 -1.6,-1.1 -0.6,-0.3 -1.2,-0.4 -1.9,-0.4 -1.1,0 -2.2,0.3 -3.3,0.8 -1,0.6 -1.9,1.4 -2.7,2.3 -0.7,0.9 -1.4,2 -1.8,3.2 -0.5,1.1 -0.7,2.3 -0.7,3.5 0,0.9 0.1,1.7 0.4,2.5 0.2,0.8 0.6,1.5 1.1,2.1 0.5,0.6 1,1 1.7,1.4 0.7,0.3 1.4,0.5 2.2,0.5 z"
     class="g2_1"
     id="path3534"
     inkscape:connector-curvature="0"
     style="fill:#8a8a8a" />
  <path
     d="m 682.8517,277.26238 c -1,0 -1.8,-0.3 -2.4,-0.7 -0.6,-0.5 -0.9,-1.3 -0.9,-2.2 0,-0.3 0,-0.7 0.1,-1 l 3,-14.5 -2.6,0 0.4,-2.1 2.6,0 1.5,-6.9 2.5,0 -1.4,6.9 4.3,0 -0.4,2.1 -4.3,0 -2.8,13.2 c 0,0.2 -0.1,0.5 -0.1,0.6 0,0.2 -0.1,0.3 -0.1,0.5 0,0.5 0.2,1 0.6,1.2 0.3,0.3 0.8,0.4 1.3,0.4 0.7,0 1.3,-0.1 1.9,-0.3 0.6,-0.3 0.9,-0.5 1.1,-0.6 l 0.2,2.2 c -0.3,0.2 -0.9,0.5 -1.7,0.7 -0.9,0.3 -1.8,0.5 -2.8,0.5 z"
     class="g2_1"
     id="path3536"
     inkscape:connector-curvature="0"
     style="fill:#8a8a8a" />
  <path
     d="m 698.0517,277.36238 c -1.2,0 -2.3,-0.2 -3.3,-0.6 -0.9,-0.5 -1.7,-1.1 -2.4,-1.9 -0.6,-0.7 -1.1,-1.6 -1.5,-2.7 -0.3,-1 -0.5,-2.1 -0.5,-3.3 0,-1.6 0.3,-3.2 0.9,-4.7 0.6,-1.5 1.5,-2.8 2.6,-3.9 1,-1.2 2.3,-2.1 3.7,-2.8 1.5,-0.7 3.1,-1.1 4.8,-1.1 0.9,0 1.7,0.1 2.4,0.4 0.8,0.2 1.5,0.6 2.1,1 0.5,0.5 1,1 1.3,1.7 0.4,0.7 0.5,1.5 0.5,2.4 0,2 -0.8,3.5 -2.6,4.5 -1.7,1 -4.4,1.5 -8,1.5 -0.7,0 -1.5,0 -2.3,0 -0.8,-0.1 -1.7,-0.1 -2.7,-0.2 0,0.2 0,0.4 0,0.6 0,0.2 -0.1,0.4 -0.1,0.5 0,0.9 0.2,1.8 0.4,2.5 0.2,0.8 0.6,1.5 1,2.1 0.5,0.7 1.1,1.1 1.7,1.5 0.7,0.3 1.5,0.5 2.4,0.5 0.6,0 1.3,-0.1 1.9,-0.3 0.6,-0.1 1.2,-0.4 1.8,-0.7 0.6,-0.3 1.1,-0.7 1.6,-1.2 0.5,-0.5 0.9,-1 1.2,-1.6 l 2.2,0.7 c -0.5,0.7 -1.1,1.4 -1.7,2.1 -0.7,0.6 -1.4,1.2 -2.2,1.6 -0.8,0.5 -1.7,0.8 -2.5,1.1 -0.9,0.2 -1.8,0.3 -2.7,0.3 m 4,-18.9 c -1.1,0 -2.2,0.2 -3.1,0.6 -0.9,0.4 -1.8,1 -2.5,1.6 -0.8,0.7 -1.4,1.5 -1.9,2.4 -0.5,0.9 -0.9,1.8 -1.1,2.7 0.9,0.1 1.7,0.1 2.5,0.1 0.8,0.1 1.5,0.1 2.2,0.1 1.5,0 2.8,-0.1 3.8,-0.3 1.1,-0.2 1.9,-0.5 2.6,-0.9 0.6,-0.3 1.1,-0.8 1.3,-1.3 0.3,-0.5 0.5,-1.1 0.5,-1.7 0,-1.1 -0.5,-2 -1.3,-2.5 -0.8,-0.5 -1.8,-0.8 -3,-0.8 z"
     class="g2_1"
     id="path3538"
     inkscape:connector-curvature="0"
     style="fill:#8a8a8a" />
  <path
     d="m 716.3517,277.36238 c -1.5,0 -2.9,-0.2 -4.2,-0.7 -1.3,-0.6 -2.3,-1.3 -3.1,-2.3 l 1.5,-1.8 c 1.7,1.9 3.7,2.8 6.2,2.8 1.6,0 3,-0.4 4.1,-1.2 1.1,-0.8 1.6,-1.8 1.6,-3.1 0,-0.5 -0.1,-0.9 -0.3,-1.2 -0.2,-0.3 -0.5,-0.6 -0.9,-0.8 -0.4,-0.3 -0.9,-0.5 -1.5,-0.7 -0.6,-0.2 -1.3,-0.4 -2.1,-0.7 -0.9,-0.2 -1.7,-0.5 -2.4,-0.7 -0.7,-0.3 -1.2,-0.5 -1.7,-0.8 -0.4,-0.4 -0.8,-0.7 -1,-1.2 -0.2,-0.4 -0.3,-0.9 -0.3,-1.5 0,-1.1 0.2,-2.1 0.7,-3 0.4,-0.9 1.1,-1.6 1.8,-2.2 0.8,-0.6 1.7,-1.1 2.7,-1.4 1.1,-0.3 2.1,-0.5 3.3,-0.5 1.4,0 2.7,0.3 3.7,0.8 1.1,0.5 1.9,1.2 2.5,2 l -1.6,1.5 c -0.5,-0.7 -1.3,-1.3 -2.2,-1.7 -0.9,-0.4 -1.9,-0.6 -3,-0.6 -0.7,0 -1.4,0.1 -2,0.3 -0.7,0.2 -1.3,0.4 -1.8,0.8 -0.5,0.4 -0.9,0.8 -1.1,1.4 -0.3,0.5 -0.5,1.2 -0.5,1.9 0,0.8 0.3,1.4 1,1.8 0.6,0.3 1.6,0.7 3,1 2.1,0.6 3.6,1.2 4.7,1.8 1.1,0.7 1.6,1.7 1.6,3 0,1 -0.2,2 -0.6,2.8 -0.4,0.9 -1,1.6 -1.8,2.2 -0.8,0.7 -1.7,1.2 -2.8,1.5 -1.1,0.4 -2.3,0.5 -3.5,0.5 z"
     class="g2_1"
     id="path3540"
     inkscape:connector-curvature="0"
     style="fill:#8a8a8a" />
</svg>
