<?xml version="1.0" encoding="UTF-8" standalone="no"?>
<!DOCTYPE svg PUBLIC "-//W3C//DTD SVG 1.1//EN"
"http://www.w3.org/Graphics/SVG/1.1/DTD/svg11.dtd">


<!-- Page 1 -->
<svg x="0" y="0" width="916" height="408" viewBox="0 0 916 408" version="1.1" xmlns="http://www.w3.org/2000/svg" xmlns:xlink="http://www.w3.org/1999/xlink"
style="display: block;margin-left: auto;margin-right: auto;">
<defs>

<style type="text/css"><![CDATA[

.g0_1{
fill: #323332;
}
.g1_1{
fill: #F04722;
}
.g2_1{
fill: #8A8A8A;
}


]]></style>

</defs>
<path d="M0,0
L0,916
L916,916
L916,0 Z " 
fill="#FFFFFF" stroke="none" />
<path d="M320.1,447.7c-2.6,0,-5.2,.5,-7.5,1.5c-2.3,1,-4.4,2.4,-6.1,4.1c-1.7,1.8,-3.1,3.9,-4.1,6.2c-1.1,2.4,-1.6,4.9,-1.6,7.6c0,2.6,.5,5.1,1.6,7.5c1,2.3,2.4,4.4,4.1,6.1c1.7,1.7,3.8,3.1,6.1,4.1c2.3,1,4.9,1.5,7.5,1.5c2.7,0,5.2,-.5,7.5,-1.5c2.3,-1,4.4,-2.4,6.1,-4.1c1.8,-1.7,3.1,-3.8,4.2,-6.1c1,-2.4,1.5,-4.9,1.5,-7.5c0,-2.7,-.5,-5.2,-1.5,-7.6c-1.1,-2.3,-2.4,-4.4,-4.2,-6.2c-1.7,-1.7,-3.8,-3.1,-6.1,-4.1c-2.3,-1,-4.9,-1.5,-7.5,-1.5m0,46.2c-3.6,0,-7.1,-.7,-10.3,-2.1c-3.3,-1.4,-6.2,-3.3,-8.7,-5.8c-2.5,-2.5,-4.5,-5.5,-5.8,-8.7c-1.3,-3.3,-2,-6.7,-2,-10.2c0,-3.6,.7,-7.1,2,-10.3c1.3,-3.3,3.3,-6.2,5.8,-8.8c2.5,-2.5,5.4,-4.4,8.7,-5.8c3.3,-1.3,6.7,-2,10.3,-2c3.6,0,7.1,.7,10.3,2c3.3,1.4,6.2,3.3,8.7,5.8c2.5,2.6,4.5,5.5,5.8,8.8c1.3,3.2,2,6.7,2,10.3v26.2c0,.3,-.2,.6,-.5,.6h-6.6c-.3,0,-.5,-.3,-.5,-.6v-6.6c0,-.5,-.7,-.7,-1,-.4c-.9,1,-1.7,1.8,-2.6,2.5c-1.6,1.2,-3.2,2.2,-5,3c-1.7,.7,-3.5,1.3,-5.3,1.6c-1.8,.3,-3.6,.5,-5.3,.5Z" class="g0_1" />
<path d="M382.4,447.7c-2.6,0,-5.1,.5,-7.4,1.5c-2.4,1,-4.4,2.4,-6.2,4.1c-1.7,1.8,-3.1,3.9,-4.1,6.2c-1,2.4,-1.5,4.9,-1.5,7.6c0,2.6,.5,5.1,1.5,7.5c1,2.3,2.4,4.4,4.1,6.1c1.8,1.7,3.8,3.1,6.2,4.1c2.3,1,4.8,1.5,7.4,1.5c2.7,0,5.2,-.5,7.5,-1.5c2.4,-1,4.4,-2.4,6.2,-4.1c1.7,-1.7,3.1,-3.8,4.1,-6.1c1,-2.4,1.5,-4.9,1.5,-7.5c0,-2.7,-.5,-5.2,-1.5,-7.6c-1,-2.3,-2.4,-4.4,-4.1,-6.2c-1.8,-1.7,-3.8,-3.1,-6.2,-4.1c-2.3,-1,-4.8,-1.5,-7.5,-1.5m0,66.6c-3.5,0,-7,-.7,-10.2,-2c-6.6,-3.1,-10.7,-8.1,-11.9,-9.7c-.2,-.3,-.2,-.6,.1,-.8l5.2,-3.7c.3,-.2,.6,-.1,.8,.2c.8,1.1,3.2,4,6.7,6.1c2.8,1.6,5.9,2.4,9.3,2.4c2.7,0,5.2,-.5,7.5,-1.6c2.4,-1,4.4,-2.4,6.2,-4.1c1.7,-1.7,3.1,-3.8,4.1,-6.1c1,-2.3,1.5,-4.9,1.5,-7.5V487c0,-.5,-.6,-.8,-1,-.4c-2.4,2.2,-5.1,3.9,-7.9,5.1c-3.3,1.5,-6.8,2.2,-10.4,2.2c-3.5,0,-7,-.7,-10.3,-2.1c-3.2,-1.4,-6.1,-3.3,-8.6,-5.8c-2.6,-2.5,-4.5,-5.5,-5.9,-8.7c-1.3,-3.3,-2,-6.7,-2,-10.2c0,-3.6,.7,-7.1,2,-10.3c1.4,-3.3,3.3,-6.2,5.9,-8.8c2.5,-2.5,5.4,-4.4,8.6,-5.8c3.3,-1.3,6.8,-2,10.3,-2c1.8,0,3.7,.2,5.5,.5c1.9,.4,3.8,1,5.5,1.7c1.8,.7,3.5,1.7,5,2.8c1,.7,1.9,1.5,2.7,2.4c.3,.3,.9,.1,1,-.3l.8,-6.5c0,-.3,.2,-.5,.5,-.5h5.4c.3,0,.5,.3,.5,.6v46.6c0,3.6,-.7,7,-2,10.3c-1.4,3.3,-3.3,6.2,-5.9,8.7c-2.5,2.5,-5.4,4.5,-8.6,5.8c-3.3,1.3,-6.8,2,-10.4,2Z" class="g0_1" />
<path d="M429.5,432.2c-1.3,0,-2.3,-.4,-3.2,-1.2c-.8,-.9,-1.3,-2,-1.3,-3.2c0,-1.3,.5,-2.4,1.3,-3.2c.9,-.9,1.9,-1.4,3.2,-1.4c1.3,0,2.3,.5,3.2,1.4c.9,.8,1.3,1.9,1.3,3.2c0,1.2,-.4,2.3,-1.3,3.2c-.9,.8,-1.9,1.2,-3.2,1.2m-3.7,61.1V440.9c0,-.3,.3,-.6,.6,-.6h6.5c.3,0,.6,.3,.6,.6v52.4c0,.3,-.3,.6,-.6,.6h-6.5c-.3,0,-.6,-.3,-.6,-.6Z" class="g0_1" />
<path d="M451.8,493.3V423.8c0,-.3,.3,-.5,.6,-.5h6.5c.3,0,.6,.2,.6,.5v69.5c0,.3,-.3,.6,-.6,.6h-6.5c-.3,0,-.6,-.3,-.6,-.6Z" class="g0_1" />
<path d="M516.1,460c.4,0,.6,-.4,.5,-.8c-1.4,-3.1,-3.6,-5.8,-6.5,-7.9c-3.2,-2.4,-7,-3.6,-11.1,-3.6c-2.1,0,-4.1,.3,-6,.9c-1.9,.7,-3.6,1.6,-5.2,2.7c-1.6,1.1,-3,2.5,-4.2,4c-.9,1.2,-1.6,2.6,-2.3,3.9c-.1,.4,.1,.8,.6,.8ZM499,493.9c-3.6,0,-7.1,-.7,-10.3,-2.1c-3.3,-1.4,-6.2,-3.3,-8.7,-5.8c-2.5,-2.5,-4.5,-5.4,-5.8,-8.7c-1.3,-3.2,-2,-6.6,-2,-10.2c0,-3.6,.7,-7.1,2,-10.3c1.3,-3.3,3.3,-6.2,5.8,-8.7c2.5,-2.5,5.4,-4.5,8.7,-5.9c3.2,-1.3,6.7,-2,10.3,-2c3.6,0,7,.7,10.3,2c3.2,1.4,6.1,3.4,8.7,5.9c2.5,2.5,4.4,5.4,5.8,8.8c1.3,3.3,1.9,6.8,1.9,10.4v.4H480.3c-.3,0,-.6,.3,-.5,.6c.1,2.1,.6,4.4,1.5,6.4c1,2.3,2.4,4.3,4.2,6c1.7,1.7,3.7,3.1,6.1,4.1c2.2,1,4.7,1.5,7.4,1.5c3.6,0,6.9,-.9,9.9,-2.7c2.9,-1.8,5.3,-4.3,6.9,-7.2l.1,-.3h8.3l-.2,.6c-1.3,3.5,-3.4,6.6,-6,9.3c-2.6,2.5,-5.5,4.4,-8.7,5.8c-3.3,1.4,-6.7,2.1,-10.3,2.1Z" class="g0_1" />
<path d="M559.6,447.7c-2.6,0,-5.2,.5,-7.5,1.5c-2.3,1,-4.4,2.4,-6.1,4.1c-1.8,1.8,-3.1,3.8,-4.2,6.2c-1,2.3,-1.5,4.8,-1.5,7.5c0,2.6,.5,5.2,1.5,7.5c1.1,2.4,2.4,4.5,4.2,6.2c1.7,1.7,3.8,3.1,6.1,4.1c2.3,1,4.8,1.5,7.5,1.5c2.6,0,5.2,-.5,7.5,-1.5c2.3,-1,4.4,-2.4,6.1,-4.1c1.7,-1.7,3.1,-3.8,4.1,-6.2c1.1,-2.3,1.6,-4.9,1.6,-7.5c0,-2.7,-.5,-5.2,-1.6,-7.5c-1,-2.4,-2.4,-4.4,-4.1,-6.2c-1.7,-1.7,-3.8,-3.1,-6.1,-4.1c-2.3,-1,-4.9,-1.5,-7.5,-1.5m0,46.2c-3.6,0,-7.1,-.7,-10.3,-2.1c-3.3,-1.4,-6.2,-3.3,-8.7,-5.8c-2.5,-2.5,-4.5,-5.5,-5.8,-8.7c-1.3,-3.3,-2,-6.7,-2,-10.3c0,-3.5,.7,-7,2,-10.2c1.3,-3.3,3.3,-6.2,5.8,-8.8c2.5,-2.5,5.4,-4.4,8.7,-5.8c3.2,-1.3,6.7,-2,10.3,-2c3.6,0,7,.7,10.3,2c2.5,1.1,6.3,3.9,8.1,5.3c.4,.3,.9,.1,.9,-.4V423.8c0,-.3,.3,-.5,.6,-.5h6.1c.4,0,.6,.2,.6,.5V467c0,3.6,-.6,7,-1.9,10.3c-1.3,3.2,-3.3,6.2,-5.8,8.7c-2.5,2.5,-5.4,4.4,-8.6,5.8c-3.3,1.4,-6.7,2.1,-10.3,2.1Z" class="g0_1" />
<path d="M597.3,493.3V440.9c0,-.3,.3,-.6,.6,-.6h5.2c.3,0,.5,.2,.6,.4l1.1,3.6c.2,.4,.6,.5,.9,.3c1.8,-1.4,3.7,-2.4,5.7,-3.2c2.5,-1,5.2,-1.4,7.9,-1.4c.9,0,1.8,0,2.6,.1c.8,.1,1.7,.2,2.6,.4h.4v7.9l-.6,-.1c-1.6,-.5,-3.3,-.8,-4.9,-.8c-2,0,-4,.4,-5.7,1.2c-1.8,.7,-3.3,1.8,-4.6,3.1c-1.4,1.3,-2.3,2.8,-3.1,4.6c-.7,1.7,-1,3.7,-1,5.7v31.2c0,.3,-.3,.6,-.6,.6h-6.5c-.3,0,-.6,-.3,-.6,-.6Z" class="g0_1" />
<path d="M656.8,447.7c-2.7,0,-5.2,.5,-7.5,1.5c-2.3,1,-4.4,2.4,-6.1,4.1c-1.8,1.8,-3.2,3.9,-4.2,6.2c-1,2.4,-1.5,4.9,-1.5,7.6c0,2.6,.5,5.1,1.5,7.5c1,2.3,2.4,4.4,4.2,6.1c1.7,1.7,3.8,3.1,6.1,4.1c2.3,1,4.8,1.5,7.5,1.5c2.6,0,5.2,-.5,7.5,-1.5c2.3,-1,4.4,-2.4,6.2,-4.1c1.7,-1.7,3.1,-3.8,4.1,-6.1c1,-2.4,1.6,-4.9,1.6,-7.5c0,-2.7,-.6,-5.2,-1.6,-7.6c-1,-2.3,-2.4,-4.4,-4.1,-6.1c-1.8,-1.8,-3.9,-3.2,-6.2,-4.2c-2.3,-1,-4.9,-1.5,-7.5,-1.5m0,46.2c-3.6,0,-7.1,-.7,-10.3,-2.1c-3.2,-1.4,-6.1,-3.3,-8.7,-5.8c-2.4,-2.5,-4.4,-5.5,-5.8,-8.7c-1.3,-3.3,-2,-6.7,-2,-10.2c0,-3.6,.7,-7.1,2,-10.3c1.4,-3.3,3.4,-6.2,5.8,-8.8c2.6,-2.5,5.5,-4.4,8.7,-5.8c3.2,-1.3,6.7,-2,10.3,-2c3.6,0,7,.7,10.3,2c3.3,1.4,6.2,3.3,8.7,5.8c2.5,2.6,4.5,5.5,5.8,8.8c1.4,3.2,2.1,6.7,2.1,10.3c0,3.5,-.7,6.9,-2.1,10.2c-1.3,3.2,-3.3,6.2,-5.8,8.7c-2.5,2.5,-5.4,4.4,-8.7,5.8c-3.3,1.4,-6.7,2.1,-10.3,2.1Z" class="g0_1" />
<path d="M721.4,447.7c-2.7,0,-5.2,.5,-7.5,1.5c-2.4,1,-4.4,2.4,-6.2,4.1c-1.7,1.8,-3.1,3.9,-4.1,6.2c-1,2.4,-1.5,4.9,-1.5,7.6c0,2.6,.5,5.1,1.5,7.5c1,2.3,2.4,4.4,4.1,6.1c1.8,1.7,3.8,3.1,6.2,4.1c2.3,1,4.8,1.5,7.5,1.5c2.6,0,5.1,-.5,7.5,-1.5c2.3,-1,4.3,-2.4,6.1,-4.1c1.7,-1.7,3.1,-3.8,4.1,-6.1c1,-2.4,1.5,-4.9,1.5,-7.5c0,-2.7,-.5,-5.2,-1.5,-7.6c-1,-2.3,-2.4,-4.4,-4.1,-6.2c-1.8,-1.7,-3.8,-3.1,-6.1,-4.1c-2.4,-1,-4.9,-1.5,-7.5,-1.5m-26.3,64.8c-.3,0,-.5,-.3,-.5,-.6V467.1c0,-3.6,.6,-7.1,2,-10.3c1.3,-3.3,3.3,-6.2,5.8,-8.8c2.5,-2.5,5.4,-4.4,8.6,-5.8c3.3,-1.3,6.8,-2,10.4,-2c3.5,0,7,.7,10.3,2c3.2,1.4,6.1,3.3,8.6,5.8c2.5,2.6,4.5,5.5,5.9,8.8c1.3,3.2,2,6.7,2,10.3c0,3.5,-.7,6.9,-2,10.2c-1.4,3.2,-3.4,6.2,-5.9,8.7c-2.5,2.5,-5.4,4.4,-8.6,5.8c-3.3,1.4,-6.8,2.1,-10.3,2.1c-3.6,0,-7.1,-.7,-10.4,-2.1c-3.7,-1.7,-6.5,-3.9,-7.8,-5.1c-.4,-.4,-1,-.1,-1,.4v24.8c0,.3,-.2,.6,-.5,.6Z" class="g0_1" />
<path d="M257.9,494.3c-.2,0,-.5,.2,-.6,.4c-1.7,2.3,-3.6,4.7,-5.7,6.8c-3,2.9,-6.4,5.5,-10,7.6c-.6,.4,-.3,1.4,.4,1.4h25.3c.4,0,.7,-.4,.7,-.8V495.1c0,-.4,-.3,-.8,-.7,-.8Z" class="g1_1" />
<path d="M260.9,466.7c0,-10.2,-5.7,-23,-19,-39.2c-9.1,-11.2,-18.1,-19.8,-18.5,-20.1l-5,-4.8c-.3,-.3,-.7,-.3,-1,0l-5.1,4.8c-.3,.3,-9.4,8.9,-18.5,20.1c-13.2,16.2,-19.6,30.4,-19.6,40.6c0,6.9,1.6,14.4,4.5,20.5c.1,.2,.4,.4,.6,.4h17.5c.6,0,1,-.7,.6,-1.2c-4.4,-5.1,-7.1,-12.6,-7.1,-19.7c0,-2.8,1.6,-12,15.9,-29.6c4,-4.9,8,-9.6,11.2,-13c.2,-.3,.7,-.3,1,0c3.2,3.3,7.2,7.6,11.2,12.5c14.3,17.6,15.9,26,15.9,28.8c0,15.2,-13.8,27.5,-28.7,27.6c-.1,0,-47.6,-.1,-47.6,-.1c-.4,0,-.7,.4,-.7,.8v14.6c0,.4,.3,.8,.7,.8c12.2,0,47.5,0,47.6,0c23.8,-.2,44.1,-19.7,44.1,-43.8Z" class="g1_1" />
<path d="M305.8,535.6h-9.1l.5,-2.4h20.9l-.5,2.4h-9.1l-5.3,25.2h-2.6Z" class="g2_1" />
<path d="M316.7,540.6h2.4l-1,4.8c1,-1.4,2.1,-2.6,3.3,-3.5c1.3,-.8,2.6,-1.3,3.9,-1.4c.2,0,.3,0,.5,.1c.1,0,.3,0,.4,0l-.5,2.3c-1.7,.1,-3.2,.6,-4.6,1.5c-1.4,.9,-2.6,2.2,-3.5,3.8l-2.5,12.6h-2.6Z" class="g2_1" />
<path d="M331.3,561.2c-3.1,0,-4.7,-1.7,-4.7,-5.2c0,-.5,0,-1.1,.1,-1.6c.1,-.6,.2,-1.2,.3,-1.9l2.5,-11.9h2.6L329.7,552c-.2,1.2,-.3,2.2,-.3,3c0,2.6,1,3.9,3.2,3.9c.7,0,1.5,-.1,2.2,-.4c.7,-.3,1.5,-.6,2.1,-1.1c.7,-.5,1.4,-1.1,2,-1.8c.6,-.6,1.1,-1.4,1.6,-2.3l2.6,-12.7h2.6l-3.4,16.5c-.1,.3,-.1,.6,-.1,.7c0,.5,.2,.7,.7,.7l-.5,2.3c-.2,.1,-.4,.1,-.5,.1c-.2,0,-.3,0,-.4,0c-.6,0,-1.1,-.1,-1.4,-.4c-.3,-.3,-.4,-.6,-.4,-1.1c0,-.1,0,-.2,0,-.3c0,-.1,0,-.3,.1,-.6c0,-.2,.1,-.5,.1,-.8c.1,-.4,.2,-.9,.3,-1.4c-1.2,1.5,-2.5,2.8,-4.1,3.6c-1.6,.9,-3.2,1.3,-4.8,1.3Z" class="g2_1" />
<path d="M353.4,561.2c-1.4,0,-2.8,-.2,-4.1,-.7c-1.3,-.6,-2.4,-1.3,-3.2,-2.3l1.5,-1.8c1.7,1.9,3.8,2.8,6.2,2.8c1.7,0,3.1,-.4,4.2,-1.2c1,-.8,1.6,-1.8,1.6,-3.1c0,-.5,-.1,-.9,-.3,-1.2c-.2,-.3,-.5,-.6,-.9,-.8c-.4,-.3,-1,-.5,-1.6,-.7c-.6,-.2,-1.3,-.4,-2.1,-.7c-.9,-.2,-1.7,-.5,-2.3,-.7c-.7,-.3,-1.3,-.5,-1.7,-.8c-.5,-.4,-.8,-.7,-1,-1.2c-.3,-.4,-.4,-.9,-.4,-1.5c0,-1.1,.3,-2.1,.7,-3c.5,-.9,1.1,-1.6,1.9,-2.2c.8,-.6,1.7,-1.1,2.7,-1.4c1,-.3,2.1,-.5,3.2,-.5c1.5,0,2.7,.3,3.8,.8c1.1,.5,1.9,1.2,2.5,2l-1.6,1.5c-.6,-.7,-1.3,-1.3,-2.2,-1.7c-.9,-.4,-1.9,-.6,-3,-.6c-.7,0,-1.4,.1,-2.1,.3c-.6,.2,-1.2,.4,-1.7,.8c-.5,.4,-.9,.8,-1.2,1.4c-.3,.5,-.4,1.2,-.4,1.9c0,.8,.3,1.4,.9,1.8c.7,.3,1.7,.7,3.1,1c2,.6,3.6,1.2,4.7,1.8c1.1,.7,1.6,1.7,1.6,3c0,1,-.2,2,-.6,2.8c-.5,.9,-1.1,1.6,-1.9,2.2c-.7,.7,-1.7,1.2,-2.7,1.5c-1.1,.4,-2.3,.5,-3.6,.5Z" class="g2_1" />
<path d="M369.9,561.1c-1,0,-1.8,-.3,-2.4,-.7c-.6,-.5,-.9,-1.3,-.9,-2.2c0,-.3,0,-.7,.1,-1l3,-14.5H367l.5,-2.1h2.6l1.4,-6.9h2.6l-1.4,6.9H377l-.4,2.1h-4.3l-2.8,13.2c0,.2,-.1,.5,-.1,.6c0,.2,-.1,.3,-.1,.5c0,.5,.2,1,.6,1.2c.3,.3,.8,.4,1.3,.4c.7,0,1.3,-.1,1.9,-.3c.6,-.3,.9,-.5,1.1,-.6l.2,2.2c-.3,.2,-.9,.5,-1.7,.7c-.9,.3,-1.8,.5,-2.8,.5Z" class="g2_1" />
<path d="M385.1,561.2c-1.2,0,-2.3,-.2,-3.3,-.6c-.9,-.5,-1.7,-1.1,-2.4,-1.9c-.6,-.7,-1.1,-1.6,-1.5,-2.7c-.3,-1,-.5,-2.1,-.5,-3.3c0,-1.6,.3,-3.2,.9,-4.7c.6,-1.5,1.5,-2.8,2.5,-3.9c1.1,-1.2,2.4,-2.1,3.8,-2.8c1.5,-.7,3.1,-1.1,4.8,-1.1c.8,0,1.7,.1,2.4,.4c.8,.2,1.5,.6,2.1,1c.5,.5,1,1,1.3,1.7c.3,.7,.5,1.5,.5,2.4c0,2,-.9,3.5,-2.6,4.5c-1.7,1,-4.4,1.5,-8,1.5c-.7,0,-1.5,0,-2.3,0c-.8,-.1,-1.7,-.1,-2.7,-.2c0,.2,0,.4,0,.6c0,.2,-.1,.4,-.1,.5c0,.9,.2,1.8,.4,2.5c.2,.8,.6,1.5,1,2.1c.5,.7,1,1.1,1.7,1.5c.7,.3,1.5,.5,2.4,.5c.6,0,1.3,-.1,1.9,-.3c.6,-.1,1.2,-.4,1.8,-.7c.6,-.3,1.1,-.7,1.6,-1.2c.5,-.5,.9,-1,1.2,-1.6l2.1,.7c-.4,.7,-1,1.4,-1.6,2.1c-.7,.6,-1.4,1.2,-2.2,1.6c-.8,.5,-1.7,.8,-2.5,1.1c-.9,.2,-1.8,.3,-2.7,.3m4,-18.9c-1.1,0,-2.2,.2,-3.1,.6c-.9,.4,-1.8,1,-2.5,1.6c-.8,.7,-1.4,1.5,-1.9,2.4c-.5,.9,-.9,1.8,-1.1,2.7c.9,.1,1.7,.1,2.5,.1c.8,.1,1.5,.1,2.2,.1c1.5,0,2.8,-.1,3.8,-.3c1.1,-.2,1.9,-.5,2.6,-.9c.6,-.3,1,-.8,1.3,-1.3c.3,-.5,.4,-1.1,.4,-1.7c0,-1.1,-.4,-2,-1.2,-2.5c-.8,-.5,-1.8,-.8,-3,-.8Z" class="g2_1" />
<path d="M404.9,561.2c-1.2,0,-2.2,-.2,-3,-.6c-.9,-.5,-1.7,-1.1,-2.3,-1.9c-.6,-.8,-1,-1.7,-1.4,-2.7c-.3,-1,-.4,-2.1,-.4,-3.2c0,-1.7,.3,-3.2,.9,-4.7c.6,-1.5,1.4,-2.9,2.4,-4c1,-1.2,2.2,-2.1,3.5,-2.8c1.4,-.7,2.8,-1.1,4.2,-1.1c1.6,0,2.9,.5,3.9,1.4c1.1,.9,1.8,1.9,2.3,3.2l2.6,-12.3h2.5L415,557.4c-.1,.2,-.1,.4,-.1,.4c0,.5,.2,.7,.7,.7l-.5,2.3c-.2,.1,-.4,.1,-.5,.1c-.1,0,-.3,0,-.4,0c-.6,0,-1.1,-.1,-1.4,-.4c-.3,-.3,-.5,-.7,-.5,-1.1c0,-.2,.1,-.5,.1,-.8c.1,-.3,.2,-.9,.3,-1.7c-1,1.3,-2.2,2.4,-3.6,3.2c-1.5,.7,-2.9,1.1,-4.2,1.1m1,-2.3c.6,0,1.3,-.1,2,-.4c.7,-.3,1.5,-.6,2.1,-1.1c.7,-.4,1.3,-.9,1.9,-1.6c.5,-.6,.9,-1.2,1.2,-1.9l1.2,-6.3c0,-.7,-.2,-1.3,-.6,-1.9c-.3,-.7,-.7,-1.2,-1.2,-1.7c-.5,-.4,-1,-.8,-1.6,-1c-.6,-.3,-1.3,-.4,-1.9,-.4c-1.1,0,-2.2,.3,-3.3,.8c-1,.6,-1.9,1.4,-2.7,2.3c-.8,.9,-1.4,2,-1.8,3.1c-.5,1.2,-.7,2.4,-.7,3.5c0,.9,.1,1.8,.4,2.6c.2,.8,.6,1.5,1.1,2.1c.4,.5,1,1,1.7,1.4c.6,.3,1.4,.5,2.2,.5Z" class="g2_1" />
<path d="M435.8,533.2h8.7c1.7,0,3.2,.3,4.4,.8c1.3,.6,2.3,1.3,3.1,2.3c.8,1,1.4,2.1,1.8,3.4c.4,1.2,.6,2.6,.6,4.1c0,2.4,-.4,4.7,-1.2,6.8c-.8,2.1,-1.9,3.9,-3.3,5.4c-1.3,1.5,-3,2.7,-4.9,3.6c-1.9,.8,-4,1.2,-6.2,1.2H430Zm3.5,25.2c1.9,0,3.6,-.4,5.1,-1.1c1.6,-.8,2.9,-1.9,3.9,-3.2c1.1,-1.3,1.9,-2.8,2.5,-4.5c.6,-1.7,.9,-3.5,.9,-5.4c0,-1.2,-.2,-2.4,-.5,-3.4c-.3,-1.1,-.8,-2,-1.5,-2.7c-.6,-.8,-1.4,-1.4,-2.4,-1.8c-.9,-.4,-2,-.7,-3.3,-.7h-6.1l-4.8,22.8Z" class="g2_1" />
<path d="M459.9,540.6h2.5l-1.1,4.8c1,-1.4,2.2,-2.6,3.4,-3.5c1.3,-.8,2.6,-1.3,3.8,-1.4c.3,0,.4,0,.6,.1c.1,0,.2,0,.4,0l-.5,2.3c-1.7,.1,-3.2,.6,-4.6,1.5c-1.5,.9,-2.6,2.2,-3.5,3.8l-2.6,12.6h-2.6Z" class="g2_1" />
<path d="M474.5,561.2c-3.1,0,-4.6,-1.7,-4.6,-5.2c0,-.5,0,-1.1,.1,-1.6c0,-.6,.1,-1.2,.3,-1.9l2.5,-11.9h2.6L473,552c-.2,1.2,-.4,2.2,-.4,3c0,2.6,1.1,3.9,3.3,3.9c.7,0,1.4,-.1,2.2,-.4c.7,-.3,1.4,-.6,2.1,-1.1c.7,-.5,1.3,-1.1,2,-1.8c.6,-.6,1.1,-1.4,1.6,-2.3l2.6,-12.7H489l-3.5,16.5c0,.3,-.1,.6,-.1,.7c0,.5,.3,.7,.8,.7l-.5,2.3c-.2,.1,-.4,.1,-.6,.1c-.1,0,-.2,0,-.4,0c-.5,0,-1,-.1,-1.3,-.4c-.3,-.3,-.4,-.6,-.4,-1.1c0,-.1,0,-.2,0,-.3c0,-.1,0,-.3,.1,-.6c0,-.2,0,-.5,.1,-.8c.1,-.4,.2,-.9,.3,-1.4c-1.2,1.5,-2.6,2.8,-4.1,3.6c-1.6,.9,-3.2,1.3,-4.9,1.3Z" class="g2_1" />
<path d="M494.7,540.6H497l-.8,3.9c1,-1.3,2.2,-2.3,3.6,-3.1c1.4,-.8,2.9,-1.2,4.3,-1.2c1.1,0,2.1,.3,3,.7c.8,.5,1.6,1.1,2.2,1.9c.6,.8,1.1,1.7,1.4,2.7c.3,1.1,.5,2.1,.5,3.2c0,1.6,-.3,3.2,-.9,4.7c-.6,1.5,-1.4,2.8,-2.4,4c-1,1.1,-2.2,2.1,-3.5,2.8c-1.4,.7,-2.8,1,-4.3,1c-1.6,0,-2.9,-.4,-3.9,-1.3c-1,-.8,-1.8,-1.9,-2.2,-3.3l-2.6,12.5h-2.6Zm5.2,18.3c1.2,0,2.3,-.3,3.3,-.9c1,-.6,1.9,-1.3,2.7,-2.2c.8,-1,1.4,-2,1.9,-3.1c.4,-1.2,.7,-2.4,.7,-3.5c0,-.9,-.2,-1.8,-.4,-2.6c-.3,-.8,-.6,-1.5,-1.1,-2.1c-.5,-.6,-1.1,-1.1,-1.7,-1.4c-.7,-.4,-1.5,-.5,-2.3,-.5c-.6,0,-1.3,.1,-2,.4c-.7,.2,-1.4,.6,-2.1,1.1c-.7,.4,-1.3,.9,-1.9,1.6c-.5,.6,-.9,1.2,-1.2,1.9l-1.3,6.2c.2,.7,.4,1.4,.7,2c.3,.6,.7,1.2,1.2,1.6c.5,.5,1,.8,1.6,1.1c.6,.3,1.2,.4,1.9,.4Z" class="g2_1" />
<path d="M520.8,561.2c-1.2,0,-2.1,-.2,-3,-.6c-.9,-.5,-1.6,-1.1,-2.2,-1.9c-.6,-.8,-1.1,-1.7,-1.4,-2.7c-.3,-1,-.5,-2.1,-.5,-3.2c0,-1.7,.3,-3.2,.9,-4.7c.6,-1.5,1.5,-2.9,2.5,-4c1,-1.2,2.2,-2.1,3.5,-2.8c1.3,-.7,2.7,-1.1,4.1,-1.1c1.6,0,3,.5,4,1.4c1,.9,1.8,1.9,2.2,3.2l.9,-4.2h2.6l-3.5,16.8c0,.2,-.1,.4,-.1,.5c0,.4,.3,.6,.8,.6l-.5,2.3c-.2,.1,-.4,.1,-.6,.1c-.2,0,-.3,.1,-.5,.1c-.6,-.1,-1,-.3,-1.3,-.5c-.3,-.3,-.4,-.7,-.4,-1.1c0,-.2,0,-.5,.1,-.8c0,-.4,.1,-.9,.3,-1.7c-1,1.3,-2.2,2.4,-3.7,3.2c-1.4,.7,-2.8,1.1,-4.2,1.1m1,-2.3c.7,0,1.4,-.1,2.1,-.4c.7,-.3,1.4,-.6,2.1,-1.1c.7,-.4,1.3,-.9,1.8,-1.6c.6,-.6,1,-1.2,1.2,-1.9l1.3,-6.3c-.1,-.7,-.3,-1.3,-.6,-1.9c-.3,-.7,-.8,-1.2,-1.2,-1.6c-.5,-.5,-1.1,-.9,-1.7,-1.1c-.6,-.3,-1.2,-.4,-1.9,-.4c-1.1,0,-2.2,.3,-3.2,.8c-1.1,.6,-2,1.4,-2.7,2.3c-.8,.9,-1.4,2,-1.9,3.2c-.4,1.1,-.7,2.3,-.7,3.5c0,.9,.1,1.7,.4,2.5c.3,.8,.6,1.5,1.1,2.1c.5,.6,1.1,1,1.7,1.4c.7,.3,1.4,.5,2.2,.5Z" class="g2_1" />
<path d="M539.6,561.1c-.9,0,-1.6,-.3,-2.2,-.8c-.5,-.5,-.8,-1.2,-.8,-2.1c0,-.1,0,-.3,.1,-.5c0,-.2,0,-.3,.1,-.6l5.1,-24.6h2.6l-5,23.8c0,.1,0,.2,0,.3c-.1,.1,-.1,.2,-.1,.4c0,1.1,.6,1.7,1.8,1.7c.3,0,.6,-.1,1,-.2c.4,0,.8,-.1,1.1,-.3v2.2c-.6,.2,-1.2,.4,-1.9,.5c-.7,.1,-1.3,.2,-1.8,.2Z" class="g2_1" />
<path d="M559.3,561.1c-1,0,-1.8,-.3,-2.4,-.7c-.6,-.5,-1,-1.3,-1,-2.2c0,-.3,.1,-.7,.2,-1l3,-14.5h-2.7l.5,-2.1h2.6l1.4,-6.9h2.6l-1.4,6.9h4.3l-.4,2.1h-4.3l-2.8,13.2c0,.2,-.1,.5,-.1,.6c-.1,.2,-.1,.3,-.1,.5c0,.5,.2,1,.6,1.2c.3,.3,.8,.4,1.3,.4c.6,0,1.3,-.1,1.9,-.3c.6,-.3,.9,-.5,1.1,-.6l.2,2.2c-.3,.2,-.9,.5,-1.7,.7c-.9,.3,-1.8,.5,-2.8,.5Z" class="g2_1" />
<path d="M574.5,561.2c-1.2,0,-2.3,-.2,-3.3,-.6c-.9,-.5,-1.7,-1.1,-2.4,-1.9c-.6,-.7,-1.1,-1.6,-1.5,-2.7c-.3,-1,-.5,-2.1,-.5,-3.3c0,-1.6,.3,-3.2,.9,-4.7c.6,-1.5,1.5,-2.8,2.5,-3.9c1.1,-1.2,2.4,-2.1,3.8,-2.8c1.5,-.7,3.1,-1.1,4.8,-1.1c.8,0,1.7,.1,2.4,.4c.8,.2,1.5,.6,2.1,1c.5,.5,1,1,1.3,1.7c.3,.7,.5,1.5,.5,2.4c0,2,-.9,3.5,-2.6,4.5c-1.7,1,-4.4,1.5,-8,1.5c-.7,0,-1.5,0,-2.3,0c-.8,-.1,-1.7,-.1,-2.7,-.2c0,.2,0,.4,0,.6c-.1,.2,-.1,.4,-.1,.5c0,.9,.2,1.8,.4,2.5c.2,.8,.6,1.5,1,2.1c.5,.7,1,1.1,1.7,1.5c.7,.3,1.5,.5,2.4,.5c.6,0,1.3,-.1,1.9,-.3c.6,-.1,1.2,-.4,1.8,-.7c.6,-.3,1.1,-.7,1.6,-1.2c.5,-.5,.9,-1,1.2,-1.6l2.1,.7c-.4,.7,-1,1.4,-1.6,2.1c-.7,.6,-1.4,1.2,-2.2,1.6c-.8,.5,-1.7,.8,-2.5,1.1c-.9,.2,-1.8,.3,-2.7,.3m4,-18.9c-1.1,0,-2.2,.2,-3.1,.6c-1,.4,-1.8,1,-2.5,1.6c-.8,.7,-1.4,1.5,-1.9,2.4c-.5,.9,-.9,1.8,-1.1,2.7c.9,.1,1.7,.1,2.5,.1c.8,.1,1.5,.1,2.2,.1c1.5,0,2.8,-.1,3.8,-.3c1.1,-.2,1.9,-.5,2.6,-.9c.6,-.3,1,-.8,1.3,-1.3c.3,-.5,.4,-1.1,.4,-1.7c0,-1.1,-.4,-2,-1.2,-2.5c-.9,-.5,-1.8,-.8,-3,-.8Z" class="g2_1" />
<path d="M594.2,561.2c-1.1,0,-2.1,-.2,-3,-.6c-.8,-.5,-1.6,-1.1,-2.2,-1.9c-.6,-.8,-1,-1.7,-1.4,-2.7c-.3,-1,-.4,-2.1,-.4,-3.2c0,-1.7,.3,-3.2,.9,-4.7c.6,-1.5,1.4,-2.9,2.4,-4c1,-1.2,2.2,-2.1,3.5,-2.8c1.3,-.7,2.7,-1.1,4.2,-1.1c1.6,0,2.9,.5,3.9,1.4c1.1,.9,1.8,1.9,2.3,3.2l.9,-4.2h2.6l-3.5,16.8c-.1,.2,-.1,.4,-.1,.5c0,.4,.2,.6,.7,.6l-.5,2.3c-.2,.1,-.4,.1,-.6,.1c-.1,0,-.3,.1,-.4,.1c-.6,-.1,-1,-.3,-1.3,-.5c-.3,-.3,-.5,-.7,-.5,-1.1c0,-.2,.1,-.5,.1,-.8c.1,-.4,.2,-.9,.3,-1.7c-1,1.3,-2.2,2.4,-3.6,3.2c-1.5,.7,-2.9,1.1,-4.3,1.1m1.1,-2.3c.6,0,1.3,-.1,2,-.4c.8,-.3,1.5,-.6,2.2,-1.1c.6,-.4,1.2,-.9,1.8,-1.6c.5,-.6,.9,-1.2,1.2,-1.9l1.2,-6.3c0,-.7,-.2,-1.3,-.6,-1.9c-.3,-.7,-.7,-1.2,-1.2,-1.6c-.5,-.5,-1,-.9,-1.6,-1.1c-.6,-.3,-1.3,-.4,-1.9,-.4c-1.2,0,-2.3,.3,-3.3,.8c-1,.6,-1.9,1.4,-2.7,2.3c-.8,.9,-1.4,2,-1.8,3.2c-.5,1.1,-.7,2.3,-.7,3.5c0,.9,.1,1.7,.4,2.5c.2,.8,.6,1.5,1.1,2.1c.4,.6,1,1,1.7,1.4c.6,.3,1.4,.5,2.2,.5Z" class="g2_1" />
<path d="M613.5,540.6h2.4l-.9,4.6c1,-1.6,2.3,-2.8,3.7,-3.6c1.4,-.9,2.9,-1.4,4.4,-1.4c1.5,0,2.7,.5,3.4,1.4c.8,.9,1.1,2.2,1.1,3.9c1.2,-1.7,2.5,-3,3.9,-3.9c1.5,-.9,3,-1.4,4.5,-1.4c1.6,0,2.7,.5,3.4,1.4c.7,.8,1,2.1,1,3.6c0,1.1,-.1,2.4,-.4,3.8l-2.5,11.8h-2.6l2.3,-11.3c.1,-.6,.2,-1.1,.3,-1.7c.1,-.5,.1,-1,.1,-1.4c0,-2.5,-1,-3.8,-3,-3.8c-.7,0,-1.4,.2,-2.1,.5c-.7,.3,-1.4,.7,-2,1.2c-.7,.5,-1.3,1.1,-1.8,1.8c-.6,.7,-1,1.5,-1.4,2.4l-2.6,12.3h-2.6l2.3,-11.3c.2,-.6,.3,-1.2,.3,-1.7c.1,-.6,.2,-1.1,.2,-1.5c0,-2.4,-1,-3.7,-3.1,-3.7c-1.4,0,-2.7,.6,-4.1,1.6c-1.3,1.1,-2.4,2.5,-3.2,4.2l-2.6,12.4h-2.6Z" class="g2_1" />
<path d="M647,540.6h2.4l-1,4.6c1.1,-1.6,2.3,-2.8,3.8,-3.6c1.4,-.9,2.9,-1.4,4.4,-1.4c1.5,0,2.6,.5,3.4,1.4c.7,.9,1.1,2.2,1.1,3.9c1.1,-1.7,2.4,-3,3.9,-3.9c1.4,-.9,2.9,-1.4,4.5,-1.4c1.6,0,2.7,.5,3.4,1.4c.6,.8,1,2.1,1,3.6c0,1.1,-.2,2.4,-.5,3.8l-2.5,11.8h-2.6l2.4,-11.3c.1,-.6,.2,-1.1,.3,-1.7c0,-.5,.1,-1,.1,-1.4c0,-2.5,-1,-3.8,-3.1,-3.8c-.7,0,-1.4,.2,-2.1,.5c-.7,.3,-1.3,.7,-2,1.2c-.6,.5,-1.2,1.1,-1.7,1.8c-.6,.7,-1.1,1.5,-1.5,2.4l-2.5,12.3h-2.6l2.3,-11.3c.1,-.6,.2,-1.2,.3,-1.7c.1,-.6,.1,-1.1,.1,-1.5c0,-2.4,-1,-3.7,-3,-3.7c-1.4,0,-2.8,.6,-4.1,1.6c-1.3,1.1,-2.4,2.5,-3.2,4.2l-2.6,12.4h-2.6Z" class="g2_1" />
<path d="M683.9,561.2c-1.1,0,-2.1,-.2,-2.9,-.6c-.9,-.5,-1.6,-1.1,-2.2,-1.9c-.7,-.8,-1.1,-1.7,-1.4,-2.7c-.4,-1,-.5,-2.1,-.5,-3.2c0,-1.7,.3,-3.2,.9,-4.7c.6,-1.5,1.4,-2.9,2.4,-4c1.1,-1.2,2.2,-2.1,3.5,-2.8c1.4,-.7,2.8,-1.1,4.2,-1.1c1.6,0,2.9,.5,4,1.4c1,.9,1.7,1.9,2.2,3.2l.9,-4.2h2.6l-3.5,16.8c-.1,.2,-.1,.4,-.1,.5c0,.4,.2,.6,.7,.6l-.5,2.3c-.2,.1,-.4,.1,-.5,.1c-.2,0,-.4,.1,-.5,.1c-.6,-.1,-1,-.3,-1.3,-.5c-.3,-.3,-.5,-.7,-.5,-1.1c0,-.2,.1,-.5,.1,-.8c.1,-.4,.2,-.9,.4,-1.7c-1,1.3,-2.3,2.4,-3.7,3.2c-1.4,.7,-2.9,1.1,-4.3,1.1m1.1,-2.3c.6,0,1.3,-.1,2.1,-.4c.7,-.3,1.4,-.6,2.1,-1.1c.7,-.4,1.3,-.9,1.8,-1.6c.6,-.6,1,-1.2,1.2,-1.9l1.3,-6.3c-.1,-.7,-.3,-1.3,-.6,-1.9c-.4,-.7,-.8,-1.2,-1.3,-1.6c-.4,-.5,-1,-.9,-1.6,-1.1c-.6,-.3,-1.2,-.4,-1.9,-.4c-1.1,0,-2.2,.3,-3.3,.8c-1,.6,-1.9,1.4,-2.7,2.3c-.7,.9,-1.4,2,-1.8,3.2c-.5,1.1,-.7,2.3,-.7,3.5c0,.9,.1,1.7,.4,2.5c.2,.8,.6,1.5,1.1,2.1c.5,.6,1,1,1.7,1.4c.7,.3,1.4,.5,2.2,.5Z" class="g2_1" />
<path d="M703.9,561.1c-1,0,-1.8,-.3,-2.4,-.7c-.6,-.5,-.9,-1.3,-.9,-2.2c0,-.3,0,-.7,.1,-1l3,-14.5h-2.6l.4,-2.1h2.6l1.5,-6.9h2.5l-1.4,6.9H711l-.4,2.1h-4.3l-2.8,13.2c0,.2,-.1,.5,-.1,.6c0,.2,-.1,.3,-.1,.5c0,.5,.2,1,.6,1.2c.3,.3,.8,.4,1.3,.4c.7,0,1.3,-.1,1.9,-.3c.6,-.3,.9,-.5,1.1,-.6l.2,2.2c-.3,.2,-.9,.5,-1.7,.7c-.9,.3,-1.8,.5,-2.8,.5Z" class="g2_1" />
<path d="M719.1,561.2c-1.2,0,-2.3,-.2,-3.3,-.6c-.9,-.5,-1.7,-1.1,-2.4,-1.9c-.6,-.7,-1.1,-1.6,-1.5,-2.7c-.3,-1,-.5,-2.1,-.5,-3.3c0,-1.6,.3,-3.2,.9,-4.7c.6,-1.5,1.5,-2.8,2.6,-3.9c1,-1.2,2.3,-2.1,3.7,-2.8c1.5,-.7,3.1,-1.1,4.8,-1.1c.9,0,1.7,.1,2.4,.4c.8,.2,1.5,.6,2.1,1c.5,.5,1,1,1.3,1.7c.4,.7,.5,1.5,.5,2.4c0,2,-.8,3.5,-2.6,4.5c-1.7,1,-4.4,1.5,-8,1.5c-.7,0,-1.5,0,-2.3,0c-.8,-.1,-1.7,-.1,-2.7,-.2c0,.2,0,.4,0,.6c0,.2,-.1,.4,-.1,.5c0,.9,.2,1.8,.4,2.5c.2,.8,.6,1.5,1,2.1c.5,.7,1.1,1.1,1.7,1.5c.7,.3,1.5,.5,2.4,.5c.6,0,1.3,-.1,1.9,-.3c.6,-.1,1.2,-.4,1.8,-.7c.6,-.3,1.1,-.7,1.6,-1.2c.5,-.5,.9,-1,1.2,-1.6l2.2,.7c-.5,.7,-1.1,1.4,-1.7,2.1c-.7,.6,-1.4,1.2,-2.2,1.6c-.8,.5,-1.7,.8,-2.5,1.1c-.9,.2,-1.8,.3,-2.7,.3m4,-18.9c-1.1,0,-2.2,.2,-3.1,.6c-.9,.4,-1.8,1,-2.5,1.6c-.8,.7,-1.4,1.5,-1.9,2.4c-.5,.9,-.9,1.8,-1.1,2.7c.9,.1,1.7,.1,2.5,.1c.8,.1,1.5,.1,2.2,.1c1.5,0,2.8,-.1,3.8,-.3c1.1,-.2,1.9,-.5,2.6,-.9c.6,-.3,1.1,-.8,1.3,-1.3c.3,-.5,.5,-1.1,.5,-1.7c0,-1.1,-.5,-2,-1.3,-2.5c-.8,-.5,-1.8,-.8,-3,-.8Z" class="g2_1" />
<path d="M737.4,561.2c-1.5,0,-2.9,-.2,-4.2,-.7c-1.3,-.6,-2.3,-1.3,-3.1,-2.3l1.5,-1.8c1.7,1.9,3.7,2.8,6.2,2.8c1.6,0,3,-.4,4.1,-1.2c1.1,-.8,1.6,-1.8,1.6,-3.1c0,-.5,-.1,-.9,-.3,-1.2c-.2,-.3,-.5,-.6,-.9,-.8c-.4,-.3,-.9,-.5,-1.5,-.7c-.6,-.2,-1.3,-.4,-2.1,-.7c-.9,-.2,-1.7,-.5,-2.4,-.7c-.7,-.3,-1.2,-.5,-1.7,-.8c-.4,-.4,-.8,-.7,-1,-1.2c-.2,-.4,-.3,-.9,-.3,-1.5c0,-1.1,.2,-2.1,.7,-3c.4,-.9,1.1,-1.6,1.8,-2.2c.8,-.6,1.7,-1.1,2.7,-1.4c1.1,-.3,2.1,-.5,3.3,-.5c1.4,0,2.7,.3,3.7,.8c1.1,.5,1.9,1.2,2.5,2l-1.6,1.5c-.5,-.7,-1.3,-1.3,-2.2,-1.7c-.9,-.4,-1.9,-.6,-3,-.6c-.7,0,-1.4,.1,-2,.3c-.7,.2,-1.3,.4,-1.8,.8c-.5,.4,-.9,.8,-1.1,1.4c-.3,.5,-.5,1.2,-.5,1.9c0,.8,.3,1.4,1,1.8c.6,.3,1.6,.7,3,1c2.1,.6,3.6,1.2,4.7,1.8c1.1,.7,1.6,1.7,1.6,3c0,1,-.2,2,-.6,2.8c-.4,.9,-1,1.6,-1.8,2.2c-.8,.7,-1.7,1.2,-2.8,1.5c-1.1,.4,-2.3,.5,-3.5,.5Z" class="g2_1" />

</svg>
