<?xml version="1.0" encoding="UTF-8" standalone="no"?>
<svg
   xmlns:dc="http://purl.org/dc/elements/1.1/"
   xmlns:cc="http://creativecommons.org/ns#"
   xmlns:rdf="http://www.w3.org/1999/02/22-rdf-syntax-ns#"
   xmlns:svg="http://www.w3.org/2000/svg"
   xmlns="http://www.w3.org/2000/svg"
   viewBox="0 0 447.88 105.82667"
   height="105.82667"
   width="447.88"
   xml:space="preserve"
   id="svg2"
   version="1.1"><metadata
     id="metadata8"><rdf:RDF><cc:Work
         rdf:about=""><dc:format>image/svg+xml</dc:format><dc:type
           rdf:resource="http://purl.org/dc/dcmitype/StillImage" /></cc:Work></rdf:RDF></metadata><defs
     id="defs6" /><g
     transform="matrix(1.3333333,0,0,-1.3333333,0,105.82667)"
     id="g10"><g
       transform="scale(0.1)"
       id="g12"><path
         id="path14"
         style="fill:#ffffff;fill-opacity:1;fill-rule:nonzero;stroke:none"
         d="M 29.3359,546.238 C 20.5078,524.598 13.4766,502.098 8.55469,478.777 L 478.785,8.55469 c 23.36,4.92191 45.86,12.03121 67.5,20.78121 L 29.3359,546.238" /><path
         id="path16"
         style="fill:#ffffff;fill-opacity:1;fill-rule:nonzero;stroke:none"
         d="M 1.79688,362.188 C 5.3125,321.25 14.9219,282.148 29.9609,245.781 L 245.777,29.9609 C 282.184,14.9219 321.285,5.35156 362.184,1.79688 L 1.79688,362.188" /><path
         id="path18"
         style="fill:#ffffff;fill-opacity:1;fill-rule:nonzero;stroke:none"
         d="M 45.5469,212.578 C 82.9688,141.328 141.367,83.0078 212.539,45.5469 L 45.5469,212.578" /><path
         id="path20"
         style="fill:#ffffff;fill-opacity:1;fill-rule:nonzero;stroke:none"
         d="M 65.8203,615.535 C 53.9063,597.527 43.5547,578.43 34.6484,558.508 L 558.512,34.6875 c 19.957,8.8672 39.015,19.1797 56.984,31.1328 L 65.8203,615.535" /><path
         id="path22"
         style="fill:#ffffff;fill-opacity:1;fill-rule:nonzero;stroke:none"
         d="M 6.09375,463.66 C 2.34375,441.902 0,419.68 0,396.875 0,391.445 0.625,386.133 0.820313,380.742 L 380.738,0.820313 C 386.129,0.585938 391.441,0 396.871,0 c 22.813,0 45.078,2.34375 66.797,6.01563 L 6.09375,463.66" /><path
         id="path24"
         style="fill:#ffffff;fill-opacity:1;fill-rule:nonzero;stroke:none"
         d="m 1298.77,546.355 c -4.61,11.29 -9.77,22.27 -15.31,32.969 l -169.72,169.727 c -10.74,5.547 -21.68,10.703 -32.93,15.273 l 217.96,-217.969" /><path
         id="path26"
         style="fill:#ffffff;fill-opacity:1;fill-rule:nonzero;stroke:none"
         d="m 1254.82,167.578 c 2.43,3.438 4.97,6.797 7.31,10.313 L 712.336,727.723 c -3.52,-2.344 -6.914,-4.883 -10.356,-7.305 l 552.84,-552.84" /><path
         id="path28"
         style="fill:#ffffff;fill-opacity:1;fill-rule:nonzero;stroke:none"
         d="m 1293.34,234.844 c 1.76,4.023 3.55,7.929 5.23,11.914 L 781.16,764.129 c -3.98,-1.68 -7.89,-3.438 -11.836,-5.234 L 1293.34,234.844" /><path
         id="path30"
         style="fill:#ffffff;fill-opacity:1;fill-rule:nonzero;stroke:none"
         d="m 1327.36,411.941 c -0.27,6.172 -0.43,12.461 -0.93,18.594 L 964.91,792.02 c -6.094,0.507 -12.305,0.703 -18.515,0.937 L 1327.36,411.941" /><path
         id="path32"
         style="fill:#ffffff;fill-opacity:1;fill-rule:nonzero;stroke:none"
         d="m 1319.36,314.18 c 1.09,4.961 1.71,10 2.57,15 L 863.621,787.527 c -5.035,-0.859 -10.113,-1.523 -15.074,-2.539 L 1319.36,314.18" /><path
         id="path34"
         style="fill:#ffffff;fill-opacity:1;fill-rule:nonzero;stroke:none"
         d="m 664.055,689.68 c -8.95,7.535 -27.817,26.832 -74.106,53.785 l 63.989,-64.024 c 3.433,3.364 6.597,6.993 10.117,10.239" /><path
         id="path36"
         style="fill:#ffffff;fill-opacity:1;fill-rule:nonzero;stroke:none"
         d="m 742.605,590.77 0.864,-0.86 c -0.903,1.563 -1.953,3.125 -2.856,4.727 0.703,-1.25 1.25,-2.617 1.992,-3.867" /><path
         id="path38"
         style="fill:#ffffff;fill-opacity:1;fill-rule:nonzero;stroke:none"
         d="m 645.188,670.574 -90.27,90.235 C 517.77,776.941 477.77,787.605 435.777,791.746 L 605.383,622.098 c 11.988,17.265 25.269,33.402 39.805,48.476" /><path
         id="path40"
         style="fill:#ffffff;fill-opacity:1;fill-rule:nonzero;stroke:none"
         d="M 598.391,611.473 417.184,792.684 c -6.758,0.351 -13.438,1.015 -20.313,1.015 -21.562,0 -42.617,-2.187 -63.359,-5.508 L 567.371,554.285 c 8.715,20.078 19.262,39.063 31.02,57.188" /><path
         id="path42"
         style="fill:#ffffff;fill-opacity:1;fill-rule:nonzero;stroke:none"
         d="M 562.41,541.633 318.238,785.848 C 294.762,781.121 272.184,774.09 250.426,765.457 L 542.223,473.625 c 4.687,23.555 11.562,46.211 20.187,68.008" /><path
         id="path44"
         style="fill:#ffffff;fill-opacity:1;fill-rule:nonzero;stroke:none"
         d="m 534.449,396.875 c 0,21.16 2.188,41.75 5.391,62.059 L 238.238,760.535 c -19.996,-8.75 -39.097,-19.14 -57.222,-30.937 l 354.566,-354.52 c -0.391,7.227 -1.133,14.453 -1.133,21.797" /><path
         id="path46"
         style="fill:#ffffff;fill-opacity:1;fill-rule:nonzero;stroke:none"
         d="M 536.637,356.406 170.43,722.527 c -17.149,-11.953 -33.321,-25.312 -48.399,-39.765 l 446.59,-446.629 c -16.672,37.461 -27.687,77.812 -31.984,120.273" /><path
         id="path48"
         style="fill:#ffffff;fill-opacity:1;fill-rule:nonzero;stroke:none"
         d="M 586.941,200.234 113.086,674.055 C 98.5156,659.094 85.1953,642.961 73.0859,625.848 L 625.852,73.1641 c 13.394,9.4922 26.05,19.9218 38.203,30.8989 -30.434,27.812 -56.45,60.234 -77.114,96.171" /><path
         id="path50"
         style="fill:#ffffff;fill-opacity:1;fill-rule:nonzero;stroke:none"
         d="m 673.699,113.789 61.992,-61.9921 c 11.489,-6.5235 23.403,-12.5781 35.625,-17.9297 l -88.828,88.7498 c -2.847,-2.969 -5.777,-5.898 -8.789,-8.828" /><path
         id="path52"
         style="fill:#ffffff;fill-opacity:1;fill-rule:nonzero;stroke:none"
         d="m 729.324,181.602 c -2.304,-3.555 -4.566,-7.188 -6.953,-10.664 L 891.316,2.03125 c 6.133,-0.625 12.383,-0.625 18.594,-0.97656 L 729.324,181.602" /><path
         id="path54"
         style="fill:#ffffff;fill-opacity:1;fill-rule:nonzero;stroke:none"
         d="m 765.422,251.328 c -1.645,-4.18 -3.125,-8.476 -4.926,-12.656 L 993.777,5.39063 c 5.078,0.78125 10.233,1.32812 15.233,2.34375 L 765.422,251.328" /><path
         id="path56"
         style="fill:#ffffff;fill-opacity:1;fill-rule:nonzero;stroke:none"
         d="m 788.23,334.336 c -0.781,-5.039 -1.484,-10.156 -2.46,-15.117 L 1076.98,27.9688 c 4.22,1.7187 8.44,3.2812 12.58,5.039 L 788.23,334.336" /><path
         id="path58"
         style="fill:#ffffff;fill-opacity:1;fill-rule:nonzero;stroke:none"
         d="m 791.594,436.863 c 0.625,-6.172 0.703,-12.461 0.972,-18.672 L 1146.82,63.9453 c 3.59,2.3047 7.14,4.6094 10.62,7.0313 L 791.594,436.863" /><path
         id="path60"
         style="fill:#ffffff;fill-opacity:1;fill-rule:nonzero;stroke:none"
         d="m 741.711,592.449 c 6.602,-11.519 12.652,-23.394 18.047,-35.625 L 1205.84,110.742 c 2.97,2.852 6.02,5.703 8.95,8.711 L 741.711,592.449" /><path
         id="path62"
         style="fill:#ffffff;fill-opacity:1;fill-rule:nonzero;stroke:none"
         d="m 1657.05,507.805 c -16.87,-17.817 -31.72,-29.844 -44.57,-36.02 -12.85,-6.172 -27.89,-9.258 -45.08,-9.258 -33.4,0 -59.72,11.407 -79.14,34.297 -19.06,21.953 -28.59,50.86 -28.59,86.727 0,35.969 9.61,65.148 28.87,87.765 19.17,22.579 45.46,33.868 78.86,33.868 17.19,0 32.23,-3.204 45.08,-9.571 12.85,-6.363 27.7,-18.394 44.57,-36.25 l -35.78,-31.441 c -10.47,11.133 -18.4,18.633 -23.83,22.422 -8.9,6.011 -18.9,9.019 -30.04,9.019 -20.04,0 -35.11,-7.105 -45.31,-21.402 -8.24,-11.488 -12.38,-29.613 -12.38,-54.41 0,-24.774 4.14,-42.742 12.38,-53.871 10.2,-14.297 25.27,-21.41 45.31,-21.41 11.14,0 21.14,3.007 30.04,9.066 5.43,3.789 13.36,11.094 23.83,21.914 l 35.78,-31.445" /><path
         id="path64"
         style="fill:#ffffff;fill-opacity:1;fill-rule:nonzero;stroke:none"
         d="m 1825.29,581.711 c 0,25.387 -3.12,43.199 -9.49,53.394 -8.24,12.969 -22.89,19.532 -43.87,19.532 -20.66,0 -35.11,-6.563 -43.36,-19.532 -6.36,-10.195 -9.57,-28.007 -9.57,-53.394 0,-25.117 3.21,-42.777 9.57,-52.934 8.25,-13.394 22.7,-20.039 43.36,-20.039 20.98,0 35.63,6.645 43.87,20.039 6.37,10.157 9.49,27.817 9.49,52.934 z m 49.14,0.426 c 0,-34.293 -5.58,-60.387 -16.68,-78.125 -17.77,-28.004 -46.25,-41.953 -85.35,-41.953 -39.41,0 -68.01,13.949 -85.82,41.953 -11.13,18.086 -16.68,43.988 -16.68,77.699 0,33.941 5.55,59.883 16.68,77.652 17.81,28.282 46.41,42.5 85.82,42.5 39.1,0 67.58,-14.218 85.35,-42.5 11.1,-17.461 16.68,-43.203 16.68,-77.226" /><path
         id="path66"
         style="fill:#ffffff;fill-opacity:1;fill-rule:nonzero;stroke:none"
         d="m 2313.53,535.93 c 0,-23.207 -9.73,-41.68 -29.11,-55.317 -17.14,-12.422 -37.65,-18.554 -61.48,-18.554 -50.86,0 -83.28,21.914 -97.27,65.746 l 48.17,9.058 c 4.41,-11.441 10.74,-19.258 19.02,-23.316 6.68,-3.203 16.72,-4.809 30.08,-4.809 10.12,0 19.22,1.914 27.19,5.703 9.8,5.118 14.76,12.27 14.76,21.489 0,12.695 -11.48,22.105 -34.33,28.082 -38.4,10.199 -59.81,16.211 -63.95,18.125 -22.81,11.133 -34.3,28.949 -34.3,53.363 0,22.027 8.91,38.824 26.76,50.586 15.24,10.465 34.3,15.777 57.15,15.777 41.64,0 70.63,-15.152 86.76,-45.308 l -43.83,-21.45 c -7.66,12.969 -21.95,19.532 -42.93,19.532 -23.51,0 -35.23,-6.367 -35.23,-19.137 0,-7.895 11.44,-14.613 34.29,-19.965 31.49,-7.305 52.78,-14.14 63.91,-20.508 22.89,-12.73 34.34,-32.422 34.34,-59.097" /><path
         id="path68"
         style="fill:#ffffff;fill-opacity:1;fill-rule:nonzero;stroke:none"
         d="m 2669.38,463.152 c -38.47,0 -65.66,11.485 -81.56,34.336 -10.82,15.899 -16.25,38.321 -16.25,67.192 v 200.699 h 48.67 V 564.68 c 0,-19.336 2.86,-33.168 8.56,-41.45 7.34,-10.781 20.86,-16.21 40.58,-16.21 0,-17.422 0,-31.954 0,-43.868" /><path
         id="path70"
         style="fill:#ffffff;fill-opacity:1;fill-rule:nonzero;stroke:none"
         d="m 2776.45,658.43 v 43.55 h -49.03 v 63.399 h -48.67 V 564.68 c 0,-28.871 5.39,-51.293 16.17,-67.192 15.9,-22.851 43.09,-34.336 81.53,-34.336 0,11.914 0,26.446 0,43.868 -19.69,0 -33.17,5.429 -40.51,16.21 -5.71,8.282 -8.52,22.114 -8.52,41.45 v 93.75 h 49.03" /><path
         id="path72"
         style="fill:#ffffff;fill-opacity:1;fill-rule:nonzero;stroke:none"
         d="m 1620.72,131.523 v 84.415 c -14.61,-7.618 -28.12,-11.407 -40.51,-11.407 h -41.95 c -17.19,0 -31.44,-4.297 -42.89,-12.89 -13.4,-9.532 -20.04,-22.891 -20.04,-40.039 0,-18.125 7.19,-32.071 21.45,-41.993 12.07,-8.554 27.3,-12.8512 45.78,-12.8512 28.9,0 54.96,11.6012 78.16,34.7652 z m 19.07,-41.4058 -10.47,-2.9297 -7.19,30.0785 c -25.08,-21.6019 -51.56,-32.4222 -79.57,-32.4222 -23.52,0 -42.42,5.5468 -56.72,16.6792 -15.63,12.071 -23.4,28.75 -23.4,50.079 0,20 7.35,35.742 21.95,47.187 14.61,11.445 32.58,17.149 53.87,17.149 H 1574 c 21.61,0 37.19,5.078 46.72,15.273 v 27.187 c 0,15.547 -7.15,28.438 -21.44,38.594 -12.42,8.906 -26.37,13.321 -41.96,13.321 -35.54,0 -58.78,-12.852 -69.61,-38.594 l -11.4,3.789 c 13.59,31.172 41.13,46.758 82.46,46.758 19.34,0 36.41,-5.743 50.98,-17.149 15.58,-12.383 23.39,-27.539 23.39,-45.312 v -135.86 l 6.65,-33.8278" /><path
         id="path74"
         style="fill:#ffffff;fill-opacity:1;fill-rule:nonzero;stroke:none"
         d="m 2067.43,163.984 v 78.204 c 0,20 -7.19,36.21 -21.44,48.632 -14.34,12.383 -31.64,18.594 -52,18.594 -53.07,0 -79.63,-35.312 -79.63,-105.859 0,-70.86 26.25,-106.3284 78.7,-106.3284 20.62,0 38.2,6.0934 52.65,18.1254 14.5,12.109 21.72,28.281 21.72,48.632 z m 19.53,-73.3981 -11.44,-3.3984 -8.6,37.6955 c -16.83,-26.3674 -41.44,-39.5314 -73.86,-39.5314 -60.97,0 -91.56,39.3754 -91.56,118.2034 0,78.515 30.82,117.773 92.49,117.773 30.86,0 55.32,-13.359 73.44,-40.078 v 106.367 h 12.35 V 125.391 l 7.18,-34.8051" /><path
         id="path76"
         style="fill:#ffffff;fill-opacity:1;fill-rule:nonzero;stroke:none"
         d="m 2375.75,163.984 v 78.204 c 0,20 -7.15,36.21 -21.48,48.632 -14.3,12.383 -31.64,18.594 -51.96,18.594 -53.12,0 -79.64,-35.312 -79.64,-105.859 0,-70.86 26.21,-106.3284 78.67,-106.3284 20.66,0 38.24,6.0934 52.69,18.1254 14.46,12.109 21.72,28.281 21.72,48.632 z m 19.53,-73.3981 -11.48,-3.3984 -8.56,37.6955 c -16.87,-26.3674 -41.48,-39.5314 -73.9,-39.5314 -61.02,0 -91.53,39.3754 -91.53,118.2034 0,78.515 30.82,117.773 92.5,117.773 30.82,0 55.24,-13.359 73.44,-40.078 v 106.367 h 12.35 V 125.391 l 7.18,-34.8051" /><path
         id="path78"
         style="fill:#ffffff;fill-opacity:1;fill-rule:nonzero;stroke:none"
         d="m 2608.37,215.938 c -1.29,62.304 -26.06,93.476 -74.34,93.476 -52.18,0 -80.31,-31.172 -84.41,-93.476 z m 12.38,2.421 v -14.336 h -171.13 c 0.98,-71.171 30.62,-106.7964 89.14,-106.7964 27.97,0 49.26,8.1254 63.91,24.2964 l 9.49,-7.617 c -17.11,-19.0622 -41.64,-28.5544 -73.4,-28.5544 -68.36,0 -102.5,39.3754 -102.5,118.2034 0,78.515 32.58,117.773 97.77,117.773 29.18,0 51.45,-10 66.72,-30.078 13.36,-18.086 20,-42.383 20,-72.891" /><path
         id="path80"
         style="fill:#ffffff;fill-opacity:1;fill-rule:nonzero;stroke:none"
         d="m 2833.79,151.094 c 0,-20.313 -8.59,-36.719 -25.7,-49.102 -15.59,-11.1326 -34.65,-16.6404 -57.23,-16.6404 -50.82,0 -81.05,18.9064 -90.54,56.7184 l 11.92,1.875 c 8.54,-31.172 34.79,-46.7184 78.62,-46.7184 17.81,0 33.24,4.0234 46.25,11.9534 16.21,9.843 24.3,23.789 24.3,41.914 0,21.289 -13.17,36.523 -39.57,45.781 -24.77,6.68 -49.42,13.359 -73.87,20.039 -26.68,9.531 -40.03,25.586 -40.03,48.164 0,18.399 7.8,32.578 23.31,42.422 13.4,8.906 30.7,13.32 52.03,13.32 37.46,0 63.83,-13.164 79.1,-39.57 l -11.01,-5.234 c -12.7,21.64 -35.39,32.382 -68.09,32.382 -16.21,0 -29.76,-2.656 -40.55,-8.085 -14.92,-7.344 -22.42,-19.063 -22.42,-35.235 0,-18.125 13.32,-31.328 40.04,-39.609 24.49,-6.992 48.91,-13.828 73.4,-20.43 26.72,-10.898 40.04,-28.789 40.04,-53.945" /><path
         id="path82"
         style="fill:#ffffff;fill-opacity:1;fill-rule:nonzero;stroke:none"
         d="m 2895.78,89.6094 h -12.85 V 317.5 h 12.85 V 89.6094" /><path
         id="path84"
         style="fill:#ffffff;fill-opacity:1;fill-rule:nonzero;stroke:none"
         d="m 3106.02,248.398 c 0,41.29 -22.23,61.915 -66.72,61.915 -44.85,0 -67.23,-20.625 -67.23,-61.915 0,-42.304 22.27,-63.437 66.76,-63.437 44.76,0 67.19,21.133 67.19,63.437 z m 36.25,-168.3199 c 0,-23.2031 -11.45,-42.7343 -34.34,-58.5937 C 3087.27,7.1875 3063.91,0 3037.85,0 c -23.16,0 -43.2,4.60938 -60.08,13.7891 -20.04,10.5078 -30.04,25.2734 -30.04,44.3359 0,4.5313 0.67,8.9453 1.92,13.3984 l 11.44,-3.8281 c -0.66,-3.2031 -0.93,-6.3672 -0.93,-9.5703 0,-15.2344 9.53,-27.4219 28.63,-36.6406 15.55,-7.3828 31.91,-11.0156 49.06,-11.0156 21.33,0 41.17,5.7421 59.61,17.1484 21.6,13.6719 32.38,31.1328 32.38,52.4609 0,11.7578 -4.72,20.9769 -14.25,27.6559 -8.29,5.391 -18.01,8.125 -29.14,8.125 -9.46,0 -23.4,-2.07 -41.68,-6.25 -18.25,-4.101 -32.15,-6.171 -41.72,-6.171 -23.52,0 -35.28,8.906 -35.28,26.718 0,18.086 11.45,34.453 34.34,49.102 -28.01,13.945 -41.95,36.992 -41.95,69.14 0,48.594 26.21,72.93 78.67,72.93 26.37,0 46.37,-6.211 60.08,-18.594 16.17,4.102 25.27,12.696 27.14,25.704 h 12.39 c -1.88,-16.524 -12.58,-28.125 -31.92,-34.805 7.62,-15.235 11.45,-30.313 11.45,-45.235 0,-48.671 -26.45,-72.929 -79.14,-72.929 -9.57,0 -18.6,0.781 -27.19,2.344 -21.95,-13.321 -32.93,-28.282 -32.93,-44.844 0,-13.047 7.66,-19.531 22.93,-19.531 9.84,0 24.06,2.304 42.66,6.953 18.55,4.57 32.69,6.914 42.15,6.914 15.93,0 29.18,-4.297 39.88,-12.93 10.62,-8.555 15.94,-20 15.94,-34.2969" /><path
         id="path86"
         style="fill:#ffffff;fill-opacity:1;fill-rule:nonzero;stroke:none"
         d="m 2876.8,375.156 c 0,-6.875 5.58,-12.5 12.5,-12.5 6.91,0 12.46,5.625 12.46,12.5 0,6.875 -5.55,12.461 -12.46,12.461 -6.92,0 -12.5,-5.586 -12.5,-12.461" /><path
         id="path88"
         style="fill:#ffffff;fill-opacity:1;fill-rule:nonzero;stroke:none"
         d="m 1774,309.336 c -47.28,0 -77.28,-29.063 -77.28,-88.125 0,-59.063 0,-131.6016 0,-131.6016 h -11.62 c 0,0 0,68.7886 0,132.2266 0,63.437 32.75,99.414 88.9,99.414 56.16,0 88.66,-34.727 88.66,-98.477 0,-63.75 0,-133.1636 0,-133.1636 H 1851 c 0,0 0,87.2266 0,131.6016 0,59.062 -30.02,88.125 -77,88.125" /><path
         id="path90"
         style="fill:#ffffff;fill-opacity:1;fill-rule:nonzero;stroke:none"
         d="m 3270.43,309.336 c -47.29,0 -77.29,-29.063 -77.29,-88.125 0,-59.063 0,-131.6016 0,-131.6016 h -11.62 c 0,0 0,68.7886 0,132.2266 0,63.437 32.76,99.414 88.91,99.414 56.15,0 88.65,-34.727 88.65,-98.477 0,-63.75 0,-133.1636 0,-133.1636 h -11.66 c 0,0 0,87.2266 0,131.6016 0,59.062 -30.02,88.125 -76.99,88.125" /><path
         id="path92"
         style="fill:#ffffff;fill-opacity:1;fill-rule:nonzero;stroke:none"
         d="m 2004.15,656.992 c -27.58,0 -49.25,-12.148 -49.25,-51.617 0,-42.508 0,-139.176 0,-139.176 h -48.56 c 0,0 0,70.461 0,133.899 0,63.437 28.28,101.351 95.47,101.351 67.18,0 96.64,-36.664 96.64,-100.414 0,-63.75 0,-134.836 0,-134.836 h -48.61 c 0,0 0,94.801 0,139.176 0,37.301 -18.11,51.617 -45.69,51.617" /><path
         id="path94"
         style="fill:#ffffff;fill-opacity:1;fill-rule:nonzero;stroke:none"
         d="m 2434.97,507.613 c 27.58,0 49.25,12.149 49.25,51.614 0,42.511 0,139.175 0,139.175 h 48.56 c 0,0 0,-70.457 0,-133.894 0,-63.438 -28.28,-101.356 -95.47,-101.356 -67.18,0 -96.64,36.668 -96.64,100.418 0,63.75 0,134.832 0,134.832 h 48.61 c 0,0 0,-94.8 0,-139.175 0,-37.297 18.11,-51.614 45.69,-51.614" /></g></g></svg>