<?xml version="1.0" encoding="utf-8"?>
<!-- Generator: Adobe Illustrator 16.0.0, SVG Export Plug-In . SVG Version: 6.00 Build 0)  -->
<!DOCTYPE svg PUBLIC "-//W3C//DTD SVG 1.1//EN" "http://www.w3.org/Graphics/SVG/1.1/DTD/svg11.dtd">
<svg version="1.1" id="Layer_1" xmlns="http://www.w3.org/2000/svg" xmlns:xlink="http://www.w3.org/1999/xlink" x="0px" y="0px"
	 width="288.75px" height="68.25px" viewBox="0 0 288.75 68.25" enable-background="new 0 0 288.75 68.25" xml:space="preserve" fill="#FFFFFF">
<g>
	<path d="M25.512,56.444c-7.065,0-13.016-4.648-13.016-13.388c0-7.995,5.578-13.574,13.202-13.574c3.161,0,6.508,1.209,9.204,3.626
		l7.158-7.53c-5.02-4.928-10.041-6.787-16.549-6.787c-13.295,0-24.358,7.995-24.358,24.266s11.063,24.266,24.358,24.266
		c6.787,0,12.365-2.045,17.665-7.252l-7.624-7.438C32.764,55.422,29.139,56.444,25.512,56.444z"/>
	<path d="M70.604,18.884c-4.648,0-9.39,0.915-12.923,6.587l-0.837-5.221H46.25v46h11V41.755c0-8.46,5.701-11.621,11.651-11.621
		c3.719,0,5.966,1.022,8.29,2.975l5.167-9.854C79.849,20.743,75.346,18.884,70.604,18.884z"/>
	<path d="M223.25,26.321c-3-4.741-10.298-7.345-15.133-7.345c-13.388,0-23.371,8.182-23.371,23.987
		c0,15.062,10.117,23.986,23.598,23.986c5.578,0,11.241-1.698,14.774-7.184l0.734,6.483h10.397v-65h-11V26.321z M209.07,56.444
		c-7.252,0-13.017-5.485-13.017-13.48c0-8.274,5.765-13.388,13.017-13.388c7.158,0,13.295,5.392,13.295,13.388
		C222.365,51.238,216.229,56.444,209.07,56.444z"/>
	<path d="M263.925,18.796c-14.876,0-24.358,9.992-24.358,23.938c0,14.689,9.39,24.428,25.195,24.428
		c6.973,0,14.875-2.431,19.71-7.45l-7.252-7.165c-2.604,2.696-8.089,4.371-12.272,4.371c-7.996,0-12.923-4.667-13.667-9.667h35.794
		C288.841,28.25,279.266,18.796,263.925,18.796z M251.467,37.25c1.674-6,6.693-8.925,12.83-8.925c6.508,0,11.156,2.925,11.9,8.925
		H251.467z"/>
	<path d="M157.448,18.83c-7.725,0-13.908,3.024-18.022,7.812L114.422,52.25l-0.906,0.906c-2.014,1.802-4.844,3.048-8.267,3.048
		c-6.85,0-10.887-4.463-12.077-9.954h18.966l14.541-14.542c-3.694-7.626-11.339-12.878-21.522-12.878
		c-14.597,0-23.708,10.784-23.708,23.894c0,13.202,8.926,23.894,23.801,23.894c6.549,0,11.96-2.074,15.967-5.521l1.221-1.14
		l29.02-29.276c1.794-1.472,3.724-1.531,6.085-1.531c7.624,0,12.459,6.694,12.459,13.574c0,6.973-4.184,13.48-12.459,13.48
		c-7.396,0-11.513-5.201-12.307-11.284l-9.041,9.041c3.608,7.532,11.051,12.656,21.348,12.656c14.876,0,23.895-10.691,23.895-23.894
		C181.436,29.614,172.045,18.83,157.448,18.83z M105.249,29.149c5.535,0,9.589,3.534,11.4,8.101H93.758
		C95.439,32.684,99.31,29.149,105.249,29.149z"/>
</g>
</svg>
