<?xml version="1.0" encoding="UTF-8" standalone="no"?>
<svg
   xmlns:dc="http://purl.org/dc/elements/1.1/"
   xmlns:cc="http://creativecommons.org/ns#"
   xmlns:rdf="http://www.w3.org/1999/02/22-rdf-syntax-ns#"
   xmlns:svg="http://www.w3.org/2000/svg"
   xmlns="http://www.w3.org/2000/svg"
   viewBox="0 0 978.4267 614.56"
   height="614.56"
   width="978.4267"
   xml:space="preserve"
   id="svg2"
   version="1.1"><metadata
     id="metadata8"><rdf:RDF><cc:Work
         rdf:about=""><dc:format>image/svg+xml</dc:format><dc:type
           rdf:resource="http://purl.org/dc/dcmitype/StillImage" /></cc:Work></rdf:RDF></metadata><defs
     id="defs6" /><g
     transform="matrix(1.3333333,0,0,-1.3333333,0,614.56)"
     id="g10"><g
       transform="scale(0.1)"
       id="g12"><path
         id="path14"
         style="fill:#57bedb;fill-opacity:1;fill-rule:nonzero;stroke:none"
         d="m 0.00390625,303.281 c 0,35.348 6.33593375,70.559 19.05079375,105.66 12.707,35.059 31.0742,66.547 55.1094,94.45 24.0312,27.879 53.4449,50.41 88.2419,67.539 34.805,17.109 74.297,25.679 118.496,25.679 52.469,0 97.637,-11.879 135.477,-35.629 37.832,-23.761 66.152,-54.691 84.941,-92.8 l -72.918,-48.891 c -7.746,17.672 -17.414,32.582 -29.004,44.742 -11.601,12.149 -24.171,21.809 -37.707,29.008 -13.543,7.172 -27.488,12.293 -41.843,15.332 -14.368,3.02 -28.457,4.551 -42.258,4.551 -29.832,0 -56.219,-6.223 -79.141,-18.652 -22.929,-12.418 -42.129,-28.86 -57.578,-49.282 -15.476,-20.449 -27.078,-43.386 -34.805,-68.789 -7.7418,-25.41 -11.6012,-50.82 -11.6012,-76.219 0,-28.742 4.5508,-56.089 13.6722,-82.05 9.113,-25.969 21.953,-48.879 38.527,-68.758 16.57,-19.902 36.18,-35.793 58.836,-47.66 22.637,-11.8831 47.5,-17.8128 74.57,-17.8128 13.801,0 28.313,1.7813 43.508,5.3828 15.184,3.5782 29.539,9.3868 43.086,17.406 13.524,8.004 26.102,18.09 37.703,30.242 11.602,12.141 21.262,26.79 29.004,43.918 L 510.434,136.73 C 501.027,114.621 487.914,95.1602 471.066,78.3203 454.211,61.4492 435.297,47.2305 414.309,35.6406 393.305,24.0391 370.941,15.1914 347.191,9.12891 323.43,3.05078 299.965,0 276.762,0 235.871,0 198.578,8.83984 164.895,26.5195 131.195,44.1992 102.043,67.25 77.4727,95.7109 52.8828,124.16 33.832,156.469 20.2969,192.66 6.75,228.84 0.00390625,265.719 0.00390625,303.281" /><path
         id="path16"
         style="fill:#57bedb;fill-opacity:1;fill-rule:nonzero;stroke:none"
         d="M 1356.45,511.27 H 1160.89 V 4.98047 h -92.8 V 511.27 H 871.703 v 82.031 H 1356.45 V 511.27" /><path
         id="path18"
         style="fill:#57bedb;fill-opacity:1;fill-rule:nonzero;stroke:none"
         d="M 1768.27,4.98047 V 592.48 h 92.81 V 4.98047 h -92.81" /><path
         id="path20"
         style="fill:#57bedb;fill-opacity:1;fill-rule:nonzero;stroke:none"
         d="m 2755.97,299.98 c 0,35.329 -4.96,67.79 -14.91,97.352 -9.94,29.539 -24.45,55.109 -43.5,76.648 -19.06,21.54 -42.4,38.239 -70.03,50.129 -27.61,11.871 -59.38,17.813 -95.28,17.813 H 2390.56 V 56.3516 h 141.69 c 36.46,0 68.63,6.207 96.53,18.6484 27.89,12.4297 51.23,29.551 70.02,51.371 18.77,21.82 33,47.508 42.68,77.051 9.66,29.547 14.49,61.738 14.49,96.558 z M 2333.38,4.98047 V 593.301 h 198.87 c 46.94,0 88.1,-7.742 123.47,-23.211 35.34,-15.461 64.75,-36.449 88.24,-62.969 23.47,-26.512 41.01,-57.582 52.63,-93.223 11.59,-35.617 17.39,-73.609 17.39,-113.918 0,-44.761 -6.63,-85.238 -19.88,-121.398 -13.27,-36.191 -32.06,-67.121 -56.35,-92.8007 C 2713.43,60.082 2683.88,40.1992 2649.09,26.1094 2614.28,12.0313 2575.34,4.98047 2532.25,4.98047 h -198.87" /><path
         id="path22"
         style="fill:#57bedb;fill-opacity:1;fill-rule:nonzero;stroke:none"
         d="M 3259.77,4.98047 V 592.48 h 57.17 V 4.98047 h -57.17" /><path
         id="path24"
         style="fill:#57bedb;fill-opacity:1;fill-rule:nonzero;stroke:none"
         d="m 4223.45,90.332 c -54.7,-59.6601 -117.39,-89.492156 -188.1,-89.492156 -39.77,0 -76.37,8.550786 -109.79,25.679656 -33.44,17.1211 -62.43,39.7696 -87,67.961 -24.59,28.1605 -43.79,60.0705 -57.59,95.6915 -13.82,35.637 -20.71,72.226 -20.71,109.808 0,39.2 6.75,76.758 20.29,112.68 13.54,35.91 32.31,67.531 56.35,94.871 24.02,27.36 52.74,49.16 86.18,65.457 33.41,16.293 69.73,24.461 108.96,24.461 28.72,0 54.82,-3.187 78.31,-9.527 23.46,-6.363 44.45,-15.203 62.97,-26.524 18.5,-11.339 34.66,-24.859 48.47,-40.609 13.81,-15.738 25.4,-33.008 34.81,-51.777 l -44.75,-29.84 c -19.35,36.457 -44.47,63.258 -75.41,80.387 -30.94,17.113 -66.02,25.679 -105.23,25.679 -32.6,0 -62.02,-6.91 -88.25,-20.707 -26.25,-13.82 -48.62,-32.199 -67.12,-55.109 -18.51,-22.934 -32.73,-49.184 -42.67,-78.711 -9.94,-29.563 -14.92,-60.09 -14.92,-91.57 0,-33.149 5.66,-64.629 16.99,-94.469 11.32,-29.82 26.93,-55.922 46.81,-78.301 19.9,-22.383 43.22,-40.1913 70.02,-53.4491 26.79,-13.2617 55.94,-19.8906 87.43,-19.8906 33.68,0 65.73,7.8789 96.11,23.6171 30.38,15.75 59.66,40.4606 87.84,74.1716 v 98.602 h -130.1 v 44.75 h 179.82 V 4.98047 h -49.72 V 90.332" /><path
         id="path26"
         style="fill:#57bedb;fill-opacity:1;fill-rule:nonzero;stroke:none"
         d="M 4727.23,4.98047 V 592.48 h 57.18 V 4.98047 h -57.18" /><path
         id="path28"
         style="fill:#57bedb;fill-opacity:1;fill-rule:nonzero;stroke:none"
         d="M 5683.46,541.922 H 5473.82 V 4.98047 h -58.01 V 541.922 h -209.64 v 51.379 h 477.29 v -51.379" /><path
         id="path30"
         style="fill:#57bedb;fill-opacity:1;fill-rule:nonzero;stroke:none"
         d="M 6254.38,525.359 6133.39,234.512 h 238.64 z M 5984.25,4.98047 6230.35,593.301 h 47.22 L 6523.68,4.98047 h -62.15 L 6385.3,188.93 H 6120.97 L 6045.56,4.98047 h -61.31" /><path
         id="path32"
         style="fill:#57bedb;fill-opacity:1;fill-rule:nonzero;stroke:none"
         d="M 6940.47,4.98047 V 593.301 h 57.18 V 56.3516 h 340.56 V 4.98047 h -397.74" /><path
         id="path34"
         style="fill:#57bedb;fill-opacity:1;fill-rule:nonzero;stroke:none"
         d="m 4156.03,1375.37 v 2445.6 l 618.18,153.91 V 1375.37 h -618.18" /><path
         id="path36"
         style="fill:#57bedb;fill-opacity:1;fill-rule:nonzero;stroke:none"
         d="m 1450.98,3268.3 14.58,13.62 c 0,0 3.92,9.76 16.26,41.72 56.17,145.44 174.53,308.53 298.55,410.25 191.2,156.79 562.3,240.92 851.41,240.92 l 317.81,3.37 709.88,630.99 H 2659.6 c -514.03,0 -1072.59,-172.4 -1423.03,-484.85 -145.83,-130.06 -272.523,-257.09 -368.734,-448.79 -70.266,-140.01 -136.32,-331.46 -153.203,-529.99 -0.117,-1.37 -0.285,-2.73 -0.403,-4.1 l 736.75,126.86" /><path
         id="path38"
         style="fill:#57bedb;fill-opacity:1;fill-rule:nonzero;stroke:none"
         d="m 6104.58,3978.18 v 630.99 h -338.03 l -969.04,-608.46 -22.53,-22.53 h 1329.6" /><path
         id="path40"
         style="fill:#57bedb;fill-opacity:1;fill-rule:nonzero;stroke:none"
         d="M 5777.82,4609.17 H 4707.38 l 56.33,-597.19 11.27,-33.8 1002.84,630.99" /><path
         id="path42"
         style="fill:#57bedb;fill-opacity:1;fill-rule:nonzero;stroke:none"
         d="m 4774.98,3978.18 -56.33,630.99 h -653.54 v -11.27 l 698.6,-619.72 h 11.27" /><path
         id="path44"
         style="fill:#57bedb;fill-opacity:1;fill-rule:nonzero;stroke:none"
         d="M 4065.11,4609.17 3343.97,3966.9 h 721.14 v -169.01 l 687.33,171.7 22.54,8.59 -709.87,630.99" /><path
         id="path46"
         style="fill:#57bedb;fill-opacity:1;fill-rule:nonzero;stroke:none"
         d="m 4774.98,3978.18 -11.27,-11.28 -597.16,-2591.59 h 608.43 v 11.27 2591.6" /><path
         id="path48"
         style="fill:#57bedb;fill-opacity:1;fill-rule:nonzero;stroke:none"
         d="m 4774.98,3978.18 -709.87,-169.02 0.21,-1821.08 v -5.17 H 2629.03 c -289.11,0 -655.78,80.35 -851.41,240.92 -127.1,104.34 -276.61,301.03 -314.39,428.85 -31.59,106.81 -46.99,200.54 -44.83,347.88 1.58,107.6 26.96,223.82 40.8,265.47 0.37,1.1 4.42,11.14 6.33,15.91 L 714.211,3145.48 c -0.887,-16.54 -2.137,-23.03 -2.508,-44.02 -0.656,-36.92 -0.449,-95.59 -0.449,-101.89 -0.039,-71.72 22.332,-266.01 39.289,-345.82 63.875,-300.78 231.883,-596.16 483.257,-820.34 350.44,-312.45 785.08,-458.04 1299.09,-458.04 h 1529.83 13.86 89.94 l 608.46,2602.81" /><path
         id="path50"
         style="fill:#57bedb;fill-opacity:1;fill-rule:nonzero;stroke:none"
         d="m 5383.24,3730.28 v -123.94 l 721.34,-416.91 v 540.85 h -721.34" /><path
         id="path52"
         style="fill:#57bedb;fill-opacity:1;fill-rule:nonzero;stroke:none"
         d="m 5383.44,1375.31 h 721.14 v 1825.38 l -721.34,416.91 0.2,-2242.29" /></g></g></svg>