<svg xmlns="http://www.w3.org/2000/svg" viewBox="639 547.9 583 379"><g fill="#3BBBD8"><path d="M647.4 896.2c0-2.7.5-5.4 1.5-8.2 1-2.7 2.4-5.1 4.3-7.3s4.1-3.9 6.8-5.2c2.7-1.3 5.7-2 9.1-2 4 0 7.5.9 10.5 2.7 2.9 1.8 5.1 4.2 6.6 7.2l-5.6 3.8c-.6-1.4-1.3-2.5-2.2-3.5-.9-1-1.9-1.7-2.9-2.2-1-.6-2.1-.9-3.2-1.2-1.1-.2-2.2-.4-3.3-.4-2.3 0-4.3.5-6.1 1.4-1.8 1-3.3 2.2-4.4 3.8-1.2 1.6-2.1 3.3-2.7 5.3-.6 2-.9 3.9-.9 5.9 0 2.2.4 4.3 1.1 6.3.7 2 1.7 3.8 3 5.3s2.8 2.8 4.5 3.7c1.7.9 3.7 1.4 5.8 1.4 1.1 0 2.2-.1 3.4-.4 1.2-.3 2.3-.7 3.3-1.3s2-1.4 2.9-2.3c.9-.9 1.6-2.1 2.2-3.4l5.9 3.4c-.7 1.7-1.7 3.2-3 4.5-1.3 1.3-2.8 2.4-4.4 3.3-1.6.9-3.3 1.6-5.2 2-1.8.5-3.6.7-5.4.7-3.2 0-6-.7-8.6-2-2.6-1.4-4.8-3.1-6.7-5.3-1.9-2.2-3.4-4.7-4.4-7.5-1.4-2.7-1.9-5.6-1.9-8.5zM751.7 880.2h-15.1v39.1h-7.2v-39.1h-15.2v-6.3h37.4l.1 6.3zM783.1 919.2v-45.3h7.2v45.3h-7.2z"/></g><g fill="#CFCECE"><path d="M827.7 919.2v-45.4H843c3.6 0 6.8.6 9.5 1.8 2.7 1.2 5 2.8 6.8 4.9 1.8 2 3.2 4.4 4.1 7.2.9 2.7 1.3 5.7 1.3 8.8 0 3.5-.5 6.6-1.5 9.4-1 2.8-2.5 5.2-4.3 7.2s-4.2 3.5-6.8 4.6c-2.7 1.1-5.7 1.6-9 1.6l-15.4-.1zm32.6-22.7c0-2.7-.4-5.2-1.2-7.5-.8-2.3-1.9-4.3-3.4-5.9-1.5-1.7-3.3-3-5.4-3.9-2.1-.9-4.6-1.4-7.4-1.4H832v37.5h11c2.8 0 5.3-.5 7.4-1.4 2.2-1 4-2.3 5.4-4 1.4-1.7 2.5-3.7 3.3-5.9.8-2.3 1.2-4.8 1.2-7.5zM898.8 919.2v-45.3h4.4v45.3h-4.4zM972.9 912.7c-4.2 4.6-9.1 6.9-14.5 6.9-3.1 0-5.9-.7-8.5-2-2.6-1.3-4.8-3.1-6.7-5.2-1.9-2.2-3.4-4.6-4.4-7.4-1.1-2.7-1.6-5.6-1.6-8.5 0-3 .5-5.9 1.6-8.7 1-2.8 2.5-5.2 4.3-7.3 1.9-2.1 4.1-3.8 6.6-5 2.6-1.3 5.4-1.9 8.4-1.9 2.2 0 4.2.2 6 .7s3.4 1.2 4.9 2c1.4.9 2.7 1.9 3.7 3.1 1.1 1.2 2 2.5 2.7 4l-3.5 2.3c-1.5-2.8-3.4-4.9-5.8-6.2-2.4-1.3-5.1-2-8.1-2-2.5 0-4.8.5-6.8 1.6s-3.8 2.5-5.2 4.3-2.5 3.8-3.3 6.1c-.8 2.3-1.2 4.6-1.2 7.1 0 2.6.4 5 1.3 7.3s2.1 4.3 3.6 6c1.5 1.7 3.3 3.1 5.4 4.1 2.1 1 4.3 1.5 6.7 1.5 2.6 0 5.1-.6 7.4-1.8 2.3-1.2 4.6-3.1 6.8-5.7v-7.6h-10v-3.5h13.9v22.3h-3.8l.1-6.5zM1011.4 919.2v-45.3h4.4v45.3h-4.4zM1084.8 877.8h-16.2v41.4h-4.5v-41.4H1048v-4h36.8v4zM1107.7 919.2l19-45.4h3.6l19 45.4h-4.8l-5.9-14.2h-20.4l-5.8 14.2h-4.7zm20.9-40.1l-9.3 22.4h18.4l-9.1-22.4zM1181.2 919.2v-45.4h4.4v41.4h26.3v4h-30.7z"/></g><path fill="#30AAC9" d="M968 805.6V617l47.6-11.8v200.4"/><path fill="#42BAD7" d="M759.3 659.7l1.1-1s.3-.8 1.2-3.2c4.4-11.2 13.5-23.8 23-31.6 14.7-12.1 43.4-18.6 65.7-18.6l24.5-.3 54.8-48.7h-77.1c-39.6 0-82.8 13.3-109.8 37.4-11.2 10-21 19.9-28.4 34.6-5.4 10.8-10.5 25.5-11.8 40.9 0 .1 0 .2 0 .3l56.8-9.8z"/><path fill="#66C5DC" d="M1118.3 604.9v-48.7h-26.1l-74.7 47-1.8 1.7"/><path fill="#8AD3E4" d="M1093.1 556.2h-82.6l4.3 46.1.9 2.6"/><path fill="#6BC4D9" d="M1015.7 604.9l-4.3-48.7H961v.9l53.8 47.8"/><path fill="#42BAD7" d="M961 556.2l-55.7 49.6H961v13l53-13.2 1.7-.7"/><path fill="#339BB6" d="M1015.7 604.9l-.9.9-46.1 199.9h47v-.8"/><path fill="#30AAC9" d="M1015.7 604.9L960.9 618v140.9H850.2c-22.3 0-50.6-6.2-65.7-18.6-9.8-8-21.3-23.3-24.2-33.1-2.4-8.3-3.7-15.5-3.5-26.8.1-8.3 2.1-17.3 3.1-20.5 0-.1.3-.9.5-1.2l-57.9 10.5c-.1 1.3-.2 1.7-.2 3.4-.1 2.9 0 7.4 0 7.8 0 5.5 1.7 20.6 3 26.7 5 23.2 17.9 46 37.3 63.3 27 24.1 60.6 35.4 100.2 35.4h126l46.9-200.9z"/><path fill="#8AD3E4" d="M1062.7 624.1v9.5l55.6 32.1v-41.6"/><path fill="#42BAD7" d="M1062.7 805.7h55.6V664.8l-55.6-32.1"/></svg>