<?xml version="1.0" encoding="utf-8"?>
<!-- Generator: Adobe Illustrator 16.0.0, SVG Export Plug-In . SVG Version: 6.00 Build 0)  -->
<!DOCTYPE svg PUBLIC "-//W3C//DTD SVG 1.1//EN" "http://www.w3.org/Graphics/SVG/1.1/DTD/svg11.dtd">
<svg version="1.1" id="Layer_1" xmlns="http://www.w3.org/2000/svg" xmlns:xlink="http://www.w3.org/1999/xlink" x="0px" y="0px"
	 width="720px" height="720px" viewBox="0 0 720 720" enable-background="new 0 0 720 720" xml:space="preserve">
<g>
	<g>
		<path fill-rule="evenodd" clip-rule="evenodd" fill="#249AC6" d="M431.573,42.737c9.046,3.701,14.771,10.266,19,19.157
			c7.388,15.539,19.984,24.876,37.376,26.741c5.358,0.573,10.887,0.57,16.242-0.028c13.63-1.521,28.339,10.874,26.909,26.505
			c-1.027,11.236-0.303,22.374,5.795,32.663c4.896,8.261,10.946,14.802,19.442,19.522c6.417,3.564,13.085,7.572,17.868,12.957
			c6.377,7.185,5.916,19.401-0.117,27.311c-11.603,15.212-13.938,31.889-8.111,49.594c1.909,5.803,6.352,10.757,9.532,16.161
			c8.952,15.21,1.709,30.91-12.035,36.506c-15.146,6.167-24.881,17.419-28.878,33.126c-1.445,5.682-1.829,11.998-1.067,17.811
			c2.467,18.808-11.274,32.73-25.806,31.235c-11.642-1.196-23.216-0.324-33.86,5.942c-8.124,4.783-14.406,10.847-18.98,19.214
			c-3.518,6.436-7.55,13.103-12.938,17.879c-7.229,6.409-19.422,5.984-27.31-0.023c-15.202-11.574-31.832-13.959-49.585-8.186
			c-5.041,1.641-9.353,5.541-13.976,8.441c-17.481,10.963-33.32,2.442-39.02-11.393c-6.023-14.623-16.998-24.804-32.793-28.402
			c-5.744-1.307-11.997-1.798-17.818-1.068c-16.94,2.121-32.706-9.156-31.273-25.735c1.136-13.146-0.036-26.018-8.368-37.406
			c-5.676-7.76-12.757-13.283-21.1-17.799c-4.841-2.621-9.316-6.205-13.316-10.026c-7.542-7.205-4.716-24.063,1.082-30.654
			c12.557-14.273,13.026-43.625,0.015-59.002c-12.449-14.711-7.173-33.201,10.264-41.063c16.458-7.419,26.552-20.433,28.961-38.568
			c0.789-5.931,0.114-12.054,0.124-18.088c0.024-14.627,10.346-25.066,25.044-24.813c13.423,0.231,26.517,0.059,38.016-8.598
			c7.637-5.751,13.271-12.791,17.822-21.132c2.732-5.006,6.217-10.073,10.582-13.607c7.51-6.082,19.5-5.898,27.369,0.138
			c13.596,10.432,28.612,13.423,44.949,9.455c5.184-1.26,10.039-4.11,14.852-6.607c4.77-2.474,9.295-5.42,13.927-8.158
			C424.118,42.737,427.847,42.737,431.573,42.737z M367.231,60.505c-0.089,1.033-0.085,2.05-0.272,3.032
			c-1.788,9.287-2.387,18.877-9.303,26.508c-9.655,10.654-21.218,18.348-34.239,24.231c-23.3,10.525-42.369,26.219-57.014,47.292
			c-14.205,20.439-22.539,43.189-24.574,67.753c-1.035,12.505,0.418,25.426,2.316,37.921c4.146,27.299,16.875,50.63,35.876,70.476
			c13.083,13.667,28.293,24.347,45.831,31.8c27.328,11.614,55.537,14.5,84.343,8.028c30.586-6.874,56.312-22.162,76.71-46.471
			c19.925-23.743,30.543-51.085,32.694-81.608c1.341-19.034-1.723-37.729-8.462-55.779c-10.517-28.169-27.777-51.264-52.901-67.595
			c-14.521-9.439-30.638-16.403-45.871-24.785c-5.972-3.285-12.195-6.655-17.062-11.291
			C385.602,80.774,376.759,70.628,367.231,60.505z"/>
		<path fill-rule="evenodd" clip-rule="evenodd" fill="#249AC6" d="M386.506,460.103c10.074,0.306,18.199,3.269,26.114,7.663
			c7.353,4.084,14.808,8.853,22.818,10.674c11.552,2.625,23.595-5.104,29.403-16.291c3.182-6.127,6.338-12.272,9.83-18.222
			c1.439-2.453,3.727-4.407,6.187-7.228c1.6,2.199,2.777,3.477,3.576,4.96c18.401,34.165,36.722,68.373,55.146,102.526
			c12.146,22.514,24.376,44.982,36.68,67.413c3.729,6.798,4.727,13.517-0.106,20.031c-3.852,5.193-9.104,8.897-15.791,7.238
			c-5.836-1.447-11.354-4.244-16.936-6.625c-19.752-8.419-39.421-17.038-59.271-25.212c-2.263-0.932-6.051-0.429-8.168,0.92
			c-13.854,8.833-27.491,18.014-41.096,27.232c-5.213,3.531-10.387,5.514-16.507,2.346c-6.57-3.4-9.593-8.804-10.495-16.064
			c-1.729-13.906-4.015-27.743-5.9-41.632c-1.452-10.691-2.586-21.428-3.976-32.13c-1.726-13.312-3.559-26.609-5.363-39.91
			c-1.506-11.077-3.073-22.148-4.542-33.232C387.502,469.98,387.083,465.377,386.506,460.103z"/>
		<path fill-rule="evenodd" clip-rule="evenodd" fill="#259BC6" d="M370.749,76.423c5.4,6.047,10.357,11.216,14.884,16.739
			c10.937,13.343,25.71,20.846,40.962,27.842c42.065,19.299,69.55,50.549,78.313,96.801c7.027,37.092-0.149,71.242-23.664,100.883
			c-19.049,24.009-44.541,37.879-74.855,43.476c-30.75,5.678-59.73,0.998-86.674-14.116c-33.407-18.741-55.019-46.808-62.065-85.003
			c-8.448-45.788,5.371-84.481,39.343-115.589c9.847-9.018,22.285-15.245,33.69-22.506c4.821-3.07,10.138-5.345,15.061-8.264
			C360.73,107.796,370.362,95.362,370.749,76.423z M308.584,275.656c-0.747,18.775,10.715,29.277,25.426,31.534
			c16.337,2.508,31.73-0.938,45.953-9.616c9.809-5.984,19.803-11.664,29.78-17.362c14.921-8.522,20.685-7.765,33.057,4.271
			c5.486,5.337,10.815,10.834,16.274,16.2c8.905,8.753,15.644,8.678,23.879-0.401c10.985-12.114,15.192-27.039,14.15-42.674
			c-1.142-17.133-12.221-26.304-29.779-16.026c-9.883,5.783-19.292,12.371-28.956,18.529c-7.864,5.012-15.929,6.03-24.067,0.65
			c-7.678-5.075-15.236-10.331-22.934-15.374c-14.631-9.587-30.104-15.436-48.063-11.324
			C324.151,238.45,307.205,257.915,308.584,275.656z M445.056,330.118c-23.484,11.263-46.35,14.719-69.99,2.413
			c-1.637-0.852-4.775,1.184-7.215,1.877c0.648,2.039,0.658,4.887,2.051,5.987c7.869,6.221,17.187,8.037,27.06,8.292
			c16.007,0.417,31.549-0.614,45.403-10.036C445.952,336.211,448.15,334.088,445.056,330.118z M421.395,302.368
			c-1.033,0-2.068,0.032-3.101-0.005c-9.842-0.339-16.172,6.059-22.533,12.098c-1.045,0.992-0.493,3.666-0.68,5.564
			c1.789-0.216,3.837,0.044,5.307-0.757c2.312-1.26,4.167-3.324,6.329-4.889c8.472-6.127,22.121-6.725,27.201,2.452
			c0.818,1.48,3.016,2.196,4.576,3.265c0.473-2.143,1.772-4.501,1.277-6.391C437.499,305.019,432.944,302.396,421.395,302.368z"/>
		<path fill-rule="evenodd" clip-rule="evenodd" fill="#249AC6" d="M358.659,465.191c-4.898,2.353-9.459,5.504-13.919,8.657
			c-11.888,8.406-29.612,8.774-39.437-4.06c-3.543-4.629-6.341-9.864-9.188-14.985c-6.631-11.928-16.222-20.425-28.758-26.183
			c-14.55,25.985-28.897,51.426-43.063,76.968c-11.418,20.59-22.519,41.354-33.935,61.945
			c-15.949,28.766-32.057,57.445-48.098,86.161l0,0l-0.001,0.002c-0.051,0.091-0.102,0.182-0.152,0.272c0,0.019,0,0.036,0,0.055
			c-0.931,2.066-5.55,13.408,1.643,20.601c7.938,7.938,13.697,9.162,27.411,2.331c0.018-0.009,0.033-0.019,0.05-0.027
			c8.676-3.853,17.326-7.762,26.081-11.427c19.4-8.119,38.941-15.904,58.276-24.174c3.898-1.668,6.796-1.888,10.381,0.508
			c17.013,11.374,34.15,22.563,51.283,33.755c1.954,1.276,4.165,2.16,6.257,3.226c2.898,0,5.797,0,8.696,0
			c8.558-3.978,15.041-9.435,15.076-19.952c0.01-3.014,0.833-6.023,1.269-9.037c2.009-13.87,4.067-27.734,6.003-41.617
			c1.826-13.095,3.441-26.217,5.293-39.308c2.303-16.292,4.768-32.561,7.139-48.843c2.048-14.069,4.147-28.135,6.044-42.226
			c0.771-5.736,1.067-11.535,1.656-18.166C368.509,461.736,363.333,462.944,358.659,465.191z"/>
		<path fill-rule="evenodd" clip-rule="evenodd" fill="#249AC6" d="M317.232,675.591c0,0,12.111,7.482,15.58,7.472
			c3.455-0.011,8.75,0.125,12.688-6.062c2.809-4.412,6.089-48.179,6.089-48.179l-28.755,6.846L317.232,675.591z"/>
		<path fill-rule="evenodd" clip-rule="evenodd" fill="#249AC6" d="M371.769,332.885c0,0-3.978,1.03-2.748,6.239
			s-5.271-4.208-5.188-4.541s3.167-5.417,3.167-5.417L371.769,332.885z"/>
		<path fill-rule="evenodd" clip-rule="evenodd" fill="#249AC6" d="M443.59,330.81c0,0,2.746-0.971,2.922,3.079
			s1.926-6.576,1.926-6.576h-5.75L443.59,330.81z"/>
		<path fill-rule="evenodd" clip-rule="evenodd" fill="#249AC6" d="M395.099,317.063c0,0-0.274,3.146,4.063,2.636
			s-4.1,4.802-4.725,4.802S389,317.063,389,317.063H395.099z"/>
		<path fill-rule="evenodd" clip-rule="evenodd" fill="#259BC6" d="M434.299,317.366c0,0,4.707,4.218,5.579-2.866
			s5.83,0.667,5.685,1.417s-13.813,11-14.063,10.667S434.299,317.366,434.299,317.366z"/>
	</g>
	<path fill="#249AC6" d="M418.938,43.604c0,0,5.501-4.171,12.636-0.867l-2.656,3.763l-10.792-1.708L418.938,43.604z"/>
</g>
</svg>
