<?xml version="1.0" encoding="UTF-8"?>
<svg width="222px" height="67px" viewBox="0 0 222 67" version="1.1" xmlns="http://www.w3.org/2000/svg" xmlns:xlink="http://www.w3.org/1999/xlink">
    <!-- Generator: Sketch 43.2 (39069) - http://www.bohemiancoding.com/sketch -->
    <title>LOGO</title>
    <desc>Created with Sketch.</desc>
    <defs/>
    <g id="Boostrap3-grid-system-layouts" stroke="none" stroke-width="1" fill="none" fill-rule="evenodd">
        <g id="Desktop" transform="translate(-231.000000, -30.000000)" fill-rule="nonzero" fill="#FFFFFF">
            <g id="Header" transform="translate(-70.000000, 0.000000)">
                <g id="LOGO" transform="translate(301.000000, 30.000000)">
                    <g id="Group">
                        <path d="M34.2,27.5 L31.1,27.5 C29.3,27.5 27.5,27.6 25.7,27.5 L25.7,35.2 L25.7,35.4 C29.5,34 32.6,31.2 34.2,27.5 Z" id="Shape"/>
                        <path d="M31.1,24.1 L35.2,24.1 C35.3,23.5 35.4,22.9 35.4,22.3 C35.9,14.3 29.9,7.3 22,6.6 C18.4,6.3 14.7,6.3 11.1,6.4 C9.3,6.4 7.5,6.5 5.7,6.4 L5.7,14.1 L5.7,16.6 L5.7,21.8 C5.9,29.7 12.4,36.2 20.2,36.3 C20.9,36.3 21.5,36.3 22.2,36.2 L22.2,35.2 L22.2,26.8 C22.2,26.3 22.2,25.5 22.9,24.8 C23.4,24.3 24,24.1 24.8,24.1 C27,24.2 29.1,24.1 31.1,24.1 Z" id="Shape"/>
                        <path d="M42.1,27.7 C40.7,27.6 39.3,27.5 37.9,27.5 C35.9,33.1 31.4,37.4 25.8,39 L25.8,42.9 C26,50.8 32.5,57.3 40.3,57.4 L40.5,57.4 C48.4,57.4 54.9,51.2 55.4,43.3 C55.9,35.4 49.9,28.4 42.1,27.7 Z" id="Shape"/>
                        <path d="M35.7,1.4 C24.5,0.4 13.2,1.2 2,1 C0.2,1 0.4,2.1 0.4,3.2 L0.4,19.4 C0.4,24.4 0.3,29.4 0.4,34.4 C0.8,51.6 15,65.8 32,66.1 C49.3,66.4 63.8,52.8 64.9,35.4 C65.9,18.1 53,2.8 35.7,1.4 Z M58.9,43.6 C58.3,53.4 50.3,60.9 40.6,60.9 L40.3,60.9 C30.6,60.7 22.6,52.7 22.4,43 L22.4,39.7 C21.8,39.8 21.2,39.8 20.6,39.8 L20.3,39.8 C10.6,39.6 2.6,31.6 2.4,21.9 L2.4,16.7 L2.4,14.2 L2.4,5.8 C2.4,5.3 2.4,4.5 3.1,3.8 C3.6,3.3 4.2,3.1 5,3.1 L11.2,3.1 C14.9,3 18.7,3 22.4,3.3 C32.1,4.1 39.5,12.8 38.9,22.6 C38.9,23.2 38.8,23.7 38.7,24.2 C39.9,24.2 41.1,24.3 42.3,24.4 C52,25.1 59.4,33.8 58.9,43.6 Z" id="Shape"/>
                    </g>
                    <g id="Group" transform="translate(71.000000, 7.000000)">
                        <path d="M0.8,25.8 L0.8,3.4 C0.8,2.4 1.3,1.9 2.3,1.9 L10,1.9 C17.9,1.9 23.1,7.6 23.1,14.7 C23.1,21.8 18,27.3 10.1,27.3 L2.4,27.3 C1.4,27.3 0.8,26.8 0.8,25.8 Z M9.8,23.3 C15.1,23.3 18.3,19.5 18.3,14.6 C18.3,9.7 15.1,5.8 9.8,5.9 L5.6,5.9 L5.6,23.3 L9.8,23.3 Z" id="Shape"/>
                        <path d="M26.6,3.4 C26.6,1.9 27.7,0.7 29.6,0.7 C31.4,0.7 32.6,1.9 32.6,3.4 C32.6,4.9 31.4,6.1 29.6,6.1 C27.8,6.1 26.6,4.9 26.6,3.4 Z M27.3,25.8 L27.3,10.4 C27.3,9.4 27.8,8.8 28.8,8.8 L30.4,8.8 C31.4,8.8 31.9,9.4 31.9,10.4 L31.9,25.8 C31.9,26.8 31.4,27.3 30.4,27.3 L28.8,27.3 C27.8,27.3 27.3,26.8 27.3,25.8 Z" id="Shape"/>
                        <path d="M38.6,34.1 C37.8,33.6 37.6,32.9 38.1,32 L38.5,31.3 C39,30.4 39.7,30.2 40.6,30.8 C42.1,31.7 43.8,32.1 45.5,32.1 C48.9,32.1 51.2,30.2 51.2,26.4 L51.2,24.5 C49.7,26.8 47.3,27.7 44.9,27.7 C39.5,27.7 35.9,23.4 35.9,18 C35.9,12.7 39.5,8.3 44.9,8.3 C47.3,8.3 49.6,9.2 51.2,11.5 L51.2,10.2 C51.2,9.3 51.7,8.7 52.7,8.7 L54.3,8.7 C55.3,8.7 55.8,9.3 55.8,10.3 L55.8,26.4 C55.8,33.1 51.1,35.8 45.8,35.8 C42.7,35.9 40.5,35.2 38.6,34.1 Z M51.2,18.1 C51.2,14.8 49,12.3 45.8,12.3 C42.5,12.3 40.5,15 40.5,18.1 C40.5,21.3 42.4,23.9 45.8,23.9 C49,23.9 51.1,21.4 51.2,18.1 Z" id="Shape"/>
                        <path d="M60.2,3.4 C60.2,1.9 61.3,0.7 63.2,0.7 C65,0.7 66.2,1.9 66.2,3.4 C66.2,4.9 65,6.1 63.2,6.1 C61.3,6.1 60.2,4.9 60.2,3.4 Z M60.8,25.8 L60.8,10.4 C60.8,9.4 61.3,8.8 62.3,8.8 L63.9,8.8 C64.9,8.8 65.4,9.4 65.4,10.4 L65.4,25.8 C65.4,26.8 64.9,27.3 63.9,27.3 L62.3,27.3 C61.3,27.3 60.8,26.8 60.8,25.8 Z" id="Shape"/>
                        <path d="M69.4,18.1 C69.4,12.7 73,8.4 78.4,8.4 C80.9,8.4 83.1,9.3 84.7,11.6 L84.7,2.5 C84.7,1.5 85.3,1 86.3,1 L87.9,1 C88.9,1 89.4,1.5 89.4,2.5 L89.4,25.8 C89.4,26.8 88.9,27.3 87.9,27.3 L86.3,27.3 C85.3,27.3 84.7,26.8 84.7,25.8 L84.7,24.6 C83.2,26.9 80.9,27.8 78.4,27.8 C73,27.8 69.4,23.5 69.4,18.1 Z M84.8,18.1 C84.8,14.8 82.6,12.3 79.3,12.3 C76,12.3 74.1,14.9 74.1,18.1 C74.1,21.3 76,23.9 79.3,23.9 C82.6,23.8 84.8,21.4 84.8,18.1 Z" id="Shape"/>
                        <path d="M94.4,25.8 L94.4,10.4 C94.4,9.4 94.9,8.8 95.9,8.8 L97.4,8.8 C98.4,8.8 98.9,9.4 98.9,10.4 L98.9,13 C99.5,9.8 101.9,8.5 103.8,8.5 C103.9,8.5 104.3,8.5 104.5,8.6 C105.3,8.7 105.4,9.3 105.4,10.1 L105.4,11.9 C105.4,12.8 105,13.2 104.3,13.1 C104,13 103.6,13 103.4,13 C101.7,13 99,14.1 99,20.1 L99,25.9 C99,26.9 98.4,27.4 97.4,27.4 L95.8,27.4 C95,27.3 94.4,26.8 94.4,25.8 Z" id="Shape"/>
                        <path d="M106.9,18.1 C106.9,12.8 111.2,8.4 116.9,8.4 C122.6,8.4 126.9,12.8 126.9,18.1 C126.9,23.5 122.5,27.8 116.9,27.8 C111.3,27.8 106.9,23.4 106.9,18.1 Z M122.4,18.1 C122.4,14.9 120,12.3 116.9,12.3 C113.8,12.3 111.4,14.9 111.4,18.1 C111.4,21.3 113.8,23.8 116.9,23.8 C120,23.8 122.4,21.3 122.4,18.1 Z" id="Shape"/>
                        <path d="M130.7,34 L130.7,10.4 C130.7,9.4 131.2,8.8 132.2,8.8 L133.8,8.8 C134.8,8.8 135.4,9.4 135.4,10.4 L135.4,11.6 C136.9,9.3 139.2,8.4 141.7,8.4 C147.1,8.4 150.7,12.7 150.7,18.1 C150.7,23.5 147.1,27.8 141.7,27.8 C139.2,27.8 137,26.9 135.4,24.6 L135.4,34 C135.4,35 134.8,35.5 133.8,35.5 L132.2,35.5 C131.2,35.5 130.7,35 130.7,34 Z M146,18.1 C146,15 144.1,12.3 140.8,12.3 C137.6,12.3 135.4,14.7 135.3,18.1 C135.3,21.4 137.5,23.9 140.8,23.9 C144.1,23.8 146,21.3 146,18.1 Z" id="Shape"/>
                    </g>
                    <g id="Group" transform="translate(71.000000, 44.000000)">
                        <path d="M0.9,11.4 L0.9,1.2 C0.9,0.8 1.1,0.5 1.6,0.5 L5,0.5 C8.6,0.5 10.9,3.1 10.9,6.2 C10.9,9.4 8.6,11.9 5,11.9 L1.5,11.9 C1.1,12 0.9,11.8 0.9,11.4 Z M4.9,10.2 C7.3,10.2 8.7,8.5 8.7,6.3 C8.7,4.1 7.2,2.4 4.9,2.4 L3,2.4 L3,10.2 L4.9,10.2 Z" id="Shape"/>
                        <path d="M12.5,1.2 C12.5,0.5 13,0 13.8,0 C14.6,0 15.1,0.5 15.1,1.2 C15.1,1.9 14.6,2.4 13.8,2.4 C13,2.4 12.5,1.9 12.5,1.2 Z M12.8,11.4 L12.8,4.5 C12.8,4.1 13,3.8 13.5,3.8 L14.2,3.8 C14.6,3.8 14.9,4.1 14.9,4.5 L14.9,11.4 C14.9,11.8 14.7,12.1 14.2,12.1 L13.5,12.1 C13,12 12.8,11.8 12.8,11.4 Z" id="Shape"/>
                        <path d="M17.9,15.1 C17.5,14.9 17.5,14.5 17.7,14.1 L17.9,13.8 C18.1,13.4 18.4,13.3 18.8,13.6 C19.5,14 20.2,14.2 21,14.2 C22.5,14.2 23.6,13.4 23.6,11.7 L23.6,10.8 C22.9,11.8 21.9,12.2 20.8,12.2 C18.4,12.2 16.7,10.2 16.7,7.9 C16.7,5.5 18.3,3.6 20.8,3.6 C21.9,3.6 22.9,4 23.6,5 L23.6,4.4 C23.6,4 23.8,3.7 24.3,3.7 L25,3.7 C25.4,3.7 25.7,4 25.7,4.4 L25.7,11.7 C25.7,14.7 23.6,15.9 21.2,15.9 C19.7,15.9 18.7,15.6 17.9,15.1 Z M23.5,7.9 C23.5,6.4 22.5,5.3 21.1,5.3 C19.6,5.3 18.7,6.5 18.7,7.9 C18.7,9.3 19.6,10.5 21.1,10.5 C22.5,10.5 23.5,9.4 23.5,7.9 Z" id="Shape"/>
                        <path d="M27.6,1.2 C27.6,0.5 28.1,0 28.9,0 C29.7,0 30.2,0.5 30.2,1.2 C30.2,1.9 29.7,2.4 28.9,2.4 C28.1,2.5 27.6,1.9 27.6,1.2 Z M27.8,11.4 L27.8,4.5 C27.8,4.1 28,3.8 28.5,3.8 L29.2,3.8 C29.6,3.8 29.9,4.1 29.9,4.5 L29.9,11.4 C29.9,11.8 29.7,12.1 29.2,12.1 L28.5,12.1 C28.1,12 27.8,11.8 27.8,11.4 Z" id="Shape"/>
                        <path d="M32.7,9.3 L32.7,5.3 L31.8,5.3 C31.6,5.3 31.4,5.2 31.4,4.9 L31.4,4 C31.4,3.8 31.5,3.6 31.8,3.6 L32.8,3.6 L33.1,1.8 C33.1,1.5 33.4,1.3 33.7,1.3 L34.3,1.3 C34.6,1.3 34.8,1.5 34.8,1.8 L34.8,3.5 L36.9,3.5 C37.1,3.5 37.3,3.6 37.3,3.9 L37.3,4.8 C37.3,5 37.2,5.2 36.9,5.2 L34.8,5.2 L34.8,9.3 C34.8,10.1 35.2,10.4 35.6,10.4 C36.1,10.4 36.4,10.1 36.4,9.6 L36.4,9.3 C36.4,9 36.4,8.9 36.7,8.9 L37.6,8.9 C37.8,8.9 38,9 38,9.2 C38.1,9.5 38.1,9.8 38.1,9.8 C38.1,11.3 37,12.2 35.5,12.2 C34.1,12.2 32.7,11.6 32.7,9.3 Z" id="Shape"/>
                        <path d="M38.9,7.9 C38.9,5.5 40.6,3.6 43,3.6 C44.1,3.6 45.1,4 45.8,5 L45.8,4.5 C45.8,4.1 46,3.8 46.5,3.8 L47.2,3.8 C47.6,3.8 47.9,4.1 47.9,4.5 L47.9,11.4 C47.9,11.8 47.6,12.1 47.2,12.1 L46.5,12.1 C46.1,12.1 45.8,11.9 45.8,11.4 L45.8,10.8 C45.1,11.8 44.1,12.2 43,12.2 C40.6,12.2 38.9,10.3 38.9,7.9 Z M45.8,7.9 C45.8,6.4 44.8,5.3 43.4,5.3 C41.9,5.3 41,6.5 41,7.9 C41,9.3 41.9,10.5 43.4,10.5 C44.9,10.5 45.8,9.4 45.8,7.9 Z" id="Shape"/>
                        <path d="M50.2,11.4 L50.2,0.9 C50.2,0.5 50.4,0.2 50.9,0.2 L51.6,0.2 C52,0.2 52.3,0.4 52.3,0.9 L52.3,11.4 C52.3,11.8 52.1,12.1 51.6,12.1 L50.9,12.1 C50.5,12 50.2,11.8 50.2,11.4 Z" id="Shape"/>
                        <path d="M58.3,9.8 C58.1,9.4 58.3,9.1 58.8,9 L59.4,8.9 C59.8,8.8 60,9 60.3,9.4 C60.7,10.1 61.5,10.5 62.5,10.5 C63.8,10.5 64.6,9.9 64.6,9 C64.6,8.3 64,7.8 63.1,7.5 L61.5,6.9 C59.7,6.3 58.6,5.2 58.6,3.7 C58.6,1.6 60.4,0.4 62.5,0.4 C64.3,0.4 65.6,1.2 66.1,2.5 C66.3,2.9 66.1,3.3 65.7,3.4 L65.2,3.5 C64.8,3.6 64.5,3.5 64.3,3.1 C64,2.5 63.4,2.2 62.5,2.2 C61.6,2.2 60.7,2.7 60.7,3.6 C60.7,4 60.9,4.6 62,5 L63.6,5.6 C65.7,6.3 66.6,7.5 66.6,8.8 C66.6,11 64.8,12.2 62.4,12.2 C60.4,12.2 58.9,11.3 58.3,9.8 Z" id="Shape"/>
                        <path d="M67.9,7.9 C67.9,5.5 69.9,3.6 72.4,3.6 C74.9,3.6 76.9,5.6 76.9,7.9 C76.9,10.3 74.9,12.2 72.4,12.2 C69.9,12.2 67.9,10.3 67.9,7.9 Z M74.9,7.9 C74.9,6.5 73.8,5.3 72.4,5.3 C71,5.3 69.9,6.4 69.9,7.9 C69.9,9.3 71,10.5 72.4,10.5 C73.8,10.5 74.9,9.3 74.9,7.9 Z" id="Shape"/>
                        <path d="M78.6,11.4 L78.6,0.9 C78.6,0.5 78.8,0.2 79.3,0.2 L80,0.2 C80.4,0.2 80.7,0.4 80.7,0.9 L80.7,11.4 C80.7,11.8 80.5,12.1 80,12.1 L79.3,12.1 C78.9,12 78.6,11.8 78.6,11.4 Z" id="Shape"/>
                        <path d="M82.9,8.5 L82.9,4.4 C82.9,4 83.2,3.7 83.6,3.7 L84.3,3.7 C84.7,3.7 85,4 85,4.4 L85,8.4 C85,9.8 85.6,10.5 86.5,10.5 C87.4,10.5 88.7,9.9 88.7,7.8 L88.7,4.4 C88.7,4 89,3.7 89.4,3.7 L90.1,3.7 C90.5,3.7 90.8,4 90.8,4.4 L90.8,11.3 C90.8,11.7 90.6,12 90.1,12 L89.4,12 C89,12 88.7,11.8 88.7,11.3 L88.7,10.5 C88.3,11.6 87.3,12.2 86.1,12.2 C84,12.2 82.9,10.8 82.9,8.5 Z" id="Shape"/>
                        <path d="M93.5,9.3 L93.5,5.3 L92.6,5.3 C92.4,5.3 92.2,5.2 92.2,4.9 L92.2,4 C92.2,3.8 92.3,3.6 92.6,3.6 L93.6,3.6 L93.9,1.8 C93.9,1.5 94.2,1.3 94.5,1.3 L95.1,1.3 C95.4,1.3 95.6,1.5 95.6,1.8 L95.6,3.5 L97.7,3.5 C97.9,3.5 98.1,3.6 98.1,3.9 L98.1,4.8 C98.1,5 98,5.2 97.7,5.2 L95.6,5.2 L95.6,9.3 C95.6,10.1 96,10.4 96.4,10.4 C96.9,10.4 97.2,10.1 97.2,9.6 L97.2,9.3 C97.2,9 97.2,8.9 97.5,8.9 L98.4,8.9 C98.6,8.9 98.8,9 98.8,9.2 C98.9,9.5 98.9,9.8 98.9,9.8 C98.9,11.3 97.8,12.2 96.3,12.2 C94.9,12.2 93.5,11.6 93.5,9.3 Z" id="Shape"/>
                        <path d="M100,1.2 C100,0.5 100.5,0 101.3,0 C102.1,0 102.6,0.5 102.6,1.2 C102.6,1.9 102.1,2.4 101.3,2.4 C100.6,2.5 100,1.9 100,1.2 Z M100.3,11.4 L100.3,4.5 C100.3,4.1 100.5,3.8 101,3.8 L101.7,3.8 C102.1,3.8 102.4,4.1 102.4,4.5 L102.4,11.4 C102.4,11.8 102.2,12.1 101.7,12.1 L101,12.1 C100.6,12 100.3,11.8 100.3,11.4 Z" id="Shape"/>
                        <path d="M104.1,7.9 C104.1,5.5 106.1,3.6 108.6,3.6 C111.1,3.6 113.1,5.6 113.1,7.9 C113.1,10.3 111.1,12.2 108.6,12.2 C106.1,12.2 104.1,10.3 104.1,7.9 Z M111.1,7.9 C111.1,6.5 110,5.3 108.6,5.3 C107.2,5.3 106.1,6.4 106.1,7.9 C106.1,9.3 107.2,10.5 108.6,10.5 C110,10.5 111.1,9.3 111.1,7.9 Z" id="Shape"/>
                        <path d="M114.8,11.4 L114.8,4.5 C114.8,4.1 115,3.8 115.5,3.8 L116.2,3.8 C116.6,3.8 116.9,4.1 116.9,4.5 L116.9,5.3 C117.3,4.2 118.3,3.6 119.5,3.6 C121.5,3.6 122.6,5.1 122.6,7.4 L122.6,11.5 C122.6,11.9 122.3,12.2 121.9,12.2 L121.2,12.2 C120.8,12.2 120.5,12 120.5,11.5 L120.5,7.5 C120.5,6.1 119.9,5.4 119,5.4 C118.1,5.4 116.8,6 116.8,8.1 L116.8,11.5 C116.8,11.9 116.5,12.2 116.1,12.2 L115.4,12.2 C115.1,12 114.8,11.8 114.8,11.4 Z" id="Shape"/>
                        <path d="M124.4,10.6 C124.2,10.2 124.4,9.8 124.9,9.7 L125.3,9.6 C125.7,9.5 125.9,9.7 126.2,10 C126.5,10.4 127,10.6 127.6,10.6 C128.3,10.6 128.8,10.2 128.8,9.7 C128.8,9.3 128.5,9 127.9,8.8 L126.8,8.4 C125.7,8.1 124.6,7.4 124.6,6.1 C124.6,4.6 125.8,3.5 127.5,3.5 C128.6,3.5 129.5,3.8 130.1,4.8 C130.4,5.2 130.1,5.6 129.7,5.7 L129.3,5.8 C128.9,5.9 128.7,5.8 128.4,5.5 C128.2,5.2 127.8,5.1 127.5,5.1 C126.9,5.1 126.5,5.5 126.5,6 C126.5,6.4 126.9,6.7 127.4,6.8 L128.5,7.2 C130.2,7.7 130.7,8.7 130.7,9.6 C130.7,11.3 129.2,12.2 127.5,12.2 C126.1,12.2 124.9,11.7 124.4,10.6 Z" id="Shape"/>
                    </g>
                </g>
            </g>
        </g>
    </g>
</svg>