<?xml version="1.0" encoding="utf-8"?>
<!-- Generator: Adobe Illustrator 23.0.3, SVG Export Plug-In . SVG Version: 6.00 Build 0)  -->
<svg version="1.1" id="Layer_1" xmlns="http://www.w3.org/2000/svg" xmlns:xlink="http://www.w3.org/1999/xlink" x="0px" y="0px"
	 viewBox="0 0 426.93 136.78" style="enable-background:new 0 0 426.93 136.78;" xml:space="preserve">
<style type="text/css">
	.st0{fill:#E43D6A;}
</style>
<path d="M129.46,47.43h-1.12c-2.63-11.87-8.68-15.85-16.63-15.85h-5.43v17.08h2.13c6.33,0,9.8-5.26,10.14-10.47h1.06v22.06h-1.06
	c-0.34-5.21-3.81-10.47-10.14-10.47h-2.13v10.36c0,6.72,1.23,8.18,6.55,8.4v1.12H89.64v-1.12c5.32-0.22,6.55-1.68,6.55-8.4V39.98
	c0-6.72-1.23-8.18-6.55-8.4v-1.12h22.06c7.28,0,10.7-0.73,13.1-2.97h1.12L129.46,47.43z"/>
<path d="M158.69,59.08c0,6.94-2.46,11.09-7.9,11.09c-4.98,0-7.95-3.36-7.95-8.06v-3.14c-1.62,7.45-6.38,11.26-11.37,11.26
	c-3.75,0-7.45-2.24-7.45-6.61c0-5.77,6.33-9.02,18.82-13.1v-2.46c0-3.47-0.9-8.23-4.65-8.23c-3.02,0-4.76,2.69-4.76,5.71
	c0,1.79,0.62,4.31,2.02,5.82c-8.23,0.28-11.14-2.24-11.14-5.15c0-3.58,4.31-7.34,14.34-7.34c6.66,0,13.27,2.13,13.27,10.3v12.88
	c0,2.86,1.23,4.2,2.74,4.2c1.57,0,2.91-2.52,2.91-7.17H158.69z M142.84,53.31v-1.9c-5.38,2.18-9.52,5.66-9.52,9.41
	c0,2.46,1.74,3.53,2.97,3.53C137.8,64.34,142.84,62.1,142.84,53.31z"/>
<path d="M166.86,40.54V62.1c0,2.8,1.4,4.7,3.42,4.7c2.63,0,3.81-2.8,3.81-7.73h1.12c0,8.18-2.97,11.09-8.51,11.09
	c-5.38,0-9.13-2.69-9.13-9.18l0.06-20.44h-3.53v-1.12c7.9,0,11.65-5.88,11.65-8.96h1.12v8.96h9.02v1.12H166.86z"/>
<path d="M229.52,59.25c0,6.5-6.16,10.42-15.46,10.42h-27.44v-1.12c5.32-0.22,6.55-1.68,6.55-8.4V39.98c0-6.72-1.23-8.18-6.55-8.4
	v-1.12h26.66c8.51,0,13.94,3.3,13.94,9.02c0,5.32-4.7,8.74-14.34,9.46v0.17C224.87,49.45,229.52,53.25,229.52,59.25z M203.26,31.58
	v17.3h3.86c5.66,0,9.58-3.25,9.58-9.07c0-5.54-3.64-8.23-8.85-8.23H203.26z M218.66,59.69c0-6.22-4.14-9.69-11.54-9.69h-3.86v18.65
	h5.49C215.75,68.65,218.66,65.41,218.66,59.69z"/>
<path d="M261.44,57.06c-1.46,9.41-7.34,13.16-14.28,13.16c-8.29,0-15.12-5.32-15.12-15.29c0-9.3,5.94-16.07,15.18-16.07
	c8.68,0,13.94,5.88,13.61,15.23h-19.15c0.73,6.55,4.31,10.75,9.46,10.75c5.1,0,8.29-3.3,9.52-8.01L261.44,57.06z M241.56,51.57
	c0,0.5,0,0.95,0.06,1.4h6.66c1.68,0,3.25,0,3.25-3.42c0-2.69-0.95-9.58-4.98-9.58C242.4,39.98,241.56,47.32,241.56,51.57z"/>
<path d="M293.81,57.06c-1.46,9.41-7.34,13.16-14.28,13.16c-8.29,0-15.12-5.32-15.12-15.29c0-9.3,5.94-16.07,15.18-16.07
	c8.68,0,13.94,5.88,13.61,15.23h-19.15c0.73,6.55,4.31,10.75,9.46,10.75c5.1,0,8.29-3.3,9.52-8.01L293.81,57.06z M273.93,51.57
	c0,0.5,0,0.95,0.06,1.4h6.66c1.68,0,3.25,0,3.25-3.42c0-2.69-0.95-9.58-4.98-9.58C274.77,39.98,273.93,47.32,273.93,51.57z"/>
<path d="M331.71,68.54v1.12h-18.09v-1.12c2.91-0.28,3.81-1.01,3.81-2.91V48.38c0-3.14-1.23-4.87-3.92-4.87
	c-2.74,0-6.38,3.42-6.89,8.01V63.5c0,3.53,0.06,4.7,3.86,5.04v1.12h-18.14v-1.12c4.26-0.34,5.04-1.62,5.04-5.6V37.18
	c0-3.98-0.78-5.26-5.04-5.6v-1.12h14.28V47.6c1.74-4.82,5.94-8.74,10.98-8.74c5.82,0,9.07,3.3,9.07,9.18v14.9
	C326.67,66.92,327.46,68.21,331.71,68.54z"/>
<path d="M349.37,68.54v1.12h-19.32v-1.12c4.26-0.34,5.04-1.62,5.04-5.6v-16.8c0-3.98-0.78-5.26-5.04-5.6v-1.12h14.28v23.52
	C344.33,66.92,345.11,68.21,349.37,68.54z M333.91,30.24c0-3.14,2.41-5.1,5.26-5.1c2.97,0,5.32,1.96,5.32,5.1
	c0,2.97-2.35,4.87-5.32,4.87C336.32,35.11,333.91,33.21,333.91,30.24z"/>
<path d="M381.55,39.42v1.12c-2.97,1.29-6.55,5.94-8.85,11.76l-6.83,17.36h-4.98l-9.24-21.62c-2.07-4.87-2.97-7.28-5.88-7.5v-1.12
	h19.6v1.12c-5.26,0.34-6.1,1.79-3.58,8.06l5.38,13.38l4.14-9.86c2.8-6.61,1.23-11.2-3.42-11.59v-1.12H381.55z"/>
<path d="M406.72,57.06c-1.46,9.41-7.34,13.16-14.28,13.16c-8.29,0-15.12-5.32-15.12-15.29c0-9.3,5.94-16.07,15.18-16.07
	c8.68,0,13.94,5.88,13.61,15.23h-19.15c0.73,6.55,4.31,10.75,9.46,10.75c5.1,0,8.29-3.3,9.52-8.01L406.72,57.06z M386.84,51.57
	c0,0.5,0,0.95,0.06,1.4h6.66c1.68,0,3.25,0,3.25-3.42c0-2.69-0.95-9.58-4.98-9.58C387.68,39.98,386.84,47.32,386.84,51.57z"/>
<g>
	<path d="M65.19,75.78c0.12-3.44-1.97-6.29-4.91-6.5c-3.12-0.22-5.98,2.61-6.39,6.32c-0.08,0.72-0.04,1.41,0.07,2.07
		C57.31,77.38,61.42,76.82,65.19,75.78z"/>
	<path d="M75.96,62.01c0-5.66-2.78-5.45-2.78-5.45s2.1-4.18,1.01-7.93c-1.19-4.1-4.24-5.27-4.24-5.27s0.7-3.62-1.42-7.29
		c-0.17-0.27-0.35-0.54-0.53-0.81c-2.72-3.76-5.02-4.18-5.02-4.18s0.83-1.95-2.2-4.99c-1.08-1.08-4.59-5.54-12.61-5.62v-0.01
		c-0.03,0-0.06,0-0.09,0c-0.03,0-0.06,0-0.09,0v0.01c-8.02,0.08-11.53,4.53-12.61,5.62c-3.03,3.03-2.2,4.99-2.2,4.99
		s-2.34,0.12-5.05,3.88c-0.18,0.27-0.36,0.54-0.53,0.81c-2.12,3.67-1.39,7.59-1.39,7.59s-3.05,1.16-4.24,5.27
		c-1.09,3.75,1.01,7.93,1.01,7.93s-2.78-0.21-2.78,5.45c0,12.28,13.29,17.56,27.78,17.64v0c0,0,0.01,0,0.01,0c0,0,0.01,0,0.01,0v0
		c0,0,0,0,0,0c0.02,0,0.04,0,0.06,0c0.02,0,0.04,0,0.06,0c0,0,0,0,0,0v0c0,0,0.01,0,0.01,0c0,0,0.01,0,0.01,0v0
		C62.66,79.57,75.96,74.29,75.96,62.01z M36.91,29.14c0.37-1.15,1.42-2.43,3.01-3.8c1.58-1.36,3.69-3.08,8.16-3.1
		c4.47,0.02,6.58,1.74,8.16,3.1c1.59,1.37,2.64,2.65,3.01,3.8c0.37,1.15-0.05,1.9-1.08,2.53c-1.02,0.62-5.79,2.18-10.09,2.21
		c-4.3-0.03-9.07-1.59-10.09-2.21C36.96,31.04,36.55,30.28,36.91,29.14z M31.64,37.08c2.24-4.57,5.21-3.42,7.33-2.8
		c1.57,0.46,5.25,1.02,9.02,1.04v0c0.03,0,0.06,0,0.09,0c0.03,0,0.06,0,0.09,0v0c3.78-0.02,7.45-0.58,9.02-1.04
		c2.12-0.62,5.09-1.77,7.33,2.8c1.81,3.7-0.08,7.34-1.42,7.97c-1.33,0.63-8.64,2.86-15.02,2.91c-6.38-0.06-13.69-2.28-15.02-2.91
		C31.72,44.41,29.83,40.78,31.64,37.08z M66.54,69.08c-3.66,6.24-10.88,8.92-18.46,8.97c-7.58-0.05-14.8-2.73-18.46-8.97
		c-1.23-2.09-1.84-4.36-1.85-6.64c-0.01-2.27,1.85-2.05,2.43-1.81c0.01,0,0.01,0,0.01,0c4.97,1.68,9.3,2.71,17.87,2.71
		s12.89-1.03,17.87-2.71c0,0,0,0.01,0.01,0c0.58-0.24,2.44-0.46,2.43,1.81S67.77,66.99,66.54,69.08z M64.55,58.66
		c-4.85,2.29-9.28,3.26-16.46,3.28c-7.19-0.02-11.61-0.99-16.46-3.28c-1-0.5-5.13-2.55-3.84-7.84c0.91-3.75,4.08-3.65,5.77-3.17
		c1.89,0.53,7.59,1.87,14.54,1.87s12.65-1.34,14.54-1.87c1.69-0.47,4.86-0.58,5.77,3.17C69.67,56.11,65.55,58.16,64.55,58.66z"/>
</g>
<g>
	<path class="st0" d="M146.35,93.32c2.27,0,4.09,0.68,5.46,2.05c1.37,1.37,2.05,3.2,2.05,5.5s-0.68,4.13-2.05,5.5
		c-1.37,1.37-3.19,2.05-5.46,2.05h-4.44v-15.1H146.35z M143.81,106.76h2.54c1.68,0,3.02-0.56,4.01-1.67
		c0.99-1.11,1.49-2.52,1.49-4.24s-0.5-3.12-1.5-4.21c-1-1.1-2.33-1.64-4-1.64h-2.54V106.76z"/>
	<path class="st0" d="M161.76,107.14c1.58,0,2.49-0.7,2.71-2.09h1.94c-0.18,1.15-0.68,2.04-1.52,2.68
		c-0.84,0.63-1.88,0.95-3.13,0.95c-1.54,0-2.78-0.55-3.74-1.64s-1.44-2.56-1.44-4.38s0.48-3.28,1.45-4.37s2.26-1.63,3.86-1.63
		s2.81,0.62,3.6,1.87s1.07,2.77,0.83,4.56h-7.85c0,1.18,0.29,2.16,0.86,2.92S160.72,107.14,161.76,107.14z M163.15,98.45
		c-0.37-0.19-0.82-0.29-1.34-0.29c-0.98,0-1.75,0.33-2.32,1c-0.57,0.66-0.9,1.49-1,2.48h6.12
		C164.61,100.04,164.13,98.98,163.15,98.45z"/>
	<path class="st0" d="M170.16,92.07h1.9v16.34h-1.9V92.07z"/>
	<path class="st0" d="M177.93,94.23c-0.38,0-0.68-0.11-0.9-0.32c-0.22-0.22-0.32-0.5-0.32-0.86s0.11-0.65,0.32-0.86
		c0.22-0.22,0.52-0.32,0.9-0.32s0.69,0.11,0.92,0.32c0.23,0.22,0.35,0.5,0.35,0.86s-0.12,0.65-0.35,0.86S178.32,94.23,177.93,94.23z
		 M177,96.92h1.9v11.5H177V96.92z"/>
	<path class="st0" d="M184.53,108.05c-0.96-0.46-1.44-1.18-1.44-2.14c0-0.5,0.19-0.93,0.56-1.31s0.84-0.63,1.4-0.76
		c-0.86-0.77-1.3-1.78-1.3-3.02s0.44-2.26,1.33-3.02c0.89-0.77,1.94-1.15,3.16-1.15c1.22,0,2.25,0.29,3.1,0.86
		c0.11-0.85,0.45-1.53,1.02-2.04c0.57-0.51,1.32-0.77,2.24-0.77l-0.17,1.87c-1.41,0-2.14,0.59-2.21,1.78
		c0.56,0.69,0.84,1.51,0.84,2.47c0,1.23-0.44,2.24-1.33,3.04c-0.89,0.79-2,1.19-3.32,1.19c-0.91,0-1.72-0.18-2.42-0.55
		c-0.32,0.06-0.61,0.21-0.86,0.44c-0.26,0.23-0.38,0.55-0.38,0.95c0,0.85,0.7,1.27,2.11,1.27h4.46c1.07,0,1.92,0.23,2.54,0.68
		c0.62,0.46,0.94,1.09,0.94,1.91c0,1.22-0.61,2.28-1.84,3.19c-1.22,0.91-2.77,1.37-4.64,1.37c-1.87,0-3.34-0.35-4.42-1.04
		c-1.07-0.7-1.61-1.57-1.61-2.63c0-0.69,0.2-1.25,0.61-1.68C183.32,108.53,183.86,108.23,184.53,108.05z M184.17,110.57
		c0,0.61,0.33,1.13,1,1.57c0.66,0.44,1.67,0.66,3.02,0.66s2.48-0.29,3.38-0.88c0.9-0.58,1.36-1.27,1.36-2.05
		c0-0.37-0.13-0.68-0.4-0.95c-0.26-0.26-0.67-0.4-1.21-0.4h-4.63c-0.82,0.03-1.44,0.23-1.87,0.59S184.17,109.96,184.17,110.57z
		 M191.23,100.82c0-0.82-0.25-1.5-0.74-2.02c-0.5-0.52-1.18-0.78-2.05-0.78c-0.87,0-1.56,0.26-2.05,0.78
		c-0.5,0.52-0.74,1.2-0.74,2.03s0.25,1.52,0.76,2.05c0.5,0.54,1.19,0.8,2.05,0.8c0.86,0,1.54-0.27,2.04-0.82
		C190.98,102.32,191.23,101.64,191.23,100.82z"/>
	<path class="st0" d="M199.51,99.05c0.77-1.6,2.04-2.4,3.82-2.4c1.36,0,2.42,0.45,3.18,1.34c0.76,0.9,1.14,2.12,1.14,3.67v6.74
		h-1.87v-6.74c0-1.1-0.26-1.94-0.78-2.5c-0.52-0.56-1.27-0.84-2.24-0.84c-0.98,0-1.76,0.41-2.35,1.24
		c-0.59,0.82-0.89,1.96-0.89,3.42v5.42h-1.9V92.07h1.9V99.05z"/>
	<path class="st0" d="M218.11,108.08c-1.38,0.64-2.63,0.78-3.77,0.41c-0.82-0.26-1.39-0.79-1.73-1.61c-0.18-0.4-0.26-0.88-0.26-1.44
		v-7.06h-1.85v-1.44h1.85v-3.19h1.87v3.19h3.6v1.44h-3.6v7.03c0,1.17,0.54,1.75,1.63,1.75c0.59,0,1.26-0.14,1.99-0.43L218.11,108.08
		z"/>
	<path class="st0" d="M226.7,93.68c-0.53-0.21-0.94-0.31-1.25-0.31c-0.56,0-1,0.14-1.32,0.41c-0.32,0.27-0.48,0.75-0.48,1.44v1.73
		h2.38v1.3h-2.38v10.18h-1.87V98.24h-1.9v-1.3h1.9v-1.75c0-1.14,0.31-1.97,0.94-2.51c0.62-0.54,1.34-0.8,2.16-0.8
		s1.54,0.1,2.16,0.31L226.7,93.68z"/>
	<path class="st0" d="M237.16,106.13c-0.78,1.66-2.06,2.5-3.82,2.5c-1.3,0-2.34-0.36-3.13-1.08c-0.79-0.72-1.19-1.83-1.19-3.34v-7.3
		h1.9v7.15c0,1.94,0.9,2.9,2.69,2.9c1.04,0,1.88-0.4,2.53-1.2c0.65-0.8,0.99-1.82,1.02-3.07v-5.78h1.9v11.5h-1.9V106.13z"/>
	<path class="st0" d="M243.91,92.07h1.9v16.34h-1.9V92.07z"/>
	<path class="st0" d="M256.32,93.32h9.29v1.63h-7.39v5.06h6.96v1.61h-6.96v5.14h7.39v1.66h-9.29V93.32z"/>
	<path class="st0" d="M275.83,108.08c-1.38,0.64-2.63,0.78-3.77,0.41c-0.82-0.26-1.39-0.79-1.73-1.61c-0.18-0.4-0.26-0.88-0.26-1.44
		v-7.06h-1.85v-1.44h1.85v-3.19h1.87v3.19h3.6v1.44h-3.6v7.03c0,1.17,0.54,1.75,1.63,1.75c0.59,0,1.26-0.14,1.99-0.43L275.83,108.08
		z"/>
	<path class="st0" d="M280.75,99.05c0.77-1.6,2.04-2.4,3.82-2.4c1.36,0,2.42,0.45,3.18,1.34c0.76,0.9,1.14,2.12,1.14,3.67v6.74
		h-1.87v-6.74c0-1.1-0.26-1.94-0.78-2.5c-0.52-0.56-1.27-0.84-2.24-0.84c-0.98,0-1.76,0.41-2.35,1.24s-0.89,1.96-0.89,3.42v5.42
		h-1.9V92.07h1.9V99.05z"/>
	<path class="st0" d="M294.4,94.23c-0.38,0-0.68-0.11-0.9-0.32s-0.32-0.5-0.32-0.86s0.11-0.65,0.32-0.86
		c0.22-0.22,0.52-0.32,0.9-0.32c0.38,0,0.69,0.11,0.92,0.32c0.23,0.22,0.35,0.5,0.35,0.86s-0.12,0.65-0.35,0.86
		C295.09,94.12,294.79,94.23,294.4,94.23z M293.47,96.92h1.9v11.5h-1.9V96.92z"/>
	<path class="st0" d="M304.35,96.65c1.35,0,2.43,0.35,3.23,1.04c0.8,0.7,1.32,1.56,1.56,2.6l-1.92,0.17
		c-0.21-0.67-0.54-1.2-1.01-1.57c-0.46-0.38-0.98-0.56-1.54-0.56c-1.02,0-1.85,0.38-2.48,1.15c-0.63,0.77-0.95,1.81-0.95,3.13
		s0.31,2.38,0.92,3.18c0.62,0.8,1.38,1.2,2.3,1.2s1.61-0.21,2.06-0.64c0.46-0.42,0.68-1.03,0.68-1.81h1.94
		c0,1.23-0.43,2.23-1.28,2.99c-0.86,0.76-1.97,1.14-3.35,1.14c-1.46,0-2.69-0.55-3.71-1.66c-1.02-1.1-1.52-2.57-1.52-4.4
		s0.5-3.28,1.51-4.36C301.82,97.19,303,96.65,304.35,96.65z"/>
	<path class="st0" d="M319.99,100.97c0-1.04-0.22-1.78-0.65-2.23s-1.06-0.67-1.88-0.67s-1.49,0.16-1.99,0.49s-0.76,0.84-0.76,1.55
		h-2.09c0-1.76,0.94-2.85,2.83-3.26c0.58-0.13,1.2-0.19,1.87-0.19c1.42,0,2.54,0.36,3.34,1.08c0.8,0.72,1.2,1.82,1.2,3.29v7.39
		h-1.63l-0.19-1.92c-0.7,1.46-1.98,2.18-3.82,2.18c-1.23,0-2.22-0.34-2.96-1.03c-0.74-0.69-1.12-1.54-1.12-2.57
		c0-1.02,0.41-1.82,1.24-2.4c0.82-0.58,1.85-0.86,3.08-0.86c1.23,0,2.41,0.21,3.53,0.62V100.97z M319.99,103.64
		c-1.14-0.32-2.13-0.48-2.98-0.48s-1.54,0.15-2.06,0.46c-0.53,0.3-0.79,0.78-0.79,1.44c0,1.44,0.82,2.16,2.45,2.16
		c0.93,0,1.72-0.33,2.39-1C319.65,105.55,319.99,104.69,319.99,103.64z"/>
	<path class="st0" d="M326.32,92.07h1.9v16.34h-1.9V92.07z"/>
	<path class="st0" d="M343.17,93.32c2.27,0,4.09,0.68,5.46,2.05s2.05,3.2,2.05,5.5s-0.68,4.13-2.05,5.5s-3.19,2.05-5.46,2.05h-4.44
		v-15.1H343.17z M340.63,106.76h2.54c1.68,0,3.02-0.56,4.01-1.67c0.99-1.11,1.49-2.52,1.49-4.24s-0.5-3.12-1.5-4.21
		c-1-1.1-2.33-1.64-4-1.64h-2.54V106.76z"/>
	<path class="st0" d="M355.68,94.23c-0.38,0-0.68-0.11-0.9-0.32s-0.32-0.5-0.32-0.86s0.11-0.65,0.32-0.86
		c0.22-0.22,0.52-0.32,0.9-0.32c0.38,0,0.69,0.11,0.92,0.32c0.23,0.22,0.35,0.5,0.35,0.86s-0.12,0.65-0.35,0.86
		C356.37,94.12,356.06,94.23,355.68,94.23z M354.74,96.92h1.9v11.5h-1.9V96.92z"/>
	<path class="st0" d="M362.28,108.05c-0.96-0.46-1.44-1.18-1.44-2.14c0-0.5,0.19-0.93,0.56-1.31c0.38-0.38,0.84-0.63,1.4-0.76
		c-0.86-0.77-1.3-1.78-1.3-3.02s0.44-2.26,1.33-3.02c0.89-0.77,1.94-1.15,3.16-1.15s2.25,0.29,3.1,0.86
		c0.11-0.85,0.45-1.53,1.02-2.04c0.57-0.51,1.32-0.77,2.24-0.77l-0.17,1.87c-1.41,0-2.14,0.59-2.21,1.78
		c0.56,0.69,0.84,1.51,0.84,2.47c0,1.23-0.44,2.24-1.33,3.04c-0.89,0.79-2,1.19-3.32,1.19c-0.91,0-1.72-0.18-2.42-0.55
		c-0.32,0.06-0.61,0.21-0.86,0.44c-0.26,0.23-0.38,0.55-0.38,0.95c0,0.85,0.7,1.27,2.11,1.27h4.46c1.07,0,1.92,0.23,2.54,0.68
		c0.62,0.46,0.94,1.09,0.94,1.91c0,1.22-0.61,2.28-1.84,3.19c-1.22,0.91-2.77,1.37-4.64,1.37s-3.34-0.35-4.42-1.04
		c-1.07-0.7-1.61-1.57-1.61-2.63c0-0.69,0.2-1.25,0.61-1.68C361.06,108.53,361.6,108.23,362.28,108.05z M361.91,110.57
		c0,0.61,0.33,1.13,1,1.57c0.66,0.44,1.67,0.66,3.02,0.66c1.35,0,2.48-0.29,3.38-0.88c0.9-0.58,1.36-1.27,1.36-2.05
		c0-0.37-0.13-0.68-0.4-0.95c-0.26-0.26-0.67-0.4-1.21-0.4h-4.63c-0.82,0.03-1.44,0.23-1.87,0.59
		C362.13,109.48,361.91,109.96,361.91,110.57z M368.97,100.82c0-0.82-0.25-1.5-0.74-2.02c-0.5-0.52-1.18-0.78-2.05-0.78
		s-1.56,0.26-2.05,0.78c-0.5,0.52-0.74,1.2-0.74,2.03s0.25,1.52,0.76,2.05s1.19,0.8,2.05,0.8c0.86,0,1.54-0.27,2.04-0.82
		C368.72,102.32,368.97,101.64,368.97,100.82z"/>
	<path class="st0" d="M376.41,94.23c-0.38,0-0.68-0.11-0.9-0.32s-0.32-0.5-0.32-0.86s0.11-0.65,0.32-0.86
		c0.22-0.22,0.52-0.32,0.9-0.32c0.38,0,0.69,0.11,0.92,0.32c0.23,0.22,0.35,0.5,0.35,0.86s-0.12,0.65-0.35,0.86
		C377.1,94.12,376.79,94.23,376.41,94.23z M375.47,96.92h1.9v11.5h-1.9V96.92z"/>
	<path class="st0" d="M388.53,108.08c-1.38,0.64-2.63,0.78-3.77,0.41c-0.82-0.26-1.39-0.79-1.73-1.61c-0.18-0.4-0.26-0.88-0.26-1.44
		v-7.06h-1.85v-1.44h1.85v-3.19h1.87v3.19h3.6v1.44h-3.6v7.03c0,1.17,0.54,1.75,1.63,1.75c0.59,0,1.26-0.14,1.99-0.43L388.53,108.08
		z"/>
	<path class="st0" d="M398.66,100.97c0-1.04-0.22-1.78-0.65-2.23s-1.06-0.67-1.88-0.67s-1.49,0.16-1.99,0.49s-0.76,0.84-0.76,1.55
		h-2.09c0-1.76,0.94-2.85,2.83-3.26c0.58-0.13,1.2-0.19,1.87-0.19c1.42,0,2.54,0.36,3.34,1.08c0.8,0.72,1.2,1.82,1.2,3.29v7.39
		h-1.63l-0.19-1.92c-0.7,1.46-1.98,2.18-3.82,2.18c-1.23,0-2.22-0.34-2.96-1.03c-0.74-0.69-1.12-1.54-1.12-2.57
		c0-1.02,0.41-1.82,1.24-2.4c0.82-0.58,1.85-0.86,3.08-0.86c1.23,0,2.41,0.21,3.53,0.62V100.97z M398.66,103.64
		c-1.14-0.32-2.13-0.48-2.98-0.48s-1.54,0.15-2.06,0.46c-0.53,0.3-0.79,0.78-0.79,1.44c0,1.44,0.82,2.16,2.45,2.16
		c0.93,0,1.72-0.33,2.39-1C398.33,105.55,398.66,104.69,398.66,103.64z"/>
	<path class="st0" d="M404.99,92.07h1.9v16.34h-1.9V92.07z"/>
</g>
</svg>
