<?xml version="1.0" encoding="UTF-8"?>
<svg width="1550px" height="400px" viewBox="0 0 1550 400" version="1.1" xmlns="http://www.w3.org/2000/svg" xmlns:xlink="http://www.w3.org/1999/xlink">
    <!-- Generator: Sketch 51.3 (57544) - http://www.bohemiancoding.com/sketch -->
    <title>logo</title>
    <desc>Created with Sketch.</desc>
    <defs>
        <path d="M274.514,143.021 C288.438,143.021 299.726,154.178 299.726,167.94 C299.726,181.703 288.438,192.86 274.514,192.86 C260.591,192.86 249.303,181.703 249.303,167.94 C249.303,167.61 249.315,167.282 249.328,166.955 L211.838,158.191 L213.189,183.77 C217.321,185.923 220.147,190.238 220.147,195.221 C220.147,202.353 214.365,208.134 207.233,208.134 C200.101,208.134 194.32,202.353 194.32,195.221 C194.32,190.857 196.49,187.008 199.803,184.67 L198.236,155.013 L183.78,151.634 C178.106,163.669 166.852,172.553 153.353,174.949 L156.709,237.516 C169.037,239.146 178.548,249.575 178.548,262.206 C178.548,275.969 167.261,287.126 153.337,287.126 C139.413,287.126 128.126,275.969 128.126,262.206 C128.126,251.943 134.405,243.132 143.371,239.313 L141.432,203.167 L115.013,213.906 C114.087,220.128 108.737,224.906 102.257,224.906 C95.125,224.906 89.344,219.124 89.344,211.992 C89.344,204.86 95.125,199.079 102.257,199.079 C105.083,199.079 107.689,199.997 109.816,201.537 L140.672,188.995 L139.93,175.151 C128.138,173.429 117.953,166.773 111.522,157.352 L50.423,186.481 C50.423,186.482 50.423,186.483 50.423,186.484 C50.423,200.247 39.135,211.404 25.211,211.404 C11.287,211.404 0,200.247 0,186.484 C0,172.722 11.287,161.565 25.211,161.565 C34.282,161.565 42.231,166.302 46.672,173.407 L105.837,145.2 C104.821,141.595 104.277,137.792 104.277,133.861 C104.277,125.024 107.031,116.835 111.717,110.088 L90.727,86.344 L43.216,96.496 C41.554,101.707 36.677,105.483 30.915,105.483 C23.783,105.483 18.001,99.701 18.001,92.569 C18.001,85.437 23.783,79.656 30.915,79.656 C34.488,79.656 37.72,81.107 40.059,83.452 L80.528,74.805 L68.147,60.799 C64.777,62.45 60.982,63.383 56.966,63.383 C43.042,63.383 31.754,52.226 31.754,38.463 C31.754,24.701 43.042,13.544 56.966,13.544 C70.889,13.544 82.177,24.701 82.177,38.463 C82.177,43.415 80.71,48.026 78.19,51.905 L102.897,79.854 L111.596,55.486 C109.922,53.309 108.915,50.59 108.915,47.631 C108.915,40.499 114.697,34.718 121.829,34.718 C128.961,34.718 134.742,40.499 134.742,47.631 C134.742,53.983 130.152,59.252 124.111,60.331 L113.043,91.333 L121.061,100.403 C128.021,95.204 136.658,92.125 146.013,92.125 C152.799,92.125 159.201,93.755 164.864,96.628 L195.754,43.125 C190.831,38.577 187.75,32.106 187.75,24.92 C187.75,11.157 199.037,0 212.961,0 C226.885,0 238.172,11.157 238.172,24.92 C238.172,38.683 226.885,49.839 212.961,49.839 C211.151,49.839 209.388,49.647 207.686,49.289 L193.274,74.252 L217.643,82.951 C219.976,80.641 223.184,79.211 226.727,79.211 C233.859,79.211 239.64,84.993 239.64,92.125 C239.64,99.257 233.859,105.039 226.727,105.039 C220.963,105.039 216.084,101.26 214.424,96.045 L186.455,86.062 L175.757,104.592 C183.171,112.125 187.75,122.457 187.75,133.861 C187.75,135.505 187.644,137.123 187.46,138.717 L253.513,154.156 C258.03,147.445 265.748,143.021 274.514,143.021 Z" id="path-1"></path>
        <path d="M71.738,90.437 C72.438,86.704 73.279,82.419 74.262,77.577 C75.242,72.738 76.294,67.621 77.418,62.228 C78.538,56.835 79.66,51.649 80.784,46.671 L91.303,0 L135.06,0 L148.314,57.25 C149.155,60.568 149.891,64.095 150.523,67.828 C151.154,71.562 151.713,75.227 152.206,78.822 C152.696,82.419 153.152,85.874 153.573,89.193 C153.994,92.512 154.342,95.487 154.625,98.112 L155.677,98.112 C155.815,95.763 156.131,92.79 156.623,89.193 C157.114,85.599 157.676,81.901 158.306,78.096 C158.938,74.294 159.569,70.628 160.2,67.102 C160.831,63.576 161.426,60.707 161.988,58.494 L169.141,26.965 L157.57,26.965 L157.57,0 L217.737,0 L217.737,26.965 L206.167,26.965 L174.821,144.991 L124.962,144.991 L112.34,95.623 C111.919,93.828 111.426,91.786 110.867,89.504 C110.305,87.223 109.815,84.909 109.395,82.556 C108.974,80.206 108.553,77.924 108.132,75.71 C107.712,73.5 107.36,71.562 107.08,69.902 L106.239,69.902 C105.956,71.426 105.641,73.325 105.292,75.607 C104.941,77.889 104.52,80.241 104.03,82.659 C103.537,85.08 103.047,87.397 102.557,89.608 C102.064,91.822 101.611,93.688 101.19,95.208 L88.357,144.991 L39.551,144.991 L11.781,26.965 L0,26.965 L0,0 L69.424,0 L69.424,26.965 L57.222,26.965 L62.692,57.25 C63.25,59.739 63.882,62.989 64.585,66.998 C65.285,71.011 65.952,75.056 66.583,79.133 C67.215,83.213 67.773,87.015 68.266,90.541 C68.756,94.068 69.141,96.592 69.424,98.112 L70.475,98.112 C70.614,96.732 71.034,94.171 71.738,90.437 Z" id="path-3"></path>
        <polygon id="path-5" points="0 0 126.856 0 126.856 45.841 90.461 45.841 90.461 27.38 56.801 27.38 56.801 56.005 96.772 56.005 96.772 83.593 56.801 83.593 56.801 117.403 90.461 117.403 90.461 98.112 126.856 98.112 126.856 144.991 0 144.991 0 117.403 13.253 117.403 13.253 27.38 0 27.38"></polygon>
        <path d="M72.579,118.025 C77.065,118.025 81.026,116.47 84.464,113.358 C87.899,110.247 89.619,105.858 89.619,100.187 C89.619,94.933 88.146,90.577 85.201,87.119 C82.255,83.664 77.838,81.933 71.947,81.933 L55.749,81.933 L55.749,118.025 L72.579,118.025 Z M55.749,27.38 L55.749,58.494 L68.581,58.494 C74.189,58.494 77.975,57.078 79.941,54.242 C81.904,51.409 82.886,47.5 82.886,42.522 C82.886,37.684 81.588,33.95 78.995,31.321 C76.398,28.696 73.068,27.38 69.002,27.38 L55.749,27.38 Z M0,144.991 L0,118.025 L12.201,118.025 L12.201,26.758 L0,26.758 L0,0 L78.468,0 C95.999,0 108.973,3.079 117.388,9.23 C125.803,15.385 130.01,24.133 130.01,35.47 C130.01,39.897 129.659,43.734 128.959,46.982 C128.255,50.233 127.134,53.137 125.592,55.694 C124.047,58.254 121.944,60.5 119.281,62.435 C116.616,64.373 113.319,66.101 109.394,67.621 C113.18,68.729 116.756,70.214 120.123,72.081 C123.489,73.947 126.434,76.332 128.959,79.237 C131.483,82.141 133.481,85.563 134.954,89.504 C136.426,93.445 137.163,97.905 137.163,102.883 C137.163,117.542 132.709,128.225 123.804,134.931 C114.896,141.639 100.275,144.991 79.941,144.991 L0,144.991 Z" id="path-7"></path>
        <path d="M95.72,70.525 C95.72,64.996 95.122,59.635 93.932,54.45 C92.738,49.264 90.882,44.668 88.356,40.656 C85.832,36.647 82.571,33.432 78.574,31.011 C74.577,28.593 69.771,27.381 64.164,27.381 L56.17,27.381 L56.17,117.404 L64.164,117.404 C69.771,117.404 74.577,116.159 78.574,113.67 C82.571,111.181 85.832,107.83 88.356,103.61 C90.882,99.393 92.738,94.451 93.932,88.779 C95.122,83.11 95.72,77.027 95.72,70.525 Z M0,144.991 L0,117.404 L13.043,117.404 L13.043,27.381 L0,27.381 L0,0 L64.164,0 C76.925,0 88.252,1.835 98.14,5.497 C108.025,9.163 116.365,14.141 123.175,20.432 C129.975,26.726 135.165,34.158 138.745,42.73 C142.315,51.306 144.105,60.569 144.105,70.525 C144.105,94.311 137.165,112.668 123.275,125.597 C109.395,138.529 89.409,144.991 63.322,144.991 L0,144.991 Z" id="path-9"></path>
        <polygon id="path-11" points="0 0 126.86 0 126.86 45.842 90.46 45.842 90.46 27.381 56.8 27.381 56.8 56.005 96.77 56.005 96.77 83.593 56.8 83.593 56.8 117.404 90.46 117.404 90.46 98.113 126.86 98.113 126.86 144.991 0 144.991 0 117.404 13.26 117.404 13.26 27.381 0 27.381"></polygon>
        <path d="M91.52,98.528 C91.8,95.624 92.57,91.822 93.83,87.12 C95.09,82.42 96.84,77.442 99.09,72.185 L118.23,26.966 L107.3,26.966 L107.3,0 L166.83,0 L166.83,26.966 L156.52,26.966 L106.03,144.991 L67.32,144.991 L11.57,26.966 L0,26.966 L0,0 L77.63,0 L77.63,26.966 L66.06,26.966 L83.94,73.429 C85.63,78.547 87.06,83.282 88.26,87.638 C89.45,91.994 90.18,95.624 90.47,98.528 L91.52,98.528 Z" id="path-13"></path>
        <path d="M48.086,61.213 L69.225,61.213 L58.575,26.418 L48.086,61.213 Z M127.962,112.6 L63.255,112.6 L63.255,91.498 L78.584,91.498 L75.195,80.544 L42.116,80.544 L38.727,91.498 L51.314,91.498 L51.314,112.6 L0,112.6 L0,91.498 L10.972,91.498 L32.756,20.78 L26.141,20.78 L26.141,0 L88.105,0 L116.666,91.498 L127.962,91.498 L127.962,112.6 Z" id="path-15"></path>
        <path d="M42.115,20.941 L42.115,48.971 L49.377,48.971 C54.109,48.971 57.929,47.817 60.833,45.507 C63.738,43.199 65.19,39.896 65.19,35.6 C65.19,30.767 63.872,27.118 61.237,24.646 C58.6,22.177 54.916,20.941 50.184,20.941 L42.115,20.941 Z M0,0 L52.281,0 C61.641,0 69.225,0.94 75.034,2.818 C80.843,4.699 85.361,7.224 88.588,10.39 C91.815,13.558 93.994,17.211 95.124,21.344 C96.253,25.479 96.818,29.856 96.818,34.473 C96.818,39.844 95.688,44.516 93.429,48.487 C91.17,52.462 88.104,55.764 84.231,58.394 C80.359,61.027 75.866,63.013 70.757,64.354 C65.647,65.698 60.188,66.368 54.379,66.368 L42.115,66.368 L42.115,91.337 L51.958,91.337 L51.958,112.6 L0,112.6 L0,91.337 L9.036,91.337 L9.036,21.102 L0,21.102 L0,0 Z" id="path-17"></path>
        <path d="M42.116,20.941 L42.116,48.971 L49.377,48.971 C54.11,48.971 57.93,47.817 60.834,45.507 C63.739,43.199 65.191,39.896 65.191,35.6 C65.191,30.767 63.872,27.118 61.238,24.646 C58.6,22.177 54.916,20.941 50.184,20.941 L42.116,20.941 Z M0,0 L52.282,0 C61.641,0 69.225,0.94 75.034,2.818 C80.843,4.699 85.361,7.224 88.589,10.39 C91.816,13.558 93.994,17.211 95.124,21.344 C96.253,25.479 96.818,29.856 96.818,34.473 C96.818,39.844 95.689,44.516 93.43,48.487 C91.17,52.462 88.104,55.764 84.232,58.394 C80.359,61.027 75.866,63.013 70.758,64.354 C65.647,65.698 60.188,66.368 54.379,66.368 L42.116,66.368 L42.116,91.337 L51.959,91.337 L51.959,112.6 L0,112.6 L0,91.337 L9.036,91.337 L9.036,21.102 L0,21.102 L0,0 Z" id="path-19"></path>
        <path d="M42.278,20.941 L42.278,48.326 L49.539,48.326 C54.272,48.326 58.035,47.226 60.834,45.023 C63.63,42.824 65.029,39.574 65.029,35.278 C65.029,30.445 63.764,26.849 61.237,24.485 C58.709,22.124 55.078,20.941 50.346,20.941 L42.278,20.941 Z M0,0 L52.444,0 C61.803,0 69.387,0.86 75.195,2.577 C81.005,4.296 85.548,6.659 88.831,9.665 C92.111,12.673 94.318,16.188 95.446,20.216 C96.576,24.243 97.141,28.567 97.141,33.183 C97.141,36.3 96.549,39.199 95.366,41.883 C94.181,44.568 92.542,46.904 90.444,48.89 C88.347,50.878 85.871,52.542 83.022,53.884 C80.17,55.227 77.076,56.114 73.743,56.542 C76.539,56.972 79.202,57.858 81.731,59.199 C84.257,60.544 86.491,62.235 88.428,64.274 C90.364,66.315 91.922,68.623 93.108,71.201 C94.289,73.778 94.882,76.516 94.882,79.416 C94.882,82.854 95.15,85.538 95.689,87.471 C96.226,89.403 97.247,90.37 98.755,90.37 C101.229,90.37 102.466,88.653 102.466,85.216 L102.466,79.899 L113.278,79.899 L113.278,88.76 C113.278,92.09 112.9,95.311 112.148,98.425 C111.394,101.541 110.104,104.279 108.276,106.641 C106.444,109.004 104.025,110.909 101.014,112.359 C98.001,113.808 94.236,114.533 89.719,114.533 C79.069,114.533 71.187,111.903 66.078,106.641 C60.968,101.38 58.414,94.022 58.414,84.571 C58.414,80.922 58.252,77.914 57.93,75.55 C57.607,73.189 56.881,71.337 55.751,69.992 C54.622,68.651 52.981,67.712 50.829,67.174 C48.677,66.638 45.827,66.368 42.278,66.368 L42.278,91.337 L52.12,91.337 L52.12,112.6 L0,112.6 L0,91.337 L9.036,91.337 L9.036,21.102 L0,21.102 L0,0 Z" id="path-21"></path>
        <polygon id="path-23" points="0 0 97.303 0 97.303 35.6 69.387 35.6 69.387 21.264 43.568 21.264 43.568 43.493 74.227 43.493 74.227 64.918 43.568 64.918 43.568 91.176 69.387 91.176 69.387 76.194 97.303 76.194 97.303 112.6 0 112.6 0 91.176 10.166 91.176 10.166 21.264 0 21.264"></polygon>
        <polygon id="path-25" points="123.604 20.78 112.955 20.78 112.955 112.6 78.262 112.6 37.113 51.225 37.113 91.82 49.539 91.82 49.539 112.6 0 112.6 0 91.82 9.52 91.82 9.52 20.78 0.161 20.78 0.161 0 46.472 0 86.168 59.119 86.168 20.78 75.034 20.78 75.034 0 123.604 0"></polygon>
        <polygon id="path-27" points="108.277 0 108.277 41.883 84.557 41.883 84.557 21.264 70.997 21.264 70.997 91.176 84.397 91.176 84.397 112.6 24.367 112.6 24.367 91.176 37.597 91.176 37.597 21.264 23.717 21.264 23.717 41.883 0 41.883 0 0"></polygon>
        <polygon id="path-29" points="0 0 53.57 0 53.57 21.264 43.57 21.264 43.57 91.176 53.57 91.176 53.57 112.6 0 112.6 0 91.176 10.17 91.176 10.17 21.264 0 21.264"></polygon>
        <path d="M105.86,94.399 C103.06,97.407 99.94,100.278 96.5,103.017 C93.05,105.755 89.29,108.171 85.2,110.266 C81.11,112.36 76.7,114.026 71.97,115.259 C67.24,116.492 62.23,117.112 56.96,117.112 C48.36,117.112 40.56,115.795 33.57,113.165 C26.57,110.534 20.6,106.722 15.66,101.728 C10.71,96.734 6.86,90.668 4.12,83.525 C1.37,76.384 0,68.302 0,59.281 C0,50.046 1.56,41.75 4.68,34.393 C7.8,27.038 11.78,20.809 16.62,15.706 C21.46,10.607 26.76,6.713 32.52,4.028 C38.27,1.344 43.79,0 49.06,0 C53.04,0 56.51,0.484 59.47,1.45 C62.42,2.416 64.92,3.519 66.97,4.752 C69.01,5.989 70.6,7.224 71.73,8.457 C72.86,9.694 73.59,10.527 73.91,10.954 L77.62,1.934 L102.95,1.934 L102.95,47.683 L74.07,47.683 C73.96,45.105 73.53,42.583 72.78,40.112 C72.02,37.642 70.98,35.468 69.63,33.587 C68.29,31.709 66.57,30.204 64.47,29.076 C62.37,27.95 59.87,27.385 56.96,27.385 C54.06,27.385 51.42,28.219 49.06,29.882 C46.69,31.548 44.67,33.829 43.01,36.729 C41.34,39.628 40.05,43.011 39.13,46.877 C38.22,50.743 37.76,54.879 37.76,59.281 C37.76,63.255 38.27,67.069 39.3,70.718 C40.32,74.37 41.82,77.592 43.81,80.384 C45.8,83.177 48.25,85.406 51.16,87.069 C54.06,88.735 57.45,89.566 61.32,89.566 C64.66,89.566 67.83,88.816 70.84,87.311 C73.85,85.808 76.49,84.116 78.75,82.237 C81.01,80.359 82.86,78.586 84.32,76.92 C85.77,75.256 86.66,74.209 86.98,73.779 L105.86,94.399 Z" id="path-31"></path>
        <polygon id="path-33" points="0 0 97.3 0 97.3 35.6 69.39 35.6 69.39 21.264 43.57 21.264 43.57 43.493 74.23 43.493 74.23 64.918 43.57 64.918 43.57 91.176 69.39 91.176 69.39 76.194 97.3 76.194 97.3 112.6 0 112.6 0 91.176 10.17 91.176 10.17 21.264 0 21.264"></polygon>
    </defs>
    <g id="logo" stroke="none" stroke-width="1" fill="none" fill-rule="evenodd">
        <rect fill="#FFFFFF" x="0" y="0" width="1550" height="400"></rect>
        <g id="Group-3" transform="translate(93.000000, 57.000000)">
            <mask id="mask-2" fill="white">
                <use xlink:href="#path-1"></use>
            </mask>
            <g id="Clip-2"></g>
            <polygon id="Fill-1" fill="#115F88" mask="url(#mask-2)" points="-0.06 287.2 299.82 287.2 299.82 -0.08 -0.06 -0.08"></polygon>
        </g>
        <path d="M367.514,200.021 C358.748,200.021 351.03,204.445 346.513,211.156 L280.46,195.717 C280.644,194.123 280.75,192.505 280.75,190.861 C280.75,179.457 276.171,169.125 268.757,161.592 L279.455,143.062 L307.424,153.045 C309.084,158.26 313.963,162.039 319.727,162.039 C326.859,162.039 332.64,156.257 332.64,149.125 C332.64,141.993 326.859,136.211 319.727,136.211 C316.184,136.211 312.976,137.641 310.643,139.951 L286.274,131.252 L300.686,106.289 C302.388,106.647 304.151,106.839 305.961,106.839 C319.885,106.839 331.172,95.683 331.172,81.92 C331.172,68.157 319.885,57 305.961,57 C292.037,57 280.75,68.157 280.75,81.92 C280.75,89.106 283.831,95.577 288.754,100.125 L257.864,153.628 C252.201,150.755 245.799,149.125 239.013,149.125 C229.658,149.125 221.021,152.204 214.061,157.403 L206.043,148.333 L217.111,117.331 C223.152,116.252 227.742,110.983 227.742,104.631 C227.742,97.499 221.961,91.718 214.829,91.718 C207.697,91.718 201.915,97.499 201.915,104.631 C201.915,107.59 202.922,110.309 204.596,112.486 L195.897,136.854 L171.19,108.905 C173.71,105.026 175.177,100.415 175.177,95.463 C175.177,81.701 163.889,70.544 149.966,70.544 C136.042,70.544 124.754,81.701 124.754,95.463 C124.754,109.226 136.042,120.383 149.966,120.383 C153.982,120.383 157.777,119.45 161.147,117.799 L173.528,131.805 L133.059,140.452 C130.72,138.107 127.488,136.656 123.915,136.656 C116.783,136.656 111.001,142.437 111.001,149.569 C111.001,156.701 116.783,162.483 123.915,162.483 C129.677,162.483 134.554,158.707 136.216,153.496 L183.727,143.344 L204.717,167.088 C200.031,173.835 197.277,182.024 197.277,190.861 C197.277,194.792 197.821,198.595 198.837,202.2 L139.672,230.407 C135.231,223.302 127.282,218.565 118.211,218.565 C104.287,218.565 93,229.722 93,243.484 C93,257.247 104.287,268.404 118.211,268.404 C132.135,268.404 143.423,257.247 143.423,243.484 C143.423,243.483 143.423,243.482 143.423,243.481 L204.522,214.352 C210.953,223.773 221.138,230.429 232.93,232.151 L233.672,245.995 L202.816,258.537 C200.689,256.997 198.083,256.079 195.257,256.079 C188.125,256.079 182.344,261.86 182.344,268.992 C182.344,276.124 188.125,281.906 195.257,281.906 C201.737,281.906 207.087,277.128 208.013,270.906 L234.432,260.167 L236.371,296.313 C227.405,300.132 221.126,308.943 221.126,319.206 C221.126,332.969 232.413,344.126 246.337,344.126 C260.261,344.126 271.548,332.969 271.548,319.206 C271.548,306.575 262.037,296.146 249.709,294.516 L246.353,231.949 C259.852,229.553 271.106,220.669 276.78,208.634 L291.236,212.013 L292.803,241.67 C289.49,244.008 287.32,247.857 287.32,252.221 C287.32,259.353 293.101,265.134 300.233,265.134 C307.365,265.134 313.147,259.353 313.147,252.221 C313.147,247.238 310.321,242.923 306.189,240.77 L304.838,215.191 L342.328,223.955 C342.315,224.282 342.303,224.61 342.303,224.94 C342.303,238.703 353.591,249.86 367.514,249.86 C381.438,249.86 392.726,238.703 392.726,224.94 C392.726,211.178 381.438,200.021 367.514,200.021 Z" id="Stroke-4" stroke="#FFFFFE"></path>
        <g id="Group-7" transform="translate(429.000000, 56.000000)">
            <mask id="mask-4" fill="white">
                <use xlink:href="#path-3"></use>
            </mask>
            <g id="Clip-6"></g>
            <polygon id="Fill-5" fill="#115F88" mask="url(#mask-4)" points="-0.06 145.04 217.74 145.04 217.74 -0.04 -0.06 -0.04"></polygon>
        </g>
        <path d="M499.475,154.112 C499.614,152.732 500.034,150.171 500.738,146.437 C501.438,142.704 502.279,138.419 503.262,133.577 C504.242,128.738 505.294,123.621 506.418,118.228 C507.538,112.835 508.66,107.649 509.784,102.671 L520.303,56 L564.06,56 L577.314,113.25 C578.155,116.568 578.891,120.095 579.523,123.828 C580.154,127.562 580.713,131.227 581.206,134.822 C581.696,138.419 582.152,141.874 582.573,145.193 C582.994,148.512 583.342,151.487 583.625,154.112 L584.677,154.112 C584.815,151.763 585.131,148.79 585.623,145.193 C586.114,141.599 586.676,137.901 587.306,134.096 C587.938,130.294 588.569,126.628 589.2,123.102 C589.831,119.576 590.426,116.707 590.988,114.494 L598.141,82.965 L586.57,82.965 L586.57,56 L646.737,56 L646.737,82.965 L635.167,82.965 L603.821,200.991 L553.962,200.991 L541.34,151.623 C540.919,149.828 540.426,147.786 539.867,145.504 C539.305,143.223 538.815,140.909 538.395,138.556 C537.974,136.206 537.553,133.924 537.132,131.71 C536.712,129.5 536.36,127.562 536.08,125.902 L535.239,125.902 C534.956,127.426 534.641,129.325 534.292,131.607 C533.941,133.889 533.52,136.241 533.03,138.659 C532.537,141.08 532.047,143.397 531.557,145.608 C531.064,147.822 530.611,149.688 530.19,151.208 L517.357,200.991 L468.551,200.991 L440.781,82.965 L429,82.965 L429,56 L498.424,56 L498.424,82.965 L486.222,82.965 L491.692,113.25 C492.25,115.739 492.882,118.989 493.585,122.998 C494.285,127.011 494.952,131.056 495.583,135.133 C496.215,139.213 496.773,143.015 497.266,146.541 C497.756,150.068 498.141,152.592 498.424,154.112 L499.475,154.112 Z" id="Stroke-8" stroke="#FFFFFE"></path>
        <g id="Group-11" transform="translate(650.000000, 56.000000)">
            <mask id="mask-6" fill="white">
                <use xlink:href="#path-5"></use>
            </mask>
            <g id="Clip-10"></g>
            <polygon id="Fill-9" fill="#115F88" mask="url(#mask-6)" points="-0.02 145.04 126.94 145.04 126.94 -0.04 -0.02 -0.04"></polygon>
        </g>
        <polygon id="Stroke-12" stroke="#FFFFFE" points="650 56 776.856 56 776.856 101.841 740.461 101.841 740.461 83.38 706.801 83.38 706.801 112.005 746.772 112.005 746.772 139.593 706.801 139.593 706.801 173.403 740.461 173.403 740.461 154.112 776.856 154.112 776.856 200.991 650 200.991 650 173.403 663.253 173.403 663.253 83.38 650 83.38"></polygon>
        <g id="Group-15" transform="translate(788.000000, 56.000000)">
            <mask id="mask-8" fill="white">
                <use xlink:href="#path-7"></use>
            </mask>
            <g id="Clip-14"></g>
            <polygon id="Fill-13" fill="#115F88" mask="url(#mask-8)" points="-0.02 145.04 137.26 145.04 137.26 -0.04 -0.02 -0.04"></polygon>
        </g>
        <path d="M860.579,174.025 C865.065,174.025 869.026,172.47 872.464,169.358 C875.899,166.247 877.619,161.858 877.619,156.187 C877.619,150.933 876.146,146.577 873.201,143.119 C870.255,139.664 865.838,137.933 859.947,137.933 L843.749,137.933 L843.749,174.025 L860.579,174.025 Z M843.749,83.38 L843.749,114.494 L856.581,114.494 C862.189,114.494 865.975,113.078 867.941,110.242 C869.904,107.409 870.886,103.5 870.886,98.522 C870.886,93.684 869.588,89.95 866.995,87.321 C864.398,84.696 861.068,83.38 857.002,83.38 L843.749,83.38 Z M788,200.991 L788,174.025 L800.201,174.025 L800.201,82.758 L788,82.758 L788,56 L866.468,56 C883.999,56 896.973,59.079 905.388,65.23 C913.803,71.385 918.01,80.133 918.01,91.47 C918.01,95.897 917.659,99.734 916.959,102.982 C916.255,106.233 915.134,109.137 913.592,111.694 C912.047,114.254 909.944,116.5 907.281,118.435 C904.616,120.373 901.319,122.101 897.394,123.621 C901.18,124.729 904.756,126.214 908.123,128.081 C911.489,129.947 914.434,132.332 916.959,135.237 C919.483,138.141 921.481,141.563 922.954,145.504 C924.426,149.445 925.163,153.905 925.163,158.883 C925.163,173.542 920.709,184.225 911.804,190.931 C902.896,197.639 888.275,200.991 867.941,200.991 L788,200.991 Z" id="Stroke-16" stroke="#FFFFFE"></path>
        <g id="Group-19" transform="translate(987.000000, 56.000000)">
            <mask id="mask-10" fill="white">
                <use xlink:href="#path-9"></use>
            </mask>
            <g id="Clip-18"></g>
            <polygon id="Fill-17" fill="#115F88" mask="url(#mask-10)" points="-0.06 145.04 144.18 145.04 144.18 -0.04 -0.06 -0.04"></polygon>
        </g>
        <path d="M1082.72,126.525 C1082.72,120.996 1082.122,115.635 1080.932,110.45 C1079.738,105.264 1077.882,100.668 1075.356,96.656 C1072.832,92.647 1069.571,89.432 1065.574,87.011 C1061.577,84.593 1056.771,83.381 1051.164,83.381 L1043.17,83.381 L1043.17,173.404 L1051.164,173.404 C1056.771,173.404 1061.577,172.159 1065.574,169.67 C1069.571,167.181 1072.832,163.83 1075.356,159.61 C1077.882,155.393 1079.738,150.451 1080.932,144.779 C1082.122,139.11 1082.72,133.027 1082.72,126.525 Z M987,200.991 L987,173.404 L1000.043,173.404 L1000.043,83.381 L987,83.381 L987,56 L1051.164,56 C1063.925,56 1075.252,57.835 1085.14,61.497 C1095.025,65.163 1103.365,70.141 1110.175,76.432 C1116.975,82.726 1122.165,90.158 1125.745,98.73 C1129.315,107.306 1131.105,116.569 1131.105,126.525 C1131.105,150.311 1124.165,168.668 1110.275,181.597 C1096.395,194.529 1076.409,200.991 1050.322,200.991 L987,200.991 Z" id="Stroke-20" stroke="#FFFFFE"></path>
        <g id="Group-23" transform="translate(1139.000000, 56.000000)">
            <mask id="mask-12" fill="white">
                <use xlink:href="#path-11"></use>
            </mask>
            <g id="Clip-22"></g>
            <polygon id="Fill-21" fill="#115F88" mask="url(#mask-12)" points="-0.02 145.04 126.94 145.04 126.94 -0.04 -0.02 -0.04"></polygon>
        </g>
        <polygon id="Stroke-24" stroke="#FFFFFE" points="1139 56 1265.86 56 1265.86 101.842 1229.46 101.842 1229.46 83.381 1195.8 83.381 1195.8 112.005 1235.77 112.005 1235.77 139.593 1195.8 139.593 1195.8 173.404 1229.46 173.404 1229.46 154.113 1265.86 154.113 1265.86 200.991 1139 200.991 1139 173.404 1152.26 173.404 1152.26 83.381 1139 83.381"></polygon>
        <g id="Group-27" transform="translate(1269.000000, 56.000000)">
            <mask id="mask-14" fill="white">
                <use xlink:href="#path-13"></use>
            </mask>
            <g id="Clip-26"></g>
            <polygon id="Fill-25" fill="#115F88" mask="url(#mask-14)" points="-0.06 145.04 166.86 145.04 166.86 -0.04 -0.06 -0.04"></polygon>
        </g>
        <path d="M1360.52,154.528 C1360.8,151.624 1361.57,147.822 1362.83,143.12 C1364.09,138.42 1365.84,133.442 1368.09,128.185 L1387.23,82.966 L1376.3,82.966 L1376.3,56 L1435.83,56 L1435.83,82.966 L1425.52,82.966 L1375.03,200.991 L1336.32,200.991 L1280.57,82.966 L1269,82.966 L1269,56 L1346.63,56 L1346.63,82.966 L1335.06,82.966 L1352.94,129.429 C1354.63,134.547 1356.06,139.282 1357.26,143.638 C1358.45,147.994 1359.18,151.624 1359.47,154.528 L1360.52,154.528 Z" id="Stroke-28" stroke="#FFFFFE"></path>
        <g id="Group-31" transform="translate(379.000000, 228.000000)">
            <mask id="mask-16" fill="white">
                <use xlink:href="#path-15"></use>
            </mask>
            <g id="Clip-30"></g>
            <polygon id="Fill-29" fill="#115F88" mask="url(#mask-16)" points="-0.1 112.6 128.06 112.6 128.06 -0.08 -0.1 -0.08"></polygon>
        </g>
        <path d="M427.086,289.213 L448.225,289.213 L437.575,254.418 L427.086,289.213 Z M506.962,340.6 L442.255,340.6 L442.255,319.498 L457.584,319.498 L454.195,308.544 L421.116,308.544 L417.727,319.498 L430.314,319.498 L430.314,340.6 L379,340.6 L379,319.498 L389.972,319.498 L411.756,248.78 L405.141,248.78 L405.141,228 L467.105,228 L495.666,319.498 L506.962,319.498 L506.962,340.6 Z" id="Stroke-32" stroke="#FFFFFE"></path>
        <g id="Group-35" transform="translate(513.000000, 228.000000)">
            <mask id="mask-18" fill="white">
                <use xlink:href="#path-17"></use>
            </mask>
            <g id="Clip-34"></g>
            <polygon id="Fill-33" fill="#115F88" mask="url(#mask-18)" points="-0.06 112.6 96.9 112.6 96.9 -0.08 -0.06 -0.08"></polygon>
        </g>
        <path d="M555.115,248.941 L555.115,276.971 L562.377,276.971 C567.109,276.971 570.929,275.817 573.833,273.507 C576.738,271.199 578.19,267.896 578.19,263.6 C578.19,258.767 576.872,255.118 574.237,252.646 C571.6,250.177 567.916,248.941 563.184,248.941 L555.115,248.941 Z M513,228 L565.281,228 C574.641,228 582.225,228.94 588.034,230.818 C593.843,232.699 598.361,235.224 601.588,238.39 C604.815,241.558 606.994,245.211 608.124,249.344 C609.253,253.479 609.818,257.856 609.818,262.473 C609.818,267.844 608.688,272.516 606.429,276.487 C604.17,280.462 601.104,283.764 597.231,286.394 C593.359,289.027 588.866,291.013 583.757,292.354 C578.647,293.698 573.188,294.368 567.379,294.368 L555.115,294.368 L555.115,319.337 L564.958,319.337 L564.958,340.6 L513,340.6 L513,319.337 L522.036,319.337 L522.036,249.102 L513,249.102 L513,228 Z" id="Stroke-36" stroke="#FFFFFE"></path>
        <g id="Group-39" transform="translate(616.000000, 228.000000)">
            <mask id="mask-20" fill="white">
                <use xlink:href="#path-19"></use>
            </mask>
            <g id="Clip-38"></g>
            <polygon id="Fill-37" fill="#115F88" mask="url(#mask-20)" points="-0.1 112.6 96.86 112.6 96.86 -0.08 -0.1 -0.08"></polygon>
        </g>
        <path d="M658.116,248.941 L658.116,276.971 L665.377,276.971 C670.11,276.971 673.93,275.817 676.834,273.507 C679.739,271.199 681.191,267.896 681.191,263.6 C681.191,258.767 679.872,255.118 677.238,252.646 C674.6,250.177 670.916,248.941 666.184,248.941 L658.116,248.941 Z M616,228 L668.282,228 C677.641,228 685.225,228.94 691.034,230.818 C696.843,232.699 701.361,235.224 704.589,238.39 C707.816,241.558 709.994,245.211 711.124,249.344 C712.253,253.479 712.818,257.856 712.818,262.473 C712.818,267.844 711.689,272.516 709.43,276.487 C707.17,280.462 704.104,283.764 700.232,286.394 C696.359,289.027 691.866,291.013 686.758,292.354 C681.647,293.698 676.188,294.368 670.379,294.368 L658.116,294.368 L658.116,319.337 L667.959,319.337 L667.959,340.6 L616,340.6 L616,319.337 L625.036,319.337 L625.036,249.102 L616,249.102 L616,228 Z" id="Stroke-40" stroke="#FFFFFE"></path>
        <g id="Group-43" transform="translate(719.000000, 228.000000)">
            <mask id="mask-22" fill="white">
                <use xlink:href="#path-21"></use>
            </mask>
            <g id="Clip-42"></g>
            <polygon id="Fill-41" fill="#115F88" mask="url(#mask-22)" points="-0.02 114.64 113.38 114.64 113.38 -0.08 -0.02 -0.08"></polygon>
        </g>
        <path d="M761.278,248.941 L761.278,276.326 L768.539,276.326 C773.272,276.326 777.035,275.226 779.834,273.023 C782.63,270.824 784.029,267.574 784.029,263.278 C784.029,258.445 782.764,254.849 780.237,252.485 C777.709,250.124 774.078,248.941 769.346,248.941 L761.278,248.941 Z M719,228 L771.444,228 C780.803,228 788.387,228.86 794.195,230.577 C800.005,232.296 804.548,234.659 807.831,237.665 C811.111,240.673 813.318,244.188 814.446,248.216 C815.576,252.243 816.141,256.567 816.141,261.183 C816.141,264.3 815.549,267.199 814.366,269.883 C813.181,272.568 811.542,274.904 809.444,276.89 C807.347,278.878 804.871,280.542 802.022,281.884 C799.17,283.227 796.076,284.114 792.743,284.542 C795.539,284.972 798.202,285.858 800.731,287.199 C803.257,288.544 805.491,290.235 807.428,292.274 C809.364,294.315 810.922,296.623 812.108,299.201 C813.289,301.778 813.882,304.516 813.882,307.416 C813.882,310.854 814.15,313.538 814.689,315.471 C815.226,317.403 816.247,318.37 817.755,318.37 C820.229,318.37 821.466,316.653 821.466,313.216 L821.466,307.899 L832.278,307.899 L832.278,316.76 C832.278,320.09 831.9,323.311 831.148,326.425 C830.394,329.541 829.104,332.279 827.276,334.641 C825.444,337.004 823.025,338.909 820.014,340.359 C817.001,341.808 813.236,342.533 808.719,342.533 C798.069,342.533 790.187,339.903 785.078,334.641 C779.968,329.38 777.414,322.022 777.414,312.571 C777.414,308.922 777.252,305.914 776.93,303.55 C776.607,301.189 775.881,299.337 774.751,297.992 C773.622,296.651 771.981,295.712 769.829,295.174 C767.677,294.638 764.827,294.368 761.278,294.368 L761.278,319.337 L771.12,319.337 L771.12,340.6 L719,340.6 L719,319.337 L728.036,319.337 L728.036,249.102 L719,249.102 L719,228 Z" id="Stroke-44" stroke="#FFFFFE"></path>
        <g id="Group-47" transform="translate(838.000000, 228.000000)">
            <mask id="mask-24" fill="white">
                <use xlink:href="#path-23"></use>
            </mask>
            <g id="Clip-46"></g>
            <polygon id="Fill-45" fill="#115F88" mask="url(#mask-24)" points="-0.1 112.6 97.34 112.6 97.34 -0.08 -0.1 -0.08"></polygon>
        </g>
        <polygon id="Stroke-48" stroke="#FFFFFE" points="838 228 935.303 228 935.303 263.6 907.387 263.6 907.387 249.264 881.568 249.264 881.568 271.493 912.227 271.493 912.227 292.918 881.568 292.918 881.568 319.176 907.387 319.176 907.387 304.194 935.303 304.194 935.303 340.6 838 340.6 838 319.176 848.166 319.176 848.166 249.264 838 249.264"></polygon>
        <g id="Group-51" transform="translate(943.000000, 228.000000)">
            <mask id="mask-26" fill="white">
                <use xlink:href="#path-25"></use>
            </mask>
            <g id="Clip-50"></g>
            <polygon id="Fill-49" fill="#115F88" mask="url(#mask-26)" points="-0.1 112.6 123.62 112.6 123.62 -0.08 -0.1 -0.08"></polygon>
        </g>
        <polygon id="Stroke-52" stroke="#FFFFFE" points="1066.604 248.78 1055.955 248.78 1055.955 340.6 1021.262 340.6 980.113 279.225 980.113 319.82 992.539 319.82 992.539 340.6 943 340.6 943 319.82 952.52 319.82 952.52 248.78 943.161 248.78 943.161 228 989.472 228 1029.168 287.119 1029.168 248.78 1018.034 248.78 1018.034 228 1066.604 228"></polygon>
        <g id="Group-55" transform="translate(1073.000000, 228.000000)">
            <mask id="mask-28" fill="white">
                <use xlink:href="#path-27"></use>
            </mask>
            <g id="Clip-54"></g>
            <polygon id="Fill-53" fill="#115F88" mask="url(#mask-28)" points="-0.02 112.6 108.34 112.6 108.34 -0.08 -0.02 -0.08"></polygon>
        </g>
        <polygon id="Stroke-56" stroke="#FFFFFE" points="1181.277 228 1181.277 269.883 1157.557 269.883 1157.557 249.264 1143.997 249.264 1143.997 319.176 1157.397 319.176 1157.397 340.6 1097.367 340.6 1097.367 319.176 1110.597 319.176 1110.597 249.264 1096.717 249.264 1096.717 269.883 1073 269.883 1073 228"></polygon>
        <g id="Group-59" transform="translate(1188.000000, 228.000000)">
            <mask id="mask-30" fill="white">
                <use xlink:href="#path-29"></use>
            </mask>
            <g id="Clip-58"></g>
            <polygon id="Fill-57" fill="#115F88" mask="url(#mask-30)" points="-0.06 112.6 53.58 112.6 53.58 -0.08 -0.06 -0.08"></polygon>
        </g>
        <polygon id="Stroke-60" stroke="#FFFFFE" points="1188 228 1241.57 228 1241.57 249.264 1231.57 249.264 1231.57 319.176 1241.57 319.176 1241.57 340.6 1188 340.6 1188 319.176 1198.17 319.176 1198.17 249.264 1188 249.264"></polygon>
        <g id="Group-63" transform="translate(1248.000000, 226.000000)">
            <mask id="mask-32" fill="white">
                <use xlink:href="#path-31"></use>
            </mask>
            <g id="Clip-62"></g>
            <polygon id="Fill-61" fill="#115F88" mask="url(#mask-32)" points="-0.06 117.12 105.9 117.12 105.9 0 -0.06 0"></polygon>
        </g>
        <path d="M1353.86,320.399 C1351.06,323.407 1347.94,326.278 1344.5,329.017 C1341.05,331.755 1337.29,334.171 1333.2,336.266 C1329.11,338.36 1324.7,340.026 1319.97,341.259 C1315.24,342.492 1310.23,343.112 1304.96,343.112 C1296.36,343.112 1288.56,341.795 1281.57,339.165 C1274.57,336.534 1268.6,332.722 1263.66,327.728 C1258.71,322.734 1254.86,316.668 1252.12,309.525 C1249.37,302.384 1248,294.302 1248,285.281 C1248,276.046 1249.56,267.75 1252.68,260.393 C1255.8,253.038 1259.78,246.809 1264.62,241.706 C1269.46,236.607 1274.76,232.713 1280.52,230.028 C1286.27,227.344 1291.79,226 1297.06,226 C1301.04,226 1304.51,226.484 1307.47,227.45 C1310.42,228.416 1312.92,229.519 1314.97,230.752 C1317.01,231.989 1318.6,233.224 1319.73,234.457 C1320.86,235.694 1321.59,236.527 1321.91,236.954 L1325.62,227.934 L1350.95,227.934 L1350.95,273.683 L1322.07,273.683 C1321.96,271.105 1321.53,268.583 1320.78,266.112 C1320.02,263.642 1318.98,261.468 1317.63,259.587 C1316.29,257.709 1314.57,256.204 1312.47,255.076 C1310.37,253.95 1307.87,253.385 1304.96,253.385 C1302.06,253.385 1299.42,254.219 1297.06,255.882 C1294.69,257.548 1292.67,259.829 1291.01,262.729 C1289.34,265.628 1288.05,269.011 1287.13,272.877 C1286.22,276.743 1285.76,280.879 1285.76,285.281 C1285.76,289.255 1286.27,293.069 1287.3,296.718 C1288.32,300.37 1289.82,303.592 1291.81,306.384 C1293.8,309.177 1296.25,311.406 1299.16,313.069 C1302.06,314.735 1305.45,315.566 1309.32,315.566 C1312.66,315.566 1315.83,314.816 1318.84,313.311 C1321.85,311.808 1324.49,310.116 1326.75,308.237 C1329.01,306.359 1330.86,304.586 1332.32,302.92 C1333.77,301.256 1334.66,300.209 1334.98,299.779 L1353.86,320.399 Z" id="Stroke-64" stroke="#FFFFFE"></path>
        <g id="Group-67" transform="translate(1360.000000, 228.000000)">
            <mask id="mask-34" fill="white">
                <use xlink:href="#path-33"></use>
            </mask>
            <g id="Clip-66"></g>
            <polygon id="Fill-65" fill="#115F88" mask="url(#mask-34)" points="-0.1 112.6 97.34 112.6 97.34 -0.08 -0.1 -0.08"></polygon>
        </g>
        <polygon id="Stroke-68" stroke="#FFFFFE" points="1360 228 1457.3 228 1457.3 263.6 1429.39 263.6 1429.39 249.264 1403.57 249.264 1403.57 271.493 1434.23 271.493 1434.23 292.918 1403.57 292.918 1403.57 319.176 1429.39 319.176 1429.39 304.194 1457.3 304.194 1457.3 340.6 1360 340.6 1360 319.176 1370.17 319.176 1370.17 249.264 1360 249.264"></polygon>
    </g>
</svg>