<?xml version="1.0" encoding="UTF-8" standalone="no"?>
<svg
   xmlns:dc="http://purl.org/dc/elements/1.1/"
   xmlns:cc="http://creativecommons.org/ns#"
   xmlns:rdf="http://www.w3.org/1999/02/22-rdf-syntax-ns#"
   xmlns:svg="http://www.w3.org/2000/svg"
   xmlns="http://www.w3.org/2000/svg"
   viewBox="0 0 1039.52 428.66666"
   height="428.66666"
   width="1039.52"
   xml:space="preserve"
   id="svg2"
   version="1.1"><metadata
     id="metadata8"><rdf:RDF><cc:Work
         rdf:about=""><dc:format>image/svg+xml</dc:format><dc:type
           rdf:resource="http://purl.org/dc/dcmitype/StillImage" /></cc:Work></rdf:RDF></metadata><defs
     id="defs6" /><g
     transform="matrix(1.3333333,0,0,-1.3333333,0,428.66667)"
     id="g10"><g
       transform="scale(0.1)"
       id="g12"><path
         id="path14"
         style="fill:#f36018;fill-opacity:1;fill-rule:nonzero;stroke:none"
         d="m 4209.36,1967.49 c -28.12,24.63 -59.39,78.34 -59.39,131.41 0,46.51 28.11,97.05 62.54,97.05 21.94,0 37.54,-22.05 37.54,-81.57 0,-53.01 -18.82,-106.08 -40.69,-146.89 z M 3327.5,1735.85 c -3.09,-53.01 -6.26,-112.53 -6.26,-165.6 0,-40.75 3.17,-78.28 6.26,-115.82 -84.41,-93.76 -168.89,-143.61 -234.6,-143.61 -84.41,0 -137.55,84.1 -137.55,218.68 0,218.67 131.36,443.86 315.86,443.86 34.43,0 78.16,-18.77 78.16,-68.56 0,-100.33 -100.09,-78.34 -100.09,-115.87 0,-31.02 40.7,-46.57 78.22,-53.08 z M 2029.64,359.711 c -28.1,-140.391 -53.12,-228.352 -112.58,-228.352 -37.48,0 -100.09,43.993 -100.09,181.782 0,159.16 84.48,356.48 209.59,481.41 34.37,37.531 71.89,71.769 115.68,106.078 -46.87,-212.238 -84.47,-403.059 -112.6,-540.918 z M 3565.2,2001.85 c 59.4,394.01 222.1,872.76 281.48,872.76 12.51,0 18.76,-21.99 18.76,-71.84 0,-50.42 -100.07,-644.35 -322.16,-1038.42 0,37.53 9.41,159.16 21.92,237.5 z m 3436.81,0 c 18.77,121.57 43.79,253.62 78.22,375.19 h 134.52 c -53.19,-199.92 -131.42,-428.26 -234.6,-615.91 3.1,71.77 9.36,153.34 21.86,240.72 z m 281.55,872.76 c 12.45,0 18.7,-21.99 18.7,-71.84 0,-21.99 -18.7,-137.74 -56.29,-294.37 h -128.2 c 62.55,209.64 131.36,366.21 165.79,366.21 z m 359.58,-1126.44 c -75.06,0 -168.89,-49.79 -272.07,-171.42 -115.68,-134.58 -225.12,-234.91 -297.09,-234.91 -46.95,0 -84.47,66.03 -93.83,250.46 140.7,187.59 287.74,487.77 394.08,784.74 h 146.96 c 68.8,0 134.53,59.52 134.53,100.34 0,18.7 -15.69,31.02 -50.05,31.02 h -184.56 c 65.71,209.64 109.43,409.55 109.43,556.46 0,103.49 -28.11,150.12 -68.74,150.12 -112.59,0 -334.62,-302.84 -497.31,-706.58 h -350.3 c -68.75,0 -134.45,-59.52 -134.45,-100.27 0,-18.77 15.61,-31.09 50.04,-31.09 h 384.73 c -90.75,-256.15 -153.28,-537.63 -153.28,-806.79 0,-7.37 0.1,-14.7 0.27,-21.99 -138.33,-155.64 -246.96,-228.41 -294.21,-228.41 -21.87,0 -28.12,18.7 -28.12,43.97 0,15.55 3.1,37.54 9.36,59.52 46.87,159.16 125.1,340.94 184.55,462.64 28.13,59.51 43.79,112.53 43.79,143.55 0,56.36 -37.53,84.79 -90.73,84.79 -125.11,0 -350.23,-131.3 -506.61,-309.91 l 71.91,209.64 c 6.25,18.77 9.35,34.3 9.35,47.19 0,37.54 -21.87,53.08 -53.14,53.08 -153.22,0 -303.35,-122.26 -303.35,-172.11 0,-21.99 21.87,-31.02 43.72,-31.02 9.48,0 21.94,3.22 28.19,3.22 9.41,0 12.51,-6.45 12.51,-12.96 0,-9.03 -6.26,-24.57 -12.51,-43.34 l -95.99,-280.47 c -0.29,-0.35 -0.66,-0.66 -0.94,-1.01 -150.06,-175.27 -272,-256.78 -318.95,-256.78 -18.76,0 -25.02,12.89 -25.02,28.44 0,27.8 65.64,215.45 78.22,256.2 6.19,18.77 9.36,34.31 9.36,47.2 0,34.31 -21.94,49.85 -56.24,49.85 -65.78,0 -162.7,-62.74 -197.13,-156.56 -53.14,-137.17 -159.48,-231 -225.13,-231 -81.31,0 -115.74,87.38 -115.74,174.7 0,194.1 162.62,506.6 387.81,506.6 62.56,0 125.11,-21.98 125.11,-84.16 0,-100.21 -96.99,-75 -96.99,-119.04 0,-40.69 68.87,-53 112.59,-53 50.11,0 187.66,31.02 187.66,187.58 0,124.92 -121.94,187.66 -278.33,187.66 -358.75,0 -643.5,-348.47 -659.13,-629.38 -101,-95.53 -202.87,-155.36 -263.47,-155.36 -34.37,0 -56.3,21.99 -56.3,71.78 0,131.42 178.3,300.25 222.09,344.22 18.76,15.55 28.18,40.12 28.18,62.17 0,56.24 -34.44,87.96 -81.31,90.54 -68.88,3.23 -168.96,0 -253.37,22 53.19,81.56 87.57,163.07 87.57,250.39 0,75.06 -50.04,141.02 -137.62,141.02 -125.1,0 -293.99,-134.58 -293.99,-328.68 0,-97.04 37.53,-159.78 125.1,-216.08 -50.04,-65.33 -106.33,-140.4 -150.11,-190.19 -0.38,-0.44 -0.66,-0.84 -1.02,-1.28 -118.39,-133.93 -224.27,-233.63 -296.02,-233.63 -46.81,0 -84.41,66.03 -93.82,250.46 262.71,353.19 550.46,1091.43 550.46,1472.56 0,103.49 -28.12,147.47 -68.81,147.47 -146.97,0 -484.75,-519.51 -631.77,-1107.61 -37.48,6.44 -71.92,6.44 -81.33,6.44 -275.22,0 -581.66,-309.28 -581.66,-619.19 0,-0.27 0.02,-0.51 0.02,-0.77 -82.28,-73.87 -191.23,-154.54 -284.54,-221.14 68.81,240.67 159.48,487.85 281.41,744.05 9.42,15.54 12.58,31.72 12.58,43.98 0,34.31 -28.18,53.07 -65.7,53.07 -65.72,0 -128.27,-37.53 -187.66,-124.85 -25.02,-34.31 -43.79,-81.51 -68.75,-131.36 -140.84,-287.92 -322.16,-528.59 -403.49,-528.59 -28.18,0 -43.78,25.21 -43.78,84.09 0,178.57 150.13,406.97 243.88,600.38 6.26,16.17 9.42,31.71 9.42,44.04 0,40.75 -31.28,59.51 -75.06,59.51 -109.5,0 -187.66,-49.84 -243.95,-90.54 -43.79,-31.72 -62.55,-62.8 -62.55,-84.79 0,-21.99 21.92,-34.25 40.69,-34.25 15.61,0 25.02,6.45 31.27,6.45 9.35,0 12.51,-6.45 12.51,-12.96 0,-5.8 -6.26,-18.76 -15.67,-40.12 -65.65,-144.31 -159.48,-337.71 -159.48,-482.02 0,-131.36 62.56,-199.91 153.23,-199.91 103.3,0 240.85,87.38 372.14,271.74 -31.21,-112.58 -62.55,-234.22 -90.66,-350.04 l -93.83,-68.61 C 1795.11,810.02 1607.46,566.129 1607.46,316.359 1607.46,159.801 1679.43,0 1845.15,0 c 168.89,0 359.65,175.352 419.1,487.852 37.53,197.32 81.31,403.75 134.51,613.318 112.96,80.47 248.58,180.3 350.21,270.64 39.56,-118.66 138.28,-195.57 262.68,-195.57 112.59,0 234.54,62.74 340.87,172.1 34.38,-103.55 96.93,-172.1 190.76,-172.1 103.24,0 247.11,84.09 434.76,306.68 0.63,0.76 1.13,1.44 1.74,2.18 53.01,62.04 123.98,151.53 188.95,238.49 56.3,-21.98 118.78,-37.53 181.4,-43.97 -134.51,-119.04 -178.3,-228.42 -178.3,-303.47 0,-93.83 71.96,-199.91 203.32,-199.91 89.38,0 206.45,49.48 347.99,184.24 37.98,-110.14 136.94,-184.31 249.29,-184.31 87.56,0 175.14,43.98 247.12,124.85 9.34,-75.06 56.28,-124.85 150.11,-124.85 84.26,0 205.6,61.04 335.49,182.12 l -29.11,-85.07 c -6.26,-18.76 -9.35,-34.24 -9.35,-47.26 0,-34.25 21.86,-49.79 53.21,-49.79 65.64,0 168.82,62.81 200.1,159.16 l 46.87,137.81 c 59.46,172.11 344.04,431.54 416.01,431.54 9.34,0 15.6,-6.45 15.6,-18.7 0,-44.04 -103.17,-187.66 -168.89,-419.29 -12.45,-43.35 -18.77,-84.16 -18.77,-118.4 0,-103.5 53.21,-172.12 165.8,-172.12 97.58,0 245.02,81.87 397.7,244.11 26.39,-140.29 93.23,-244.04 205.83,-244.04 106.41,0 247.05,84.09 434.71,306.68 65.64,80.88 109.43,115.19 140.77,115.19 18.7,0 31.21,-12.32 31.21,-37.53 0,-18.83 -9.35,-49.85 -21.86,-80.88 -93.83,-203.19 -275.23,-525.368 -1157.21,-525.368 -65.71,0 -134.46,2.598 -206.43,5.816 -1060.21,50.482 -1782.65,103.562 -2023.51,103.562 -963.3,0 -1200.93,-294.44 -1251.04,-359.769 -25.02,-28.441 -34.37,-59.519 -34.37,-81.511 0,-24.641 9.35,-40.809 31.28,-40.809 12.51,0 28.18,6.5 50.04,21.981 106.33,75.07 400.34,172.117 1078.99,172.117 609.84,0 938.28,-3.168 1945.35,-21.989 h 96.93 c 947.63,0 1498.09,306.68 1663.88,691.67 24.95,56.29 37.53,109.37 37.53,152.71 0,91.24 -50.11,150.06 -153.28,150.06 z m -5779.16,863.66 c 150.13,319.01 262.71,450.37 312.76,450.37 21.87,0 31.28,-21.99 31.28,-59.52 0,-141.08 -153.22,-575.85 -519.18,-823.03 53.2,156.58 115.74,303.48 175.14,432.18 z M 1629.45,954.27 c 21.85,0 40.62,12.261 40.62,27.8 0,12.262 -9.35,25.27 -28.12,40.76 -87.63,65.39 -122,194.1 -122,356.54 0,184.37 46.94,412.71 115.81,641.12 472.17,216.15 772.42,697.49 772.42,985.41 0,115.19 -50.04,206.43 -162.64,206.43 -68.8,0 -162.63,-37.54 -272.06,-144.32 -300.24,-290.52 -497.31,-662.54 -594.24,-1016.43 -53.14,-12.32 -106.34,-15.54 -162.64,-15.54 H 931.965 l 322.175,935.56 c 6.25,18.13 6.25,31.08 6.25,43.34 0,25.27 -6.25,34.31 -40.69,56.29 -134.46,84.73 -403.368,143.62 -553.552,143.62 C 190.816,3214.85 0,2786.6 0,2558.12 c 0,-271.69 156.383,-443.8 390.918,-443.8 159.543,0 222.027,53.08 222.027,93.83 0,28.49 -24.957,49.85 -68.742,49.85 -181.465,0 -344.039,175.27 -344.039,394.02 0,256.83 178.242,453.53 425.359,453.53 112.59,0 240.79,-43.35 375.307,-137.17 L 678.723,2036.04 H 575.414 c -68.742,0 -134.453,-59.52 -134.453,-97.05 0,-18.77 15.605,-31.03 50.039,-31.03 h 143.871 l -218.93,-634.74 c -6.257,-15.54 -9.355,-28.43 -9.355,-40.75 0,-40.76 28.121,-56.3 65.648,-56.3 71.969,0 184.5,62.81 218.934,159.16 l 197.008,572.63 h 237.694 c 75.06,0 150.13,6.45 222.09,21.99 -28.18,-131.36 -40.69,-256.91 -40.69,-372.03 0,-313.13 100.08,-550.58 306.5,-601.131 6.26,-2.519 12.51,-2.519 15.68,-2.519" /></g></g></svg>