<svg id="Layer_1" data-name="Layer 1" xmlns="http://www.w3.org/2000/svg" viewBox="0 0 212 77"><title>logo</title><path d="M.77,9.35A8.28,8.28,0,0,1,9.08.9a8.39,8.39,0,0,1,8.45,8.45V67.24a8.28,8.28,0,0,1-8.45,8.31A8.25,8.25,0,0,1,.77,67.24Z" style="fill:#214184"/><path d="M130,9.35A8.28,8.28,0,0,1,138.34.9a8.39,8.39,0,0,1,8.45,8.45V67.24a8.38,8.38,0,0,1-16.76,0Z" style="fill:#214184"/><path d="M156.14,67.51A6.43,6.43,0,0,1,153,61.7a6.71,6.71,0,0,1,6.79-6.79,7.28,7.28,0,0,1,3.6,1c7.06,4.71,14.4,7.06,21.05,7.06,7.2,0,11.36-3,11.36-7.89v-.28c0-5.68-7.76-7.62-16.34-10.25-10.8-3-22.85-7.48-22.85-21.46v-.28c0-13.85,11.49-22.3,26-22.3a50.27,50.27,0,0,1,23,6,7.11,7.11,0,0,1,4,6.37,6.75,6.75,0,0,1-6.93,6.79,6.58,6.58,0,0,1-3.32-.83c-6-3-12.05-5-17.17-5-6.51,0-10.25,3-10.25,7.2v.28c0,5.4,7.89,7.62,16.48,10.39C199.07,35,211.12,39.81,211.12,53v.28c0,15.37-11.91,23-27.14,23A50,50,0,0,1,156.14,67.51Z" style="fill:#214184"/><path d="M32.59,75.62A8.66,8.66,0,0,1,26,61.38L45.91,37.77l-19-22.69A8.65,8.65,0,1,1,40.14,4L68.53,37.8,39.21,72.55a8.63,8.63,0,0,1-6.62,3.07Z" style="fill:#c6c6db"/><path d="M120,61.38,100.06,37.77l19-22.69A8.65,8.65,0,0,0,105.83,4L88.74,24.32,71.66,4A8.65,8.65,0,1,0,58.4,15.08l19,22.69L57.5,61.38A8.66,8.66,0,1,0,70.73,72.55l18-21.35,18,21.35A8.66,8.66,0,0,0,120,61.38Z" style="fill:#214184"/><rect id="_Slice_" data-name="&lt;Slice&gt;" width="212" height="77" style="fill:none"/></svg>