<?xml version="1.0" encoding="UTF-8" standalone="no"?>
<svg
   xmlns:dc="http://purl.org/dc/elements/1.1/"
   xmlns:cc="http://creativecommons.org/ns#"
   xmlns:rdf="http://www.w3.org/1999/02/22-rdf-syntax-ns#"
   xmlns:svg="http://www.w3.org/2000/svg"
   xmlns="http://www.w3.org/2000/svg"
   viewBox="0 0 242.77333 87.506668"
   height="87.506668"
   width="242.77333"
   xml:space="preserve"
   id="svg2"
   version="1.1"><metadata
     id="metadata8"><rdf:RDF><cc:Work
         rdf:about=""><dc:format>image/svg+xml</dc:format><dc:type
           rdf:resource="http://purl.org/dc/dcmitype/StillImage" /></cc:Work></rdf:RDF></metadata><defs
     id="defs6" /><g
     transform="matrix(1.3333333,0,0,-1.3333333,0,87.506667)"
     id="g10"><g
       transform="scale(0.1)"
       id="g12"><path
         id="path14"
         style="fill:#66cbc4;fill-opacity:1;fill-rule:nonzero;stroke:none"
         d="M 328.137,656.273 C 146.91,656.273 0,509.359 0,328.137 0,146.91 146.91,0 328.137,0 c 181.222,0 328.136,146.91 328.136,328.137 0,181.222 -146.914,328.136 -328.136,328.136 z m 0,-153.675 c 96.199,0 174.461,-78.262 174.461,-174.461 0,-96.199 -78.262,-174.461 -174.461,-174.461 -96.199,0 -174.461,78.262 -174.461,174.461 0,96.199 78.262,174.461 174.461,174.461" /><path
         id="path16"
         style="fill:#bdbcbc;fill-opacity:1;fill-rule:nonzero;stroke:none"
         d="m 1185.08,644.406 c -44.57,0 -80.83,-36.265 -80.83,-80.843 V 311.008 L 885.402,598.371 c -17.058,21.938 -39.976,44.359 -80.609,44.359 h -13.434 c -45.804,0 -81.687,-35.878 -81.687,-81.683 V 93.4453 c 0,-44.582 36.269,-80.8476 80.851,-80.8476 44.575,0 80.836,36.2656 80.836,80.8476 V 357.797 L 1099.44,58.6328 c 17.06,-21.9336 39.97,-44.3515 80.6,-44.3515 h 4.21 c 45.8,0 81.68,35.8789 81.68,81.6835 V 563.563 c 0,44.578 -36.27,80.843 -80.85,80.843" /><path
         id="path18"
         style="fill:#bdbcbc;fill-opacity:1;fill-rule:nonzero;stroke:none"
         d="m 1745.86,166.73 h -249.08 v 89.325 h 207.1 c 41.34,0 74.98,33.254 74.98,74.129 0,41.339 -33.64,74.968 -74.98,74.968 h -207.1 v 85.121 h 244.88 c 41.34,0 74.97,33.254 74.97,74.133 0,41.336 -33.63,74.965 -74.97,74.965 h -325.72 c -45.81,0 -81.69,-35.879 -81.69,-81.683 V 99.3203 c 0,-45.8008 35.88,-81.6836 81.69,-81.6836 h 329.92 c 41.34,0 74.97,33.2539 74.97,74.125 0,41.3363 -33.63,74.9683 -74.97,74.9683" /></g></g></svg>