<svg xmlns="http://www.w3.org/2000/svg" viewBox="0 0 447 178">
    <path d="M3.5 79.3V37.1c9.7-5.6 19.3-11.3 29-16.9v42.2c-9.7 5.7-19.3 11.3-29 16.9z" fill="#e8ba67"></path>
    <path d="M32.5 62.4V20.2c10-5.6 20-11.3 30-16.9v42.2c-10 5.7-20 11.3-30 16.9zm-29 84.4V79.3c9.7-5.6 19.3-11.3 29-16.9v67.5c-9.7 5.7-19.3 11.3-29 16.9z"
          fill="#e85631"></path>
    <path d="M62.5 3.3v42.2c8.8 5.1 13.3 7.6 22.1 12.7 12.3-7 24.6-14.1 36.9-21.1-19.7-11.3-39.3-22.5-59-33.8z"
          fill="#26201f"></path>
    <path d="M84.6 58.2c-8.8 5.1-13.3 7.6-22.1 12.7v42.2c19.7-11.3 39.3-22.5 59-33.8V37.1c-12.3 7-24.6 14.1-36.9 21.1z"
          fill="#e14242"></path>
    <path d="M3.5 146.8c9.8 5.6 19.7 11.3 29.5 16.9 9.8-5.6 19.7-11.3 29.5-16.9-10-5.6-20.1-11.3-30.1-16.9-9.6 5.7-19.2 11.3-28.9 16.9zm59.1 0c9.8 5.6 19.6 11.3 29.5 16.9 9.8-5.6 19.7-11.3 29.5-16.9-10-5.6-20.1-11.3-30.1-16.9-9.6 5.7-19.3 11.3-28.9 16.9z"
          fill="#65ab85"></path>
    <path d="M32.5 130c10 5.6 20.1 11.3 30.1 16.9 9.7-5.6 19.5-11.1 29.2-16.7-9.8-5.7-19.5-11.4-29.3-17.1-10 5.6-20 11.2-30 16.9z"
          fill="#26201f"></path>
    <path d="M163.1 24.8h26c7.2 0 12.8 1.9 16.6 5.8 3.3 3.3 4.9 7.6 4.9 13v.2c0 4.6-1.1 8.4-3.4 11.3-2.3 2.9-5.2 5-8.8 6.4 5.6 8.1 8.4 12.2 13.9 20.4h-14.7c-4.9-7.3-7.3-10.9-12.2-18.2h-9.9v18.2H163c.1-19.1.1-38.1.1-57.1zm25.3 27.7c3.1 0 5.5-.7 7.1-2.2 1.7-1.5 2.5-3.4 2.5-5.9v-.2c0-2.7-.9-4.7-2.6-6.1-1.7-1.4-4.2-2-7.2-2h-12.5v16.4h12.7zm49.7 30.3c-3.3 0-6.3-.5-9.1-1.6s-5.2-2.6-7.2-4.6-3.6-4.4-4.8-7.1c-1.1-2.7-1.7-5.8-1.7-9.2v-.2c0-3.1.5-6 1.6-8.8s2.5-5.2 4.4-7.2c1.9-2.1 4.2-3.7 6.8-4.9s5.5-1.8 8.8-1.8c3.6 0 6.8.7 9.4 2 2.7 1.3 4.9 3.1 6.6 5.3 1.8 2.2 3.1 4.7 3.9 7.6s1.3 5.8 1.3 8.9v1.5c0 .5-.1 1.1-.1 1.7h-30.4c.6 2.8 1.8 5 3.7 6.4s4.2 2.2 7 2.2c2.1 0 3.9-.4 5.5-1.1s3.3-1.8 5-3.4c2.8 2.5 4.2 3.8 7.1 6.3-2.1 2.6-4.6 4.5-7.5 6-2.9 1.3-6.4 2-10.3 2zm8-26.2c-.4-2.8-1.4-5-2.9-6.7-1.6-1.7-3.7-2.6-6.3-2.6s-4.7.8-6.3 2.5-2.6 3.9-3.1 6.8h18.6zm31.4 26c-2.1 0-4-.3-5.8-.9s-3.4-1.4-4.8-2.6-2.4-2.5-3.2-4.2-1.2-3.6-1.2-5.7V69c0-2.4.4-4.4 1.3-6.2.9-1.7 2.1-3.2 3.6-4.3s3.4-2 5.5-2.6 4.5-.9 7.1-.9c2.2 0 4.2.2 5.8.5 1.7.3 3.3.8 4.8 1.3v-.7c0-2.6-.8-4.6-2.4-5.9-1.6-1.4-3.9-2-7-2-2.4 0-4.5.2-6.3.6-1.8.4-3.7 1-5.7 1.8-1.2-3.8-1.9-5.7-3.1-9.4 2.4-1 4.9-1.9 7.5-2.5 2.6-.7 5.8-1 9.4-1 3.4 0 6.3.4 8.8 1.3 2.4.8 4.4 2 6 3.6s2.8 3.6 3.6 6 1.1 5 1.1 7.9v25.3h-12v-4.7c-1.5 1.7-3.3 3-5.5 4-1.9 1-4.5 1.5-7.5 1.5zm3.7-8.5c2.9 0 5.3-.7 7-2.1 1.8-1.4 2.6-3.3 2.6-5.5v-2.2c-1.1-.5-2.3-.9-3.6-1.2-1.3-.3-2.8-.4-4.3-.4-2.7 0-4.7.5-6.3 1.5-1.5 1-2.3 2.5-2.3 4.5v.2c0 1.7.6 3 1.9 3.9 1.4.8 3 1.3 5 1.3zm46.2 8.5c-3.1 0-6.3-.5-9.5-1.6s-6.3-2.7-9.2-5c2.1-3.3 3.2-4.9 5.3-8.1 2.4 1.7 4.8 3 7.1 3.9 2.4.9 4.6 1.3 6.6 1.3 1.8 0 3.1-.3 3.9-.9s1.3-1.4 1.3-2.4v-.2c0-.7-.2-1.2-.7-1.7s-1.2-.9-2-1.3-1.8-.7-2.9-1-2.2-.7-3.4-1.1c-1.5-.4-3.1-1-4.6-1.6s-2.9-1.4-4.2-2.4c-1.2-1-2.3-2.2-3.1-3.7-.8-1.5-1.2-3.3-1.2-5.4v-.2c0-2.2.4-4.2 1.3-5.9s2-3.2 3.4-4.4 3.1-2.1 5-2.7c1.9-.6 4-.9 6.2-.9 2.8 0 5.6.4 8.4 1.3 2.8.9 5.5 2.1 7.9 3.7-1.9 3.4-2.8 5.1-4.7 8.5-2.2-1.2-4.3-2.2-6.3-3-2.1-.7-3.9-1.1-5.5-1.1-1.5 0-2.7.3-3.4.9-.8.6-1.1 1.3-1.1 2.2v.2c0 .6.2 1.1.7 1.6s1.1.9 2 1.3c.8.4 1.8.8 2.8 1.2 1.1.4 2.2.8 3.4 1.1 1.5.5 3.1 1.1 4.6 1.8 1.6.7 3 1.5 4.2 2.5s2.3 2.2 3.1 3.6c.8 1.4 1.2 3.1 1.2 5.1v.2c0 2.4-.4 4.5-1.3 6.3-.8 1.8-2 3.2-3.5 4.4-1.5 1.1-3.3 2-5.3 2.6-2 .7-4.2.9-6.5.9zm44.7.2c-3.4 0-6.5-.6-9.4-1.8-2.9-1.2-5.4-2.8-7.4-4.8-2.1-2-3.7-4.4-4.9-7.2-1.2-2.7-1.8-5.7-1.8-8.8V60c0-3.1.6-6.1 1.8-8.8 1.2-2.7 2.8-5.1 5-7.2 2.1-2.1 4.6-3.7 7.5-4.9s6-1.8 9.4-1.8 6.5.6 9.4 1.8 5.4 2.8 7.4 4.8c2.1 2 3.7 4.4 4.9 7.2 1.2 2.7 1.8 5.7 1.8 8.8v.2c0 3.1-.6 6.1-1.8 8.8-1.2 2.7-2.8 5.1-5 7.2-2.1 2.1-4.6 3.7-7.5 4.9-2.8 1.2-6 1.8-9.4 1.8zm.2-10.7c1.8 0 3.4-.3 4.8-.9s2.6-1.5 3.5-2.6c1-1.1 1.7-2.3 2.2-3.8.5-1.4.8-3 .8-4.6V60c0-1.6-.3-3.2-.8-4.6-.5-1.4-1.3-2.7-2.4-3.8-1-1.1-2.3-2-3.7-2.6-1.4-.7-3-1-4.6-1-1.8 0-3.4.3-4.8.9-1.4.6-2.6 1.5-3.5 2.6-1 1.1-1.7 2.3-2.2 3.8-.5 1.4-.8 3-.8 4.6v.2c0 1.6.3 3.2.8 4.6.5 1.4 1.3 2.7 2.4 3.8 1 1.1 2.2 2 3.6 2.6 1.4.7 2.9 1 4.7 1zm30.2-33.9h12.4v6.2c.7-.9 1.5-1.8 2.3-2.7.8-.8 1.8-1.6 2.8-2.3s2.2-1.2 3.4-1.6c1.2-.4 2.7-.6 4.2-.6 4.7 0 8.4 1.4 10.9 4.3 2.6 2.9 3.9 6.8 3.9 11.9v28.2H430V57.3c0-2.9-.7-5.1-2-6.6s-3.1-2.2-5.5-2.2-4.3.7-5.7 2.2c-1.4 1.5-2.1 3.7-2.1 6.6v24.3h-12.4c.2-14.3.2-28.9.2-43.4zm-239.4 63.9h22.2c4.4 0 8.5.7 12.3 2.2 3.7 1.4 6.9 3.4 9.6 6 2.7 2.6 4.8 5.5 6.2 9 1.5 3.4 2.2 7.2 2.2 11.2v.2c0 4-.7 7.8-2.2 11.2-1.5 3.5-3.5 6.5-6.2 9-2.7 2.6-5.9 4.6-9.6 6-3.7 1.5-7.8 2.2-12.3 2.2h-22.2v-57zm22.2 45.7c2.5 0 4.9-.4 7-1.2s3.9-2 5.4-3.5 2.7-3.3 3.5-5.4c.8-2.1 1.3-4.4 1.3-6.9v-.2c0-2.5-.4-4.8-1.3-6.9-.8-2.1-2-3.9-3.5-5.5-1.5-1.5-3.3-2.7-5.4-3.5-2.1-.8-4.5-1.3-7-1.3h-9.7v34.4h9.7zm37.1-48.2h13v11h-13v-11zm.3 15.8h12.4V159h-12.4v-43.6zm41.3 56.9c-3.6 0-7-.4-10.3-1.2s-6.3-1.9-9-3.4c1.7-3.7 2.5-5.6 4.2-9.3 2.3 1.2 4.6 2.2 6.9 2.9s4.9 1.1 7.9 1.1c4.2 0 7.4-1 9.4-3s3.1-5 3.1-8.9v-2.1c-1.8 2.2-3.9 4-6 5.2-2.2 1.2-4.9 1.9-8.2 1.9-2.6 0-5-.4-7.3-1.3s-4.4-2.2-6.2-3.9-3.2-3.9-4.3-6.4-1.6-5.4-1.6-8.7v-.2c0-3.3.5-6.1 1.6-8.7 1.1-2.5 2.5-4.7 4.3-6.4 1.8-1.7 3.9-3.1 6.2-3.9 2.3-.9 4.7-1.3 7.2-1.3 3.4 0 6.1.6 8.3 1.9 2.2 1.2 4.1 2.8 5.8 4.6v-5.7h12.4v33.8c0 7.8-1.8 13.5-5.5 17.2-2.1 2.1-4.7 3.6-7.8 4.5-3.2.8-6.8 1.3-11.1 1.3zm1.5-27.1c1.5 0 2.9-.2 4.2-.7 1.3-.5 2.4-1.2 3.4-2.1.9-.9 1.7-2 2.2-3.2s.8-2.6.8-4.1v-.2c0-1.5-.3-2.8-.8-4.1-.5-1.2-1.3-2.3-2.2-3.2-1-.9-2.1-1.6-3.4-2.1s-2.7-.7-4.2-.7-2.9.2-4.2.7c-1.3.5-2.4 1.2-3.3 2.1-.9.9-1.7 2-2.2 3.2-.5 1.2-.8 2.6-.8 4.1v.2c0 3 1 5.5 3 7.3 1.9 1.9 4.4 2.8 7.5 2.8zm30.9-45.6h13v11h-13v-11zm.3 15.8h12.4V159h-12.4v-43.6zm37.6 44.4c-1.9 0-3.6-.2-5.2-.6-1.5-.4-2.9-1.1-4-2.2-1.1-1-2-2.4-2.6-4-.6-1.7-.9-3.8-.9-6.3V126h-5.2v-10.6h5.2v-11.2H334v11.2h10.3V126H334v18.7c0 2.8 1.3 4.2 4 4.2 2.2 0 4.2-.5 6.1-1.6v9.9c-1.3.8-2.7 1.4-4.3 1.8-1.7.6-3.5.8-5.5.8zm30.2.1c-2.1 0-4-.3-5.8-.9-1.8-.6-3.4-1.4-4.8-2.6-1.4-1.1-2.4-2.5-3.2-4.2-.8-1.7-1.2-3.6-1.2-5.7v-.2c0-2.4.4-4.4 1.3-6.2.9-1.7 2.1-3.2 3.6-4.3s3.4-2 5.5-2.6 4.5-.9 7.1-.9c2.2 0 4.2.2 5.8.5 1.7.3 3.3.8 4.8 1.3v-.7c0-2.6-.8-4.6-2.4-5.9-1.6-1.4-3.9-2-7-2-2.4 0-4.5.2-6.3.6s-3.7 1-5.7 1.8c-1.2-3.8-1.9-5.7-3.1-9.4 2.4-1 4.9-1.9 7.5-2.5 2.6-.7 5.8-1 9.4-1 3.4 0 6.3.4 8.8 1.3 2.4.8 4.4 2 6 3.6s2.8 3.6 3.6 6c.8 2.4 1.1 5 1.1 7.9v25.3h-12v-4.7c-1.5 1.7-3.3 3-5.5 4-1.9 1-4.5 1.5-7.5 1.5zm3.7-8.6c2.9 0 5.3-.7 7-2.1 1.8-1.4 2.6-3.3 2.6-5.5v-2.2c-1.1-.5-2.3-.9-3.6-1.2-1.3-.3-2.8-.4-4.3-.4-2.7 0-4.7.5-6.3 1.5-1.5 1-2.3 2.5-2.3 4.5v.2c0 1.7.6 3 1.9 3.9 1.4.9 3 1.3 5 1.3zm30.4-51.7H411V159h-12.4V99.6z"
          fill="#e14242"></path>
</svg>
