<?xml version="1.0" encoding="utf-8"?>
<!-- Generator: Adobe Illustrator 23.0.1, SVG Export Plug-In . SVG Version: 6.00 Build 0)  -->
<svg version="1.1" id="Layer_1" xmlns="http://www.w3.org/2000/svg" xmlns:xlink="http://www.w3.org/1999/xlink" x="0px" y="0px"
	 viewBox="0 0 60 50" enable-background="new 0 0 60 50" xml:space="preserve">
<path fill="#2F292B" d="M17.193,31.344c0.53,0,1.277,0.498,1.277,2.041c0,2.769-1.609,5.041-2.886,5.041
	c-0.547,0-1.244-0.432-1.343-0.896C14.407,36.004,15.336,31.344,17.193,31.344 M27.027,35.889c-0.646,0.912-1.392,1.476-1.89,1.476
	c-0.515,0-1.195-0.315-1.195-1.41c0-2.62,2.986-11.791,4.479-11.791c0.432,0,0.548,0.481,0.548,0.763
	c0,2.521-6.518,9.121-8.923,8.474c-2.637-0.713,0.299,0.797,1.178,0.797c1.608,0,8.707-5.971,8.707-9.702
	c0-1.211-0.581-1.526-0.879-1.526c-0.812,0-3.334,0.895-3.566,0.945c-0.249,0.05-0.382,0.249-0.415,0.315
	c0,0-3.93,7.563-3.93,12.125c0,2.022,1.36,2.935,2.255,2.935c1.543,0,2.97-1.211,4.13-2.753c0.613,0.613,1.161,0.879,1.957,0.879
	c1.261,0,2.04-0.713,2.985-2.339c0.945-1.625-0.182-1.177-0.614-0.547c-0.431,0.63-1.161,2.057-2.271,2.057
	c-0.564,0-1.145-0.315-1.56-0.78c1.327-2.006,2.173-4.262,2.173-4.992c0-1.127-0.597-1.408-0.911-1.408
	c-1.128,0-2.786,1.973-2.786,4.477c0,0.83,0.215,1.51,0.529,2.024V35.889z M36.68,29.487c-1.724,0-5.34,1.856-5.34,6.6
	c0,2.04,1.592,3.284,3.533,3.284c2.818,0,5.539-3.3,6.4-4.577c0.863-1.276-0.281-0.68-0.879-0.067
	c-0.597,0.615-2.354,2.804-3.963,2.804c-1.608,0-2.571-1.509-2.571-3.101c0-1.593,0.813-4.063,2.189-4.063
	c0.647,0,0.796,0.679,0.796,1.243c0,1.941-2.454,3.052-3.632,3.117c-1.177,0.067-0.696,0.647,0,0.582
	c0.697-0.067,5.805-1.045,5.805-3.881C39.019,29.967,37.626,29.487,36.68,29.487 M53.199,34.91c0,0,0.298-2.438-0.448-0.764
	c-0.547,1.244-2.322,3.052-3.201,3.052c-0.415,0-0.746-0.282-0.746-0.945c0-0.813,1.127-5.39,1.608-6.468
	c0.117-0.315-0.447-0.315-0.447-0.315l-2.372,1.293c0,0-0.315-1.326-1.924-1.326c-2.637,0-5.954,3.449-5.954,6.683
	c0,1.526,0.714,3.185,2.438,3.185c2.156,0,3.732-2.472,3.981-3.135c0,0.465-0.166,3.168,1.724,3.168
	C50.114,39.338,53.215,34.926,53.199,34.91 M45.769,30.35c0.464,0,1.078,0.463,1.078,1.359c0,1.676-1.493,5.557-3.135,5.557
	c-0.779,0-1.144-0.78-1.144-1.461C42.567,33.848,44.243,30.35,45.769,30.35 M54.575,26.236c0,0-2.721,7.445-2.721,9.951
	c0,1.16,0.35,3.166,2.173,3.166c2.189,0,4.279-2.569,4.429-2.735c0.099-0.116,0.083-0.697,0.065-1.045
	c0-0.099-0.065-0.183-0.166-0.083c-0.431,0.447-1.675,1.708-2.537,1.708c-0.68,0-1.11-0.414-1.11-1.277
	c0-1.989,2.769-9.95,2.803-10.083c0.016-0.066,0-0.199-0.15-0.166C57.162,25.722,54.575,26.236,54.575,26.236 M52.452,29.785
	c0.017-0.018-0.382,1.758-0.382,1.758l5.507-0.348l0.415-1.758C57.992,29.438,52.436,29.803,52.452,29.785 M9.034,24.876
	c-0.58,0.514-1.857,1.394-2.488,1.211c-0.265-0.68,0.646-2.289,1.111-2.82c0.183-0.199,0.581-0.564,0.581-0.547
	c-3.367,2.338-6.899,10.017-6.899,13.881c0,1.442,0.63,2.803,1.907,2.803c1.276,0,2.869-1.161,4.229-2.803
	c-0.199,1.492,0.63,2.752,1.658,2.752c1.261,0,1.825-0.612,2.107-0.778l-1.477,8.823c0,0,2.836-0.299,2.869-0.963
	c0,0,1.194-7.596,1.376-7.777c0.034,0.1,0.697,0.729,1.692,0.729c2.521,0,5.473-3.084,5.473-5.887s-0.945-4.013-2.554-4.013
	c-1.609,0-3.085,1.856-3.085,1.856s0.281-1.426,0.299-1.492c0.049-0.381-2.455,0.133-2.505,0.133s-1.477,5.423-1.625,6.302
	c-0.149,0.597-0.415,0.995-0.796,0.995c-0.382,0-0.746-0.398-0.746-1.094c0-0.697,1.773-6.7,1.773-6.7l-2.935,0.63
	c-0.713,3.35-2.372,7.463-4.015,7.463c-0.63,0-0.845-0.365-0.845-0.945C4.142,31.809,7.441,27.148,9.034,24.876"/>
<path fill="#DC202B" d="M20.743,8.309c0.381-0.448,1.077-0.498,1.509-0.1c0.448,0.382,0.497,1.078,0.116,1.509
	c-0.415,0.465-1.078,0.498-1.526,0.1C20.394,9.419,20.345,8.772,20.743,8.309 M11.057,22.487l1.294-0.514
	c1.774,1.576,0.613,4.063,0.613,4.063c2.173-1.161,5.522-5.522,3.997-7.794c0,0,6.883-6.385,10.1-15.523
	c-8.64,4.378-14.062,12.057-14.062,12.057c-2.438-1.211-6.336,2.686-7.182,4.992c0,0,2.306-1.493,4.079,0.083l-0.314,1.326
	l0.498,0.448c1.193-1.642,3.233-4.179,3.665-4.66c0.265-0.282,0.796-0.497,1.061-0.282c0.266,0.232,0.133,0.813-0.132,1.111
	c0,0-2.522,2.703-4.13,4.246L11.057,22.487z M26.249,3.516c-4.843,3.234-10.531,9.088-12.654,12.156
	c-0.78,1.178-1.957,2.272-3.118,3.616l-0.017-0.15c0.697-0.912,3.267-3.532,2.902-4.444C17.94,8.972,25.917,3.284,26.249,3.516
	 M14.474,17.596c0.132-0.182,0.149-0.398,0-0.531c-0.133-0.132-0.365-0.083-0.514,0.1c-0.598,0.68-4.76,5.506-4.562,5.688
	C9.613,23.052,14.474,17.596,14.474,17.596 M12.5,14.976c-1.575-0.199-3.434,1.21-4.743,2.72c-0.232,0.265-0.431,0.514-0.581,0.762
	c-0.066-0.232,0.183-0.663,0.399-0.912c1.325-1.509,3.184-2.869,4.759-2.653c0.166,0.016,0.332,0.05,0.465,0.099
	C12.765,15.008,12.6,14.992,12.5,14.976 M22.285,9.253c-0.018,0.083-0.066,0.149-0.134,0.232c-0.298,0.332-0.812,0.365-1.127,0.083
	c-0.133-0.099-0.216-0.249-0.249-0.381C21.257,9.485,21.837,9.502,22.285,9.253"/>
<path fill="#FFA400" d="M7.873,24.594c0.033-0.514,0.332-1.078,0.68-1.476c0.332-0.381,0.547-0.531,0.531-0.63
	c0,0-0.581,0.298-1.178,0.995c-0.414,0.464-1.095,1.675-0.912,2.139c0.48,0.133,1.592-0.713,2.007-1.177
	c0.597-0.68,0.812-1.294,0.812-1.294c-0.083-0.016-0.198,0.216-0.529,0.597C8.934,24.146,8.403,24.511,7.873,24.594"/>
</svg>
