<?xml version="1.0" encoding="utf-8"?>
<!-- Generator: Adobe Illustrator 16.0.0, SVG Export Plug-In . SVG Version: 6.00 Build 0)  -->
<!DOCTYPE svg PUBLIC "-//W3C//DTD SVG 1.1//EN" "http://www.w3.org/Graphics/SVG/1.1/DTD/svg11.dtd">
<svg version="1.1" id="Layer_1" xmlns="http://www.w3.org/2000/svg" xmlns:xlink="http://www.w3.org/1999/xlink" x="0px" y="0px"
	 width="758px" height="300px" viewBox="0 0 758 300" enable-background="new 0 0 758 300" xml:space="preserve">
<g>
	<path fill="#FFFFFF" stroke="#231F20" stroke-width="4.5788" stroke-miterlimit="10" d="M145.571,136.57
		c0,0-17.532-54.724,45.649-95.33C191.221,41.24,233.42,76.799,145.571,136.57z"/>
	<path fill="#FFFFFF" stroke="#231F20" stroke-width="4.5788" stroke-miterlimit="10" d="M155.447,126.535
		c0,0,15.689-55.281,90.785-54.127C246.232,72.408,261.695,125.38,155.447,126.535z"/>
	<g>
		
			<path fill="none" stroke="#231F20" stroke-width="4.1209" stroke-linecap="round" stroke-linejoin="round" stroke-miterlimit="10" d="
			M139.168,99.686c0,0,24.14-95.053-22.244-39.005"/>
		
			<ellipse transform="matrix(0.7487 0.6629 -0.6629 0.7487 70.4049 -64.5173)" fill="#231F20" cx="120.292" cy="60.595" rx="4.648" ry="11.858"/>
	</g>
	<g>
		<defs>
			<path id="SVGID_152_" d="M196.681,255.366c-1.224-5.24-2.431-10.463-0.425-15.327c3.953-9.584,11.209-17.145,17.171-23.177
				c15.166-15.346,28.921-43.615,17.299-77.117c-5.629-16.228-17.946-31.517-34.422-40.871
				c-17.538-9.958-39.745-13.239-62.039-5.384c-19.929,7.021-34.057,19.226-42.687,34.141
				c-10.092,17.445-12.442,38.741-4.404,61.914c5.921,17.07,16.143,30.099,29.336,38.203c26.019,15.982,41.446,12.834,52.619,14.919
				C177.123,244.158,185.609,248.729,196.681,255.366L196.681,255.366z"/>
		</defs>
		<clipPath id="SVGID_2_">
			<use xlink:href="#SVGID_152_"  overflow="visible"/>
		</clipPath>
		<g clip-path="url(#SVGID_2_)">
			<path fill-rule="evenodd" clip-rule="evenodd" fill="#231F20" d="M367.257,196.322c32.665,94.16-17.215,196.968-111.395,229.639
				C161.684,458.634,58.85,408.804,26.185,314.644C-6.48,220.484,43.402,117.676,137.58,85.005
				C231.761,52.333,334.593,102.163,367.257,196.322z"/>
			<path fill-rule="evenodd" clip-rule="evenodd" fill="#FABA37" d="M305.688,217.682c20.55,59.237-11.582,124.175-71.762,145.052
				c-60.178,20.876-125.624-10.212-146.173-69.448c-20.552-59.237,11.584-124.176,71.761-145.052
				C219.694,127.356,285.139,158.444,305.688,217.682z"/>
			<path fill-rule="evenodd" clip-rule="evenodd" fill="#231F20" d="M286.096,224.479c17.12,49.348-9.022,103.228-58.38,120.35
				c-49.357,17.123-103.251-8.992-120.37-58.34s9.023-103.228,58.38-120.35C215.085,149.016,268.977,175.131,286.096,224.479z"/>
			<path fill-rule="evenodd" clip-rule="evenodd" fill="#FABA37" d="M270.687,229.824c13.948,40.209-7.862,84.288-48.711,98.459
				c-40.847,14.17-85.271-6.932-99.221-47.141s7.863-84.289,48.711-98.459C212.314,168.513,256.737,189.615,270.687,229.824z"/>
			
				<ellipse transform="matrix(0.9448 -0.3277 0.3277 0.9448 -72.8682 78.5862)" fill-rule="evenodd" clip-rule="evenodd" fill="#231F20" cx="196.721" cy="255.483" rx="61.979" ry="59.543"/>
			
				<ellipse transform="matrix(0.9448 -0.3277 0.3277 0.9448 -72.8671 78.5848)" fill-rule="evenodd" clip-rule="evenodd" fill="#FABA37" cx="196.721" cy="255.483" rx="45.669" ry="42.03"/>
			
				<ellipse transform="matrix(0.9448 -0.3278 0.3278 0.9448 -72.8705 78.5896)" fill-rule="evenodd" clip-rule="evenodd" fill="#231F20" cx="196.72" cy="255.483" rx="29.359" ry="24.519"/>
		</g>
	</g>
	<g>
		
			<path fill="none" stroke="#231F20" stroke-width="4.1209" stroke-linecap="round" stroke-linejoin="round" stroke-miterlimit="10" d="
			M116.265,106.444c0,0-34.029-69.302-59.39-12.982"/>
		
			<ellipse transform="matrix(0.8948 0.4465 -0.4465 0.8948 47.4076 -16.8189)" fill="#231F20" cx="59.394" cy="92.189" rx="4.182" ry="10.668"/>
	</g>
	<path fill-rule="evenodd" clip-rule="evenodd" fill="none" stroke="#231F20" stroke-width="4.5788" stroke-miterlimit="10" d="
		M196.681,255.366c-1.224-5.24-2.431-10.463-0.425-15.327c3.953-9.584,11.209-17.145,17.171-23.177
		c15.166-15.346,28.921-43.615,17.299-77.117c-5.629-16.228-17.946-31.517-34.422-40.871c-17.538-9.958-39.745-13.239-62.039-5.384
		c-19.929,7.021-34.057,19.226-42.687,34.141c-10.092,17.445-12.442,38.741-4.404,61.914c5.921,17.07,16.143,30.099,29.336,38.203
		c26.019,15.982,41.446,12.834,52.619,14.919C177.123,244.158,185.609,248.729,196.681,255.366L196.681,255.366z"/>
	<g>
		<g>
			<path fill="#FFFFFF" d="M90.313,188.056c-5.468,0-10.382-3.947-13.157-7.642c-3.121-4.158-7.889-13.231-8.233-21.188
				c-0.317-7.436,0.435-11.8,5.428-15.021c1.286-0.808,3.004-1.178,5.431-1.178c2.98,0,6.665,0.556,10.566,1.144
				c4.001,0.604,8.139,1.227,11.491,1.227c3.038,0,4.449-0.53,5.099-0.975c2.963-2.069,5.8-9.091,8.803-16.524
				c4.248-10.514,9.062-22.431,17.048-28.428c8.54-6.413,12.299-7.12,16.677-7.417c0.316-0.012,0.552-0.016,0.786-0.016
				c6.716,0,12.436,3.229,16.999,9.598c8.812,12.056,5.398,30.605-7.468,40.488c-9.743,7.445-21.894,7.797-31.657,8.08
				c-6.431,0.186-11.984,0.347-14.67,2.436c-2.809,2.198-5.257,9.386-7.417,15.727c-2.528,7.422-4.917,14.432-8.626,17.218
				C95.228,187.224,92.84,188.055,90.313,188.056z"/>
			<path fill="#231F20" d="M150.251,94.327c5.904,0,10.959,2.811,15.138,8.643c7.77,10.629,5.314,27.88-7.001,37.339
				c-15.69,11.99-38.477,4.408-46.338,10.523c-6.646,5.202-9.672,28.158-16.013,32.922c-1.908,1.433-3.85,2.012-5.724,2.012
				c-4.754,0-9.074-3.728-11.327-6.727c-3.141-4.185-7.466-12.755-7.776-19.912c-0.306-7.157,0.401-10.431,4.382-12.998
				c0.935-0.587,2.393-0.812,4.189-0.812c5.838,0,15.266,2.371,22.058,2.371c2.66,0,4.916-0.364,6.393-1.376
				c8.031-5.607,12.571-34.977,25.932-45.01c8.097-6.08,11.438-6.69,15.457-6.964C149.832,94.331,150.042,94.327,150.251,94.327
				 M150.251,89.749c-0.26,0-0.521,0.004-0.783,0.013l-0.079,0.002l-0.079,0.005c-5.407,0.368-9.66,1.687-17.896,7.871
				c-8.495,6.379-13.437,18.61-17.796,29.4c-2.618,6.48-5.586,13.825-8.008,15.516c-0.054,0.037-0.889,0.552-3.771,0.552
				c-3.181,0-7.232-0.611-11.149-1.202c-3.989-0.602-7.757-1.169-10.908-1.169c-2.876,0-4.981,0.481-6.625,1.514l-0.023,0.015
				l-0.022,0.015c-6.482,4.181-6.768,10.191-6.475,17.041c0.396,9.142,5.856,18.692,8.688,22.465
				c3.108,4.138,8.678,8.557,14.989,8.557c3.032,0,5.883-0.985,8.473-2.929c4.274-3.212,6.658-10.209,9.419-18.312
				c1.853-5.438,4.39-12.884,6.667-14.667c2.083-1.62,7.795-1.785,13.319-1.945c10.092-0.292,22.651-0.655,32.977-8.545
				c13.837-10.627,17.458-30.627,7.917-43.679C164.093,93.299,157.747,89.749,150.251,89.749L150.251,89.749z"/>
		</g>
	</g>
</g>
<g>
	<path fill="#FFFFFF" d="M308.073,108.688h-4.016l-15.818-24.517h-0.286l-0.048,14.433l0.143,10.084h-3.584l0.239-9.081
		l-0.144-21.553h4.015l15.771,24.516h0.335l-0.048-24.326l3.632-0.287l-0.287,21.745L308.073,108.688z"/>
	<path fill="#FFFFFF" d="M337.87,81.639c2.246,2.58,3.369,6.293,3.369,11.135c0,5.194-1.194,9.208-3.584,12.043
		s-5.783,4.253-10.18,4.253c-4.142,0-7.344-1.338-9.605-4.015c-2.263-2.676-3.394-6.483-3.394-11.422
		c0-5.097,1.187-9.016,3.56-11.756s5.775-4.11,10.204-4.11C332.414,77.768,335.624,79.058,337.87,81.639z M318.395,93.156
		c0,8.475,3.107,12.712,9.32,12.712c6.372,0,9.558-4.141,9.558-12.425c0-4.237-0.772-7.384-2.317-9.439
		c-1.546-2.055-3.896-3.083-7.049-3.083C321.565,80.922,318.395,85,318.395,93.156z"/>
	<path fill="#FFFFFF" d="M367.858,107.78l-0.048,0.478c-1.147,0.446-2.326,0.732-3.537,0.861l-0.524-0.335
		c-2.613-3.918-4.955-7.741-7.025-11.469h-5.592v1.816l0.19,9.558h-3.87l0.239-9.224l-0.239-21.41l9.367-0.048
		c2.994,0,5.312,0.757,6.953,2.271s2.461,3.672,2.461,6.475c0,2.103-0.55,3.991-1.648,5.663c-1.099,1.673-2.652,2.972-4.659,3.896
		C362.028,99.783,364.672,103.606,367.858,107.78z M356.914,94.207c3.568-1.019,5.354-3.393,5.354-7.12
		c0-3.792-2.104-5.767-6.309-5.926l-4.637,0.144l-0.143,12.76L356.914,94.207z"/>
	<path fill="#FFFFFF" d="M389.89,81.4l-5.353-0.287h-3.105l-0.144,18.017l0.144,9.558h-3.871l0.287-9.224l-0.24-18.351h-3.105
		l-5.449,0.287l-0.238-0.383l0.287-2.963h20.788l0.287,0.382L389.89,81.4z"/>
	<path fill="#FFFFFF" d="M419.329,108.688h-3.871l0.286-9.224l-0.047-4.587l-8.604-0.144l-7.741,0.144l-0.048,4.253l0.191,9.558
		h-3.871l0.238-9.224l-0.238-21.41h3.919L399.4,91.531l8.029,0.144l8.22-0.144l-0.191-13.477h3.919l-0.191,21.076L419.329,108.688z"
		/>
	<path fill="#FFFFFF" d="M459.043,108.688l-5.975-17.778h-0.333l-6.31,17.778h-3.966l-9.75-30.634h3.823l0.526,2.963l7.455,23.417
		h0.335l6.594-18.638l-2.58-7.742h3.918l0.718,3.297l7.552,23.083h0.286l8.315-23.226l0.717-3.154h3.633l-10.992,30.634H459.043z"/>
	<path fill="#FFFFFF" d="M496.032,108.688h-17.204l0.238-9.224l-0.238-21.41h17.252l0.191,0.382l-0.287,2.964l-7.217-0.144
		l-6.069,0.096l-0.096,10.036l5.735,0.096l5.066-0.143l0.287,0.334l-0.336,2.963l-5.352-0.095l-5.448,0.047l-0.048,4.541
		l0.144,6.356l6.069,0.048l7.359-0.191l0.239,0.382L496.032,108.688z"/>
	<path fill="#FFFFFF" d="M517.012,79.25l-0.621,3.679l-0.669,0.191c-1.911-1.465-3.919-2.198-6.021-2.198
		c-1.179,0-2.206,0.239-3.083,0.717c-0.876,0.478-1.545,1.099-2.007,1.864c-0.462,0.765-0.693,1.561-0.693,2.389
		c0,0.86,0.264,1.618,0.789,2.27c0.526,0.653,1.187,1.219,1.983,1.697c0.796,0.478,1.88,1.051,3.25,1.72
		c1.721,0.797,3.105,1.537,4.157,2.222c1.052,0.686,1.951,1.553,2.701,2.605c0.747,1.051,1.122,2.326,1.122,3.823
		c0,1.593-0.43,3.059-1.29,4.396c-0.86,1.338-2.071,2.406-3.632,3.202c-1.562,0.796-3.346,1.194-5.354,1.194
		c-2.931,0-5.671-0.717-8.219-2.15l0.477-3.919l0.526-0.238c1.115,1.083,2.35,1.887,3.704,2.413
		c1.354,0.526,2.651,0.789,3.895,0.789c1.211,0,2.285-0.238,3.226-0.717c0.939-0.478,1.657-1.114,2.151-1.911
		c0.493-0.796,0.74-1.641,0.74-2.533c0-1.338-0.51-2.414-1.529-3.226s-2.564-1.697-4.636-2.652
		c-1.689-0.829-3.043-1.569-4.062-2.223c-1.02-0.652-1.896-1.497-2.628-2.533c-0.733-1.035-1.1-2.301-1.1-3.799
		c0-1.561,0.422-2.994,1.267-4.301c0.844-1.306,2.022-2.333,3.536-3.083c1.514-0.748,3.242-1.123,5.186-1.123
		C512.377,77.816,514.654,78.293,517.012,79.25z"/>
	<path fill="#FFFFFF" d="M541.289,81.4l-5.353-0.287h-3.106l-0.144,18.017l0.144,9.558h-3.871l0.287-9.224l-0.239-18.351H525.9
		l-5.448,0.287l-0.239-0.383l0.287-2.963h20.789l0.287,0.382L541.289,81.4z"/>
	<path fill="#FFFFFF" d="M313.787,128.675c3.014,3.053,4.521,7.455,4.521,13.207c0,6.815-1.753,12.053-5.259,15.716
		c-3.507,3.664-8.528,5.495-15.067,5.495c-4.097,0-8.902-0.177-14.417-0.531l0.591-11.227l-0.591-27.003l17.254-0.236
		C306.45,124.096,310.773,125.623,313.787,128.675z M304.452,152.074c0.965-1.477,1.447-3.91,1.447-7.297
		c0-2.875-0.198-5.141-0.591-6.795c-0.395-1.654-1.024-2.845-1.891-3.574c-0.867-0.729-2.068-1.094-3.604-1.094
		c-1.497,0-2.975,0.08-4.432,0.237l-0.413,16.604l0.118,3.663c2.362,0.316,4.077,0.473,5.141,0.473
		C302.078,154.289,303.486,153.55,304.452,152.074z"/>
	<path fill="#FFFFFF" d="M356.537,159.784l-0.178,1.3c-4.018,1.222-7.977,1.95-11.877,2.187l-1.122-0.945
		c-2.521-5.396-4.216-9.119-5.081-11.167h-3.96l0.414,11.404h-11.876l0.59-11.227l-0.59-27.003l18.14-0.059
		c4.292,0,7.602,1.015,9.926,3.042c2.324,2.029,3.486,4.954,3.486,8.775c0,2.245-0.562,4.354-1.684,6.322
		c-1.122,1.97-2.688,3.663-4.698,5.081C350.864,151.906,353.7,156.003,356.537,159.784z M340.73,133.757
		c-0.808-0.769-2.117-1.191-3.929-1.27l-2.128,0.176l-0.236,9.868l4.313,0.236c1.103-0.512,1.911-1.201,2.423-2.068
		c0.512-0.866,0.768-2.009,0.768-3.427C341.941,135.697,341.538,134.524,340.73,133.757z"/>
	<path fill="#FFFFFF" d="M391.397,149.799c-0.039,4.333-1.497,7.662-4.372,9.985c-2.876,2.325-6.992,3.486-12.35,3.486
		c-5.16,0-9.109-1.161-11.847-3.486c-2.738-2.323-4.048-5.652-3.93-9.985l0.178-6.086l-0.354-19.381h11.876l-0.531,23.871
		c-0.04,2.009,0.344,3.467,1.152,4.373c0.807,0.907,2.116,1.359,3.929,1.359c1.852,0,3.191-0.452,4.018-1.359
		c0.827-0.906,1.222-2.363,1.183-4.373l-0.532-23.871h12.054l-0.413,19.381L391.397,149.799z"/>
	<path fill="#FFFFFF" d="M426.17,127.435c2.305,2.107,3.457,5.111,3.457,9.011c0,3.034-0.71,5.701-2.127,8.006
		c-1.418,2.304-3.428,4.097-6.027,5.376c-2.6,1.281-5.594,1.92-8.981,1.92h-2.896l0.414,10.813h-11.876l0.591-11.227l-0.591-27.003
		l18.139-0.059C420.566,124.273,423.865,125.327,426.17,127.435z M416.48,141.201c0.491-0.924,0.738-2.117,0.738-3.574
		c0-1.733-0.414-3.003-1.241-3.812c-0.827-0.807-2.128-1.25-3.9-1.329l-2.126,0.176l-0.236,10.577l4.431,0.236
		C415.209,142.886,415.986,142.128,416.48,141.201z"/>
	<path fill="#FFFFFF" d="M450.543,162.562l-1.063-6.322l-0.06-0.177l-5.79-0.119l-4.845,0.236l-1.005,6.382h-11.581l11.581-38.229
		h14.299l10.458,38.229H450.543z M445.048,134.909h-0.708l-3.31,12.526l3.31,0.06l3.308-0.06L445.048,134.909z"/>
	<path fill="#FFFFFF" d="M489.127,162.562h-22.749l0.591-11.227l-0.591-27.003h12.054l-0.65,25.821l0.119,2.718h11.285l0.65,0.827
		L489.127,162.562z"/>
	<path fill="#FFFFFF" d="M315.412,203.672c-0.039,4.333-1.497,7.662-4.372,9.986c-2.876,2.325-6.993,3.486-12.35,3.486
		c-5.16,0-9.109-1.161-11.847-3.486c-2.738-2.324-4.048-5.652-3.93-9.986l0.178-6.086l-0.354-19.38h11.876l-0.531,23.871
		c-0.039,2.009,0.344,3.467,1.152,4.373c0.807,0.907,2.117,1.359,3.93,1.359c1.851,0,3.19-0.452,4.017-1.359
		c0.827-0.906,1.222-2.363,1.183-4.373l-0.532-23.871h12.054l-0.413,19.38L315.412,203.672z"/>
	<path fill="#FFFFFF" d="M356.832,216.435h-12.881l-10.754-20.444h-0.709l-0.059,6.618l0.473,13.826h-10.754l0.59-11.227
		l-0.59-27.002h12.88l10.755,20.444h0.709l-0.355-20.03l10.873-0.65l-0.65,25.998L356.832,216.435z"/>
	<path fill="#FFFFFF" d="M390.924,179.15l-2.009,9.395l-0.768,0.473c-1.025-0.552-2.206-0.995-3.546-1.33
		c-1.34-0.334-2.579-0.502-3.723-0.502c-2.402,0-4.135,0.7-5.199,2.098c-1.063,1.399-1.596,3.732-1.596,7.002
		c0,3.821,0.611,6.608,1.832,8.36c1.221,1.753,3.132,2.63,5.731,2.63c2.56,0,4.983-0.414,7.268-1.241l0.945,0.591l-0.945,9.336
		c-2.363,0.748-5.102,1.123-8.213,1.123c-6.343,0-11.119-1.654-14.328-4.964c-3.211-3.309-4.815-8.134-4.815-14.476
		c0-6.381,1.723-11.325,5.17-14.831c3.446-3.506,8.321-5.259,14.624-5.259C384.74,177.556,387.931,178.088,390.924,179.15z"/>
	<path fill="#FFFFFF" d="M423.659,182.431c3.032,3.289,4.55,7.927,4.55,13.915c0,6.618-1.665,11.739-4.994,15.362
		c-3.328,3.625-8.045,5.436-14.15,5.436c-5.555,0-9.849-1.664-12.881-4.993c-3.034-3.328-4.551-8.044-4.551-14.15
		c0-6.539,1.664-11.591,4.993-15.156c3.329-3.564,8.046-5.348,14.152-5.348C416.332,177.496,420.625,179.142,423.659,182.431z
		 M406.229,187.748c-0.789,0.532-1.351,1.468-1.685,2.806c-0.335,1.34-0.502,3.29-0.502,5.85c0,3.27,0.178,5.751,0.532,7.445
		c0.354,1.693,0.954,2.875,1.802,3.545c0.847,0.67,2.098,1.004,3.752,1.004c1.536,0,2.697-0.266,3.486-0.798
		c0.787-0.532,1.349-1.477,1.684-2.836c0.334-1.358,0.502-3.317,0.502-5.879c0-3.229-0.177-5.691-0.531-7.386
		c-0.354-1.693-0.956-2.875-1.802-3.545c-0.849-0.669-2.098-1.005-3.752-1.005C408.178,186.95,407.016,187.216,406.229,187.748z"/>
	<path fill="#FFFFFF" d="M467.441,216.435h-12.88l-10.755-20.444h-0.709l-0.059,6.618l0.473,13.826h-10.754l0.591-11.227
		l-0.591-27.002h12.881l10.754,20.444h0.709l-0.354-20.03l10.872-0.65l-0.65,25.998L467.441,216.435z"/>
	<path fill="#FFFFFF" d="M486.35,194.159h4.017l6.854-0.177l0.649,0.827l-0.708,8.627l-7.623-0.177h-3.427v0.769l0.473,12.408
		h-11.876l0.59-11.227l-0.59-27.002h25.525l0.65,0.828l-0.769,8.626l-9.454-0.354h-4.136L486.35,194.159z"/>
	<path fill="#FFFFFF" d="M530.781,207.808l-0.709,8.627h-26.943l0.59-11.227l-0.59-27.002h27.416l0.65,0.828l-0.769,8.626
		l-9.395-0.354h-6.086l-0.118,5.377h5.85l6.145-0.177l0.65,0.827l-0.709,8.626l-6.854-0.177h-5.318l-0.06,2.246l0.118,3.309h5.673
		l9.808-0.354L530.781,207.808z"/>
	<path fill="#FFFFFF" d="M568.773,213.658l-0.178,1.3c-4.018,1.221-7.977,1.95-11.877,2.186l-1.122-0.945
		c-2.521-5.396-4.216-9.119-5.081-11.167h-3.959l0.414,11.404h-11.877l0.592-11.227l-0.592-27.002l18.14-0.059
		c4.294,0,7.603,1.015,9.927,3.043c2.323,2.029,3.486,4.954,3.486,8.774c0,2.246-0.562,4.354-1.685,6.322
		c-1.122,1.97-2.688,3.663-4.697,5.081C563.102,205.78,565.937,209.876,568.773,213.658z M552.968,187.63
		c-0.809-0.769-2.118-1.191-3.93-1.27l-2.127,0.176l-0.235,9.868l4.312,0.236c1.103-0.512,1.91-1.201,2.422-2.068
		c0.512-0.866,0.769-2.009,0.769-3.427C554.179,189.57,553.774,188.398,552.968,187.63z"/>
	<path fill="#FFFFFF" d="M600.03,207.808l-0.709,8.627h-26.943l0.591-11.227l-0.591-27.002h27.415l0.65,0.828l-0.768,8.626
		l-9.396-0.354h-6.086l-0.117,5.377h5.849l6.146-0.177l0.65,0.827l-0.71,8.626l-6.854-0.177h-5.318l-0.059,2.246l0.118,3.309h5.672
		l9.809-0.354L600.03,207.808z"/>
	<path fill="#FFFFFF" d="M639.026,216.435h-12.881l-10.754-20.444h-0.709l-0.06,6.618l0.474,13.826h-10.754l0.591-11.227
		l-0.591-27.002h12.88l10.754,20.444h0.71l-0.354-20.03l10.871-0.65l-0.648,25.998L639.026,216.435z"/>
	<path fill="#FFFFFF" d="M673.119,179.15l-2.01,9.395l-0.768,0.473c-1.025-0.552-2.206-0.995-3.546-1.33
		c-1.339-0.334-2.58-0.502-3.722-0.502c-2.403,0-4.137,0.7-5.199,2.098c-1.064,1.399-1.596,3.732-1.596,7.002
		c0,3.821,0.609,6.608,1.832,8.36c1.22,1.753,3.131,2.63,5.73,2.63c2.561,0,4.983-0.414,7.268-1.241l0.945,0.591l-0.945,9.336
		c-2.363,0.748-5.102,1.123-8.213,1.123c-6.343,0-11.118-1.654-14.328-4.964c-3.212-3.309-4.816-8.134-4.816-14.476
		c0-6.381,1.724-11.325,5.171-14.831c3.446-3.506,8.321-5.259,14.624-5.259C666.934,177.556,670.125,178.088,673.119,179.15z"/>
	<path fill="#FFFFFF" d="M704.316,207.808l-0.709,8.627h-26.943l0.591-11.227l-0.591-27.002h27.416l0.649,0.828l-0.768,8.626
		l-9.396-0.354h-6.085l-0.118,5.377h5.85l6.145-0.177l0.65,0.827l-0.71,8.626l-6.854-0.177h-5.317l-0.059,2.246l0.117,3.309h5.672
		l9.809-0.354L704.316,207.808z"/>
</g>
</svg>
